<?xml version="1.0" encoding="utf-8"?>
<!-- Generator: Adobe Illustrator 21.1.0, SVG Export Plug-In . SVG Version: 6.00 Build 0)  -->
<svg version="1.1" id="Слой_66" xmlns="http://www.w3.org/2000/svg" xmlns:xlink="http://www.w3.org/1999/xlink" x="0px"
	 y="0px" viewBox="0 0 52 52" style="enable-background:new 0 0 52 52;" xml:space="preserve">
<title>Natsional&amp;apos;nyye kompanii</title>
<g>
	<path d="M35.7,19.5C35,20.3,35.7,19.5,35.7,19.5z"/>
	<path d="M36.4,19.6c0.3,0.2,1.4-0.5,0.1-0.6c0-0.3-0.6-0.2-0.1,0.4C36.3,19.5,36.4,19.6,36.4,19.6z"/>
	<path d="M36.5,17.6c0.9,0.3,1.2,0.1,0.7-0.4c-0.2-0.1-0.3,0-0.4,0.1c-0.1,0-0.2,0-0.2,0.1C36.6,17.5,36.4,17.5,36.5,17.6z"/>
	<path d="M36.3,16.8C36.7,16.1,36.2,16.8,36.3,16.8z"/>
	<path d="M34.7,18.8c0.1,0.1,0.3,0.4,0.5,0.1c0.3,0.3,0.6,0.3,0.7-0.1c0.1,0,0.2-0.1,0.3-0.2c0.2,0,0.3-0.1,0.3-0.3
		c0.6-0.2-0.3-0.7-0.4-0.7c-0.1,0-0.1,0.1-0.2,0.1c-0.2-0.1-0.4,0-0.4,0.2c-0.3-0.2-0.5,0.1-0.5,0.4l0,0.2
		C34.7,18.4,34.5,18.5,34.7,18.8z"/>
	<path d="M43.3,14.4C43.3,14.4,43.3,14.4,43.3,14.4c0.3,0,0.4-0.6,0.4-0.6C43,13,42.9,13.3,43.3,14.4z"/>
	<path d="M50.6,28.1c0,0-0.1,0.1,0,0.2c0,0,0,0,0,0c-0.5,0-0.3,0.4-0.1,0.3c0.3,0.6,0.4,0.5,0.4-0.2c0.2-0.1,0.1-0.3,0-0.4
		c0.3-0.4-0.1-1.3-0.4-1.6l0-0.3c0.3-0.2,0.1-0.5-0.3-0.8l0-0.3c0.3-0.4,0.2-0.6-0.3-0.7L49.5,24c0.7-0.1-0.1-0.5-0.3-0.6l-0.2-0.1
		c-0.2-0.4-0.4-0.5-0.6-0.2l0,0L47.9,22l0-0.3c0.3,0,0.3-0.2,0.1-0.5c0.4,0.2,0.5-0.2,0.3-0.8l0.2-0.2c0.6,0.1,0.6-0.2,0.2-0.7
		c0.1-0.5,0.1-0.9-0.1-1.3c0.1-0.5,0.1-0.9-0.2-1.1c0.9-0.9,0.1-1-1-0.7l-0.2,0c0.2-0.2,0.2-1.2-0.2-1.1c0,0,0-0.1,0-0.1
		c0.2,0.2,0.3-0.5,0.3-0.6l0.1-0.1l0.3,0c0.2,0.1,0.8-0.3,0.7-0.6c0.2-0.3,0.2-0.5-0.2-0.5c-0.1-0.2-0.2-0.3-0.4-0.2
		c0.1-0.1,0.1-0.2-0.1-0.3c-0.2-0.8-0.7-0.5-1.1,0.3c-0.3,0.2-0.3,0.4,0.1,0.5c-1.4-0.2-2.8,0.6-3.4,1.9c-0.6,0.3-0.7,0.6,0,0.8
		l0.2,0.1l0,0.2c-0.2,0-0.3,0-0.4,0.1c-0.5-0.4-0.6-0.3-0.5,0.3c-0.3,0.1-0.5,0.4-0.6,0.7c0,0-0.1,0.1-0.1,0.2l-0.4,0.2l-0.3-0.3
		c0.3-0.2-0.5-0.6-0.4-0.1l0,0c-0.5-0.1-1,0.8-1,1.1l-0.1,0c-0.1-0.1-0.2-0.1-0.3-0.1c-0.2,0-0.3,0-0.4,0.2c0,0-0.1,0-0.1-0.1
		c-0.4-0.3-0.8-0.3-0.8,0.4c-0.1-0.1-0.1-0.1-0.2,0c-0.3-0.4-0.8,0-1.1,0.5c-0.2,0.2-0.2,0.4,0.1,0.5c0,0.1,0,0.2,0.1,0.3
		c-0.2,0-0.3,0.2-0.3,0.4l-0.1,0c-0.3-0.2-0.5-0.1-0.5,0.3c-0.6-0.2-0.8,0-0.6,0.7l-0.2,0l-0.5-0.5c0.1-0.6-0.2-1-0.9-0.8
		c-0.5-0.3-0.7-0.1-0.6,0.5l-0.6,0.3l-0.2-0.1c0-0.4-0.4-0.4-0.8-0.2c-0.1,0-0.2,0.1-0.2,0.2c0-0.1-0.1-0.2-0.2-0.2
		c0.8-0.9-1.2-0.1-0.1,0l-0.2,0.2l0,0c0-0.2-0.1-0.3-0.3-0.3l0.3-0.6c0.3-0.8-0.1-1.4-1-1.4c-0.1,0-0.2,0.1-0.2,0.2
		c0.2-0.3,0.1-0.4-0.2-0.4c-0.5-0.6-0.8-0.3-1,0.5c-0.2,0-0.5,0-0.3,0.3c-0.1,0-0.2,0-0.2,0.1l-0.2,0c-0.3-0.3-0.6-0.3-0.7,0.1
		c-0.3,0-0.6,0.1-0.8,0.4c-0.2,0-0.4,0-0.5,0.2c-0.2-0.1-0.3-0.1-0.3,0.1c-0.3,0,0.1,0.6,0.2,0.2c0,0,0,0,0,0
		c-0.1,0.2,0,0.3,0.1,0.4l-0.1,0l-0.2,0c0-0.1,0-0.4-0.2-0.3C25,20.9,24.9,21,25,21.3l-0.1,0l-0.4,0c-0.2,0-0.2,0.2-0.2,0.4
		c-0.1-0.2-0.6,0-0.2,0.4l-0.1,0c-0.3-0.3-0.4-0.2-0.3,0.1l0,0.1c0,0-0.2-0.2-0.3-0.2c0.1-0.2,0.2-0.4,0.1-0.6
		c0.4-0.4-0.8-0.3-0.2,0c-0.1,0.1-0.1,0.2-0.1,0.3L22.8,22c-0.4,0.2-0.5,0.5-0.4,1c0,0-0.8,1-0.3,1.2c-0.3,0.2-0.3,0.4-0.3,0.7
		l-0.3,0.3c-0.2,0-0.4,0.1-0.5,0.3l-0.7-0.4v0c0.2,0.2,0.5,0.2,0.8,0.1c0.5-0.2,0.8-0.7,0.7-1.3l0.5-1.2c0.1-0.2,0.1-0.3,0-0.5
		c0.4-0.3,0.5-0.7,0.2-1.1c0.2-0.6,0.1-0.7-0.4-0.2c-0.1,0-0.3,0.1-0.3,0.2l-0.3,0.4l-0.2,0.2c-0.4,0.1-0.7,0.2-0.4,0.6l-0.1,0.3
		c-0.4,0.1-0.4,0.3-0.1,0.6c-0.1,0.2-0.1,0.3,0,0.5l-0.1,0.1l0,0c0-0.4-0.2-0.6-0.4-0.9c0-0.1-0.1-0.2-0.2-0.3
		c-0.1-0.3-0.3-0.5-0.6-0.5c0.1-1-0.9-0.5-0.4,0.1c0,0.1-0.1,0.1-0.1,0.2l0,0.2l-0.1,0.1l-0.1,0c0.3-0.4-0.6-0.4-0.7-0.4
		c-0.1-0.1-0.2-0.2-0.3-0.2l-0.4,0l0,0c0.5-0.4,0.3-0.6-0.3-0.5c-0.3-0.2-0.8-0.3-1.2-0.2c-0.2-0.1-0.4-0.1-0.6,0.2l-0.1-0.1
		c0.1-0.1,0.1-0.2,0-0.3l0.1,0c0.7-0.4,0.5-0.6-0.2-0.6c-0.4,0.1-0.5,0.3-0.6,0.6c-0.1,0-0.2,0.1-0.2,0.2c0,0,0,0,0,0
		c-0.1-0.4-0.2-0.6-0.6-0.4c-0.5-0.2-0.9-0.1-1,0.5l0,0l-0.2-0.5c-0.1,0.1,0.2-0.6-0.1-0.5l-0.3,0c0.2-0.1,0.2-0.5,0-0.4
		c-0.2,0-0.2,0.4,0,0.4c-0.2,0.2-0.3,0.4-0.1,0.7l0,0.1L11.8,21c0-0.1,0-0.2,0-0.2c0,0,0-0.1,0-0.1c0-0.1,0-0.2-0.1-0.3l0.1-0.1
		l0.3-0.4c0.3-0.1,0.5-0.3,0.5-0.7l0.1,0.1c0,0.3,0,0.5,0.2,0.7c1.1,1.1,1.6,0.7,1.6-0.8c0.1-0.5,0-1-0.3-1.4l0,0
		c0.4-0.5-0.1-0.8-1-0.8c-0.3-0.1-0.6,0.4-0.6,0.6l-0.2,0.3c-0.3-0.1-0.5,0-0.6,0.2c-0.2,0.1-0.3,0.2-0.3,0.4l-0.1,0
		c-0.1,0-0.2,0.1-0.3,0.2l-0.1,0c-0.1,0-0.2,0.3-0.2,0.4c-0.1,0.1-0.2,0.2-0.1,0.3c-0.3-0.1-0.5,0-0.5,0.4L10,20l-0.1,0L9.1,20
		c-0.1,0-0.3,0-0.4,0c-0.4-0.1-0.7,0.1-0.8,0.4c0,0-0.1,0-0.1,0c-0.2-0.2-0.4-0.3-0.6,0c-0.1,0-0.1,0-0.2,0c-0.3,0-0.5,0.2-0.6,0.4
		c-0.2-0.1-0.4,0-0.5,0.3c-0.2,0-0.3,0.1-0.3,0.3c-0.3,0.2-0.4,0.4-0.2,0.7c-0.2,0.2-0.1,0.4,0.1,0.5l0,0.1c0,0,0,0.1,0,0.1
		c0,0,0,0,0,0.1C5.1,23.1,4.9,23.5,5,24c-0.1,0-0.1,0.1-0.1,0.2l-0.1,0l-0.1-0.1c-0.1-0.3-0.3-0.3-0.4,0c-0.4,0.3-0.5,0.5-0.1,0.6
		l0.1,0.1c0,0.1,0,0.2,0.2,0.3l0.1,0l0.1,0c-0.1,0.1-0.2,0.1-0.2,0.3c-0.1,0.1-0.2,0.1-0.2,0.2c-0.2,0.1-0.2,0.3,0,0.4l0,0.2
		c-0.2,0.2-0.2,0.4-0.1,0.5c0,0.2,0.1,0.3,0.3,0.4c0,0.3,0.1,0.6,0.3,0.9c0,0,0,0.1,0.1,0.1c-0.1,0.1-0.1,0.2,0,0.3c0,0,0,0,0,0
		c-0.1,0-0.3,0-0.3,0.2c-0.2,0-0.3,0.1-0.3,0.3l-0.2,0.1c-0.5-0.4-0.9-0.4-0.9,0.1L3,29.1c-0.3-0.3-0.4-0.4-0.4,0.1
		c-0.2-0.1-0.3,0-0.5,0.1c-0.3-0.5-0.5-0.3-0.5,0.2c-0.1,0.2-0.1,0.3,0,0.4l0,0.2l0.1,0.3l0,0.3c-0.1,0.4-0.1,0.6,0.2,0.7l0,0.1
		c0,0.1,0.1,0.3,0.2,0.3c0,0.2,0.1,0.3,0.2,0.5c0,0.1,0.1,0.1,0.2,0.2c0,0.1,0,0.3,0.1,0.4c0,0.3,0.1,0.4,0.4,0.5c0,0,0,0,0,0
		c0,0.1,0,0.2,0.1,0.2l0,0.1l0,0.1C2.9,34,3,34.3,3.2,34.5l0,0.3c0,0.4,0.1,0.6,0.5,0.5c0.4,0.1,0.6-0.1,0.5-0.6l0.1-0.6
		c0.4-0.2,0.5-0.6,0.4-1l0.1-0.1c0.2,0,0.4,0,0.5-0.1c0.5,0.2,0.9,0.2,1.1-0.2c0.4-0.4,0.4-0.9,0-1.2c0.2-0.1,0.3-0.3,0.1-0.5
		c0,0,0.1,0,0.1-0.1C6.9,30.9,7,30.9,7,30.7l0.2-0.1l0.3-0.1l0.1,0.1l0,0.1c0,0.5,0.2,0.5,0.5,0.1l0.1-0.1c0.2,0.1,0.3,0,0.4-0.1
		l0,0c0.1,0.1,0.3,0.1,0.4,0l0.2-0.1c0,0.3,0.1,0.5,0.4,0.4l0,0c-0.1,0.2,0,0.3,0.2,0.4c0,0.1,0.1,0.3,0.1,0.4
		c-0.1,0.3,0,0.5,0.3,0.3l0,0.1c0,0.3,0.2,0.4,0.5,0.3h0.1l0.2,0.1c0,0.3,0.2,0.3,0.4,0.2c0,0,0.1,0.1,0.1,0.1
		c0,0.4,0.1,0.6,0.5,0.6c0.7,0.4,0.9,0.2,0.6-0.7l0-0.1c0.3,0,0.4,0,0.4-0.3l0.1,0l0.1,0c0.4,0.2,0.5,0.1,0.3-0.3l0-0.2l0.1-0.1l0,0
		c0.2,0.2,0.4,0.3,0.7,0.2c0.1,0.1,0.3,0.1,0.5,0.1c0.2,0.2,0.3,0.2,0.5,0.1c0.4,0.3,0.9,0.3,1.3,0.1H17c0.1,0.2,0.2,0.4,0.4,0.4
		c0,0,0,0,0.1,0v0.1c-0.1,0.1-0.1,0.2,0,0.3c-0.2,0.3-0.2,0.5,0.2,0.5c0,0.2,0.1,0.2,0.3,0.2l0.1,0l0,0c-0.2,0.2-0.2,0.4,0.1,0.4
		c0.2,0.1,0.4,0.1,0.5-0.1c0.1,0,0.2,0,0.3-0.1c0.1,0,0.1,0,0.2,0c-0.1,0.3,0,0.5,0.3,0.7c0,0.9,0.1,2.2,0.9,1.8
		c0.2,0.4,0.5,0.6,1,0.4l0.1,0c0,0.1,0,0.2,0.1,0.3c0,0.3,0,0.4,0.3,0.5c0,0.3,0.1,0.4,0.3,0.4c0.1,0.2,0.2,0.2,0.4,0
		c0.1,0.3,0.3,0.5,0.6,0.5c0.1,0,0.2-0.2,0.2-0.2c0.3,0.1,0.4,0,0.7-0.2l1.1-0.4l0.3,0c0.1,0.2,0.4,0.2,0.6,0.2
		c0.2,0.4,0.6,0.6,1.2,0.5c0.6,0.1,0.8-0.2,0.6-0.8l0-0.3c0.1,0,0.2-0.1,0.1-0.2c0.1,0,0.2-0.1,0.2-0.2l0.6,0.3l0.6,0.1
		c0,0.3,0.3,0.9,0.7,0.8c0.3,0,0.6-0.1,0.8-0.3c0.2,0.1,0.4,0.1,0.7,0.1c0.1,0.1,0.4,0.3,0.5,0.1c0.2,0.5,0.7,0.6,1.3,0.4
		c0.2,0.1,1.8-1.6,0.8-0.4c0.3,0.1,0.4,0,0.4-0.3l0.3-0.3h0.4c0.1,0.2,0.3,0.2,0.4,0c0.6,0.3,0.9,0.3,1-0.2c0.3-0.1,0.4-0.3,0.2-0.6
		l0.1-0.8c0.3-0.3,0.2-0.6-0.2-0.8l0.1-0.2c0.1-0.1,0.3-0.2,0.4-0.3c0.2-0.1,0.4-0.2,0.5-0.3c0.1,0.1,0.3,0.1,0.5,0.1l0.5-0.1
		c0.5,0.8,1.4,1.6,2.2,1.6c0.1,0.1,0.3,0.1,0.4,0c0.1,0.1,0.3,0.1,0.5,0.1c0.4,0.8,0.9,0.8,1.3,0.1l0.4-0.4l0.1-0.1l0.2,0.3
		c-0.1,0.3,0,0.4,0.1,0.7c-0.2,0.4-0.2,0.8,0.1,1.2c-1,0.2-1,0.7-0.2,1.4c0,0.4,0.2,0.4,0.5,0c1.2-0.1,1.7-1,1.5-2.4
		c0.3-0.7,0.2-1,0.1-1.7c0.1-0.7,0.2-0.8,0-1.4l-0.5-1l-0.1-0.2l-0.1-0.7l0.2,0.1c0.3,0.6,0.7,1.2,1.2,1.7c0,0.3,0.2,0.5,0.4,0.6
		c0.2,0.6,0.4,1.1,0.6,0.3l0-0.1c0.1,0,0.1,0,0.2,0c0.6-0.1,0.2-0.3-0.2-0.5l-0.3-0.1l-0.3-0.2c-0.1-0.3-0.2-0.5-0.3-0.8l0.2-0.1
		c0.9-0.1,0.6-0.4-0.5-0.9l-0.7-0.7c-0.1-0.5-0.4-0.8-0.8-1c-0.6-0.3-0.7-0.2-0.3,0.3l0.1,0.1l-0.1,0c-0.2,0-0.2,0.3-0.1,0.4l-0.1,0
		c-0.7-0.2-1.1,0-1.2,0.6c-0.1-0.1-0.2-0.1-0.3,0.1c-0.1-0.5-0.3-0.5-0.6-0.2l-0.2,0l0-0.2c0.4-0.6,0.5-1.3,0.5-2
		c0.2-0.3,0.2-0.6,0-0.9c0.1-0.2,0.2-0.5,0.1-0.7l0.8-0.8l0.2,0c0.2,0,0.2-0.2,0.1-0.3c0,0,0,0,0,0c0.1,0,0.2-0.1,0.2-0.2l0.1-0.1
		c0.3,0,0.4-0.2,0.2-0.5c0.2,0,0.4-0.1,0.6-0.3h0c0.2,0.7,0.5,0.3,0.6-0.4c0.5-0.4,0.6-0.6,0-0.5l-0.1-0.1l-0.1-0.8l-0.1-0.5l0-0.3
		l0.3-0.4c0.1,0,0.2,0,0.2-0.1c0.7,0.6,0.8,0.2,0.6-0.6c0.2-0.2,0.2-0.3-0.1-0.5c0.1,0.1,0.2,0.2,0.4,0.2c0,0.1,0,0.2,0.1,0.2
		c-0.2,0.3-0.2,0.6,0,0.9l0.1,0.8c0.1,0.3,0.2,0.6,0.3,1c-0.2,0.1-0.2,0.2-0.1,0.4c-0.1,0.2-0.1,0.4,0.2,0.5
		C47.9,26.5,49.1,27.6,50.6,28.1L50.6,28.1z M46.4,21l-0.1-0.1l0.1-0.2l0.1,0C46.4,20.8,46.4,20.9,46.4,21z M8.8,20.4l0.1,0l0.2,0
		l0.1,0.1v0.1c-0.1,0.1-0.1,0.2-0.1,0.4l0,0.1C9,21.2,9,21.2,9,21.3H8.8c-0.1-0.2-0.2-0.2-0.4-0.2C8.7,21,8.9,20.7,8.8,20.4z
		 M23.1,22.6l0.2,0.2L23.1,22.6l-0.1-0.2l0.1-0.1C23.1,22.4,23.1,22.5,23.1,22.6z M30.4,21.7C30.5,21.7,30.5,21.7,30.4,21.7l0,0.1
		L30.2,22L30,22.1L30.4,21.7C30.4,21.6,30.4,21.6,30.4,21.7z M47,16.7v-0.1l0.1,0C47.1,16.6,47.1,16.6,47,16.7L47,16.7z M31.1,37
		c0.1-0.1,0.1-0.1,0.1-0.2l0,0l0,0.2L31.1,37l-0.3,0.3c0,0,0,0,0,0c0,0,0,0,0,0L31.1,37z M31.5,36.5c0-0.1,0.1-0.1,0.1-0.2l0.4-0.6
		c0.1-0.2,0.2-0.6,0.3-0.8c0,0,0,0,0-0.1l0.1-0.5c0,0,0.1-0.1,0.1-0.1l0,0l0,0.1l-0.1,0.4l0,0.4l0.1,0.2l-0.1,0.1
		c-0.1,0.1-0.2,0.2-0.1,0.4l0,0.1c-0.1,0-0.2,0.1-0.2,0.2L32,36.3C31.8,36.3,31.7,36.4,31.5,36.5L31.5,36.5L31.5,36.5z M10.1,21.9
		c0.1-0.1,0.1-0.2,0-0.4l0.1-0.1l0.3-0.3l0.1,0l0,0.1l0,0.1l-0.1,0.1C10.2,21.5,10.1,21.7,10.1,21.9l0,0.1l-0.1,0
		C10,22,10,21.9,10.1,21.9C10.1,21.9,10.1,21.9,10.1,21.9z M3.3,30.6L3.3,30.6L3.3,30.6L3.3,30.6z M22.6,25.4
		C22.6,25.4,22.6,25.5,22.6,25.4L22.6,25.4L22.6,25.4z M22.8,24.8v0.1l-0.2,0.2L22.8,24.8z M47.1,15.3c-0.1,0-0.2,0-0.3,0.1
		l-0.1-0.1l0-0.1c0.1,0.1,0.2,0.1,0.3,0L47.1,15.3C47.1,15.3,47.1,15.3,47.1,15.3z M45,31.4l-0.1,0l-0.1-0.1l0.1-0.1L45,31.4z
		 M38.2,19.7L38.2,19.7v0.1V19.7z M25.2,21.4C25.2,21.4,25.2,21.4,25.2,21.4L25.2,21.4L25.2,21.4z M24.3,22.1
		C24.3,22.1,24.3,22.1,24.3,22.1c0,0.2,0.1,0.4,0.3,0.5l0.1,0.1h-0.1c0-0.3-0.1-0.4-0.3-0.5C24.2,22.1,24.2,22.1,24.3,22.1z"/>
	<path d="M51.1,29.3C50.3,29.8,51.1,29.3,51.1,29.3z"/>
	<path d="M51,30.3c-0.2,0-0.2,0.5,0,0.5C51.4,30.9,51.2,30.4,51,30.3z"/>
	<path d="M51.3,31.4l-0.1,0c-0.1-0.8-0.2,0-0.1,0C49.9,31.9,52.5,31.7,51.3,31.4z"/>
	<path d="M51.2,32.4c0-0.1-0.1-0.2-0.2-0.2C49.6,31.8,52.2,34.1,51.2,32.4z"/>
	<path d="M50.6,34.4c0-0.2,0.1-0.4,0.1-0.6c0.2-0.5,0.2-0.7-0.2-0.4c-0.2,0.2-0.3,0.4-0.2,0.7C50.3,34.1,50.6,34.7,50.6,34.4z"/>
	<path d="M50.3,34.5C50,34.3,50,34.8,50,34.9c0.1,0.5,0.2,0.7,0.3,0C50.5,34.7,50.5,34.6,50.3,34.5z"/>
	<path d="M50.8,34.7C50.2,35.1,50.9,34.8,50.8,34.7z"/>
	<path d="M48.3,21.9c0,0,0.3,2,0.1,0L48.3,21.9z"/>
	<path d="M18.1,20.2c0,0,0,0.4,0.1,0.4c0,0.2,0,0.4,0.3,0.5c0,0.1,0.1,0.2,0.2,0.2c0.4,0.2,0.5-0.2,0.3-0.8l0.1-0.3l0.2-0.2
		c0.2,0,0.4-0.1,0.5-0.3c0.1,0.1,0.3,0,0.4-0.2l0,0c0.1,0,0.1-0.1,0.1-0.1c0,0,0.1,0,0.2,0c0.1,0.1,0.2-0.1,0.3-0.2
		c0.1,0,0.2,0,0.2-0.1c0.2,0.1,0.3,0,0.4-0.2c1.3-0.1,2.6-0.3,1.2-0.7l-0.5,0c-0.2-0.2-0.3-0.3-0.5-0.1c-0.2-0.1-0.4-0.1-0.5,0.1
		c-0.1,0-0.2,0-0.3,0.1c-0.2-0.2-0.3-0.1-0.3,0.2c-0.1,0-0.2,0.1-0.2,0.2l-0.3,0.1c-0.3-0.1-0.4,0-0.3,0.3l0,0
		c-0.2-0.2-0.4-0.1-0.4,0.1l-0.1,0c-0.1,0-0.1,0.2-0.1,0.2l-0.2,0.1C18.3,19.5,18.1,19.7,18.1,20.2C18.2,20.1,18.1,20.1,18.1,20.2z"
		/>
	<path d="M16.4,21.2C16.6,21.4,17.4,20.2,16.4,21.2z"/>
	<path d="M24.2,15.2C24.2,15.3,24.8,14.7,24.2,15.2z"/>
	<path d="M21.9,14.6L21.9,14.6c-0.2,0,0,0.4,0.1,0.5c0,0.1,0.1,0.1,0.1,0.2c-0.1,0.3,0.2,0.3,0.3,0.1c0.1,0.2,0.2,0.3,0.4,0.1
		c0.1,0,0.2-0.1,0.2-0.2c0.1,0.1,0.2,0.2,0.4,0.2l0,0c-0.1-0.1-0.2-0.1-0.3,0c-0.4,0-0.4,0.1-0.1,0.3c0,0,0.1,0.1,0.1,0.1
		c0.2,0.6,0.3,0,0.2-0.1c0,0,0,0,0.1-0.1c0.2,0.2,0.3,0.2,0.5,0c0.5,0.2,0.7-0.4,0.4-0.4c-0.1,0-0.1,0.1-0.2,0.1c0,0-0.1,0-0.1,0
		c0-0.2-0.1-0.5-0.3-0.1c0,0,0,0-0.1,0c0-0.1,0-0.2,0-0.2c0.1,0,0.3,0,0.2-0.2c0.5-0.3-0.1-0.3-0.1-0.2c-0.2-0.1-0.3,0.1-0.3,0.3
		c-0.1-0.1-0.5-0.1-0.5,0.1c-0.1-0.1-0.1,0-0.2,0c-0.1-0.1-0.3,0-0.4,0.1c0,0-0.1,0-0.1-0.1c0,0,0-0.1,0-0.2l0,0
		c0.1,0.1,0.6,0.1,0.4-0.2c0.2-0.1,0.1-0.5-0.1-0.4c-0.1,0-0.1,0.1-0.1,0.2c0,0-0.1,0-0.1,0c-0.1-0.1-0.2-0.2-0.3-0.2
		C22,14.2,21.6,14.4,21.9,14.6z"/>
	<path d="M3.4,20.7c0.5,0.2,0.7-1.1,0.1-1.1c0-0.4-0.2-0.5-0.4-0.3C2.5,19.4,2.9,20.5,3.4,20.7z"/>
	<path d="M24.4,20.5C24.3,20.5,24.7,21.3,24.4,20.5z"/>
	<path d="M27.2,16.8c-0.3,0.3-0.1,0.5,0.3,0.5c-0.1,0.2,0,0.3,0.2,0.3l0.3,0.2c0.2,0.2,0.3,0.3,0.6,0.1l0,0
		c-0.2,0.5-0.2,0.9,0.3,0.5c0.4-0.1,1-0.9,0.3-1c-0.1,0-0.1,0-0.1,0.1c-0.1-0.3-0.3-0.2-0.5,0l0,0c0.1-0.1,0.1-1-0.2-0.7
		c0,0,0-0.1-0.1-0.1c0,0,0-0.1,0-0.1c0.2-0.1,0.2-0.2,0.1-0.3c-0.1-0.4-0.3-0.6-0.6-0.4l-0.1,0.1c-0.5-0.3-0.6-0.3-0.1,0.1
		c0,0.1,0,0.1,0,0.2c-0.1,0.1-0.2,0.3-0.2,0.4C27.3,16.8,27.2,16.8,27.2,16.8z"/>
	<path d="M29.5,18.6C29.9,18,29.3,18.5,29.5,18.6z"/>
	<path d="M27.9,19.5C27.6,18.7,27.8,19.5,27.9,19.5z"/>
	<path d="M26.6,19.2C27.1,18.8,26.5,19.1,26.6,19.2z"/>
	<path d="M27.6,19.4C27.2,19.4,27.9,19.3,27.6,19.4z"/>
	<path d="M25,20.3c0.3,0.1,0.4,0,0.3-0.3c0.1,0.1,0.4-0.6,0,0C25,19.8,24.9,20.1,25,20.3z"/>
	<path d="M25.1,17.1C25.2,17.2,25.6,16.4,25.1,17.1z"/>
	<path d="M25.7,16.1c0.4-0.3,0.4-0.4-0.1-0.2C25.6,16,25.7,16.1,25.7,16.1z"/>
	<path d="M1.5,29c0.3-0.3,0.2-0.6-0.2-0.8c0.3-0.5,0.3-0.9-0.2-0.8c-0.6-0.6-0.8-0.4-0.8,0.3c-0.3,0.4-0.3,0.7,0.3,0.7
		C0.7,28.4,1.3,29.3,1.5,29z"/>
</g>
</svg>
