<?xml version="1.0" encoding="utf-8"?>
<!-- Generator: Adobe Illustrator 21.1.0, SVG Export Plug-In . SVG Version: 6.00 Build 0)  -->
<svg version="1.1" id="Слой_42" xmlns="http://www.w3.org/2000/svg" xmlns:xlink="http://www.w3.org/1999/xlink" x="0px"
	 y="0px" viewBox="0 0 52 52" style="enable-background:new 0 0 52 52;" xml:space="preserve">
<style type="text/css">
	.st0{fill:none;stroke:#000000;stroke-width:2;stroke-linecap:round;stroke-linejoin:round;}
</style>
<title>Chteniye</title>
<polyline class="st0" points="29.9,6.9 29.9,34 34.2,30.2 38.5,34 38.5,5.5 "/>
<path class="st0" d="M6,8.3H2.1v36.3h16.3c2.8,0,4.8,1.9,5.7,1.9H26"/>
<path class="st0" d="M6,5.5h10.5C23.1,5.4,26,9.6,26,9.6V43c-2.3-1.3-5-2.1-7.6-2.2H6V5.5"/>
<path class="st0" d="M46,5.5H35.5C28.9,5.4,26,9.6,26,9.6V43c2.3-1.3,5-2.1,7.6-2.2H46V5.5"/>
<path class="st0" d="M46,8.3h3.8v36.3H33.6c-2.8,0-4.8,1.9-5.7,1.9H26"/>
</svg>
