<?xml version="1.0" encoding="utf-8"?>
<!-- Generator: Adobe Illustrator 21.1.0, SVG Export Plug-In . SVG Version: 6.00 Build 0)  -->
<svg version="1.1" id="Слой_77" xmlns="http://www.w3.org/2000/svg" xmlns:xlink="http://www.w3.org/1999/xlink" x="0px"
	 y="0px" viewBox="0 0 52 52" style="enable-background:new 0 0 52 52;" xml:space="preserve">
<style type="text/css">
	.st0{fill:none;stroke:#000000;stroke-width:2;stroke-linecap:round;stroke-linejoin:round;}
</style>
<title>Pakety Rostelekom (polietilen)</title>
<path class="st0" d="M8.8,2.4h34.5c0.5,0,0.9,0.4,0.9,0.9v45.3c0,0.5-0.4,0.9-0.9,0.9H8.8c-0.5,0-0.9-0.4-0.9-0.9V3.3
	C7.9,2.8,8.3,2.4,8.8,2.4z"/>
<path class="st0" d="M32.3,8.8c0,1-0.8,1.8-1.8,1.8h-9.1c-1,0-1.8-0.8-1.8-1.8S20.5,7,21.5,7h9.1C31.5,7,32.4,7.8,32.3,8.8z"/>
<path d="M29.2,41.6c-1.4,1.4-4.2,1-6.1-0.8c-0.1-0.1-0.5-0.5-0.5-0.5c-2.3-2.8-5-9.6-4.1-15.2c0.2-1.3,0.7-2.6,1.3-3.8l0,0
	c0,0.2-0.1,0.4-0.1,0.8s0,0.5,0,0.8v0.4c0.1,2.1,0.8,4,2,5.7l0.4,0.5l0.3,0.4l0.2,0.2l0.2,0.3l0.3,0.3l1.2,1.2l0.5,0.4
	c0.4,0.3,0.7,0.6,1.1,0.9c0.9,0.7,1.8,1.5,2.6,2.4C30.2,37.5,30.6,40.1,29.2,41.6 M32.6,28.6c1.6-2.3,1.7-5.3,0.4-7.8
	c-0.7-1.4-1.9-2.5-3.3-3.1l0.2,0.3l0.1,0.2c0,0.2,0.1,0.2,0.1,0.3v0.3l0.1,0.3c0,0.2,0,0.4,0,0.6s0,0.5,0,0.7v0.3l-0.1,0.7l-0.1,0.3
	l-0.3,0.8c0,0,0,0.1,0,0.1c-0.4,0.9-1,1.7-1.6,2.5c-0.1,0.1-0.3,0.3-0.4,0.5c-0.6,0.8-0.8,1.8-0.7,2.7c0.1,0.7,0.5,1.4,1.1,1.8
	c1.5,0.9,3.5,0.4,4.4-1.1L32.6,28.6z M24.4,17.4l-0.3,0.1l-0.2,0.1l-0.2,0.1L23.3,18l-0.4,0.2c-0.4,0.2-0.7,0.6-0.9,0.9
	c-0.1,0.2-0.2,0.4-0.3,0.6c-0.3,0.6-0.6,1.3-0.7,2c0,0.2-0.1,0.4-0.1,0.6c0,0.2,0,0.3,0,0.5v0.4c0.1,1.8,0.7,3.5,1.8,5
	c0-0.5,0-0.9,0-1.4c0.2-3.4,2.4-6,5-6c0.3,0,0.7,0.1,1,0.1c0-0.2,0.1-0.3,0.1-0.5c0-0.2,0-0.4,0-0.6c0-0.6-0.1-1.2-0.4-1.7
	c-0.1-0.2-0.2-0.3-0.3-0.4c-0.1-0.1-0.2-0.2-0.3-0.3c-0.1-0.1-0.2-0.1-0.4-0.2L27,17.1h-0.4h-0.3C25.7,17.1,25,17.2,24.4,17.4"/>
</svg>
