<?xml version="1.0" encoding="utf-8"?>
<!-- Generator: Adobe Illustrator 21.1.0, SVG Export Plug-In . SVG Version: 6.00 Build 0)  -->
<svg version="1.1" id="Слой_156" xmlns="http://www.w3.org/2000/svg" xmlns:xlink="http://www.w3.org/1999/xlink" x="0px"
	 y="0px" viewBox="0 0 52 52" style="enable-background:new 0 0 52 52;" xml:space="preserve">
<style type="text/css">
	.st0{fill:none;stroke:#000000;stroke-width:2;stroke-linecap:round;stroke-linejoin:round;}
</style>
<title>Trebuyetsya proyektor</title>
<circle class="st0" cx="35.8" cy="24.5" r="6"/>
<circle class="st0" cx="35.8" cy="24.5" r="3"/>
<path class="st0" d="M4.2,15.5h43.5c0.8,0,1.5,0.7,1.5,1.5v15c0,0.8-0.7,1.5-1.5,1.5H4.2c-0.8,0-1.5-0.7-1.5-1.5V17
	C2.7,16.2,3.4,15.5,4.2,15.5z"/>
<path class="st0" d="M20.7,27.5H3c-0.2,0-0.3-0.1-0.3-0.3v-5.4c0-0.2,0.1-0.3,0.3-0.3h17.7"/>
<line class="st0" x1="20.8" y1="24.5" x2="2.7" y2="24.5"/>
<path class="st0" d="M45.5,27.5H49c0.2,0,0.3-0.1,0.3-0.3v-5.4c0-0.2-0.1-0.3-0.3-0.3h-3.5"/>
<line class="st0" x1="45.5" y1="24.5" x2="49.3" y2="24.5"/>
<path class="st0" d="M5.9,33.5H10c0.1,0,0.2,0.1,0.2,0.2v2.6c0,0.1-0.1,0.2-0.2,0.2H5.9c-0.1,0-0.2-0.1-0.2-0.2v-2.6
	C5.7,33.6,5.8,33.5,5.9,33.5z"/>
<path class="st0" d="M42,33.5h4.1c0.1,0,0.2,0.1,0.2,0.2v2.6c0,0.1-0.1,0.2-0.2,0.2H42c-0.1,0-0.2-0.1-0.2-0.2v-2.6
	C41.8,33.6,41.8,33.5,42,33.5z"/>
</svg>
