<?xml version="1.0" encoding="utf-8"?>
<!-- Generator: Adobe Illustrator 21.1.0, SVG Export Plug-In . SVG Version: 6.00 Build 0)  -->
<svg version="1.1" id="Слой_76" xmlns="http://www.w3.org/2000/svg" xmlns:xlink="http://www.w3.org/1999/xlink" x="0px"
	 y="0px" viewBox="0 0 52 52" style="enable-background:new 0 0 52 52;" xml:space="preserve">
<style type="text/css">
	.st0{fill:none;stroke:#000000;stroke-width:2;stroke-linecap:round;stroke-linejoin:round;}
</style>
<title>Pakety Rostelekom (bumaga)</title>
<path class="st0" d="M4.2,13.3h43.5c0.5,0,0.9,0.4,0.9,0.9v34.5c0,0.5-0.4,0.9-0.9,0.9H4.2c-0.5,0-0.9-0.4-0.9-0.9V14.2
	C3.3,13.7,3.7,13.3,4.2,13.3z"/>
<path class="st0" d="M17.8,17.8v-7.7c0-4.5,3.7-7.7,8.2-7.7s8.2,3.2,8.2,7.7v7.7"/>
<circle cx="17.8" cy="17.8" r="1.4"/>
<circle cx="34.2" cy="17.8" r="1.4"/>
<path d="M29,43.4c-1.3,1.3-3.9,1-5.7-0.7c-0.1-0.1-0.4-0.5-0.5-0.5c-2.2-2.5-4.8-8.8-4-14.1c0.2-1.2,0.6-2.5,1.2-3.5l0,0
	c0,0.2,0,0.4-0.1,0.7s0,0.5,0,0.7v0.4c0.1,1.9,0.8,3.8,1.9,5.3l0.4,0.5l0.3,0.3l0.2,0.2l0.2,0.3l0.3,0.3l1.1,1.1l0.5,0.4
	c0.3,0.3,0.7,0.6,1,0.8c0.9,0.7,1.7,1.4,2.4,2.2C30,39.6,30.3,42.1,29,43.4 M32,31.3c1.4-2.2,1.5-5,0.3-7.3
	c-0.7-1.3-1.8-2.3-3.1-2.9l0.1,0.3l0.1,0.2c0,0.2,0.1,0.2,0.1,0.3v0.2l0.1,0.3c0,0.2,0,0.4,0,0.6s0,0.4,0,0.6V24l-0.1,0.6l-0.1,0.2
	l-0.2,0.8v0.1c-0.3,0.8-0.8,1.6-1.4,2.3c-0.1,0.1-0.2,0.3-0.3,0.4c-0.5,0.7-0.7,1.7-0.6,2.5c0.1,0.7,0.5,1.2,1,1.6
	c1.4,0.8,3.2,0.3,4.1-1.1L32,31.3z M24.4,21l-0.2,0.1l-0.2,0.1l-0.2,0.1l-0.3,0.2L23,21.8c-0.3,0.2-0.6,0.5-0.8,0.9
	c-0.1,0.2-0.2,0.4-0.3,0.5c-0.3,0.6-0.5,1.2-0.6,1.9c0,0.2,0,0.4-0.1,0.6s0,0.3,0,0.5v0.4c0.1,1.7,0.7,3.3,1.7,4.6
	c0-0.4,0-0.8,0-1.3c0.1-3.1,2.1-5.6,4.5-5.7c0.3,0,0.6,0,0.9,0.1c0-0.2,0.1-0.3,0.1-0.5c0-0.2,0-0.4,0-0.6c0-0.5-0.1-1.1-0.4-1.6
	c-0.1-0.1-0.2-0.3-0.3-0.4c-0.1-0.1-0.2-0.2-0.3-0.3c-0.1-0.1-0.2-0.1-0.4-0.2l-0.3-0.1h-0.3h-0.2C25.5,20.7,24.9,20.9,24.4,21"/>
</svg>
