<?xml version="1.0" encoding="utf-8"?>
<!-- Generator: Adobe Illustrator 21.1.0, SVG Export Plug-In . SVG Version: 6.00 Build 0)  -->
<svg version="1.1" id="Слой_68" xmlns="http://www.w3.org/2000/svg" xmlns:xlink="http://www.w3.org/1999/xlink" x="0px"
	 y="0px" viewBox="0 0 52 52" style="enable-background:new 0 0 52 52;" xml:space="preserve">
<style type="text/css">
	.st0{fill:none;stroke:#000000;stroke-width:2;stroke-linecap:round;stroke-linejoin:round;}
</style>
<title>Kompleksnyye resheniya</title>
<path class="st0" d="M36.2,49.5c0,0,4.2-10.6,4.2-19.4c0-5-1.6-8.5-3.8-10.7c-1-1-1.4-4.9-1.4-7.8c0-5.1-4.1-9.2-9.2-9.2l0,0"/>
<path class="st0" d="M15.8,49.5c0,0-4.2-10.6-4.2-19.4c0-5,1.6-8.5,3.8-10.7c1-1,1.4-4.9,1.4-7.8c0-5.1,4.1-9.2,9.2-9.2l0,0"/>
<line class="st0" x1="14.2" y1="49.5" x2="37.8" y2="49.5"/>
<line class="st0" x1="11.7" y1="31.5" x2="40.3" y2="31.5"/>
<circle class="st0" cx="26" cy="11.7" r="5.9"/>
<path class="st0" d="M26,17.6c4.1,0,6.7,4.2,6.7,7.6C29.3,25.2,26,21,26,17.6z"/>
<path class="st0" d="M26,17.6c-4.1,0-6.7,4.2-6.7,7.6C22.7,25.2,26,21,26,17.6z"/>
</svg>
