<?xml version="1.0" encoding="utf-8"?>
<!-- Generator: Adobe Illustrator 21.1.0, SVG Export Plug-In . SVG Version: 6.00 Build 0)  -->
<svg version="1.1" id="Слой_51" xmlns="http://www.w3.org/2000/svg" xmlns:xlink="http://www.w3.org/1999/xlink" x="0px"
	 y="0px" viewBox="0 0 52 52" style="enable-background:new 0 0 52 52;" xml:space="preserve">
<style type="text/css">
	.st0{fill:none;stroke:#000000;stroke-width:2;stroke-linecap:round;stroke-linejoin:round;}
</style>
<title>Tvorcheskiye initsiativy</title>
<path class="st0" d="M29.8,45.4h0.9c1.6,0,2.8-1.3,2.8-2.8c0,0,0-3.8,0-6.9s2.5-5.4,3.6-6.5C42.7,23,42.2,13.5,36,8
	s-15.6-5-21.2,1.1c-5.1,5.7-5.1,14.3-0.1,20c1.1,1.2,3.8,3.5,3.8,6.6v6.9c0,1.6,1.3,2.8,2.8,2.8h0.9v1.1c0,0.8,0.6,1.4,1.4,1.4h0
	h4.6c0.8,0,1.4-0.6,1.5-1.4L29.8,45.4z"/>
<polyline class="st0" points="26,37.6 26,22.3 21.8,19 "/>
<line class="st0" x1="26" y1="22.3" x2="30.5" y2="19"/>
<line class="st0" x1="18.6" y1="37.6" x2="33.6" y2="37.6"/>
<line class="st0" x1="22.3" y1="45.4" x2="29.8" y2="45.4"/>
</svg>
