<?xml version="1.0" encoding="utf-8"?>
<!-- Generator: Adobe Illustrator 21.1.0, SVG Export Plug-In . SVG Version: 6.00 Build 0)  -->
<svg version="1.1" id="Слой_274" xmlns="http://www.w3.org/2000/svg" xmlns:xlink="http://www.w3.org/1999/xlink" x="0px"
	 y="0px" viewBox="0 0 52 52" style="enable-background:new 0 0 52 52;" xml:space="preserve">
<style type="text/css">
	.st0{fill:none;stroke:#000000;stroke-width:2;stroke-linecap:round;stroke-linejoin:round;}
</style>
<title>Budilnik_1</title>
<circle class="st0" cx="38.7" cy="15.7" r="10"/>
<line class="st0" x1="35.7" y1="12.7" x2="38.7" y2="15.7"/>
<line class="st0" x1="38.7" y1="15.7" x2="43.2" y2="11.2"/>
<line class="st0" x1="45.7" y1="22.8" x2="47.9" y2="25.8"/>
<line class="st0" x1="29.5" y1="25.8" x2="31.7" y2="22.8"/>
<path class="st0" d="M47.4,10.9c2.2-1.4,2.8-4.4,1.4-6.6c-1.4-2.2-4.4-2.8-6.6-1.4c-1,0.7-1.8,1.7-2,3"/>
<path class="st0" d="M30,10.9c-2.2-1.4-2.8-4.4-1.4-6.6s4.4-2.8,6.6-1.4c1,0.7,1.8,1.7,2,3"/>
<path class="st0" d="M22.1,37c1.1,0.9,2.5,1.4,3.9,1.3c1.5-0.3,2.9-1,4.1-2l3.6-2.8c0.7-0.5,1.6-0.4,2.2,0.2l7.3,8
	c0.5,0.6,0.4,1.5-0.2,2c0,0,0,0,0,0c-2.2,1.9-4.7,4.4-7.6,5.6c-2.4,1.1-5.4,0.5-7.9-0.2c-1.7-0.5-3.4-1.2-5-2.1
	c-2.2-1.2-4.3-2.7-6.2-4.4c-3.6-3.3-6.8-7.1-9.4-11.2c-1.3-2.2-2.4-4.5-3.3-6.8c-0.6-1.7-1-3.5-1.2-5.3c-0.3-2.6-0.3-5.6,1.2-7.8
	c1.7-2.6,4.6-4.6,6.9-6.5c0.6-0.5,1.5-0.5,2,0.1c0,0,0,0,0,0l6.6,8.6c0.5,0.7,0.4,1.6-0.2,2.2L15.7,19c-1.2,1-2.1,2.2-2.7,3.7
	c-0.4,1.4-0.2,2.9,0.6,4.1C16.1,30.4,18.9,33.9,22.1,37z"/>
<line class="st0" x1="7.9" y1="7.4" x2="16.4" y2="18.3"/>
<line class="st0" x1="40.3" y1="46.1" x2="31" y2="35.8"/>
</svg>
