<?xml version="1.0" encoding="utf-8"?>
<!-- Generator: Adobe Illustrator 21.1.0, SVG Export Plug-In . SVG Version: 6.00 Build 0)  -->
<svg version="1.1" id="Слой_47" xmlns="http://www.w3.org/2000/svg" xmlns:xlink="http://www.w3.org/1999/xlink" x="0px"
	 y="0px" viewBox="0 0 52 52" style="enable-background:new 0 0 52 52;" xml:space="preserve">
<style type="text/css">
	.st0{fill:none;stroke:#000000;stroke-width:2;stroke-linecap:round;stroke-linejoin:round;}
</style>
<title>Goryachiye sroki</title>
<path class="st0" d="M7.7,45.3c-4.8,0-6.8-3.4-4.4-7.6L21.6,5.8c2.4-4.2,6.4-4.2,8.8,0l18.3,31.8c2.4,4.2,0.4,7.6-4.4,7.6H7.7z"/>
<path class="st0" d="M30.8,23.6c2.9,2.7,4.5,5.3,4.5,8.2c0,3.8-2.2,7.2-5.7,8.6c1.2-1.4,3.3-6.8-0.5-10.6c-0.9,2.5-2.9,8.4-2.9,8.4
	s-2.9-2-3.5-2.5c-0.4,1.6-0.3,3.3,0.2,4.9c-3.7-1.4-6.2-4.8-6.4-8.8c0-2.4,0.6-4.8,1.7-7c0.2,2.6,2.1,4.7,4.6,5.2
	c-2.7-3-2.5-8.1,0.7-11.7c1.4-1.5,3.1-2.5,5-3.1C27.4,18.3,28.2,21.1,30.8,23.6z"/>
</svg>
