<?xml version="1.0" encoding="utf-8"?>
<!-- Generator: Adobe Illustrator 21.1.0, SVG Export Plug-In . SVG Version: 6.00 Build 0)  -->
<svg version="1.1" id="Слой_181" xmlns="http://www.w3.org/2000/svg" xmlns:xlink="http://www.w3.org/1999/xlink" x="0px"
	 y="0px" viewBox="0 0 52 52" style="enable-background:new 0 0 52 52;" xml:space="preserve">
<style type="text/css">
	.st0{fill:none;stroke:#000000;stroke-width:2;stroke-linecap:round;stroke-linejoin:round;}
	.st1{fill:none;stroke:#000000;stroke-width:2;stroke-miterlimit:10;}
</style>
<title>TV dlya sfery uslug</title>
<rect x="23.3" y="38.7" class="st0" width="5.4" height="7.2"/>
<path class="st0" d="M7,6h38.1c3,0,5.4,2.4,5.4,5.4v21.8c0,3-2.4,5.4-5.4,5.4H7c-3,0-5.4-2.4-5.4-5.4V11.5C1.5,8.5,3.9,6,7,6z"/>
<line class="st1" x1="13" y1="45.9" x2="39" y2="45.9"/>
<line class="st0" x1="13" y1="45.9" x2="39" y2="45.9"/>
<path class="st0" d="M34.7,21.4c0,4.8-3.9,8.7-8.7,8.7s-8.7-3.9-8.7-8.7c0,0,0,0,0,0V16h17.4V21.4z"/>
<circle class="st0" cx="37.3" cy="20.2" r="2.6"/>
<line class="st0" x1="15.5" y1="30.5" x2="36.5" y2="30.5"/>
</svg>
