<?xml version="1.0" encoding="utf-8"?>
<!-- Generator: Adobe Illustrator 21.1.0, SVG Export Plug-In . SVG Version: 6.00 Build 0)  -->
<svg version="1.1" id="Слой_183" xmlns="http://www.w3.org/2000/svg" xmlns:xlink="http://www.w3.org/1999/xlink" x="0px"
	 y="0px" viewBox="0 0 52 52" style="enable-background:new 0 0 52 52;" xml:space="preserve">
<style type="text/css">
	.st0{fill:none;stroke:#000000;stroke-width:2;stroke-linecap:round;stroke-linejoin:round;}
	.st1{fill:none;stroke:#000000;stroke-width:2;stroke-miterlimit:10;}
	.st2{enable-background:new    ;}
</style>
<title>Veb-konferentsiya</title>
<path class="st0" d="M44.2,23c0,10.1-8.2,18.2-18.2,18.2C15.9,41.2,7.8,33,7.8,23C7.8,12.9,15.9,4.7,26,4.7l0,0
	C36.1,4.7,44.2,12.9,44.2,23L44.2,23"/>
<path class="st1" d="M44.2,23c0,10.1-8.2,18.2-18.2,18.2C15.9,41.2,7.8,33,7.8,23C7.8,12.9,15.9,4.7,26,4.7l0,0
	C36.1,4.7,44.2,12.9,44.2,23L44.2,23"/>
<circle class="st0" cx="26" cy="23" r="18.2"/>
<path class="st0" d="M36.2,38c-2.9,2-6.4,3.2-10.2,3.2c-3.6,0-7-1.1-9.9-2.9l-2.5,5c-1.2,2-0.6,4.5,1.4,5.8c0.8,0.5,1.6,0.7,2.5,0.6
	h17.2c2.3,0.2,4.4-1.6,4.6-3.9c0.1-0.8-0.1-1.7-0.5-2.4L36.2,38z"/>
<path class="st0" d="M34.1,26.2c0,4.5-3.6,8.1-8.1,8.1s-8.1-3.6-8.1-8.1s3.6-8.1,8.1-8.1C30.5,18.1,34.1,21.7,34.1,26.2L34.1,26.2"
	/>
<circle class="st0" cx="26" cy="26.2" r="8.1"/>
<g class="st2">
	<path d="M26.3,13.5c-0.9,0-1.6-0.7-1.6-1.6c0-0.9,0.7-1.6,1.6-1.6s1.6,0.7,1.6,1.6C27.9,12.7,27.2,13.5,26.3,13.5z"/>
</g>
<circle class="st0" cx="26" cy="26.2" r="2.5"/>
</svg>
