<?xml version="1.0" encoding="utf-8"?>
<!-- Generator: Adobe Illustrator 21.1.0, SVG Export Plug-In . SVG Version: 6.00 Build 0)  -->
<svg version="1.1" id="Слой_359" xmlns="http://www.w3.org/2000/svg" xmlns:xlink="http://www.w3.org/1999/xlink" x="0px"
	 y="0px" viewBox="0 0 52 52" style="enable-background:new 0 0 52 52;" xml:space="preserve">
<style type="text/css">
	.st0{fill:none;stroke:#000000;stroke-width:2;stroke-miterlimit:10;}
	.st1{fill:none;stroke:#000000;stroke-width:2;stroke-linecap:round;stroke-linejoin:round;}
</style>
<title>Pakety trafika</title>
<path class="st0" d="M28.2,21.1h19c1.4,0,2.5,1.1,2.5,2.5V34c0,1.4-1.1,2.5-2.5,2.5h-19c-1.4,0-2.5-1.1-2.5-2.5V23.6
	C25.8,22.2,26.9,21.1,28.2,21.1z"/>
<line class="st1" x1="25.4" y1="39.8" x2="50" y2="39.8"/>
<path class="st0" d="M21.9,35.6l-3.6-3.9c-0.3-0.3-0.7-0.3-1,0l-0.8,0.9l-0.7,0.8c-0.1,0.1-0.2,0.2-0.3,0.3c-0.8,0.8-1,0.9-1,0.9
	c-0.8,0.3-1.7,0.2-2.3-0.4c-0.8-0.7-1.5-1.5-2.2-2.2s-1.4-1.6-2.1-2.4c-0.4-0.6-0.6-1.3-0.5-2c0.1-0.3,0.2-0.6,0.4-0.9
	c0.2-0.2,0.3-0.4,0.5-0.7c0.1-0.1,0.2-0.2,0.2-0.3l1.5-1.7c0.3-0.3,0.3-0.8,0-1.1l-3.6-3.9c-0.3-0.3-0.7-0.3-1,0c0,0,0,0,0,0
	c-1.2,1-2.2,2.2-3.1,3.5c-0.5,1.2-0.6,2.6-0.3,3.9c0.2,0.9,0.4,1.7,0.8,2.6C3.5,29.9,4.1,31,4.8,32c0.7,1,1.5,1.9,2.3,2.8
	c0.8,0.9,1.7,1.7,2.6,2.5c0.9,0.8,1.9,1.5,3,2.1c0.9,0.5,1.9,0.8,3,1c0.9,0.2,1.8,0.1,2.6-0.2c0.6-0.3,1.2-0.7,1.7-1.3l1.4-1.4
	l0.6-0.6C22.2,36.5,22.2,36,21.9,35.6z"/>
<path class="st0" d="M11,11.6h28.4c2.1,0,3.8,1.7,3.8,3.8v5.8h-15c-1.4,0-2.4,1.1-2.4,2.5V34c0,0.5,0.1,0.9,0.4,1.3h-4.5l-3.3-3.6
	c-0.3-0.3-0.7-0.3-1,0l-0.8,0.9l-0.7,0.8c-0.1,0.1-0.2,0.2-0.3,0.3c-0.8,0.8-1,0.9-1,0.9c-0.8,0.3-1.7,0.2-2.3-0.4
	c-0.8-0.7-1.5-1.5-2.2-2.2s-1.4-1.6-2.1-2.4c-0.4-0.6-0.6-1.3-0.5-2c0.1-0.3,0.2-0.6,0.4-0.9c0.2-0.2,0.3-0.4,0.5-0.7
	c0.1-0.1,0.2-0.2,0.2-0.3l1.5-1.7c0.3-0.3,0.3-0.8,0-1.1l-2.9-3.1v-4.3C7.2,13.3,8.9,11.6,11,11.6z"/>
<line class="st0" x1="15.1" y1="33" x2="19.7" y2="37.9"/>
<line class="st0" x1="3.3" y1="20.2" x2="7.9" y2="25.2"/>
</svg>
