<?xml version="1.0" encoding="utf-8"?>
<!-- Generator: Adobe Illustrator 21.1.0, SVG Export Plug-In . SVG Version: 6.00 Build 0)  -->
<svg version="1.1" id="Слой_327" xmlns="http://www.w3.org/2000/svg" xmlns:xlink="http://www.w3.org/1999/xlink" x="0px"
	 y="0px" viewBox="0 0 52 52" style="enable-background:new 0 0 52 52;" xml:space="preserve">
<style type="text/css">
	.st0{fill:#2C2A29;}
	.st1{fill:none;stroke:#2C2A29;stroke-width:2;stroke-linecap:round;stroke-linejoin:round;}
</style>
<title>Skorost Interneta do 25 Mbits</title>
<path class="st0" d="M7.9,48H2.5c-0.5,0-0.8-0.3-0.9-0.8c0,0,0-0.1,0-0.1c0-1.4,0.6-2.7,1.7-3.6C4.9,42.2,7,41.4,7,39.7
	C7,38.8,6.4,38,5.5,37.9c-0.1,0-0.2,0-0.3,0c-0.5,0-1,0.1-1.5,0.4c-0.5,0.3-0.7,0.5-1.1,0.5c-0.5,0-0.9-0.4-0.9-0.9c0,0,0,0,0,0
	c0-0.3,0.1-0.5,0.3-0.7c0.9-0.7,2-1.1,3.2-1c1.8-0.1,3.4,1.2,3.5,3c0,0.1,0,0.3,0,0.4c0,3.4-4.4,4-5.2,6.6h4.3
	c0.5,0,0.9,0.4,0.9,0.9S8.4,48,7.9,48L7.9,48z"/>
<path class="st0" d="M13.9,48.1c-0.9,0-1.8-0.2-2.6-0.7c-0.3-0.2-0.4-0.5-0.4-0.8c0-0.5,0.4-0.8,0.8-0.8c0.2,0,0.4,0.1,0.5,0.2
	c0.5,0.4,1.1,0.5,1.7,0.5c1,0.1,1.9-0.7,2-1.8c0-0.1,0-0.2,0-0.4c0-1.4-0.7-2.1-1.7-2.1c-0.4,0-0.9,0.1-1.2,0.4
	c-0.4,0.3-0.5,0.5-0.9,0.5c-0.4,0-0.8-0.3-0.9-0.8c0-0.1,0-0.1,0-0.2l0.2-5.1c0-0.5,0.4-0.8,0.9-0.8h4c0.5,0,0.9,0.4,0.9,0.9
	c0,0.5-0.4,0.9-0.9,0.9H13l-0.1,3c0.4-0.2,0.9-0.4,1.4-0.4c2.1,0,3.4,1.3,3.4,3.6c0.1,1.9-1.3,3.6-3.3,3.7
	C14.2,48.1,14.1,48.1,13.9,48.1z"/>
<path class="st0" d="M41.5,48.7c-0.1,0.4-0.6,0.7-1,0.5c-0.4-0.1-0.7-0.6-0.5-1l0,0l4-12.4c0.1-0.4,0.6-0.7,1-0.5c0,0,0,0,0,0
	c0.4,0.1,0.6,0.6,0.5,1L41.5,48.7z"/>
<path class="st0" d="M49.7,41.5c-0.4-0.2-0.9-0.3-1.3-0.3c-1,0-1.6,0.8-1.6,2v1.4c0,1.3,0.5,2,1.6,2c0.5,0,0.9-0.1,1.4-0.3
	c0.3-0.2,0.7,0,0.9,0.3c0,0,0,0.1,0,0.1c0.2,0.4,0,0.8-0.4,0.9c-0.6,0.3-1.3,0.5-2,0.5c-2.3,0-3.2-1.5-3.2-3.6v-1.1
	c0-2,1.1-3.7,3.2-3.7c0.7,0,1.4,0.1,2,0.5c0.3,0.2,0.5,0.6,0.3,0.9c0,0,0,0,0,0C50.5,41.5,50.1,41.7,49.7,41.5
	C49.8,41.5,49.7,41.5,49.7,41.5z"/>
<path class="st0" d="M28.7,26.6c0-0.1,0-0.2,0-0.3l-2-12.9c-0.1-0.4-0.4-0.7-0.8-0.7c-0.4,0-0.7,0.3-0.8,0.7l-2,12.8
	c0,0.1,0,0.2,0,0.3c0,0.1,0,0.2,0,0.3c0,1.2,0.8,2.2,1.9,2.6c1,0.3,2,0.1,2.8-0.6c0.5-0.5,0.8-1.2,0.8-1.9
	C28.7,26.8,28.7,26.7,28.7,26.6z"/>
<path class="st0" d="M29.6,48.4c-0.5,0-0.9-0.4-0.9-0.9v-7.2l-2.6,5.5c-0.1,0.3-0.5,0.5-0.8,0.5c-0.4,0-0.7-0.2-0.8-0.5l-2.6-5.5
	v7.2c0,0.5-0.4,0.9-0.9,0.9s-0.9-0.4-0.9-0.9l0,0V37.2c0-0.5,0.4-0.9,0.9-0.9c0,0,0.1,0,0.1,0c0.4-0.1,0.8,0.2,0.9,0.6l3.4,7l3.4-7
	c0.3-0.4,0.8-0.6,1.3-0.3c0.3,0.1,0.4,0.4,0.5,0.7v10.4C30.5,48,30.1,48.4,29.6,48.4C29.6,48.4,29.6,48.4,29.6,48.4z"/>
<path class="st0" d="M37,43.3c0.1-0.5-0.1-1-0.4-1.4c-0.3-0.3-0.7-0.4-1.1-0.4c-0.4,0-0.9,0.1-1.2,0.4c-0.3,0.4-0.4,0.9-0.4,1.4V45
	c0,0.5,0.1,1,0.4,1.4c0.3,0.3,0.7,0.4,1.1,0.4c0.4,0,0.9-0.1,1.2-0.5c0.3-0.4,0.4-0.9,0.4-1.3L37,43.3L37,43.3z M32,45v-3.2
	c0-2.6,1.2-3.3,2.8-4.1c0.5-0.2,1.2-0.6,1.2-1.2v-0.5c0-0.5,0.4-0.9,0.9-0.9s0.9,0.4,0.9,0.9v0.4c0,2.1-1.8,2.4-3.1,3.2
	c-0.2,0.1-0.4,0.3-0.5,0.6c0.3-0.3,0.7-0.4,1.1-0.4c1.7-0.1,3.2,1.2,3.3,2.9c0,0.2,0,0.3,0,0.5V45c0.2,1.7-1.1,3.2-2.8,3.4
	c-0.2,0-0.4,0-0.6,0c-1.7,0.1-3.2-1.2-3.4-2.9C32,45.4,32,45.2,32,45z"/>
<path class="st1" d="M1.8,28C1.8,14.6,12.7,3.8,26,3.8c13.4,0,24.2,10.9,24.2,24.2"/>
<line class="st1" x1="1.8" y1="27.9" x2="7.6" y2="27.9"/>
<line class="st1" x1="26" y1="3.8" x2="26" y2="9.6"/>
<line class="st1" x1="9.2" y1="11.8" x2="13.4" y2="15.9"/>
<line class="st1" x1="42.7" y1="11.8" x2="38.6" y2="15.9"/>
<line class="st1" x1="50.2" y1="28" x2="44.4" y2="28"/>
</svg>
