<?xml version="1.0" encoding="utf-8"?>
<!-- Generator: Adobe Illustrator 21.1.0, SVG Export Plug-In . SVG Version: 6.00 Build 0)  -->
<svg version="1.1" id="Слой_424" xmlns="http://www.w3.org/2000/svg" xmlns:xlink="http://www.w3.org/1999/xlink" x="0px"
	 y="0px" viewBox="0 0 52 52" style="enable-background:new 0 0 52 52;" xml:space="preserve">
<style type="text/css">
	.st0{fill:none;stroke:#000000;stroke-width:4;stroke-miterlimit:10;}
	.st1{fill:none;stroke:#000000;stroke-width:2;stroke-linecap:round;stroke-linejoin:round;}
	.st2{fill:none;stroke:#000000;stroke-width:2;stroke-miterlimit:10;}
</style>
<title>Upravleniye dopolnitelnymi uslugami</title>
<path class="st0" d="M44.3,26c0,10.1-8.2,18.3-18.3,18.3S7.7,36.1,7.7,26S15.9,7.7,26,7.7S44.3,15.9,44.3,26L44.3,26z"/>
<line class="st1" x1="2.7" y1="26" x2="14.5" y2="26"/>
<line class="st1" x1="37.5" y1="26" x2="49.3" y2="26"/>
<line class="st1" x1="26" y1="2.7" x2="26" y2="14.5"/>
<line class="st1" x1="26" y1="37.5" x2="26" y2="49.3"/>
<line class="st1" x1="9.5" y1="9.5" x2="17.9" y2="17.9"/>
<line class="st1" x1="34.1" y1="34.1" x2="42.5" y2="42.5"/>
<line class="st1" x1="42.5" y1="9.5" x2="34.1" y2="17.9"/>
<line class="st1" x1="17.9" y1="34.1" x2="9.5" y2="42.5"/>
<circle class="st2" cx="26" cy="26" r="11.5"/>
<line class="st1" x1="26" y1="21.2" x2="26" y2="30.6"/>
<line class="st1" x1="30.7" y1="25.9" x2="21.3" y2="25.9"/>
</svg>
