<?xml version="1.0" encoding="utf-8"?>
<!-- Generator: Adobe Illustrator 21.1.0, SVG Export Plug-In . SVG Version: 6.00 Build 0)  -->
<svg version="1.1" id="Слой_69" xmlns="http://www.w3.org/2000/svg" xmlns:xlink="http://www.w3.org/1999/xlink" x="0px"
	 y="0px" viewBox="0 0 52 52" style="enable-background:new 0 0 52 52;" xml:space="preserve">
<style type="text/css">
	.st0{fill:none;stroke:#000000;stroke-width:2;stroke-linecap:round;stroke-linejoin:round;}
</style>
<title>Integratsiya</title>
<path class="st0" d="M7.9,49.8h36.3c-0.2-4.2-0.5-8.4-0.8-12.6l0,0c0-0.7-0.6-1.4-1.3-1.4c-0.5,0-1,0.3-1.2,0.7
	c-1,1.8-3.4,2.5-5.2,1.4c-0.6-0.3-1.1-0.8-1.4-1.4c-1.9-2.9-1.9-6.7,0-9.6c1-1.8,3.4-2.5,5.2-1.4c0.6,0.3,1.1,0.8,1.4,1.4
	c0.4,0.6,1.2,0.9,1.9,0.5c0.4-0.2,0.7-0.7,0.7-1.2l0,0c0.3-4.2,0.6-8.4,0.8-12.6c-1.8-0.1-8.4-0.5-12.7-0.8c-0.8,0-1.4-0.6-1.4-1.4
	c0-0.5,0.3-0.9,0.7-1.2c1.8-1,2.5-3.4,1.4-5.2c-0.3-0.6-0.8-1.1-1.4-1.4c-1.4-0.9-3.1-1.4-4.8-1.5c-1.7,0-3.4,0.5-4.8,1.4
	c-1.8,1-2.5,3.4-1.4,5.2c0.3,0.6,0.8,1.1,1.4,1.4c0.7,0.4,0.9,1.2,0.5,1.9c-0.2,0.4-0.7,0.7-1.2,0.7l0,0c-4.2,0.3-8.4,0.6-12.6,0.8
	c0.2,4.2,0.5,8.4,0.8,12.6l0,0c0,0.8,0.6,1.4,1.4,1.3c0.5,0,0.9-0.3,1.2-0.7c1-1.8,3.4-2.5,5.2-1.4c0.6,0.3,1.1,0.8,1.4,1.4
	c1.9,2.9,1.9,6.7,0,9.6c-1,1.8-3.4,2.5-5.2,1.4c-0.6-0.3-1.1-0.8-1.4-1.4c-0.4-0.6-1.2-0.9-1.9-0.5c-0.4,0.2-0.7,0.7-0.7,1.2l0,0
	C8.3,41.4,8.1,45.6,7.9,49.8"/>
</svg>
