<?xml version="1.0" encoding="utf-8"?>
<!-- Generator: Adobe Illustrator 21.1.0, SVG Export Plug-In . SVG Version: 6.00 Build 0)  -->
<svg version="1.1" id="Слой_125" xmlns="http://www.w3.org/2000/svg" xmlns:xlink="http://www.w3.org/1999/xlink" x="0px"
	 y="0px" viewBox="0 0 52 52" style="enable-background:new 0 0 52 52;" xml:space="preserve">
<style type="text/css">
	.st0{fill:none;stroke:#000000;stroke-width:2;stroke-linecap:round;stroke-linejoin:round;}
</style>
<title>Akterskiye studii</title>
<path class="st0" d="M47.8,45.5v-6.6c-0.1-2.6-1.7-4.9-4-6.1L30,26.7c-2.6-1-5.4-1-8,0L8.2,32.8c-2.3,1.2-3.9,3.5-4,6.1v6.6h7.2
	l1.8,5.4h25.4l1.8-5.4H47.8z"/>
<polyline class="st0" points="43.7,32.8 38,33 37.8,38.6 32.5,36.7 30.2,41.8 26,38 21.9,41.8 19.5,36.7 14.2,38.6 14,33 8.3,32.8 
	"/>
<path class="st0" d="M34,11.5v5.6c0,4.3-3.5,7.8-7.8,7.8h-0.4c-4.3,0-7.8-3.5-7.8-7.8v-5.6"/>
<polyline class="st0" points="26,5.6 14.2,1.1 16,11.5 26,11.5 "/>
<polyline class="st0" points="14.2,1.1 9.7,21 18,11.5 "/>
<ellipse transform="matrix(0.3422 -0.9396 0.9396 0.3422 -16.4028 23.7408)" class="st0" cx="8.8" cy="23.6" rx="2.7" ry="2.7"/>
<polyline class="st0" points="26,5.6 37.8,1.1 36,11.5 26,11.5 "/>
<polyline class="st0" points="37.8,1.1 42.3,21 34,11.5 "/>
<ellipse transform="matrix(0.9396 -0.3422 0.3422 0.9396 -5.4591 16.222)" class="st0" cx="43.2" cy="23.6" rx="2.7" ry="2.7"/>
</svg>
