<?xml version="1.0" encoding="utf-8"?>
<!-- Generator: Adobe Illustrator 21.1.0, SVG Export Plug-In . SVG Version: 6.00 Build 0)  -->
<svg version="1.1" id="Слой_371" xmlns="http://www.w3.org/2000/svg" xmlns:xlink="http://www.w3.org/1999/xlink" x="0px"
	 y="0px" viewBox="0 0 52 52" style="enable-background:new 0 0 52 52;" xml:space="preserve">
<style type="text/css">
	.st0{fill:none;stroke:#000000;stroke-width:2;stroke-miterlimit:10;}
	.st1{fill:none;stroke:#000000;stroke-width:2;stroke-linecap:round;stroke-linejoin:round;stroke-miterlimit:10;}
</style>
<title>Informirovaniye o sostoyanii scheta</title>
<path class="st0" d="M44.8,11.1c2.2,0,3.9,1.8,3.9,3.9c0,0,0,0,0,0v22c0,2.2-1.8,3.9-3.9,3.9H7.2c-2.2,0-3.9-1.8-3.9-3.9l0,0V15
	c0-2.2,1.8-3.9,3.9-3.9L44.8,11.1z"/>
<path class="st1" d="M4.8,12.3l18.4,15.7c1.7,1.3,4,1.3,5.7,0l18.3-15.6"/>
<path class="st1" d="M47.4,38.2L32.7,25.7 M19.3,25.6L4.6,38.1"/>
</svg>
