<?xml version="1.0" encoding="utf-8"?>
<!-- Generator: Adobe Illustrator 21.1.0, SVG Export Plug-In . SVG Version: 6.00 Build 0)  -->
<svg version="1.1" id="Слой_212" xmlns="http://www.w3.org/2000/svg" xmlns:xlink="http://www.w3.org/1999/xlink" x="0px"
	 y="0px" viewBox="0 0 52 52" style="enable-background:new 0 0 52 52;" xml:space="preserve">
<style type="text/css">
	.st0{fill:none;stroke:#000000;stroke-width:2;stroke-linecap:round;stroke-linejoin:round;}
</style>
<title>Upravleniye setevym oborudovaniyem</title>
<polyline class="st0" points="15.3,13 15.3,1.5 47.9,1.5 47.9,50.5 15.3,50.5 15.3,35.4 "/>
<polyline class="st0" points="15.3,39.6 47.9,39.6 47.9,28.7 22.4,28.7 "/>
<polyline class="st0" points="26.3,17.8 47.9,17.8 47.9,7 15.3,7 "/>
<path class="st0" d="M47.9,10.6h-9.1c-1.1-0.1-2.2-0.5-3.1-1.3l-1.1-1.1c-0.9-0.8-2-1.2-3.1-1.2H15.3"/>
<path class="st0" d="M47.9,21.5h-9.1c-1.1-0.1-2.2-0.5-3.1-1.3l-1.1-1.1c-0.9-0.8-2-1.2-3.1-1.3h-7.5"/>
<path class="st0" d="M47.9,32.3h-9.1c-1.1-0.1-2.2-0.5-3.1-1.3L34.7,30c-0.9-0.8-2-1.2-3.1-1.3h-9.2"/>
<path class="st0" d="M24.3,17.5c-0.3-0.5-0.7-0.9-1.1-1.3c-0.4-0.4-0.9-0.8-1.3-1.1L19.7,17c-0.8-0.5-1.7-0.8-2.6-1L17,13.1
	c-1.1-0.2-2.3-0.2-3.4,0L13.4,16c-0.9,0.2-1.8,0.5-2.6,1l-2.2-1.9c-0.5,0.3-0.9,0.7-1.3,1.1c-0.4,0.4-0.8,0.9-1.1,1.3l1.9,2.2
	c-0.5,0.8-0.9,1.7-1.1,2.6l-2.9,0.2c-0.2,1.1-0.2,2.3,0,3.4l2.9,0.2c0.2,0.9,0.6,1.8,1.1,2.6l-1.9,2.2c0.3,0.5,0.7,0.9,1.1,1.3
	c0.4,0.4,0.8,0.8,1.3,1.1l2.2-1.9c0.8,0.5,1.7,0.9,2.6,1.1l0.2,2.9c1.1,0.2,2.3,0.2,3.4,0l0.2-2.9c0.9-0.2,1.8-0.6,2.6-1.1l2.2,1.9
	c0.5-0.3,0.9-0.7,1.3-1.1c0.4-0.4,0.8-0.8,1.1-1.3l-1.9-2.2c0.5-0.8,0.9-1.7,1.1-2.6l2.9-0.2c0.2-1.1,0.2-2.3,0-3.4l-2.9-0.2
	c-0.2-0.9-0.6-1.8-1.1-2.6L24.3,17.5z"/>
<ellipse transform="matrix(0.707 -0.7072 0.7072 0.707 -12.6155 17.8777)" class="st0" cx="15.3" cy="24.2" rx="5.1" ry="5.1"/>
</svg>
