<?xml version="1.0" encoding="utf-8"?>
<!-- Generator: Adobe Illustrator 21.1.0, SVG Export Plug-In . SVG Version: 6.00 Build 0)  -->
<svg version="1.1" id="Слой_188" xmlns="http://www.w3.org/2000/svg" xmlns:xlink="http://www.w3.org/1999/xlink" x="0px"
	 y="0px" viewBox="0 0 52 52" style="enable-background:new 0 0 52 52;" xml:space="preserve">
<style type="text/css">
	.st0{fill:none;stroke:#000000;stroke-width:2;stroke-linecap:round;stroke-linejoin:round;}
</style>
<title>Avtomaticheskoye opoveshcheniye kliyenta</title>
<path class="st0" d="M30.9,38.8c0,0-1.5-5.2,0.2-8.7l2.8-5.9c1.3-3.4-0.5-7.2-3.9-8.5c-3.1-1.2-6.5,0.1-8.1,3l-2.8,5.9
	c-1.7,3.7-6.6,5.7-6.6,5.7L30.9,38.8"/>
<path class="st0" d="M32.1,16.3l0.4-0.7c0.3-0.9-0.2-1.8-1-2.2c-0.8-0.3-1.6,0-2,0.7l-0.4,0.7"/>
<path class="st0" d="M23.3,35.3L23,36c-0.5,0.8-1.5,1.1-2.3,0.7c-0.7-0.4-1-1.3-0.8-2.1l0.3-0.7"/>
<path class="st0" d="M33.7,31.4c2.1-0.7,3.1-3,2.4-5.1"/>
<path class="st0" d="M34.8,34.4c3.7-1.3,5.6-5.4,4.3-9.1c0,0,0,0,0,0"/>
<path class="st0" d="M16.4,23.3c-0.7-2.1,0.3-4.3,2.4-5.1"/>
<path class="st0" d="M13.5,24.4c-1.3-3.7,0.5-7.8,4.2-9.1c0,0,0,0,0,0"/>
<path class="st0" d="M11.3,40.8c8.2,8.2,21.4,8.2,29.6,0s8.2-21.4,0-29.6s-21.4-8.2-29.6,0C7.2,15.3,5,20.8,5.2,26.6v2.3"/>
<polyline class="st0" points="1.2,26.5 5.2,30.4 9.1,26.5 "/>
</svg>
