<?xml version="1.0" encoding="utf-8"?>
<!-- Generator: Adobe Illustrator 21.1.0, SVG Export Plug-In . SVG Version: 6.00 Build 0)  -->
<svg version="1.1" id="Слой_54" xmlns="http://www.w3.org/2000/svg" xmlns:xlink="http://www.w3.org/1999/xlink" x="0px"
	 y="0px" viewBox="0 0 52 52" style="enable-background:new 0 0 52 52;" xml:space="preserve">
<style type="text/css">
	.st0{fill:none;stroke:#000000;stroke-width:2;stroke-linecap:round;stroke-linejoin:round;}
</style>
<title>Sport</title>
<rect x="15.7" y="44.1" class="st0" width="20.6" height="5.2"/>
<path class="st0" d="M37.2,2.8c0,14.2-5,25.8-11.2,25.8S14.8,17,14.8,2.8H37.2z"/>
<path class="st0" d="M33.6,21.6c6.6-1.7,11.3-5.7,11.3-10.2h-8.4"/>
<path class="st0" d="M33.6,21.6c-1.2,2.3,0.9,4.4,2.7,4.4"/>
<path class="st0" d="M18.4,21.6c1.2,2.3-0.9,4.4-2.7,4.4"/>
<path class="st0" d="M18.4,21.6c-6.6-1.7-11.3-5.7-11.3-10.2h8.4"/>
<polyline class="st0" points="22.1,27 18.3,44.1 33.7,44.1 29.9,27 "/>
</svg>
