<?xml version="1.0" encoding="utf-8"?>
<!-- Generator: Adobe Illustrator 21.1.0, SVG Export Plug-In . SVG Version: 6.00 Build 0)  -->
<svg version="1.1" id="Слой_164" xmlns="http://www.w3.org/2000/svg" xmlns:xlink="http://www.w3.org/1999/xlink" x="0px"
	 y="0px" viewBox="0 0 52 52" style="enable-background:new 0 0 52 52;" xml:space="preserve">
<style type="text/css">
	.st0{fill:none;stroke:#000000;stroke-width:2;stroke-linecap:round;stroke-linejoin:round;}
</style>
<title>Nastroyka</title>
<path class="st0" d="M50.5,24.8c-0.1-0.6-0.5-1.2-1.1-1.4l-3.5-1c-0.3-1.8-0.9-3.5-1.7-5.2l2.2-2.9c0.4-0.5,0.4-1.2,0.1-1.7l-1.5-2
	c-0.4-0.5-1.1-0.7-1.7-0.5L40,11.4c-1.3-1.3-2.8-2.3-4.4-3.2l0.1-3.6c0-0.6-0.4-1.2-0.9-1.4l-2.3-0.8c-0.6-0.1-1.3,0.1-1.6,0.6l-2,3
	c-1.8-0.3-3.6-0.3-5.4,0l-2-3c-0.4-0.5-1-0.7-1.6-0.6l-2.3,0.8c-0.6,0.3-0.9,0.8-0.9,1.4l0.1,3.6c-1.6,0.9-3.1,1.9-4.5,3.2l-3.4-1.2
	C8,10,7.4,10.2,7,10.6l-1.5,2c-0.3,0.5-0.3,1.2,0.1,1.7l2.2,2.9c-0.8,1.6-1.4,3.4-1.7,5.2l-3.5,1c-0.6,0.2-1,0.7-1.1,1.4
	c0,0,0,0.5,0,1.2s0,1.2,0,1.2c0.1,0.6,0.5,1.2,1.1,1.4l3.5,1c0.3,1.8,0.9,3.5,1.7,5.2l-2.2,2.9c-0.4,0.5-0.4,1.2-0.1,1.7l1.5,2
	C7.4,41.8,8,42,8.6,41.8l3.4-1.2c1.3,1.3,2.8,2.3,4.4,3.2l-0.1,3.6c0,0.6,0.4,1.2,0.9,1.4l2.3,0.8c0.6,0.1,1.3-0.1,1.6-0.6l2-3
	c1.8,0.3,3.6,0.3,5.4,0l2,3c0.4,0.5,1,0.7,1.6,0.6l2.3-0.8c0.6-0.3,0.9-0.8,0.9-1.4l-0.1-3.6c1.6-0.9,3.1-1.9,4.5-3.2l3.4,1.2
	c0.6,0.2,1.3,0,1.7-0.5l1.5-2c0.3-0.5,0.3-1.2-0.1-1.7l-2.2-2.9c0.8-1.6,1.4-3.4,1.7-5.2l3.5-1c0.6-0.2,1-0.7,1.1-1.4
	c0,0,0-0.5,0-1.2C50.5,25.2,50.5,24.8,50.5,24.8z"/>
<circle class="st0" cx="26" cy="26" r="14.4"/>
</svg>
