<?xml version="1.0" encoding="utf-8"?>
<!-- Generator: Adobe Illustrator 21.1.0, SVG Export Plug-In . SVG Version: 6.00 Build 0)  -->
<svg version="1.1" id="Слой_317" xmlns="http://www.w3.org/2000/svg" xmlns:xlink="http://www.w3.org/1999/xlink" x="0px"
	 y="0px" viewBox="0 0 52 52" style="enable-background:new 0 0 52 52;" xml:space="preserve">
<style type="text/css">
	.st0{fill:none;stroke:#000000;stroke-width:2;stroke-linecap:round;stroke-linejoin:round;}
	.st1{fill:none;stroke:#000000;stroke-width:4;}
</style>
<title>Upravleniye balansom scheta</title>
<line class="st0" x1="34.8" y1="31.1" x2="17.3" y2="31.1"/>
<line class="st1" x1="3.3" y1="10.9" x2="48.7" y2="10.9"/>
<path class="st0" d="M42.9,32.8c-0.1-0.4-0.3-0.8-0.8-0.9l-2.4-0.7c-0.2-1.2-0.6-2.4-1.2-3.5l1.5-2c0.2-0.4,0.2-0.8,0-1.2l-1-1.4
	c-0.3-0.3-0.7-0.4-1.1-0.2l-2.3,0.8c-0.9-0.9-1.9-1.6-3-2.2l0.1-2.5c0-0.4-0.3-0.8-0.7-1l-1.6-0.5c-0.4-0.1-0.9,0.1-1.1,0.4
	l-1.4,2.1c-1.2-0.2-2.5-0.2-3.7,0l-1.5-2.1c-0.3-0.3-0.7-0.5-1.1-0.4L20,17.9c-0.4,0.2-0.7,0.6-0.7,1l0.1,2.5
	c-1.1,0.6-2.1,1.3-3,2.2L14,22.8c-0.4-0.1-0.9,0-1.1,0.3l-1,1.4c-0.2,0.4-0.2,0.8,0,1.2l1.5,2c-0.5,1.1-0.9,2.3-1.2,3.5L9.8,32
	c-0.4,0.1-0.7,0.5-0.8,0.9c0,0,0,0.3,0,0.8s0,0.8,0,0.8c0.1,0.4,0.3,0.8,0.8,0.9l2.4,0.7c0.2,1.2,0.6,2.4,1.2,3.6l-1.5,2
	c-0.2,0.4-0.2,0.8,0,1.2l1,1.4c0.3,0.3,0.8,0.4,1.1,0.2l2.4-0.8c0.9,0.9,1.9,1.6,3,2.2l-0.1,2.5c0,0.4,0.3,0.8,0.7,1l1.6,0.5
	c0.4,0.1,0.9-0.1,1.1-0.4l1.4-2.1c1.2,0.2,2.5,0.2,3.7,0l1.4,2.1c0.3,0.3,0.7,0.5,1.1,0.4l1.6-0.5c0.4-0.2,0.7-0.6,0.7-1L32.6,46
	c1.1-0.6,2.1-1.3,3-2.2l2.4,0.8c0.4,0.1,0.9,0,1.2-0.3l1-1.4c0.2-0.4,0.2-0.8,0-1.2l-1.5-2c0.5-1.1,0.9-2.3,1.2-3.6l2.4-0.7
	c0.4-0.1,0.7-0.5,0.8-0.9c0,0,0-0.3,0-0.8S42.9,32.8,42.9,32.8z"/>
<circle class="st0" cx="26" cy="33.7" r="9.2"/>
<path class="st0" d="M44.6,2H7.4c-2.2,0-4,1.8-4,4v21.1c0,2.2,1.8,4,4,4h4.9c0.2-1.2,0.6-2.3,1.1-3.4l-1.5-2c-0.2-0.4-0.2-0.8,0-1.2
	l1-1.4c0.3-0.3,0.7-0.5,1.1-0.3l2.4,0.8c0.9-0.9,1.9-1.6,3-2.2l-0.1-2.5c0-0.4,0.3-0.8,0.7-1l1.6-0.5c0.4-0.1,0.9,0.1,1.1,0.4
	l1.5,2.1c1.2-0.2,2.5-0.2,3.7,0l1.4-2.1c0.3-0.3,0.7-0.5,1.1-0.4l1.6,0.5c0.4,0.2,0.7,0.6,0.7,1l-0.1,2.5c1.1,0.6,2.1,1.3,3,2.2
	l2.3-0.8c0.4-0.1,0.8,0,1.1,0.2l1,1.4c0.2,0.4,0.2,0.8,0,1.2l-1.5,2c0.5,1.1,0.9,2.2,1.1,3.4h0h4.9c2.2,0,4-1.8,4-4V6
	C48.6,3.8,46.8,2.1,44.6,2z"/>
</svg>
