<?xml version="1.0" encoding="utf-8"?>
<!-- Generator: Adobe Illustrator 21.1.0, SVG Export Plug-In . SVG Version: 6.00 Build 0)  -->
<svg version="1.1" id="Слой_227" xmlns="http://www.w3.org/2000/svg" xmlns:xlink="http://www.w3.org/1999/xlink" x="0px"
	 y="0px" viewBox="0 0 52 52" style="enable-background:new 0 0 52 52;" xml:space="preserve">
<style type="text/css">
	.st0{fill:none;stroke:#000000;stroke-width:2;stroke-linecap:round;stroke-linejoin:round;}
</style>
<title>TSSA telefonnaya sistema servisa abonentov</title>
<path class="st0" d="M49.5,24.8c-0.1-0.6-0.5-1.1-1.1-1.3l-3.3-1c-0.3-1.7-0.9-3.4-1.6-4.9l2.1-2.7c0.4-0.5,0.4-1.1,0.1-1.7
	l-1.4-1.9c-0.4-0.5-1-0.6-1.6-0.5L39.4,12c-1.3-1.2-2.7-2.2-4.2-3.1l0.1-3.5c0-0.6-0.4-1.1-0.9-1.4l-2.2-0.7
	c-0.6-0.1-1.2,0.1-1.6,0.6l-2,2.9c-1.7-0.3-3.5-0.3-5.2,0l-2-2.9c-0.4-0.5-1-0.7-1.6-0.6l-2.2,0.7c-0.5,0.2-0.9,0.8-0.9,1.4l0.1,3.5
	c-1.6,0.8-3,1.9-4.3,3.1l-3.3-1.2c-0.6-0.2-1.2,0-1.6,0.5l-1.4,1.9C6,13.7,6,14.3,6.4,14.8l2.1,2.7c-0.8,1.6-1.3,3.2-1.6,4.9l-3.3,1
	c-0.6,0.2-1,0.7-1.1,1.3c0,0,0,0.4,0,1.2c0,0.7,0,1.2,0,1.2c0.1,0.6,0.5,1.1,1.1,1.3l3.3,1c0.3,1.7,0.9,3.4,1.6,4.9l-2.1,2.7
	C6,37.6,6,38.3,6.3,38.8l1.4,1.9c0.4,0.4,1,0.6,1.6,0.5l3.3-1.2c1.3,1.2,2.7,2.2,4.2,3.1l-0.1,3.5c0,0.6,0.4,1.1,0.9,1.4l2.2,0.7
	c0.6,0.1,1.2-0.1,1.6-0.6l2-2.9c1.7,0.3,3.5,0.3,5.2,0l2,2.9c0.4,0.5,1,0.7,1.6,0.6l2.2-0.7c0.5-0.2,0.9-0.8,0.9-1.4l-0.1-3.5
	c1.6-0.8,3-1.9,4.3-3.1l3.3,1.2c0.6,0.2,1.2,0,1.6-0.5l1.4-1.9c0.3-0.5,0.3-1.2-0.1-1.7l-2.1-2.7c0.8-1.6,1.3-3.2,1.6-4.9l3.3-1
	c0.6-0.2,1-0.7,1.1-1.3c0,0,0-0.4,0-1.2C49.5,25.3,49.5,24.8,49.5,24.8z"/>
<circle class="st0" cx="26" cy="26" r="13.8"/>
<path class="st0" d="M25.7,29.4c0.4,0.3,0.9,0.5,1.4,0.4c0.5-0.1,1-0.3,1.5-0.7l1.3-1c0.2-0.2,0.6-0.2,0.8,0.1l2.6,2.8
	c0.2,0.2,0.2,0.5,0,0.7c0,0,0,0,0,0c-0.8,0.8-1.7,1.5-2.7,2c-0.9,0.3-1.9,0.3-2.8-0.1c-0.6-0.2-1.2-0.4-1.8-0.7
	c-0.8-0.4-1.5-1-2.2-1.6c-1.3-1.2-2.4-2.5-3.3-4c-0.5-0.8-0.9-1.6-1.2-2.4c-0.2-0.6-0.3-1.2-0.4-1.9c-0.2-0.9,0-1.9,0.4-2.8
	c0.7-0.9,1.5-1.7,2.4-2.3c0.2-0.2,0.5-0.2,0.7,0.1c0,0,0,0,0,0l2.3,3c0.2,0.2,0.1,0.6-0.1,0.8l-1.2,1.1c-0.4,0.3-0.8,0.8-0.9,1.3
	c-0.1,0.5-0.1,1,0.2,1.4C23.5,27.1,24.5,28.4,25.7,29.4z"/>
</svg>
