<?xml version="1.0" encoding="utf-8"?>
<!-- Generator: Adobe Illustrator 21.1.0, SVG Export Plug-In . SVG Version: 6.00 Build 0)  -->
<svg version="1.1" id="Слой_357" xmlns="http://www.w3.org/2000/svg" xmlns:xlink="http://www.w3.org/1999/xlink" x="0px"
	 y="0px" viewBox="0 0 52 52" style="enable-background:new 0 0 52 52;" xml:space="preserve">
<style type="text/css">
	.st0{fill:none;stroke:#000000;stroke-width:2;stroke-miterlimit:10;}
	.st1{fill:none;stroke:#000000;stroke-width:2;stroke-linecap:round;stroke-miterlimit:10;}
</style>
<title>Igrovoy bezlimit</title>
<path class="st0" d="M26,26c0,0-9.6,9-14.8,9c-5,0.2-9.1-3.7-9.3-8.7c-0.2-5,3.7-9.1,8.7-9.3c0.2,0,0.4,0,0.6,0C16.4,17,26,26,26,26
	z"/>
<path class="st0" d="M26,26c0,0,9.6,9,14.8,9c5,0.2,9.1-3.7,9.3-8.7c0.2-5-3.7-9.1-8.7-9.3c-0.2,0-0.4,0-0.6,0C35.6,17,26,26,26,26z
	"/>
<line class="st1" x1="11.6" y1="22.7" x2="11.6" y2="29.3"/>
<line class="st1" x1="14.9" y1="25.7" x2="8.3" y2="25.7"/>
<path d="M38.1,21.6c0.6,0.6,0.6,1.6,0,2.2c-0.6,0.6-1.6,0.6-2.2,0c-0.6-0.6-0.6-1.6,0-2.2c0,0,0,0,0,0C36.5,21,37.5,21,38.1,21.6"/>
<path d="M44.7,28.2c0.6,0.6,0.6,1.6,0,2.2c-0.6,0.6-1.6,0.6-2.2,0c-0.6-0.6-0.6-1.6,0-2.2c0,0,0,0,0,0
	C43.1,27.6,44.1,27.6,44.7,28.2"/>
<path d="M44.7,23.8c-0.6,0.6-1.6,0.6-2.2,0c-0.6-0.6-0.6-1.6,0-2.2c0.6-0.6,1.6-0.6,2.2,0c0,0,0,0,0,0
	C45.3,22.2,45.3,23.2,44.7,23.8"/>
<path d="M38.1,30.4c-0.6,0.6-1.6,0.6-2.2,0c-0.6-0.6-0.6-1.6,0-2.2c0.6-0.6,1.6-0.6,2.2,0c0,0,0,0,0,0
	C38.7,28.8,38.7,29.8,38.1,30.4"/>
</svg>
