<?xml version="1.0" encoding="utf-8"?>
<!-- Generator: Adobe Illustrator 21.1.0, SVG Export Plug-In . SVG Version: 6.00 Build 0)  -->
<svg version="1.1" id="Слой_323" xmlns="http://www.w3.org/2000/svg" xmlns:xlink="http://www.w3.org/1999/xlink" x="0px"
	 y="0px" viewBox="0 0 52 52" style="enable-background:new 0 0 52 52;" xml:space="preserve">
<style type="text/css">
	.st0{fill:none;stroke:#000000;stroke-width:2;stroke-linecap:round;stroke-linejoin:round;}
</style>
<title>Karty oplaty uslug Rostelekom</title>
<path class="st0" d="M6.6,10.8h38.8c2.3,0,4.2,1.9,4.2,4.2v22c0,2.3-1.9,4.2-4.2,4.2H6.6c-2.3,0-4.2-1.9-4.2-4.2V15
	C2.4,12.7,4.3,10.8,6.6,10.8z"/>
<path d="M16.5,21.4c0.2-1.2,0.5-2.4,1.1-3.4H2.4v4.2h14C16.4,21.9,16.4,21.7,16.5,21.4"/>
<path d="M34.9,18c0.5,1.3,0.7,2.8,0.5,4.2h14.3V18H34.9z"/>
<path d="M28.9,37.2c-1.3,1.3-3.9,0.9-5.7-0.8c-0.1-0.1-0.4-0.5-0.5-0.5c-2.2-2.6-4.7-8.9-3.9-14.1c0.2-1.2,0.6-2.4,1.2-3.5l0,0
	c0,0.2-0.1,0.4-0.1,0.7c0,0.3,0,0.5,0,0.7v0.4c0.1,1.9,0.7,3.8,1.9,5.3l0.4,0.5l0.3,0.3l0.2,0.2l0.2,0.3l0.3,0.3l1.1,1.1l0.5,0.4
	c0.3,0.3,0.7,0.6,1,0.8c0.9,0.7,1.7,1.4,2.4,2.2C29.9,33.4,30.2,35.8,28.9,37.2 M32.1,25.1c1.5-2.2,1.6-5,0.3-7.3
	c-0.7-1.3-1.8-2.3-3.1-3l0.1,0.3l0.1,0.2c0,0.1,0.1,0.2,0.1,0.3l0,0.2l0.1,0.3c0,0.2,0,0.4,0,0.6c0,0.2,0,0.4,0,0.6l0,0.2l-0.1,0.6
	l-0.1,0.3l-0.3,0.8c0,0,0,0.1,0,0.1c-0.4,0.8-0.9,1.6-1.5,2.3c-0.1,0.1-0.2,0.3-0.3,0.4c-0.5,0.7-0.7,1.7-0.6,2.5
	c0.1,0.7,0.5,1.3,1,1.7c1.4,0.8,3.2,0.3,4.1-1.1L32.1,25.1z M24.5,14.6l-0.2,0.1L24,14.8l-0.2,0.1l-0.3,0.2l-0.3,0.2
	c-0.3,0.2-0.6,0.5-0.8,0.9c-0.1,0.2-0.2,0.4-0.3,0.5c-0.3,0.6-0.5,1.2-0.6,1.9c0,0.2-0.1,0.4-0.1,0.6c0,0.2,0,0.3,0,0.5V20
	c0.1,1.7,0.7,3.3,1.6,4.7c0-0.4,0-0.9,0-1.3c0.2-3.1,2.2-5.6,4.7-5.6c0.3,0,0.6,0.1,0.9,0.1c0-0.2,0.1-0.4,0.1-0.5
	c0-0.2,0-0.4,0-0.6c0-0.5-0.1-1.1-0.4-1.6c-0.1-0.2-0.2-0.3-0.4-0.5c-0.1-0.1-0.2-0.2-0.3-0.3c-0.1-0.1-0.2-0.1-0.4-0.2l-0.3,0h-0.3
	h-0.3C25.7,14.4,25.1,14.5,24.5,14.6"/>
</svg>
