<?xml version="1.0" encoding="utf-8"?>
<!-- Generator: Adobe Illustrator 21.1.0, SVG Export Plug-In . SVG Version: 6.00 Build 0)  -->
<svg version="1.1" id="Слой_98" xmlns="http://www.w3.org/2000/svg" xmlns:xlink="http://www.w3.org/1999/xlink" x="0px"
	 y="0px" viewBox="0 0 52 52" style="enable-background:new 0 0 52 52;" xml:space="preserve">
<style type="text/css">
	.st0{fill:none;stroke:#000000;stroke-width:2;stroke-linecap:round;stroke-linejoin:round;}
</style>
<title>Pereryv na kofe</title>
<path class="st0" d="M40.3,28.8c0,7.9-6.4,14.4-14.4,14.4s-14.4-6.4-14.4-14.4V20h28.7V28.8z"/>
<circle class="st0" cx="44.8" cy="27" r="4.5"/>
<path class="st0" d="M25.9,4.3c0,0,1.5,1.9,0,4.8s0,4.8,0,4.8"/>
<path class="st0" d="M30.1,6.7c0.7,1.1,0.7,2.5,0,3.6c-0.7,1.1-0.7,2.5,0,3.6"/>
<path class="st0" d="M21.7,6.7c0.7,1.1,0.7,2.5,0,3.6c-0.7,1.1-0.7,2.5,0,3.6"/>
<line class="st0" x1="8.3" y1="44.2" x2="43.5" y2="44.2"/>
</svg>
