<?xml version="1.0" encoding="utf-8"?>
<!-- Generator: Adobe Illustrator 21.1.0, SVG Export Plug-In . SVG Version: 6.00 Build 0)  -->
<svg version="1.1" id="Слой_205" xmlns="http://www.w3.org/2000/svg" xmlns:xlink="http://www.w3.org/1999/xlink" x="0px"
	 y="0px" viewBox="0 0 52 52" style="enable-background:new 0 0 52 52;" xml:space="preserve">
<style type="text/css">
	.st0{fill:none;stroke:#000000;stroke-width:2;stroke-linecap:round;stroke-linejoin:round;}
</style>
<title>Optika do kvartiry</title>
<path class="st0" d="M34.5,17.9L17.6,34.8c-1.9,1.9-5,1.9-6.9,0c0,0,0,0,0,0l-4-4c-1.9-1.9-1.9-5,0-6.9L17.6,13"/>
<path class="st0" d="M17.5,35l16.9-16.9c1.9-1.9,5-1.9,6.9,0l4,4c1.9,1.9,1.9,5,0,6.9L25.1,49.1"/>
<path class="st0" d="M19.7,14.3c-0.2,0.2-0.5,0.2-0.7,0c0,0,0,0,0,0l-2.8-2.8c-0.2-0.2-0.2-0.5,0-0.7l5.1-5.1c0.2-0.2,0.5-0.2,0.7,0
	c0,0,0,0,0,0l2.8,2.8c0.2,0.2,0.2,0.5,0,0.7c0,0,0,0,0,0L19.7,14.3z"/>
<rect x="22.7" y="4.3" transform="matrix(0.7069 -0.7074 0.7074 0.7069 3.4952 19.4028)" class="st0" width="4.9" height="2.4"/>
</svg>
