<?xml version="1.0" encoding="utf-8"?>
<!-- Generator: Adobe Illustrator 21.1.0, SVG Export Plug-In . SVG Version: 6.00 Build 0)  -->
<svg version="1.1" id="Слой_30" xmlns="http://www.w3.org/2000/svg" xmlns:xlink="http://www.w3.org/1999/xlink" x="0px"
	 y="0px" viewBox="0 0 52 52" style="enable-background:new 0 0 52 52;" xml:space="preserve">
<style type="text/css">
	.st0{fill:none;stroke:#000000;stroke-width:2;stroke-linecap:round;stroke-linejoin:round;}
</style>
<title>Cmena rezhima</title>
<path class="st0" d="M16,11.5c0,2.5-2,4.6-4.5,4.6s-4.6-2-4.6-4.5c0-2.5,2-4.6,4.5-4.6c0,0,0.1,0,0.1,0C14,7,16,9,16,11.5z"/>
<line class="st0" x1="11.5" y1="16.1" x2="11.5" y2="36"/>
<path class="st0" d="M30.5,11.5c0,2.5-2,4.5-4.5,4.6c-2.5,0-4.5-2-4.6-4.5S23.5,7,26,7c0,0,0,0,0,0C28.5,7,30.5,9,30.5,11.5z"/>
<path class="st0" d="M16,40.5c0,2.5-2,4.6-4.5,4.6s-4.6-2-4.6-4.5c0-2.5,2-4.6,4.5-4.6c0,0,0,0,0.1,0C14,36,16,38,16,40.5z"/>
<path class="st0" d="M30.5,40.5c0,2.5-2,4.5-4.5,4.5c-2.5,0-4.5-2-4.5-4.5c0-2.5,2-4.5,4.5-4.5c0,0,0,0,0,0
	C28.5,36,30.5,38,30.5,40.5z"/>
<line class="st0" x1="26" y1="16.1" x2="26" y2="36"/>
<path class="st0" d="M45,11.5c0,2.5-2,4.6-4.5,4.6c-2.5,0-4.6-2-4.6-4.5c0-2.5,2-4.6,4.5-4.6c0,0,0.1,0,0.1,0C43,7,45,9,45,11.5z"/>
<polyline class="st0" points="40.5,16.1 40.5,26 11.5,26 "/>
</svg>
