<?xml version="1.0" encoding="utf-8"?>
<!-- Generator: Adobe Illustrator 21.1.0, SVG Export Plug-In . SVG Version: 6.00 Build 0)  -->
<svg version="1.1" id="Слой_104" xmlns="http://www.w3.org/2000/svg" xmlns:xlink="http://www.w3.org/1999/xlink" x="0px"
	 y="0px" viewBox="0 0 52 52" style="enable-background:new 0 0 52 52;" xml:space="preserve">
<style type="text/css">
	.st0{fill:none;stroke:#000000;stroke-width:2;stroke-linecap:round;stroke-linejoin:round;}
</style>
<title>Perspektivy</title>
<polyline class="st0" points="42.8,35.5 42.8,42.2 2.8,42.2 2.8,15.5 26.7,15.5 "/>
<path class="st0" d="M2.8,25.8l1,1.9c0.5,1,2.2,1.9,3.8,1.9H37"/>
<circle class="st0" cx="22.8" cy="24.4" r="1.9"/>
<path class="st0" d="M16.1,15.5v-2.6c0.1-1.5,1.4-2.7,2.9-2.6h7.4c1.6,0,3,0.6,3,1.3V13"/>
<polyline class="st0" points="37.9,19.4 47.8,29.3 44.2,33 34.3,23 "/>
<line class="st0" x1="37.1" y1="22.3" x2="46" y2="31.1"/>
<polygon class="st0" points="30.1,15.3 34.3,23 37.1,22.3 37.9,19.4 "/>
<polyline class="st0" points="44.2,33 46.5,35.2 50.1,31.6 47.8,29.3 "/>
</svg>
