<?xml version="1.0" encoding="utf-8"?>
<!-- Generator: Adobe Illustrator 21.1.0, SVG Export Plug-In . SVG Version: 6.00 Build 0)  -->
<svg version="1.1" id="Слой_423" xmlns="http://www.w3.org/2000/svg" xmlns:xlink="http://www.w3.org/1999/xlink" x="0px"
	 y="0px" viewBox="0 0 52 52" style="enable-background:new 0 0 52 52;" xml:space="preserve">
<style type="text/css">
	.st0{fill:none;stroke:#000000;stroke-width:2;stroke-linecap:round;stroke-linejoin:round;stroke-miterlimit:10;}
</style>
<title>Zaryadis nastroyeniyem</title>
<rect x="19.9" y="41.5" width="2.5" height="6.2"/>
<path class="st0" d="M14.2,40.1h4.3c0.5,0,1,0.4,1,1v7.1c0,0.5-0.4,1-1,1h-4.3c-0.5,0-1-0.4-1-1v-7.1C13.3,40.6,13.7,40.1,14.2,40.1
	z"/>
<line class="st0" x1="13.2" y1="47.1" x2="8.5" y2="47.1"/>
<line class="st0" x1="13.2" y1="42.2" x2="8.5" y2="42.2"/>
<path class="st0" d="M27.5,35.5v7.8c0,0.7-0.4,1.3-0.9,1.3h-5.7"/>
<circle class="st0" cx="26.2" cy="19.2" r="16.3"/>
<path class="st0" d="M16,19.5c0,5.6,4.6,10.2,10.2,10.2s10.2-4.6,10.2-10.2"/>
<path class="st0" d="M20.9,11.2c-1.3,0.1-2.3,1.2-2.2,2.5c0.1,1.3,1.2,2.3,2.5,2.2s2.2-1.1,2.2-2.4"/>
<path class="st0" d="M32.4,11.2c-1.3,0.1-2.3,1.2-2.2,2.5c0.1,1.3,1.2,2.3,2.5,2.2s2.2-1.1,2.2-2.4"/>
</svg>
