<?xml version="1.0" encoding="utf-8"?>
<!-- Generator: Adobe Illustrator 21.1.0, SVG Export Plug-In . SVG Version: 6.00 Build 0)  -->
<svg version="1.1" id="Слой_306" xmlns="http://www.w3.org/2000/svg" xmlns:xlink="http://www.w3.org/1999/xlink" x="0px"
	 y="0px" viewBox="0 0 52 52" style="enable-background:new 0 0 52 52;" xml:space="preserve">
<style type="text/css">
	.st0{fill:none;stroke:#000000;stroke-width:2;stroke-miterlimit:10;}
	.st1{fill:none;stroke:#231F20;stroke-width:2;stroke-miterlimit:10;}
	.st2{fill:none;stroke:#000000;stroke-width:2;stroke-linecap:round;stroke-linejoin:round;stroke-miterlimit:10;}
</style>
<title>Popolneniye transportnykh kart</title>
<path d="M4.7,15.9h1.5v8.7H4.7c-0.8,0-1.5-0.6-1.5-1.5l0,0v-5.8C3.2,16.5,3.9,15.9,4.7,15.9C4.7,15.9,4.7,15.9,4.7,15.9z"/>
<path d="M47.3,15.9h-1.5v8.7h1.5c0.8,0,1.5-0.6,1.5-1.5l0,0v-5.8C48.8,16.5,48.1,15.9,47.3,15.9C47.3,15.9,47.3,15.9,47.3,15.9z"/>
<path class="st0" d="M43.4,13v26c0,1.6-1.3,2.9-2.9,2.9c0,0,0,0,0,0v2.9c0,1.6-1.3,2.9-2.9,2.9c0,0,0,0,0,0h-2.9
	c-1.6,0-2.9-1.3-2.9-2.9c0,0,0,0,0,0v-2.9H20.2v2.9c0,1.6-1.3,2.9-2.9,2.9l0,0h-2.9c-1.6,0-2.9-1.3-2.9-2.9l0,0v-2.9
	c-1.6,0-2.9-1.3-2.9-2.9l0,0V13c0-4.8,3.9-8.7,8.7-8.7h17.4C39.5,4.3,43.4,8.2,43.4,13L43.4,13z"/>
<path d="M16.5,36.1c0-1.2-0.9-2.1-2.1-2.1c-1.2,0-2.1,0.9-2.1,2.1c0,1.2,0.9,2.1,2.1,2.1l0,0C15.6,38.3,16.5,37.3,16.5,36.1z"/>
<path d="M39.7,36.1c0-1.2-0.9-2.1-2.1-2.1c-1.2,0-2.1,0.9-2.1,2.1c0,1.2,0.9,2.1,2.1,2.1c0,0,0,0,0,0C38.8,38.3,39.7,37.3,39.7,36.1
	z"/>
<rect x="12.9" y="13" class="st0" width="26.2" height="17.4"/>
<path class="st1" d="M40.5,13"/>
<line class="st2" x1="31.1" y1="8.5" x2="20.9" y2="8.5"/>
</svg>
