<?xml version="1.0" encoding="utf-8"?>
<!-- Generator: Adobe Illustrator 21.1.0, SVG Export Plug-In . SVG Version: 6.00 Build 0)  -->
<svg version="1.1" id="Слой_395" xmlns="http://www.w3.org/2000/svg" xmlns:xlink="http://www.w3.org/1999/xlink" x="0px"
	 y="0px" viewBox="0 0 52 52" style="enable-background:new 0 0 52 52;" xml:space="preserve">
<style type="text/css">
	.st0{fill:none;stroke:#000000;stroke-width:2;stroke-linecap:round;stroke-linejoin:round;stroke-miterlimit:10;}
</style>
<title>Peredacha soyedineniya drugomu abonentu</title>
<path class="st0" d="M4.6,18.7h10.4c1.1,0,2.1,0.9,2.1,2.1v21.2c0,1.1-0.9,2.1-2.1,2.1H4.6c-1.1,0-2.1-0.9-2.1-2.1V20.8
	C2.5,19.7,3.4,18.7,4.6,18.7z"/>
<line class="st0" x1="2.5" y1="38.7" x2="17" y2="38.7"/>
<line class="st0" x1="2.5" y1="24.2" x2="17" y2="24.2"/>
<path d="M8.9,41.5c0,0.5,0.4,0.9,0.9,0.9s0.9-0.4,0.9-0.9s-0.4-0.9-0.9-0.9c0,0,0,0,0,0C9.3,40.5,8.9,40.9,8.9,41.5"/>
<line class="st0" x1="8" y1="21.5" x2="11.6" y2="21.5"/>
<path class="st0" d="M37.1,18.7h10.3c1.1,0,2.1,0.9,2.1,2.1v21.2c0,1.1-0.9,2.1-2.1,2.1H37.1c-1.1,0-2.1-0.9-2.1-2.1V20.8
	C35,19.7,35.9,18.7,37.1,18.7z"/>
<line class="st0" x1="35" y1="38.7" x2="49.5" y2="38.7"/>
<line class="st0" x1="35" y1="24.2" x2="49.5" y2="24.2"/>
<path d="M41.3,41.5c0,0.5,0.4,0.9,0.9,0.9s0.9-0.4,0.9-0.9s-0.4-0.9-0.9-0.9c0,0,0,0,0,0C41.7,40.5,41.3,40.9,41.3,41.5"/>
<line class="st0" x1="40.4" y1="21.5" x2="44.1" y2="21.5"/>
<path class="st0" d="M13,13.8c6.3-7.2,17.2-7.9,24.3-1.6c1.1,0.9,2,2,2.8,3.2"/>
</svg>
