<?xml version="1.0" encoding="utf-8"?>
<!-- Generator: Adobe Illustrator 21.1.0, SVG Export Plug-In . SVG Version: 6.00 Build 0)  -->
<svg version="1.1" id="Слой_200" xmlns="http://www.w3.org/2000/svg" xmlns:xlink="http://www.w3.org/1999/xlink" x="0px"
	 y="0px" viewBox="0 0 52 52" style="enable-background:new 0 0 52 52;" xml:space="preserve">
<style type="text/css">
	.st0{fill:none;stroke:#000000;stroke-width:2;stroke-miterlimit:10;}
</style>
<title>Planshet</title>
<path class="st0" d="M7.3,10.5h37.5c2.7,0,4.9,2.2,4.9,4.9v21.2c0,2.7-2.2,4.9-4.9,4.9H7.3c-2.7,0-4.9-2.2-4.9-4.9V15.4
	C2.4,12.7,4.6,10.5,7.3,10.5z"/>
<path d="M45.6,24.4c0.9,0,1.6,0.7,1.7,1.6c0,0.9-0.7,1.6-1.6,1.7c-0.9,0-1.6-0.7-1.7-1.6c0,0,0,0,0,0C44,25.1,44.7,24.4,45.6,24.4
	L45.6,24.4"/>
<line class="st0" x1="41.5" y1="41.5" x2="41.5" y2="10.5"/>
</svg>
