<?xml version="1.0" encoding="utf-8"?>
<!-- Generator: Adobe Illustrator 21.1.0, SVG Export Plug-In . SVG Version: 6.00 Build 0)  -->
<svg version="1.1" id="Слой_319" xmlns="http://www.w3.org/2000/svg" xmlns:xlink="http://www.w3.org/1999/xlink" x="0px"
	 y="0px" viewBox="0 0 52 52" style="enable-background:new 0 0 52 52;" xml:space="preserve">
<style type="text/css">
	.st0{fill:none;stroke:#000000;stroke-width:2;stroke-linecap:round;stroke-linejoin:round;}
	.st1{fill:none;stroke:#000000;stroke-width:4;}
</style>
<title>Obeshchannyy platezh</title>
<path class="st0" d="M10.8,31.6H7.4c-2.2,0-4-1.8-4-4V6.5c0-2.2,1.8-4,4-4h37.2c2.2,0,4,1.8,4.1,4v21c0,2.2-1.8,4-4.1,4h-3.4"/>
<line class="st1" x1="3.3" y1="11.3" x2="48.7" y2="11.3"/>
<path class="st0" d="M36.9,23.3c-6-6-15.8-6-21.8,0s-6,15.8,0,21.8c6,6,15.8,6,21.8,0C42.9,39.1,42.9,29.3,36.9,23.3
	C36.9,23.3,36.9,23.3,36.9,23.3z"/>
<path class="st0" d="M33.9,32.8l-1.1,1L30.2,36l0.4,1.8l0,0l0.4,1.5l0.3,1.5c0.2,1-0.3,1.4-1.2,0.8l-1.3-0.8L27.6,40L26,39l-1.6,1
	l0,0l-1.3,0.8l-1.3,0.8c-0.9,0.5-1.4,0.2-1.2-0.8l0.3-1.5l0.4-1.5l0,0l0.4-1.8l-2.5-2.2l-1.2-1c-0.8-0.7-0.6-1.3,0.4-1.4l1.5-0.1
	l3.3-0.3l1.3-3.1l0.6-1.4c0.4-0.9,1-0.9,1.4,0l0.6,1.4l1.3,3.1l3.3,0.3l1.5,0.1C34.4,31.5,34.6,32.1,33.9,32.8z"/>
</svg>
