<?xml version="1.0" encoding="utf-8"?>
<!-- Generator: Adobe Illustrator 21.1.0, SVG Export Plug-In . SVG Version: 6.00 Build 0)  -->
<svg version="1.1" id="Слой_278" xmlns="http://www.w3.org/2000/svg" xmlns:xlink="http://www.w3.org/1999/xlink" x="0px"
	 y="0px" viewBox="0 0 52 52" style="enable-background:new 0 0 52 52;" xml:space="preserve">
<style type="text/css">
	.st0{fill:none;stroke:#000000;stroke-width:2;stroke-linecap:round;stroke-linejoin:round;}
</style>
<title>Opredeleniye nomera vyzyvayushchego abonenta (AON)</title>
<path class="st0" d="M10.5,38.1v-3.6c0.1-1.9,1.2-3.5,2.8-4.3l9.8-4.3c1.8-0.7,3.9-0.7,5.7,0l9.8,4.3c1.7,0.8,2.7,2.5,2.8,4.3V38
	L10.5,38.1z"/>
<line class="st0" x1="35.5" y1="43.2" x2="16.5" y2="43.2"/>
<path class="st0" d="M25.9,9.4h0.3c3.1,0,5.5,2.5,5.5,5.5l0,0v3.9c0,3.1-2.5,5.6-5.6,5.6l0,0h-0.3c-3.1,0-5.6-2.5-5.6-5.6l0,0v-4
	C20.3,11.9,22.8,9.4,25.9,9.4z"/>
<path class="st0" d="M31.5,27l-2.7,1.2c-1.8,0.7-3.9,0.7-5.7,0L20.5,27"/>
<path class="st0" d="M15.7,2.8h20.6c2.8,0,5.2,2.3,5.2,5.2V44c0,2.8-2.3,5.2-5.2,5.2H15.7c-2.8,0-5.2-2.3-5.2-5.2V8
	C10.5,5.1,12.8,2.8,15.7,2.8z"/>
</svg>
