<?xml version="1.0" encoding="utf-8"?>
<!-- Generator: Adobe Illustrator 21.1.0, SVG Export Plug-In . SVG Version: 6.00 Build 0)  -->
<svg version="1.1" id="Слой_229" xmlns="http://www.w3.org/2000/svg" xmlns:xlink="http://www.w3.org/1999/xlink" x="0px"
	 y="0px" viewBox="0 0 52 52" style="enable-background:new 0 0 52 52;" xml:space="preserve">
<style type="text/css">
	.st0{fill:none;stroke:#000000;stroke-width:2;stroke-linecap:round;stroke-linejoin:round;}
</style>
<title>Upravleniye nastroykami novoy telefonii</title>
<path class="st0" d="M48.7,12.5c-0.2-0.6-0.3-1.2-0.6-1.8c-0.3-0.6-0.6-1.2-0.9-1.7l-3.1,1c-0.6-0.9-1.4-1.6-2.2-2.2l1-3.1
	c-1.1-0.6-2.3-1.1-3.5-1.4L38,6.2c-1-0.2-2.1-0.2-3.1,0l-1.4-2.9c-1.3,0.3-2.5,0.8-3.6,1.5l1,3.1c-0.9,0.6-1.6,1.3-2.2,2.2l-3.1-1
	c-0.7,1.1-1.2,2.3-1.5,3.6l2.9,1.4c-0.2,1-0.2,2.1,0,3.1l-2.9,1.4c0.2,0.6,0.3,1.2,0.6,1.7c0.3,0.6,0.6,1.2,0.9,1.7l3.1-1
	c0.6,0.8,1.4,1.6,2.2,2.2l-1,3.1c1.1,0.7,2.3,1.2,3.6,1.5l1.4-2.9c1,0.2,2.1,0.2,3.1,0l1.4,2.9c0.6-0.2,1.2-0.3,1.8-0.6
	c0.6-0.2,1.2-0.5,1.7-0.9l-1-3.1c0.9-0.6,1.6-1.3,2.2-2.2l3.1,1c0.7-1.1,1.2-2.3,1.5-3.6l-3-1.4c0.2-1,0.2-2.1,0-3.1L48.7,12.5z"/>
<ellipse transform="matrix(0.9239 -0.3827 0.3827 0.9239 -3.1666 15.1396)" class="st0" cx="36.5" cy="15.5" rx="5.8" ry="5.8"/>
<path class="st0" d="M21,37.8c1.1,0.9,2.5,1.4,3.9,1.3c1.5-0.3,2.9-1,4.1-2l3.6-2.8c0.7-0.5,1.6-0.4,2.2,0.2l7.3,8
	c0.5,0.6,0.4,1.5-0.2,2c0,0,0,0,0,0c-2.2,1.9-4.7,4.4-7.6,5.6c-2.4,1-5.4,0.5-7.9-0.2c-1.7-0.5-3.4-1.2-5-2.1
	c-2.2-1.2-4.3-2.7-6.2-4.4c-3.6-3.3-6.8-7.1-9.4-11.2c-1.3-2.2-2.4-4.5-3.3-6.8c-0.6-1.7-1-3.5-1.2-5.3c-0.3-2.6-0.3-5.6,1.2-7.8
	c1.7-2.6,4.6-4.6,6.9-6.5c0.6-0.5,1.5-0.5,2,0.1c0,0,0,0,0,0l6.6,8.6c0.5,0.7,0.4,1.6-0.2,2.2l-3.5,3.1c-1.2,1-2.1,2.2-2.7,3.7
	c-0.4,1.4-0.2,2.9,0.6,4.1C14.9,31.3,17.8,34.7,21,37.8z"/>
<line class="st0" x1="6.7" y1="8.2" x2="15.3" y2="19.2"/>
<line class="st0" x1="39.2" y1="46.9" x2="29.9" y2="36.6"/>
</svg>
