<?xml version="1.0" encoding="utf-8"?>
<!-- Generator: Adobe Illustrator 21.1.0, SVG Export Plug-In . SVG Version: 6.00 Build 0)  -->
<svg version="1.1" id="Слой_168" xmlns="http://www.w3.org/2000/svg" xmlns:xlink="http://www.w3.org/1999/xlink" x="0px"
	 y="0px" viewBox="0 0 52 52" style="enable-background:new 0 0 52 52;" xml:space="preserve">
<style type="text/css">
	.st0{stroke:#000000;stroke-width:2;stroke-linecap:round;stroke-linejoin:round;}
	.st1{fill:none;stroke:#000000;stroke-width:2;stroke-linecap:round;stroke-linejoin:round;}
</style>
<title>Analiticheskiy monitoring</title>
<polygon class="st0" points="11.3,26 20.3,20.3 28.4,23.6 40.7,15.4 40.7,17.9 28.4,26 20.3,22.7 11.3,28.8 "/>
<path class="st1" d="M8.7,9.7h34.6c2.6,0,4.7,2.1,4.7,4.7v18.3c0,2.6-2.1,4.7-4.7,4.7H8.7c-2.6,0-4.7-2.1-4.7-4.7V14.4
	C4,11.8,6.1,9.7,8.7,9.7z"/>
<line class="st1" x1="4" y1="42.3" x2="48" y2="42.3"/>
<polyline class="st1" points="40.7,17.9 40.7,32.5 11.3,32.5 11.3,28.8 "/>
</svg>
