<?xml version="1.0" encoding="utf-8"?>
<!-- Generator: Adobe Illustrator 21.1.0, SVG Export Plug-In . SVG Version: 6.00 Build 0)  -->
<svg version="1.1" id="Слой_185" xmlns="http://www.w3.org/2000/svg" xmlns:xlink="http://www.w3.org/1999/xlink" x="0px"
	 y="0px" viewBox="0 0 52 52" style="enable-background:new 0 0 52 52;" xml:space="preserve">
<style type="text/css">
	.st0{fill:none;stroke:#000000;stroke-width:2;stroke-linecap:round;stroke-linejoin:round;}
</style>
<title>Upravleniye profilem</title>
<path class="st0" d="M50,24.8c-0.1-0.6-0.5-1.1-1.1-1.3l-3.4-1c-0.3-1.7-0.9-3.4-1.6-5l2.2-2.8c0.4-0.5,0.4-1.2,0.1-1.7l-1.4-2
	c-0.4-0.5-1-0.7-1.6-0.5l-3.3,1.2c-1.3-1.2-2.7-2.3-4.3-3.1L35.5,5c0-0.6-0.4-1.2-0.9-1.4l-2.3-0.7c-0.6-0.1-1.2,0.1-1.6,0.6l-2,2.9
	c-1.8-0.3-3.6-0.3-5.3,0l-2-2.9c-0.4-0.5-1-0.7-1.6-0.6l-2.3,0.7c-0.5,0.3-0.9,0.8-0.9,1.4l0.1,3.5c-1.6,0.8-3.1,1.9-4.4,3.1L9,10.5
	c-0.6-0.2-1.2,0-1.6,0.5l-1.4,2c-0.3,0.5-0.3,1.2,0.1,1.7l2.2,2.8c-0.8,1.6-1.3,3.3-1.6,5l-3.4,1c-0.6,0.2-1,0.7-1.1,1.3
	c0,0,0,0.4,0,1.2s0,1.2,0,1.2c0.1,0.6,0.5,1.1,1.1,1.3l3.4,1c0.3,1.7,0.9,3.4,1.6,5L6,37.4c-0.4,0.5-0.4,1.2-0.1,1.7l1.4,2
	c0.4,0.5,1,0.6,1.6,0.5l3.3-1.2c1.3,1.2,2.7,2.3,4.3,3.1L16.5,47c0,0.6,0.4,1.2,0.9,1.4l2.3,0.7c0.6,0.1,1.2-0.1,1.6-0.6l2-2.9
	c1.8,0.3,3.6,0.3,5.3,0l2,2.9c0.4,0.5,1,0.7,1.6,0.6l2.3-0.7c0.6-0.3,0.9-0.8,0.9-1.4l-0.1-3.5c1.6-0.8,3.1-1.9,4.4-3.1l3.3,1.2
	c0.6,0.2,1.2,0,1.6-0.5l1.4-2c0.3-0.5,0.3-1.2-0.1-1.7l-2.1-2.8c0.8-1.6,1.3-3.3,1.6-5l3.4-1c0.6-0.2,1-0.7,1.1-1.3c0,0,0-0.4,0-1.2
	S50,24.8,50,24.8z"/>
<circle class="st0" cx="26" cy="26" r="14.1"/>
<path class="st0" d="M15.3,34.8c0.1-1.3,0.8-2.4,2-3l6.8-3c1.3-0.5,2.7-0.5,3.9,0l6.8,3c1.1,0.6,1.9,1.7,2,3"/>
<path class="st0" d="M29.8,24.2c0,2-1.6,3.7-3.7,3.7H26c-2,0-3.7-1.6-3.7-3.7v-2.7c0-2,1.6-3.7,3.7-3.7h0.2c2,0,3.7,1.6,3.7,3.7
	V24.2z"/>
</svg>
