<?xml version="1.0" encoding="utf-8"?>
<!-- Generator: Adobe Illustrator 21.1.0, SVG Export Plug-In . SVG Version: 6.00 Build 0)  -->
<svg version="1.1" id="Слой_332" xmlns="http://www.w3.org/2000/svg" xmlns:xlink="http://www.w3.org/1999/xlink" x="0px"
	 y="0px" viewBox="0 0 52 52" style="enable-background:new 0 0 52 52;" xml:space="preserve">
<style type="text/css">
	.st0{fill:#2C2A29;}
	.st1{fill:none;stroke:#2C2A29;stroke-width:2;stroke-linecap:round;stroke-linejoin:round;}
</style>
<title>Skorost Interneta do 2 Mbits</title>
<path class="st0" d="M11.2,48H5.8c-0.5,0-0.8-0.3-0.9-0.8c0,0,0-0.1,0-0.1c0-1.4,0.6-2.7,1.7-3.6c1.5-1.4,3.6-2.2,3.6-3.9
	c0.1-0.9-0.6-1.7-1.5-1.8c-0.1,0-0.2,0-0.3,0c-0.5,0-1,0.1-1.5,0.4c-0.5,0.3-0.7,0.5-1.1,0.5c-0.5,0-0.9-0.4-0.9-0.9c0,0,0,0,0,0
	c0-0.3,0.1-0.5,0.3-0.7c0.9-0.7,2-1.1,3.2-1c1.8-0.1,3.4,1.2,3.5,3c0,0.1,0,0.3,0,0.4c0,3.4-4.4,4-5.2,6.6h4.3
	c0.5,0,0.9,0.4,0.9,0.9C12,47.6,11.7,48,11.2,48L11.2,48z"/>
<path class="st0" d="M37,48.6c-0.1,0.4-0.6,0.7-1,0.5c-0.4-0.1-0.7-0.6-0.5-1l0,0l4-12.4c0.1-0.4,0.6-0.7,1-0.5c0,0,0,0,0,0
	c0.4,0.1,0.7,0.6,0.5,1L37,48.6z"/>
<path class="st0" d="M46.4,41.5c-0.4-0.2-0.9-0.3-1.3-0.3c-1,0-1.6,0.8-1.6,2v1.4c0,1.3,0.5,2,1.6,2c0.5,0,0.9-0.1,1.4-0.3
	c0.3-0.2,0.7,0,0.9,0.3c0,0,0,0.1,0,0.1c0.2,0.4,0,0.8-0.4,0.9c-0.6,0.3-1.3,0.5-2,0.5c-2.3,0-3.2-1.5-3.2-3.6v-1.1
	c0-2,1.1-3.7,3.2-3.7c0.7,0,1.4,0.1,2,0.5c0.3,0.2,0.5,0.6,0.3,0.9c0,0,0,0,0,0C47.2,41.5,46.9,41.7,46.4,41.5
	C46.5,41.5,46.5,41.5,46.4,41.5z"/>
<path class="st0" d="M26,23.3c-0.1,0-0.2-0.1-0.3-0.1l-13-0.7c-0.4,0-0.7,0.2-0.8,0.6c-0.1,0.4,0.1,0.8,0.5,0.9l12.2,4.5
	c0.1,0,0.2,0,0.3,0l0.3,0.1c1.1,0.2,2.3-0.3,2.9-1.3c0.2-0.3,0.3-0.5,0.3-0.8c0.2-0.7,0-1.5-0.4-2.1c-0.4-0.6-1-1-1.7-1.2L26,23.3z"
	/>
<path class="st0" d="M25.5,48.4c-0.5,0-0.9-0.4-0.9-0.9v-7.2l-2.6,5.5c-0.1,0.3-0.5,0.5-0.8,0.5c-0.4,0-0.7-0.2-0.8-0.5l-2.6-5.5
	v7.2c0,0.5-0.4,0.9-0.9,0.9s-0.9-0.4-0.9-0.9V37.1c0-0.5,0.4-0.9,0.9-0.9c0,0,0,0,0.1,0c0.4-0.1,0.8,0.2,0.9,0.5l3.4,7l3.4-7
	c0.3-0.4,0.8-0.6,1.3-0.3c0.3,0.1,0.4,0.4,0.5,0.7v10.4C26.5,48,26.1,48.4,25.5,48.4C25.6,48.4,25.6,48.4,25.5,48.4z"/>
<path class="st0" d="M32.9,43.3c0-0.5-0.1-1-0.4-1.4c-0.3-0.3-0.7-0.4-1.1-0.4c-0.4,0-0.9,0.1-1.2,0.4c-0.3,0.4-0.4,0.9-0.4,1.4V45
	c0,0.5,0.1,1,0.4,1.4c0.3,0.3,0.7,0.4,1.1,0.4c0.4,0,0.9-0.1,1.2-0.5c0.3-0.4,0.4-0.9,0.4-1.3L32.9,43.3L32.9,43.3z M28,45v-3.2
	c0-2.6,1.2-3.3,2.8-4.1c0.5-0.2,1.2-0.6,1.2-1.2v-0.5c0-0.5,0.4-0.9,0.9-0.9s0.9,0.4,0.9,0.9v0.4c0,2.1-1.8,2.4-3.1,3.2
	c-0.2,0.1-0.4,0.3-0.5,0.6c0.3-0.3,0.7-0.4,1.1-0.4c1.7-0.2,3.2,1.1,3.4,2.8c0,0.2,0,0.4,0,0.6V45c0.2,1.7-1.1,3.2-2.8,3.4
	c-0.2,0-0.4,0-0.6,0c-1.7,0.2-3.2-1.1-3.4-2.8C28,45.4,28,45.2,28,45z"/>
<path class="st1" d="M1.8,28C1.8,14.6,12.6,3.8,26,3.8c13.4,0,24.2,10.8,24.2,24.2"/>
<line class="st1" x1="1.8" y1="27.9" x2="7.6" y2="27.9"/>
<line class="st1" x1="26" y1="3.8" x2="26" y2="9.6"/>
<line class="st1" x1="9.2" y1="11.8" x2="13.4" y2="15.9"/>
<line class="st1" x1="42.7" y1="11.8" x2="38.6" y2="15.9"/>
<line class="st1" x1="50.2" y1="28" x2="44.4" y2="28"/>
</svg>
