<?xml version="1.0" encoding="utf-8"?>
<!-- Generator: Adobe Illustrator 21.1.0, SVG Export Plug-In . SVG Version: 6.00 Build 0)  -->
<svg version="1.1" id="Слой_139" xmlns="http://www.w3.org/2000/svg" xmlns:xlink="http://www.w3.org/1999/xlink" x="0px"
	 y="0px" viewBox="0 0 52 52" style="enable-background:new 0 0 52 52;" xml:space="preserve">
<style type="text/css">
	.st0{fill:none;stroke:#000000;stroke-width:2;stroke-linecap:round;stroke-linejoin:round;}
</style>
<title>Shirokiy funktsional uslug</title>
<path class="st0" d="M44,28.8c0.1-0.9,0.2-1.8,0.2-2.8c0-0.9-0.1-1.9-0.2-2.8l-4.7-0.3c-0.3-1.5-0.9-2.9-1.7-4.2l3.1-3.5
	c-1.1-1.5-2.4-2.8-3.9-3.9l-3.5,3.1c-1.3-0.8-2.7-1.4-4.2-1.7L28.8,8c-1.8-0.3-3.7-0.3-5.6,0l-0.3,4.7c-1.5,0.3-2.9,0.9-4.2,1.7
	l-3.5-3.1c-1.5,1.1-2.8,2.4-3.9,3.9l3.1,3.5c-0.8,1.3-1.4,2.7-1.7,4.2L8,23.2c-0.2,0.9-0.2,1.9-0.2,2.8c0,0.9,0.1,1.9,0.2,2.8
	l4.7,0.3c0.3,1.5,0.9,2.9,1.7,4.2l-3.1,3.5c1.1,1.5,2.4,2.8,3.9,3.9l3.5-3.1c1.3,0.8,2.7,1.4,4.2,1.7l0.3,4.7
	c0.9,0.1,1.8,0.2,2.8,0.2c0.9,0,1.9-0.1,2.8-0.2l0.3-4.7c1.5-0.3,2.9-0.9,4.2-1.7l3.5,3.1c1.5-1.1,2.8-2.4,3.9-3.9l-3.1-3.5
	c0.8-1.3,1.4-2.7,1.7-4.2L44,28.8z"/>
<circle class="st0" cx="26" cy="26" r="8.1"/>
<polyline class="st0" points="39.3,49.3 49.3,49.3 49.3,39.3 "/>
<polyline class="st0" points="12.7,2.7 2.7,2.7 2.7,12.7 "/>
<polyline class="st0" points="12.7,49.3 2.7,49.3 2.7,39.3 "/>
<polyline class="st0" points="39.3,2.7 49.3,2.7 49.3,12.7 "/>
</svg>
