<?xml version="1.0" encoding="utf-8"?>
<!-- Generator: Adobe Illustrator 21.1.0, SVG Export Plug-In . SVG Version: 6.00 Build 0)  -->
<svg version="1.1" id="Слой_393" xmlns="http://www.w3.org/2000/svg" xmlns:xlink="http://www.w3.org/1999/xlink" x="0px"
	 y="0px" viewBox="0 0 52 52" style="enable-background:new 0 0 52 52;" xml:space="preserve">
<style type="text/css">
	.st0{fill:none;stroke:#000000;stroke-width:2;stroke-linecap:round;stroke-linejoin:round;stroke-miterlimit:10;}
</style>
<title>Ozhidaniye_uderzhaniye vyzova</title>
<path class="st0" d="M15.9,41.1c0-5.2,3.9-8.6,6.2-10.1c1.6-1.1,2.5-3,2.4-5c0.1-1.9-0.8-3.8-2.4-5c-2.3-1.6-6.2-5-6.2-10.1V6h20.1
	v4.9c0,5.2-3.9,8.6-6.2,10.1c-1.6,1.2-2.5,3-2.4,5c-0.1,1.9,0.8,3.8,2.4,5c2.3,1.6,6.2,5,6.2,10.1V46H15.9V41.1z"/>
<line class="st0" x1="12.3" y1="6" x2="39.7" y2="6"/>
<line class="st0" x1="12.3" y1="46" x2="39.7" y2="46"/>
</svg>
