<?xml version="1.0" encoding="utf-8"?>
<!-- Generator: Adobe Illustrator 21.1.0, SVG Export Plug-In . SVG Version: 6.00 Build 0)  -->
<svg version="1.1" id="Слой_356" xmlns="http://www.w3.org/2000/svg" xmlns:xlink="http://www.w3.org/1999/xlink" x="0px"
	 y="0px" viewBox="0 0 52 52" style="enable-background:new 0 0 52 52;" xml:space="preserve">
<style type="text/css">
	.st0{fill:none;stroke:#000000;stroke-width:2;stroke-miterlimit:10;}
</style>
<title>Polunochnik</title>
<path class="st0" d="M41.2,12.9c2.2-1.3,4.3-2.8,6-4.7c0.4-0.5,0.5-1.2,0.2-1.7c-0.3-0.5-0.9-0.8-1.4-0.6c-6.5,2-13.2,3-20,3
	c-6.8,0-13.5-1-20-3C5.4,5.6,4.8,5.9,4.6,6.4C4.3,7,4.4,7.7,4.8,8.2c1.7,1.9,3.8,3.5,6,4.7c-4.9,2.3-7,6.5-7,13
	c0,11.3,10,20.4,22.3,20.4s22.2-9.2,22.2-20.4C48.2,19.3,46.1,15.2,41.2,12.9z"/>
<path class="st0" d="M28.8,28.7c0,1.3-2.8,6-2.8,6s-2.8-4.7-2.8-6c0.1-1.4,1.4-2.4,2.8-2.3C27.4,26.3,28.6,27.3,28.8,28.7z"/>
<circle class="st0" cx="15.8" cy="25.4" r="7.7"/>
<circle class="st0" cx="36.2" cy="25.4" r="7.7"/>
<circle class="st0" cx="15.8" cy="25.4" r="3.4"/>
<circle class="st0" cx="36.2" cy="25.4" r="3.4"/>
</svg>
