<?xml version="1.0" encoding="utf-8"?>
<!-- Generator: Adobe Illustrator 21.1.0, SVG Export Plug-In . SVG Version: 6.00 Build 0)  -->
<svg version="1.1" id="Слой_256" xmlns="http://www.w3.org/2000/svg" xmlns:xlink="http://www.w3.org/1999/xlink" x="0px"
	 y="0px" viewBox="0 0 52 52" style="enable-background:new 0 0 52 52;" xml:space="preserve">
<style type="text/css">
	.st0{fill:none;stroke:#000000;stroke-width:2;stroke-linecap:round;stroke-linejoin:round;}
	.st1{fill:none;stroke:#000000;stroke-width:2;stroke-linecap:round;}
	.st2{fill:none;stroke:#000000;stroke-width:2;}
</style>
<title>Interkom</title>
<path class="st0" d="M16.2,3.1h19.6c2.7,0,4.9,2.2,4.9,4.9v36c0,2.7-2.2,4.9-4.9,4.9H16.2c-2.7,0-4.9-2.2-4.9-4.9V8
	C11.3,5.3,13.5,3.1,16.2,3.1z"/>
<line class="st1" x1="33.4" y1="33.4" x2="18.6" y2="33.4"/>
<line class="st0" x1="30.1" y1="39.1" x2="18.6" y2="39.1"/>
<path d="M34.6,39.1c0-0.7-0.5-1.2-1.2-1.2c-0.7,0-1.2,0.5-1.2,1.2c0,0.7,0.5,1.2,1.2,1.2C34,40.3,34.6,39.8,34.6,39.1L34.6,39.1"/>
<circle cx="33.4" cy="39.1" r="1.2"/>
<path class="st2" d="M32.6,17c0,3.6-2.9,6.6-6.5,6.6c-3.6,0-6.6-2.9-6.6-6.5c0-3.6,2.9-6.6,6.5-6.6c0,0,0,0,0,0
	C29.6,10.5,32.5,13.4,32.6,17z"/>
<path d="M28.5,17c0-1.4-1.1-2.4-2.5-2.4c-1.4,0-2.4,1.1-2.4,2.5c0,1.3,1.1,2.4,2.5,2.4C27.4,19.5,28.5,18.4,28.5,17
	C28.5,17,28.5,17,28.5,17"/>
</svg>
