<?xml version="1.0" encoding="utf-8"?>
<!-- Generator: Adobe Illustrator 21.1.0, SVG Export Plug-In . SVG Version: 6.00 Build 0)  -->
<svg version="1.1" id="Слой_252" xmlns="http://www.w3.org/2000/svg" xmlns:xlink="http://www.w3.org/1999/xlink" x="0px"
	 y="0px" viewBox="0 0 52 52" style="enable-background:new 0 0 52 52;" xml:space="preserve">
<style type="text/css">
	.st0{fill:none;stroke:#000000;stroke-width:2;}
	.st1{fill:none;stroke:#000000;stroke-width:2;stroke-linecap:round;}
	.st2{fill:none;stroke:#000000;stroke-width:2;stroke-linejoin:round;}
</style>
<title>Antispam</title>
<path class="st0" d="M31.4,40.6v7.6c0,1.3-1,2.3-2.3,2.3H6.5c-1.3,0-2.3-1-2.3-2.3V3.8c0-1.3,1-2.3,2.3-2.3h22.6
	c1.3,0,2.3,1,2.3,2.3v7.8"/>
<line class="st0" x1="31.4" y1="41.4" x2="4.2" y2="41.4"/>
<line class="st0" x1="31.4" y1="8.8" x2="4.2" y2="8.8"/>
<line class="st1" x1="26.9" y1="46" x2="21.4" y2="46"/>
<line class="st1" x1="14.2" y1="46" x2="8.7" y2="46"/>
<path class="st2" d="M35.1,42c0,0-12.7-3.3-12.7-13.3V13.4c4.5-0.1,8.8-1.3,12.7-3.6c3.9,2.2,8.2,3.5,12.7,3.6v15.3
	C47.8,38.7,35.1,42,35.1,42z"/>
<line class="st1" x1="40.5" y1="30.7" x2="29.6" y2="19.8"/>
<line class="st1" x1="40.5" y1="19.8" x2="29.6" y2="30.7"/>
</svg>
