<?xml version="1.0" encoding="utf-8"?>
<!-- Generator: Adobe Illustrator 21.1.0, SVG Export Plug-In . SVG Version: 6.00 Build 0)  -->
<svg version="1.1" id="Слой_129" xmlns="http://www.w3.org/2000/svg" xmlns:xlink="http://www.w3.org/1999/xlink" x="0px"
	 y="0px" viewBox="0 0 52 52" style="enable-background:new 0 0 52 52;" xml:space="preserve">
<style type="text/css">
	.st0{fill:none;stroke:#000000;stroke-width:2;stroke-linecap:round;stroke-linejoin:round;}
</style>
<title>Upravlyayemyye uslugi svyazi</title>
<path class="st0" d="M50.7,24.8c-0.1-0.6-0.5-1.2-1.1-1.4l-3.5-1c-0.3-1.8-0.9-3.6-1.7-5.2l2.2-2.9c0.4-0.5,0.4-1.2,0.1-1.8l-1.5-2
	c-0.4-0.5-1.1-0.7-1.7-0.5l-3.4,1.2C38.8,10,37.3,8.9,35.7,8l0.1-3.6c0-0.6-0.4-1.2-0.9-1.5l-2.4-0.8c-0.6-0.1-1.3,0.1-1.6,0.6
	l-2.1,3c-1.8-0.3-3.7-0.3-5.5,0l-2.1-3c-0.4-0.5-1-0.7-1.6-0.6l-2.4,0.8c-0.6,0.3-0.9,0.8-0.9,1.5L16.4,8c-1.6,0.9-3.2,2-4.5,3.2
	L8.5,10c-0.6-0.2-1.3,0-1.7,0.5l-1.5,2C5,13.1,5,13.7,5.4,14.3l2.2,2.9c-0.8,1.7-1.4,3.4-1.7,5.2l-3.5,1c-0.6,0.2-1,0.7-1.1,1.4
	c0,0,0,0.5,0,1.2c0,0.8,0,1.2,0,1.2c0.1,0.6,0.5,1.2,1.1,1.4l3.5,1c0.3,1.8,0.9,3.6,1.7,5.2l-2.2,2.9C5,38.3,5,38.9,5.3,39.5l1.5,2
	C7.2,42,7.8,42.2,8.4,42l3.4-1.2c1.3,1.3,2.8,2.4,4.4,3.2l-0.1,3.6c0,0.6,0.4,1.2,0.9,1.5l2.4,0.8c0.6,0.1,1.3-0.1,1.6-0.6l2.1-3
	c1.8,0.3,3.7,0.3,5.5,0l2.1,3c0.4,0.5,1,0.7,1.6,0.6l2.4-0.8c0.6-0.3,0.9-0.8,0.9-1.5L35.6,44c1.6-0.9,3.2-2,4.5-3.2l3.4,1.2
	c0.6,0.2,1.3,0,1.7-0.5l1.5-2c0.3-0.5,0.3-1.2-0.1-1.8l-2.2-2.9c0.8-1.7,1.4-3.4,1.7-5.2l3.5-1c0.6-0.2,1-0.7,1.1-1.4
	c0,0,0-0.5,0-1.2S50.7,24.8,50.7,24.8z"/>
<path class="st0" d="M14.3,17.5c-3.7,5.1-3.7,12,0,17.1"/>
<path class="st0" d="M37.7,34.5c3.7-5.1,3.7-12,0-17.1"/>
<rect x="18.3" y="11.5" class="st0" width="15.4" height="29"/>
<rect x="18.3" y="14.9" class="st0" width="15.4" height="6.8"/>
<rect x="18.3" y="28.6" class="st0" width="15.4" height="6.8"/>
<path class="st0" d="M33.7,17.9h-4.2c-0.6,0-1.2-0.3-1.6-0.7l-1.3-1.5c-0.4-0.4-1-0.7-1.6-0.8h-6.7"/>
<path class="st0" d="M33.7,24.7h-4.2c-0.6,0-1.2-0.3-1.6-0.7l-1.3-1.5c-0.4-0.4-1-0.7-1.6-0.7h-6.7"/>
<path class="st0" d="M33.7,31.6h-4.2c-0.6,0-1.2-0.3-1.6-0.7l-1.3-1.5c-0.4-0.4-1-0.7-1.6-0.7h-6.7"/>
</svg>
