<?xml version="1.0" encoding="utf-8"?>
<!-- Generator: Adobe Illustrator 21.1.0, SVG Export Plug-In . SVG Version: 6.00 Build 0)  -->
<svg version="1.1" id="Слой_411" xmlns="http://www.w3.org/2000/svg" xmlns:xlink="http://www.w3.org/1999/xlink" x="0px"
	 y="0px" viewBox="0 0 52 52" style="enable-background:new 0 0 52 52;" xml:space="preserve">
<style type="text/css">
	.st0{fill:none;stroke:#000000;stroke-width:2;stroke-linecap:round;stroke-linejoin:round;stroke-miterlimit:10;}
</style>
<title>Balans blizkikh</title>
<circle class="st0" cx="16.1" cy="26" r="13.2"/>
<path class="st0" d="M26,12.8c7.3-0.3,13.4,5.4,13.7,12.7S34.3,38.9,27,39.2c-0.3,0-0.7,0-1,0"/>
<path class="st0" d="M16.1,31.4l-0.7-0.6c-2.7-2.4-4.6-4.2-4.6-6.2c0-1.6,1.3-2.9,2.8-2.9c0,0,0,0,0.1,0c0.9,0,1.8,0.4,2.4,1.1
	c0.6-0.7,1.5-1.1,2.4-1.1c1.6,0,2.9,1.3,2.9,2.8c0,0,0,0,0,0.1c0,2-1.8,3.8-4.6,6.2L16.1,31.4z"/>
<path class="st0" d="M35.9,12.8c7.3-0.3,13.4,5.4,13.7,12.7c0.3,7.3-5.4,13.4-12.7,13.7c-0.3,0-0.7,0-1,0"/>
</svg>
