<?xml version="1.0" encoding="utf-8"?>
<!-- Generator: Adobe Illustrator 21.1.0, SVG Export Plug-In . SVG Version: 6.00 Build 0)  -->
<svg version="1.1" id="Слой_318" xmlns="http://www.w3.org/2000/svg" xmlns:xlink="http://www.w3.org/1999/xlink" x="0px"
	 y="0px" viewBox="0 0 52 52" style="enable-background:new 0 0 52 52;" xml:space="preserve">
<style type="text/css">
	.st0{fill:none;stroke:#000000;stroke-width:2;stroke-linecap:round;stroke-linejoin:round;}
	.st1{fill:none;stroke:#000000;stroke-width:4;}
</style>
<title>Moy zhivoy balans</title>
<path class="st0" d="M10.8,31.6H7.4c-2.2,0-4-1.8-4-4V6.5c0-2.2,1.8-4,4-4h37.2c2.2,0,4,1.8,4.1,4v21c0,2.2-1.8,4-4.1,4h-3.4"/>
<line class="st1" x1="3.3" y1="11.3" x2="48.7" y2="11.3"/>
<path class="st0" d="M36.9,23.3c-6-6-15.8-6-21.8,0s-6,15.8,0,21.8c6,6,15.8,6,21.8,0C42.9,39.1,42.9,29.3,36.9,23.3
	C36.9,23.3,36.9,23.3,36.9,23.3z"/>
<path class="st0" d="M26,42.7l-1.2-1.2c-4.3-3.8-7.2-6.4-7.2-9.6c0-2.5,2-4.6,4.5-4.6c0,0,0.1,0,0.1,0c1.4,0,2.8,0.6,3.8,1.7
	c0.9-1.1,2.3-1.7,3.8-1.8c2.5,0,4.6,2,4.6,4.5c0,0,0,0.1,0,0.1c0,3.2-2.8,5.8-7.2,9.6L26,42.7z"/>
</svg>
