<?xml version="1.0" encoding="utf-8"?>
<!-- Generator: Adobe Illustrator 21.1.0, SVG Export Plug-In . SVG Version: 6.00 Build 0)  -->
<svg version="1.1" id="Слой_136" xmlns="http://www.w3.org/2000/svg" xmlns:xlink="http://www.w3.org/1999/xlink" x="0px"
	 y="0px" viewBox="0 0 52 52" style="enable-background:new 0 0 52 52;" xml:space="preserve">
<style type="text/css">
	.st0{fill:none;stroke:#000000;stroke-width:2;stroke-linecap:round;stroke-linejoin:round;}
</style>
<title>Operativnoye izmeneniye parametrov uslug</title>
<path class="st0" d="M50,24.8c0-0.7-0.6-1.2-1.2-1.2l-3.3-1.2c-0.4-1.7-0.9-3.4-1.7-5l2.1-2.5c0.4-0.6,0.4-1.4,0-2.1l-1.2-1.7
	c-0.4-0.4-1.2-0.8-1.7-0.4l-3.3,0.8c-1.2-1.2-2.6-2.1-4.2-2.9V4.9c0-0.4-0.4-1.2-0.8-1.2l-2.5-0.8c-0.7-0.1-1.3,0.2-1.7,0.8
	l-2.1,2.9c-0.8-0.3-1.6-0.5-2.5-0.4c-0.8-0.1-1.7,0.1-2.5,0.4l-2.1-2.9c-0.3-0.6-1-0.9-1.7-0.8l-2.5,0.8c-0.4,0-0.8,0.8-0.8,1.2v3.8
	c-1.5,0.8-2.9,1.8-4.2,2.9L9,10.7c-0.4-0.4-1.2,0-1.7,0.4l-1.2,1.7c-0.4,0.6-0.4,1.4,0,2.1l2.1,2.5c-0.7,1.6-1.3,3.3-1.7,5l-3.3,1.2
	c-0.7,0-1.2,0.6-1.2,1.2v2.5c0,0.7,0.6,1.2,1.2,1.2l3.3,1.2c0.4,1.7,0.9,3.4,1.7,5l-2,2.9c-0.4,0.4-0.4,0.8,0,1.7l1.2,1.7
	c0.4,0.4,1.2,0.8,1.7,0.4l3.3-0.8c1.3,1.1,2.7,2,4.2,2.9v3.7c0,0.4,0.4,1.2,0.8,1.2l2.5,0.8c0.7,0.1,1.3-0.2,1.6-0.8l2.1-2.9
	c0.8,0.3,1.6,0.5,2.5,0.4c0.8,0.1,1.7-0.1,2.5-0.4l2.1,2.9c0.3,0.6,1,0.9,1.7,0.8l2.5-0.8c0.4,0,0.8-0.8,0.8-1.2v-3.8
	c1.5-0.7,2.9-1.7,4.2-2.9l3.3,0.8c0.4,0.4,1.2,0,1.7-0.4l1.2-1.7c0.4-0.8,0.4-1.2,0-1.7l-2.1-2.9c0.7-1.6,1.3-3.3,1.7-5l3.3-1.2
	c0.7,0,1.2-0.6,1.2-1.2V24.8z"/>
<path class="st0" d="M26,40.1c-7.8,0-14.1-6.3-14.1-14.1c0-7.8,6.3-14.1,14.1-14.1c7.8,0,14.1,6.3,14.1,14.1v0
	c0.1,7.7-6.1,14-13.8,14.1C26.2,40.1,26.1,40.1,26,40.1z"/>
<polyline class="st0" points="26,18.5 26,26 35.5,26 "/>
</svg>
