<?xml version="1.0" encoding="utf-8"?>
<!-- Generator: Adobe Illustrator 21.1.0, SVG Export Plug-In . SVG Version: 6.00 Build 0)  -->
<svg version="1.1" id="Слой_194" xmlns="http://www.w3.org/2000/svg" xmlns:xlink="http://www.w3.org/1999/xlink" x="0px"
	 y="0px" viewBox="0 0 52 52" style="enable-background:new 0 0 52 52;" xml:space="preserve">
<style type="text/css">
	.st0{fill:none;stroke:#000000;stroke-width:2;stroke-linecap:round;stroke-linejoin:round;}
</style>
<title>Kontent-info</title>
<path class="st0" d="M30.5,41.4v6.8c0,1.3-1,2.3-2.3,2.3H5.6c-1.3,0-2.3-1-2.3-2.3V3.8c0-1.3,1-2.3,2.3-2.3h22.6
	c1.3,0,2.3,1,2.3,2.3v7.7"/>
<line class="st0" x1="30.5" y1="41.4" x2="3.3" y2="41.4"/>
<line class="st0" x1="30.5" y1="8.8" x2="3.3" y2="8.8"/>
<line class="st0" x1="26" y1="46" x2="20.5" y2="46"/>
<line class="st0" x1="13.3" y1="46" x2="7.8" y2="46"/>
<path class="st0" d="M48.7,26.9c0,8-6.5,14.5-14.5,14.5c0,0,0,0,0,0H19.7V26.9c-0.3-8,6-14.7,14-15c8-0.3,14.7,6,15,14
	C48.7,26.2,48.7,26.5,48.7,26.9L48.7,26.9z"/>
<line class="st0" x1="34.2" y1="34.2" x2="34.2" y2="24.6"/>
<circle cx="34.2" cy="20.1" r="1.4"/>
</svg>
