<?xml version="1.0" encoding="utf-8"?>
<!-- Generator: Adobe Illustrator 21.1.0, SVG Export Plug-In . SVG Version: 6.00 Build 0)  -->
<svg version="1.1" id="Слой_325" xmlns="http://www.w3.org/2000/svg" xmlns:xlink="http://www.w3.org/1999/xlink" x="0px"
	 y="0px" viewBox="0 0 52 52" style="enable-background:new 0 0 52 52;" xml:space="preserve">
<style type="text/css">
	.st0{fill:#2C2A29;}
	.st1{fill:none;stroke:#2C2A29;stroke-width:2;stroke-miterlimit:10;}
	.st2{fill:none;stroke:#2C2A29;stroke-width:2;stroke-linecap:round;stroke-linejoin:round;}
</style>
<title>Skorost Interneta do 50 Mbits</title>
<path class="st0" d="M4.5,47.8c-0.9,0-1.8-0.2-2.5-0.7c-0.3-0.2-0.4-0.4-0.4-0.8c0-0.5,0.3-0.8,0.8-0.9c0,0,0,0,0,0
	c0.2,0,0.4,0.1,0.5,0.2c0.5,0.3,1,0.5,1.6,0.5c1,0.1,1.9-0.7,1.9-1.7c0-0.1,0-0.2,0-0.4c0-1.4-0.7-2-1.7-2c-0.4,0-0.9,0.1-1.2,0.4
	C3.2,42.8,3,43,2.7,43c-0.4,0-0.8-0.3-0.9-0.7c0-0.1,0-0.1,0-0.2L2,37c0-0.5,0.4-0.8,0.8-0.8h4c0.5,0,0.8,0.4,0.8,0.8
	s-0.4,0.8-0.8,0.8H3.6l-0.1,3c0.4-0.2,0.9-0.4,1.4-0.4c2,0,3.3,1.3,3.3,3.6C8.3,46,6.9,47.7,5,47.8C4.8,47.8,4.7,47.8,4.5,47.8z"/>
<path class="st0" d="M15.3,40.2c0-1.6-0.7-2.5-1.9-2.5s-1.9,0.9-1.9,2.5v3.5c0,1.6,0.7,2.4,1.9,2.4s1.9-0.9,1.9-2.4V40.2z
	 M13.4,47.8c-2.5,0-3.7-1.8-3.7-4.1v-3.5c0-2.2,1.2-4.1,3.7-4.1s3.7,1.8,3.7,4.1v3.5C17.1,46,15.9,47.8,13.4,47.8z"/>
<path class="st0" d="M40.5,48.3c-0.1,0.4-0.6,0.6-1,0.5c-0.4-0.1-0.6-0.6-0.5-1l0,0l3.9-12.2c0.1-0.4,0.6-0.7,1-0.5c0,0,0,0,0,0
	c0.4,0.1,0.6,0.6,0.5,1L40.5,48.3z"/>
<path class="st0" d="M49.9,41.3c-0.4-0.2-0.9-0.3-1.3-0.3c-1,0-1.6,0.8-1.6,2v1.4c0,1.2,0.5,2,1.6,2c0.5,0,0.9-0.1,1.3-0.3
	c0.3-0.2,0.7,0,0.9,0.3c0,0,0,0.1,0,0.1c0.2,0.4,0,0.8-0.3,0.9c-0.6,0.3-1.3,0.5-2,0.5c-2.2,0-3.2-1.5-3.2-3.5v-1.1
	c0-2,1.1-3.6,3.2-3.6c0.7,0,1.4,0.1,2,0.5c0.3,0.2,0.5,0.6,0.3,0.9c0,0,0,0,0,0C50.7,41.3,50.3,41.4,49.9,41.3
	C49.9,41.3,49.9,41.3,49.9,41.3z"/>
<path class="st0" d="M28.2,27.3c0.1-0.1,0.1-0.1,0.2-0.2l5.5-11.6c0.2-0.3,0-0.8-0.3-1c-0.3-0.2-0.7-0.2-1,0.1L24,23.9
	c-0.1,0.1-0.1,0.2-0.1,0.2c-0.1,0.1-0.1,0.2-0.2,0.3c-0.6,1-0.6,2.2,0.1,3.1c0.2,0.2,0.4,0.5,0.6,0.6c0.6,0.4,1.3,0.6,2,0.5
	c0.7-0.1,1.3-0.5,1.7-1.1C28.1,27.5,28.2,27.4,28.2,27.3z"/>
<path class="st0" d="M29.5,47.7c-0.5,0-0.8-0.4-0.8-0.8v-7.1l-2.6,5.4c-0.1,0.3-0.5,0.5-0.8,0.5c-0.4,0-0.7-0.2-0.8-0.5l-2.6-5.4
	v7.1c0,0.5-0.4,0.8-0.8,0.8s-0.8-0.4-0.8-0.8l0,0V36.6c0-0.5,0.4-0.8,0.8-0.8c0,0,0.1,0,0.1,0c0.4-0.1,0.8,0.2,0.9,0.5l3.3,6.9
	l3.4-6.9c0.2-0.4,0.8-0.6,1.2-0.4c0.3,0.1,0.4,0.4,0.5,0.7v10.2C30.4,47.3,30.1,47.7,29.5,47.7C29.6,47.7,29.5,47.7,29.5,47.7z"/>
<path class="st0" d="M36.8,42.7c0-0.5-0.1-1-0.4-1.3c-0.3-0.3-0.7-0.4-1.1-0.4c-0.4,0-0.9,0.1-1.2,0.4c-0.3,0.4-0.4,0.9-0.4,1.3v1.6
	c0,0.5,0.1,1,0.4,1.4c0.3,0.3,0.7,0.4,1.1,0.4c0.4,0,0.9-0.2,1.1-0.5c0.3-0.4,0.4-0.8,0.4-1.3C36.8,44.3,36.8,42.7,36.8,42.7z
	 M31.9,44.3v-3.1c0-2.5,1.2-3.3,2.8-4c0.5-0.2,1.2-0.6,1.2-1.2v-0.5c0-0.5,0.4-0.9,0.9-0.9c0.5,0,0.9,0.4,0.9,0.9V36
	c0,2.1-1.7,2.3-3.1,3.1c-0.2,0.1-0.4,0.3-0.5,0.6c0.3-0.3,0.7-0.4,1.1-0.4c1.7-0.2,3.2,1.1,3.3,2.8c0,0.2,0,0.4,0,0.6v1.7
	c0.2,1.7-1.1,3.2-2.8,3.4c-0.2,0-0.4,0-0.5,0c-1.7,0.2-3.2-1.1-3.4-2.8C31.9,44.7,31.9,44.5,31.9,44.3z"/>
<path class="st1" d="M2.1,28C2.1,14.8,12.8,4.1,26,4.1c13.2,0,23.9,10.7,23.9,23.9"/>
<line class="st2" x1="2.1" y1="27.9" x2="7.8" y2="27.9"/>
<line class="st2" x1="25.9" y1="4.1" x2="25.9" y2="9.9"/>
<line class="st2" x1="9.4" y1="12" x2="13.5" y2="16"/>
<line class="st2" x1="42.4" y1="12" x2="38.3" y2="16"/>
<line class="st2" x1="49.8" y1="28" x2="44.1" y2="28"/>
</svg>
