<?xml version="1.0" encoding="utf-8"?>
<!-- Generator: Adobe Illustrator 21.1.0, SVG Export Plug-In . SVG Version: 6.00 Build 0)  -->
<svg version="1.1" id="Слой_90" xmlns="http://www.w3.org/2000/svg" xmlns:xlink="http://www.w3.org/1999/xlink" x="0px"
	 y="0px" viewBox="0 0 52 52" style="enable-background:new 0 0 52 52;" xml:space="preserve">
<style type="text/css">
	.st0{fill:none;stroke:#000000;stroke-width:2;stroke-linecap:round;stroke-linejoin:round;}
</style>
<title>Protest</title>
<path class="st0" d="M29,10.4V5.7c0-1.8,1.4-3.2,3.2-3.2c1.8,0,3.2,1.4,3.2,3.2c0,0,0,0,0,0v8.1"/>
<path class="st0" d="M22.6,16.5v2.3c0,4,6.4,4.2,6.4,0V8.5"/>
<path class="st0" d="M35.4,7.9c0-4.7,5.8-4.7,5.8,0c0,4.1,2.3,7.8,2.3,15.3c0,8.5-6.4,15-6.4,20.8v5.6"/>
<polyline class="st0" points="29.7,49.5 29.7,44 32.2,42.3 "/>
<path class="st0" d="M41.2,7.8v9.1c0,4.6-5.8,4.6-5.8,0"/>
<path class="st0" d="M16.2,9.2V6.7c-0.2-1.8,1.1-3.3,2.8-3.5C20.8,3,22.4,4.3,22.6,6c0,0.2,0,0.4,0,0.7"/>
<path class="st0" d="M22.6,9.8V5.7c0-1.8,1.4-3.2,3.2-3.2c1.8,0,3.2,1.4,3.2,3.2v2.8"/>
<path class="st0" d="M19.2,49.5V44c0,0,0.3-6-3.5-9.9c-2.9-3-5.8-6.1-6.4-7.3c-1.1-2.2-1-4.8,0.1-7c0.7-1.2,3.7-6.6,4.5-8.2
	c1.1-2.1,3.3-3.3,6.4-2.5c2.3,0.6,4.7,1.2,5.9,1c3.8-0.6,3.4,4.5-1.3,5.5c-2,0.3-4,0-5.8-0.8c-0.8,2-1.8,3.9-2.9,5.7
	c5.9-0.2,11.2,3.3,13.5,8.7"/>
<path class="st0" d="M15.6,34c0,0,3.8,4.4,8.8,4.4"/>
<path class="st0" d="M35.4,11.5v7.3c0,4.2-6.4,4-6.4,0v-3.6"/>
<path class="st0" d="M16.8,19.5c1.5,2.2,5.8,1.6,5.8-1.8v-1.6"/>
</svg>
