<?xml version="1.0" encoding="utf-8"?>
<!-- Generator: Adobe Illustrator 21.1.0, SVG Export Plug-In . SVG Version: 6.00 Build 0)  -->
<svg version="1.1" id="Слой_74" xmlns="http://www.w3.org/2000/svg" xmlns:xlink="http://www.w3.org/1999/xlink" x="0px"
	 y="0px" viewBox="0 0 52 52" style="enable-background:new 0 0 52 52;" xml:space="preserve">
<style type="text/css">
	.st0{fill:none;stroke:#000000;stroke-width:2;stroke-linecap:round;stroke-linejoin:round;}
</style>
<title>Tsennyye bumagi (Rostelekom)</title>
<path class="st0" d="M9.7,2.4h32.7c1,0,1.8,0.8,1.8,1.8v43.5c0,1-0.8,1.8-1.8,1.8H9.7c-1,0-1.8-0.8-1.8-1.8V4.2
	C7.9,3.2,8.7,2.4,9.7,2.4z"/>
<line class="st0" x1="26" y1="12.4" x2="26" y2="19.7"/>
<path class="st0" d="M8.8,3.3l2.8,9.8c0.6,1.7,2.1,2.8,3.9,2.9h21.2c1.8-0.1,3.3-1.2,3.8-2.9l2.8-9.8"/>
<circle class="st0" cx="26" cy="10.6" r="1.8"/>
<circle class="st0" cx="26" cy="21.5" r="1.8"/>
<path class="st0" d="M31.5,25.1c0-2-1.5-3.6-3.5-3.6c-0.1,0-0.1,0-0.2,0"/>
</svg>
