<?xml version="1.0" encoding="utf-8"?>
<!-- Generator: Adobe Illustrator 21.1.0, SVG Export Plug-In . SVG Version: 6.00 Build 0)  -->
<svg version="1.1" id="Слой_401" xmlns="http://www.w3.org/2000/svg" xmlns:xlink="http://www.w3.org/1999/xlink" x="0px"
	 y="0px" viewBox="0 0 52 52" style="enable-background:new 0 0 52 52;" xml:space="preserve">
<style type="text/css">
	.st0{fill:none;stroke:#000000;stroke-width:2;stroke-miterlimit:10;}
</style>
<title>Soyedineniye bez nabora nomera</title>
<path class="st0" d="M42.7,38.2l-7.3-7.9c-0.5-0.6-1.4-0.6-2-0.1c0,0,0,0-0.1,0.1L31.8,32l-1.5,1.6c-0.2,0.2-0.4,0.4-0.6,0.5
	c-1.7,1.7-2.1,1.7-2.1,1.7C26,36.5,24.2,36.1,23,35c-1.5-1.4-3-2.9-4.4-4.5c-1.4-1.5-2.8-3.1-4.1-4.7c-0.9-1.1-1.2-2.6-0.9-4
	c0.2-0.7,0.4-1.3,0.9-1.8c0.4-0.4,0.7-0.9,1-1.4c0.1-0.2,0.3-0.4,0.5-0.6l3.1-3.3c0.6-0.6,0.6-1.6,0-2.2l-7.3-7.8
	c-0.5-0.6-1.4-0.6-2,0c0,0,0,0,0,0c-2.1,2.2-4.7,4.3-6.2,7c-1.2,2.3-1,5.3-0.5,7.8c0.3,1.8,0.9,3.5,1.6,5.2c1.1,2.3,2.3,4.4,3.8,6.5
	c1.4,2,2.9,3.9,4.6,5.7c1.6,1.8,3.4,3.5,5.2,5c1.9,1.6,3.9,3,6,4.1c1.9,1,3.9,1.7,6,2c1.7,0.3,3.5,0.2,5.2-0.3
	c1.2-0.6,2.3-1.5,3.2-2.6c1-1,1.9-1.9,2.9-2.9l1.2-1.3C43.3,39.9,43.3,38.9,42.7,38.2z"/>
<line class="st0" x1="31" y1="32.8" x2="40.2" y2="42.8"/>
<line class="st0" x1="7.1" y1="7.2" x2="16.5" y2="17.2"/>
<circle cx="28.8" cy="12.3" r="1.6"/>
<circle cx="38.8" cy="12.2" r="1.6"/>
<circle cx="48.9" cy="12.3" r="1.6"/>
</svg>
