<?xml version="1.0" encoding="utf-8"?>
<!-- Generator: Adobe Illustrator 21.1.0, SVG Export Plug-In . SVG Version: 6.00 Build 0)  -->
<svg version="1.1" id="Слой_180" xmlns="http://www.w3.org/2000/svg" xmlns:xlink="http://www.w3.org/1999/xlink" x="0px"
	 y="0px" viewBox="0 0 52 52" style="enable-background:new 0 0 52 52;" xml:space="preserve">
<style type="text/css">
	.st0{fill:none;stroke:#000000;stroke-width:2;stroke-linecap:round;stroke-linejoin:round;}
</style>
<title>TV dlya ofisa</title>
<rect x="23.3" y="38.7" class="st0" width="5.4" height="7.2"/>
<path class="st0" d="M7,6h38.1c3,0,5.4,2.4,5.4,5.4v21.8c0,3-2.4,5.4-5.4,5.4H7c-3,0-5.4-2.4-5.4-5.4V11.5C1.5,8.5,3.9,6,7,6z"/>
<line class="st0" x1="13" y1="45.9" x2="39" y2="45.9"/>
<rect x="13.3" y="15.1" class="st0" width="25.4" height="17.2"/>
<path class="st0" d="M13.3,21.5l0.9,1.4c0.7,0.8,1.7,1.3,2.7,1.4h18.1c1.1,0,2.1-0.5,2.7-1.4l0.9-1.4"/>
<path d="M24.9,20.6c0-0.6,0.5-1.1,1.1-1.1c0.6,0,1.1,0.5,1.1,1.1c0,0.6-0.5,1.1-1.1,1.1C25.4,21.7,24.9,21.2,24.9,20.6
	C24.9,20.6,24.9,20.6,24.9,20.6"/>
<path class="st0" d="M21.5,15.2v-1.8c0.1-1.1,1.1-1.9,2.3-1.8h4.5c1.1-0.1,2.1,0.7,2.3,1.8v1.8"/>
</svg>
