<?xml version="1.0" encoding="utf-8"?>
<!-- Generator: Adobe Illustrator 21.1.0, SVG Export Plug-In . SVG Version: 6.00 Build 0)  -->
<svg version="1.1" id="Слой_419" xmlns="http://www.w3.org/2000/svg" xmlns:xlink="http://www.w3.org/1999/xlink" x="0px"
	 y="0px" viewBox="0 0 52 52" style="enable-background:new 0 0 52 52;" xml:space="preserve">
<style type="text/css">
	.st0{fill:none;stroke:#000000;stroke-width:2;stroke-miterlimit:10;}
</style>
<title>Zapret vyzova</title>
<path class="st0" d="M42.9,40l-7.3-7.9c-0.5-0.6-1.4-0.6-2-0.1c0,0,0,0-0.1,0.1L32,33.8l-1.5,1.5c-0.2,0.2-0.4,0.4-0.6,0.5
	c-1.7,1.7-2.1,1.7-2.1,1.7c-1.6,0.6-3.3,0.3-4.6-0.8c-1.5-1.4-3-2.9-4.4-4.5s-2.8-3.1-4.1-4.8c-0.9-1.1-1.2-2.6-0.9-4
	c0.2-0.7,0.5-1.3,0.9-1.8c0.4-0.4,0.7-0.9,1-1.4c0.1-0.2,0.3-0.4,0.5-0.6l3.1-3.3c0.6-0.6,0.6-1.6,0-2.2l-7.3-7.8
	c-0.5-0.6-1.4-0.6-2,0c0,0,0,0,0,0c-2.1,2.2-4.7,4.3-6.2,7c-1.2,2.3-1,5.3-0.5,7.8C3.5,23,4,24.7,4.7,26.3c1.1,2.3,2.3,4.4,3.8,6.5
	c1.4,2,2.9,3.9,4.6,5.7c1.6,1.8,3.4,3.5,5.2,5c1.9,1.6,3.9,3,6,4.1c1.9,1,3.9,1.7,6,2c1.7,0.4,3.5,0.2,5.2-0.3
	c1.2-0.6,2.3-1.5,3.2-2.6l2.9-2.9l1.2-1.3C43.5,41.8,43.5,40.7,42.9,40z"/>
<line class="st0" x1="31.2" y1="34.7" x2="40.4" y2="44.6"/>
<line class="st0" x1="7.3" y1="9" x2="16.7" y2="19.1"/>
<path d="M36.2,16.4c0,0.9-0.3,1.4-1.2,1.4s-1.1-0.6-1.2-1.4L33.6,6c-0.1-0.8,0.4-1.5,1.2-1.6c0.1,0,0.2,0,0.3,0
	c0.8,0,1.5,0.6,1.5,1.4c0,0.1,0,0.2,0,0.2L36.2,16.4z M35.1,23.7c-1.1,0-2-0.9-2-2s0.9-2,2-2s2,0.9,2,2
	C37.1,22.8,36.2,23.7,35.1,23.7L35.1,23.7z"/>
</svg>
