<?xml version="1.0" encoding="utf-8"?>
<!-- Generator: Adobe Illustrator 21.1.0, SVG Export Plug-In . SVG Version: 6.00 Build 0)  -->
<svg version="1.1" id="Слой_312" xmlns="http://www.w3.org/2000/svg" xmlns:xlink="http://www.w3.org/1999/xlink" x="0px"
	 y="0px" viewBox="0 0 52 52" style="enable-background:new 0 0 52 52;" xml:space="preserve">
<style type="text/css">
	.st0{fill:none;stroke:#000000;stroke-width:2;stroke-linecap:round;stroke-linejoin:round;}
</style>
<title>Virtualnyy schet</title>
<polyline class="st0" points="8.8,37.3 3.4,37.3 3.4,18.6 45.4,18.6 45.4,37.3 16.6,37.3 "/>
<line class="st0" x1="14.3" y1="22.5" x2="7.3" y2="22.5"/>
<line class="st0" x1="41.5" y1="33.4" x2="34.5" y2="33.4"/>
<line class="st0" x1="20.5" y1="31.9" x2="25.3" y2="31.9"/>
<path class="st0" d="M20.5,29h4.8c2,0,3-1.2,3-2.4v-1.3c0-0.8-0.8-2.3-3-2.3h-3.4v11.1"/>
<circle class="st0" cx="12.7" cy="37.3" r="3.9"/>
<circle class="st0" cx="29.1" cy="45.1" r="3.9"/>
<circle class="st0" cx="36.9" cy="6.9" r="3.9"/>
<polyline class="st0" points="6.1,18.6 6.7,11.9 48.6,15.6 47,34.2 45.4,34 "/>
<line class="st0" x1="17.2" y1="16.7" x2="10.3" y2="16.1"/>
</svg>
