<?xml version="1.0" encoding="utf-8"?>
<!-- Generator: Adobe Illustrator 21.1.0, SVG Export Plug-In . SVG Version: 6.00 Build 0)  -->
<svg version="1.1" id="Слой_161" xmlns="http://www.w3.org/2000/svg" xmlns:xlink="http://www.w3.org/1999/xlink" x="0px"
	 y="0px" viewBox="0 0 52 52" style="enable-background:new 0 0 52 52;" xml:space="preserve">
<style type="text/css">
	.st0{fill:none;stroke:#000000;stroke-width:2;stroke-linecap:round;stroke-linejoin:round;}
</style>
<title>Remont</title>
<path class="st0" d="M35.7,21.5l6.6-2c1.2-0.4,2.2-1,3.1-1.9c1.9-1.8,2.7-4.5,2.1-7.1c-0.1-0.4-0.6-1.1-1.3-0.4l-2.5,2.5
	c0,0-2.3,3-4.8,0.5s0.5-4.8,0.5-4.8l2.5-2.5c0.8-0.8,0-1.2-0.4-1.3c-3.9-0.8-7.7,1.4-8.9,5.2l-2,6.6L16.3,30.5l-6.6,2
	c-3.7,1.2-6,5.1-5.2,8.9c0.1,0.4,0.6,1.2,1.3,0.4l2.5-2.5c0,0,2.3-3,4.8-0.5s-0.5,4.8-0.5,4.8l-2.5,2.5c-0.8,0.8,0,1.2,0.4,1.3
	c2.6,0.6,5.2-0.2,7.1-2.1c0.8-0.9,1.4-2,1.9-3l2-6.6L35.7,21.5z"/>
</svg>
