<?xml version="1.0" encoding="utf-8"?>
<!-- Generator: Adobe Illustrator 21.1.0, SVG Export Plug-In . SVG Version: 6.00 Build 0)  -->
<svg version="1.1" id="Слой_223" xmlns="http://www.w3.org/2000/svg" xmlns:xlink="http://www.w3.org/1999/xlink" x="0px"
	 y="0px" viewBox="0 0 52 52" style="enable-background:new 0 0 52 52;" xml:space="preserve">
<style type="text/css">
	.st0{fill:none;stroke:#000000;stroke-width:2;stroke-linecap:round;stroke-linejoin:round;}
</style>
<title>sluga Goryachaya liniya</title>
<path class="st0" d="M22.4,36.2c1.1,0.9,2.5,1.4,3.9,1.3c1.5-0.3,2.9-1,4.1-2l3.6-2.8c0.7-0.5,1.6-0.4,2.2,0.2l7.3,8
	c0.5,0.6,0.4,1.5-0.1,2c0,0,0,0-0.1,0c-2.2,1.9-4.7,4.4-7.6,5.6c-2.4,1.1-5.4,0.5-7.9-0.2c-1.7-0.5-3.4-1.2-5-2.1
	c-2.2-1.2-4.3-2.7-6.2-4.4c-3.6-3.3-6.8-7.1-9.4-11.2c-1.3-2.2-2.4-4.5-3.3-6.8c-0.6-1.7-1-3.5-1.2-5.3c-0.3-2.6-0.3-5.6,1.2-7.8
	C5.8,8,8.7,6,11,4.1c0.6-0.5,1.5-0.5,2,0.1c0,0,0,0,0,0l6.6,8.6c0.5,0.7,0.4,1.6-0.2,2.2L16,18.2c-1.2,1-2.1,2.2-2.7,3.7
	c-0.4,1.4-0.2,2.9,0.6,4.1C16.4,29.7,19.2,33.1,22.4,36.2z"/>
<line class="st0" x1="8.2" y1="6.6" x2="16.7" y2="17.6"/>
<line class="st0" x1="40.6" y1="45.3" x2="31.3" y2="35"/>
<path class="st0" d="M41.7,11.3c2.9,2.7,4.5,5.3,4.5,8.2c0,3.8-2.2,7.2-5.7,8.6c1.2-1.4,3.2-6.8-0.5-10.6c-0.9,2.5-2.8,8.4-2.8,8.4
	s-2.9-2-3.5-2.5c-0.4,1.6-0.3,3.3,0.2,4.9c-3.7-1.4-6.2-4.9-6.3-8.8c0-2.4,0.5-4.8,1.6-6.9c0.2,2.5,2.1,4.6,4.6,5.2
	c-2.7-3-2.5-8.1,0.7-11.7c1.4-1.5,3.1-2.5,5-3.1C38.3,6,39.1,8.8,41.7,11.3z"/>
</svg>
