<?xml version="1.0" encoding="utf-8"?>
<!-- Generator: Adobe Illustrator 21.1.0, SVG Export Plug-In . SVG Version: 6.00 Build 0)  -->
<svg version="1.1" id="Слой_234" xmlns="http://www.w3.org/2000/svg" xmlns:xlink="http://www.w3.org/1999/xlink" x="0px"
	 y="0px" viewBox="0 0 52 52" style="enable-background:new 0 0 52 52;" xml:space="preserve">
<style type="text/css">
	.st0{fill:none;stroke:#000000;stroke-width:2;stroke-linecap:round;stroke-linejoin:round;}
</style>
<title>Novaya telefoniya</title>
<path class="st0" d="M28.3,38.6c0.8,0.7,1.9,1.1,3,1c1.2-0.2,2.2-0.7,3.1-1.5l2.8-2.2c0.5-0.4,1.2-0.3,1.7,0.1l5.5,6.1
	c0.4,0.5,0.3,1.1-0.1,1.5c0,0,0,0,0,0c-1.7,1.5-3.6,3.3-5.8,4.3c-1.8,0.8-4.1,0.4-6-0.1c-1.3-0.4-2.6-0.9-3.8-1.6
	c-1.7-0.9-3.2-2.1-4.7-3.3c-2.8-2.5-5.2-5.4-7.1-8.5c-1-1.6-1.8-3.4-2.5-5.2c-0.5-1.3-0.8-2.7-0.9-4.1c-0.2-1.9-0.2-4.2,0.9-5.9
	c1.3-2,3.5-3.5,5.2-4.9c0.4-0.4,1.1-0.4,1.5,0.1c0,0,0,0,0,0.1l5,6.5c0.4,0.5,0.3,1.2-0.2,1.7l-2.6,2.4c-0.9,0.7-1.6,1.7-2,2.8
	c-0.3,1-0.1,2.2,0.4,3.1C23.7,33.6,25.9,36.2,28.3,38.6z"/>
<line class="st0" x1="17.5" y1="16.1" x2="24" y2="24.4"/>
<line class="st0" x1="42.2" y1="45.5" x2="35.1" y2="37.6"/>
<path class="st0" d="M42.2,31.8c3.6,0,6.5-3.2,6.5-7.3s-2.9-7.3-6.5-7.3l0,0c-0.4-4.1-3.5-7.3-7.2-7.3c-1.7,0-3.3,0.6-4.6,1.8
	C29,6.6,24.9,3,19.7,3C13.5,3,8.2,8.5,8.2,15.5c0,0.7,0,1.3,0.1,2c-3.1,1-5.1,3.9-5,7.1c0,4,2.9,7.3,6.5,7.3"/>
</svg>
