<?xml version="1.0" encoding="utf-8"?>
<!-- Generator: Adobe Illustrator 21.1.0, SVG Export Plug-In . SVG Version: 6.00 Build 0)  -->
<svg version="1.1" id="Слой_149" xmlns="http://www.w3.org/2000/svg" xmlns:xlink="http://www.w3.org/1999/xlink" x="0px"
	 y="0px" viewBox="0 0 52 52" style="enable-background:new 0 0 52 52;" xml:space="preserve">
<style type="text/css">
	.st0{fill:none;stroke:#000000;stroke-width:2;stroke-linecap:round;stroke-linejoin:round;}
	.st1{fill:none;stroke:#000000;stroke-width:2;stroke-miterlimit:10;}
</style>
<title>Vykhod</title>
<line class="st0" x1="19.5" y1="27.6" x2="3.5" y2="27.6"/>
<polyline class="st0" points="11.6,19.5 3.5,27.6 11.6,35.6 "/>
<path class="st0" d="M24,44.2V9.9c0-1,0.8-1.8,1.8-1.8h5.9"/>
<path class="st0" d="M33.9,47.5l13.2-2.9c0.8-0.2,1.4-0.9,1.4-1.8V9.9c0-0.8-0.5-1.5-1.3-1.7L33.9,4.5C33,4.2,32,4.8,31.7,5.7
	c0,0.2-0.1,0.3-0.1,0.5v39.6c0,1,0.8,1.8,1.7,1.8C33.5,47.6,33.7,47.6,33.9,47.5"/>
<path class="st1" d="M33.9,47.5l13.2-2.9c0.8-0.2,1.4-0.9,1.4-1.8V9.9c0-0.8-0.5-1.5-1.3-1.7L33.9,4.5C33,4.2,32,4.8,31.7,5.7
	c0,0.2-0.1,0.3-0.1,0.5v39.6c0,1,0.8,1.8,1.7,1.8C33.5,47.6,33.7,47.6,33.9,47.5"/>
<path class="st0" d="M33.9,47.5l13.2-2.9c0.8-0.2,1.4-0.9,1.4-1.8V9.9c0-0.8-0.5-1.5-1.3-1.7L33.9,4.5C33,4.2,32,4.8,31.7,5.7
	c0,0.2-0.1,0.3-0.1,0.5v39.6c0,1,0.8,1.8,1.8,1.8C33.6,47.6,33.7,47.6,33.9,47.5z"/>
<path d="M36.2,27.6c0,0.6-0.5,1.1-1.1,1.1S34,28.2,34,27.6s0.5-1.1,1.1-1.1h0C35.7,26.6,36.2,27.1,36.2,27.6"/>
</svg>
