<?xml version="1.0" encoding="utf-8"?>
<!-- Generator: Adobe Illustrator 21.1.0, SVG Export Plug-In . SVG Version: 6.00 Build 0)  -->
<svg version="1.1" id="Слой_127" xmlns="http://www.w3.org/2000/svg" xmlns:xlink="http://www.w3.org/1999/xlink" x="0px"
	 y="0px" viewBox="0 0 52 52" style="enable-background:new 0 0 52 52;" xml:space="preserve">
<style type="text/css">
	.st0{fill:none;stroke:#000000;stroke-width:2;stroke-miterlimit:10;}
</style>
<title>Bonusnaya programma Podklyuchi druga</title>
<ellipse class="st0" cx="15.5" cy="20.4" rx="7.3" ry="9.4"/>
<ellipse class="st0" cx="15.5" cy="20.4" rx="7.3" ry="9.4"/>
<ellipse class="st0" cx="34.5" cy="16.9" rx="8.4" ry="10.9"/>
<ellipse class="st0" cx="34.5" cy="16.9" rx="8.4" ry="10.9"/>
<path class="st0" d="M19.4,42.5c-0.2-1-0.3-2.1-0.3-3.2c0-3.9,1.5-7.1,3.9-9.5c-1.1-0.6-2.4-1.1-3.7-1.4c-1.1,0.9-2.4,1.4-3.8,1.4
	c-1.4,0-2.7-0.5-3.8-1.4c-5.6,1.3-9.6,5.4-9.6,11.5c0,0.8,0,1.7,0.2,2.5c0.3,0.9,1.1,1.5,2,1.5h16.5C20.2,43.7,19.6,43.2,19.4,42.5z
	"/>
<path class="st0" d="M39,26.1c-1.3,1.1-2.8,1.7-4.5,1.7c-1.6,0-3.2-0.6-4.5-1.7c-6.3,1.5-10.9,6.2-10.9,13.2c0,1.1,0.1,2.2,0.3,3.2
	c0.3,0.9,1.1,1.5,2,1.5h26.3c0.9,0,1.7-0.6,1.9-1.5c0.2-1.1,0.3-2.1,0.3-3.2C49.9,32.3,45.3,27.6,39,26.1z"/>
</svg>
