<?xml version="1.0" encoding="utf-8"?>
<!-- Generator: Adobe Illustrator 21.1.0, SVG Export Plug-In . SVG Version: 6.00 Build 0)  -->
<svg version="1.1" id="Слой_302" xmlns="http://www.w3.org/2000/svg" xmlns:xlink="http://www.w3.org/1999/xlink" x="0px"
	 y="0px" viewBox="0 0 52 52" style="enable-background:new 0 0 52 52;" xml:space="preserve">
<style type="text/css">
	.st0{fill:none;stroke:#000000;stroke-width:2;stroke-miterlimit:10;}
</style>
<title>Razvlecheniya</title>
<circle class="st0" cx="26" cy="23.7" r="15.2"/>
<circle class="st0" cx="26" cy="23.7" r="2.4"/>
<polyline class="st0" points="24.9,26 15.2,49.4 37,49.4 26.6,26 "/>
<circle class="st0" cx="12.9" cy="10.7" r="3.4"/>
<circle class="st0" cx="38.9" cy="36.6" r="3.4"/>
<circle class="st0" cx="12.9" cy="36.7" r="3.4"/>
<circle class="st0" cx="38.9" cy="10.6" r="3.4"/>
<ellipse transform="matrix(0.7071 -0.7071 0.7071 0.7071 3.8613 19.8263)" class="st0" cx="25.9" cy="5.3" rx="3.4" ry="3.4"/>
<ellipse transform="matrix(0.7071 -0.7071 0.7071 0.7071 -22.1149 30.662)" class="st0" cx="26" cy="42" rx="3.4" ry="3.4"/>
<ellipse transform="matrix(0.7071 -0.7071 0.7071 0.7071 -14.5447 12.256)" class="st0" cx="7.5" cy="23.7" rx="3.4" ry="3.4"/>
<ellipse transform="matrix(0.7071 -0.7071 0.7071 0.7071 -3.7089 38.2323)" class="st0" cx="44.3" cy="23.6" rx="3.4" ry="3.4"/>
</svg>
