<?xml version="1.0" encoding="utf-8"?>
<!-- Generator: Adobe Illustrator 21.1.0, SVG Export Plug-In . SVG Version: 6.00 Build 0)  -->
<svg version="1.1" id="Слой_208" xmlns="http://www.w3.org/2000/svg" xmlns:xlink="http://www.w3.org/1999/xlink" x="0px"
	 y="0px" viewBox="0 0 52 52" style="enable-background:new 0 0 52 52;" xml:space="preserve">
<style type="text/css">
	.st0{fill:none;stroke:#000000;stroke-width:2;stroke-linecap:round;stroke-linejoin:round;}
</style>
<title>Paket Optimizator</title>
<path class="st0" d="M35.7,30.3l-1.4,1.2l-3,2.6l0.5,2.2l0,0l0.4,1.7l0.4,1.8c0.3,1.2-0.3,1.6-1.4,1l-1.5-0.9l-1.6-0.9l-1.9-1.2
	l-1.9,1.2l-1.5,0.9l-1.5,0.9c-1,0.6-1.7,0.2-1.4-1l0.4-1.8l0.4-1.8l0,0l0.5-2.2l-3-2.6l-1.4-1.2c-0.9-0.8-0.7-1.5,0.5-1.6l1.8-0.2
	l4-0.3l1.5-3.7l0.7-1.7c0.5-1.1,1.2-1.1,1.7,0l0.7,1.7l1.5,3.7l4,0.3l1.8,0.1C36.4,28.8,36.6,29.5,35.7,30.3z"/>
<path class="st0" d="M4.2,13.3h43.5c0.5,0,0.9,0.4,0.9,0.9v34.5c0,0.5-0.4,0.9-0.9,0.9H4.2c-0.5,0-0.9-0.4-0.9-0.9V14.2
	C3.3,13.7,3.7,13.3,4.2,13.3z"/>
<path class="st0" d="M17.8,17.8v-7.7c0-4.5,3.6-7.7,8.2-7.7s8.2,3.2,8.2,7.7v7.7"/>
<circle cx="17.8" cy="17.8" r="1.4"/>
<circle cx="34.2" cy="17.8" r="1.4"/>
</svg>
