<?xml version="1.0" encoding="utf-8"?>
<!-- Generator: Adobe Illustrator 21.1.0, SVG Export Plug-In . SVG Version: 6.00 Build 0)  -->
<svg version="1.1" id="Слой_57" xmlns="http://www.w3.org/2000/svg" xmlns:xlink="http://www.w3.org/1999/xlink" x="0px"
	 y="0px" viewBox="0 0 52 52" style="enable-background:new 0 0 52 52;" xml:space="preserve">
<style type="text/css">
	.st0{fill:none;stroke:#000000;stroke-width:2;stroke-linecap:round;stroke-linejoin:round;}
</style>
<title>Obrazovaniye</title>
<path class="st0" d="M7,9.2H3.3v34.5h15.5c2.7,0,4.5,1.8,5.4,1.8H26"/>
<path class="st0" d="M7,6.5h10c6.2-0.1,9,3.9,9,3.9v31.7c-2.2-1.3-4.7-2-7.3-2.1H7V6.5"/>
<path class="st0" d="M45,6.5H35c-6.2-0.1-9,3.9-9,3.9v31.7c2.2-1.3,4.7-2,7.3-2.1H45V6.5"/>
<path class="st0" d="M45,9.2h3.6v34.5H33.2c-2.7,0-4.5,1.8-5.4,1.8H26"/>
</svg>
