<?xml version="1.0" encoding="utf-8"?>
<!-- Generator: Adobe Illustrator 21.1.0, SVG Export Plug-In . SVG Version: 6.00 Build 0)  -->
<svg version="1.1" id="Слой_207" xmlns="http://www.w3.org/2000/svg" xmlns:xlink="http://www.w3.org/1999/xlink" x="0px"
	 y="0px" viewBox="0 0 52 52" style="enable-background:new 0 0 52 52;" xml:space="preserve">
<style type="text/css">
	.st0{fill:none;stroke:#000000;stroke-width:2;stroke-linecap:round;stroke-linejoin:round;}
</style>
<title>Monitoring agropromyshlennogo kompleksa</title>
<path class="st0" d="M20,41.3c2.6-2.6,2.6-6.7,0-9.3s-6.7-2.6-9.3,0L20,41.3z"/>
<path class="st0" d="M35,26.3c2.6-2.6,2.6-6.8,0-9.3s-6.8-2.6-9.3,0l-9.3,9.3l9.3,9.4L35,26.3z"/>
<rect x="7.8" y="4.2" transform="matrix(0.707 -0.7072 0.7072 0.707 -4.8361 12.069)" class="st0" width="8.8" height="15.4"/>
<line class="st0" x1="17.6" y1="17.3" x2="21.5" y2="21.2"/>
<rect x="35.7" y="32.2" transform="matrix(0.7071 -0.7071 0.7071 0.7071 -16.4288 40.0388)" class="st0" width="8.8" height="15.4"/>
<line class="st0" x1="34.7" y1="34.4" x2="30.8" y2="30.5"/>
<path class="st0" d="M10.5,37c0,2.5,2,4.5,4.5,4.5c0,0,0,0,0,0"/>
<path class="st0" d="M15,45.1c-4.5,0-8.1-3.6-8.1-8.1l0,0"/>
<path class="st0" d="M3.3,37c0,6.4,5.2,11.7,11.7,11.7c0,0,0,0,0.1,0"/>
</svg>
