<?xml version="1.0" encoding="utf-8"?>
<!-- Generator: Adobe Illustrator 21.1.0, SVG Export Plug-In . SVG Version: 6.00 Build 0)  -->
<svg version="1.1" id="Слой_87" xmlns="http://www.w3.org/2000/svg" xmlns:xlink="http://www.w3.org/1999/xlink" x="0px"
	 y="0px" viewBox="0 0 52 52" style="enable-background:new 0 0 52 52;" xml:space="preserve">
<style type="text/css">
	.st0{fill:none;stroke:#000000;stroke-width:2;stroke-linecap:round;stroke-linejoin:round;}
</style>
<title>Bankovskiye uslugi</title>
<path class="st0" d="M14.1,48.9H4.2v-7.4c0.1-2.6,1.7-4.9,4-6.1L22,29.2c2.6-1,5.4-1,8,0l13.8,6.1c2.3,1.2,3.9,3.5,4,6.1v7.4H14.1z"
	/>
<line class="st0" x1="24.2" y1="33.5" x2="27.8" y2="33.5"/>
<polyline class="st0" points="30.5,48.9 27.8,33.5 29.6,29.1 "/>
<polyline class="st0" points="21.5,48.9 24.2,33.5 22.4,29.1 "/>
<path class="st0" d="M34,14v5.6c0,4.3-3.5,7.8-7.8,7.8h-0.4c-4.3,0-7.8-3.5-7.8-7.8V14"/>
<path class="st0" d="M18,14V6.3C18,2,34,2,34,6.3V14"/>
<line class="st0" x1="14.2" y1="14" x2="37.8" y2="14"/>
</svg>
