<?xml version="1.0" encoding="utf-8"?>
<!-- Generator: Adobe Illustrator 21.1.0, SVG Export Plug-In . SVG Version: 6.00 Build 0)  -->
<svg version="1.1" id="Слой_88" xmlns="http://www.w3.org/2000/svg" xmlns:xlink="http://www.w3.org/1999/xlink" x="0px"
	 y="0px" viewBox="0 0 52 52" style="enable-background:new 0 0 52 52;" xml:space="preserve">
<style type="text/css">
	.st0{fill:none;stroke:#000000;stroke-width:2;stroke-linecap:round;stroke-linejoin:round;}
</style>
<title>Obshchestvennoye pitaniye</title>
<path class="st0" d="M45.5,45v-5.9c-0.1-2.3-1.5-4.4-3.6-5.5l-12.3-5.5c-2.3-0.9-4.9-0.9-7.2,0l-12.3,5.5c-2.1,1-3.5,3.1-3.6,5.5V45
	H13l1.6,4.9h22.8L39,45L45.5,45z"/>
<path class="st0" d="M33.3,49.9V38c0-8.2-9-10.4-9-10.4"/>
<path d="M26.4,36.1c0-0.7,0.5-1.2,1.2-1.2c0.7,0,1.2,0.5,1.2,1.2s-0.5,1.2-1.2,1.2C27,37.3,26.4,36.7,26.4,36.1L26.4,36.1"/>
<path d="M27.2,44.2c0-0.7,0.5-1.2,1.2-1.2c0.7,0,1.2,0.5,1.2,1.2c0,0.7-0.5,1.2-1.2,1.2C27.8,45.4,27.2,44.9,27.2,44.2L27.2,44.2"/>
<path class="st0" d="M33.2,14.6v5c0,3.9-3.1,7-7,7h-0.3c-3.9,0-7-3.1-7-7v-5"/>
<polyline class="st0" points="34.5,10.5 34.5,14.6 17.5,14.6 17.5,10.5 "/>
<path class="st0" d="M17.5,10.5c-3.8-1.2-2.5-4.9,0.4-4.9c2.3-4.6,11.8-4.7,15.3,0.5c5.6,0,6.7,6.5,1.4,6.5"/>
</svg>
