<?xml version="1.0" encoding="utf-8"?>
<!-- Generator: Adobe Illustrator 21.1.0, SVG Export Plug-In . SVG Version: 6.00 Build 0)  -->
<svg version="1.1" id="Слой_176" xmlns="http://www.w3.org/2000/svg" xmlns:xlink="http://www.w3.org/1999/xlink" x="0px"
	 y="0px" viewBox="0 0 52 52" style="enable-background:new 0 0 52 52;" xml:space="preserve">
<style type="text/css">
	.st0{fill:none;stroke:#000000;stroke-width:2;stroke-linecap:round;stroke-linejoin:round;}
</style>
<title>Pult Rostelekom</title>
<path class="st0" d="M18.5,23c0,5.2,1.9,21,1.9,21c0.2,1.7,1.6,2.9,3.3,3h4.5c1.7,0,3.1-1.3,3.3-3c0,0,1.9-15.7,1.9-21
	s0-17.9,0-17.9c-2.4,1-4.9,1.5-7.5,1.5c-2.6,0-5.1-0.5-7.5-1.5C18.5,5.1,18.5,17.8,18.5,23z"/>
<circle class="st0" cx="26" cy="16.6" r="4.1"/>
<path class="st0" d="M22.4,26.3c2.3,0.9,4.9,0.9,7.2,0"/>
<path class="st0" d="M29.8,22.8c-2.3,1.4-5.2,1.4-7.5,0"/>
<path d="M27.5,16.6c0,0.8-0.7,1.5-1.5,1.5c-0.8,0-1.5-0.7-1.5-1.5c0-0.8,0.7-1.5,1.5-1.5C26.8,15.1,27.5,15.8,27.5,16.6
	C27.5,16.6,27.5,16.6,27.5,16.6"/>
<path d="M27.3,42.2c-0.6,0.6-1.7,0.4-2.5-0.3l-0.2-0.2c-1.3-1.8-1.9-4-1.7-6.3c0.1-0.5,0.3-1.1,0.6-1.6l0,0c0,0.1,0,0.2,0,0.3
	c0,0.2,0,0.2,0,0.3v0.2c0,0.9,0.3,1.7,0.8,2.4l0.2,0.2l0.1,0.1l0.1,0.1l0.1,0.1l0.1,0.1l0.5,0.5l0.2,0.2l0.4,0.4
	c0.4,0.3,0.7,0.6,1.1,1C27.7,40.3,27.9,41.4,27.3,42.2 M28.7,36.8c0.6-1,0.7-2.2,0.1-3.2c-0.3-0.6-0.8-1-1.4-1.3l0.1,0.1v0.1v0.1
	v0.1v0.1c0,0.1,0,0.2,0,0.3c0,0.1,0,0.2,0,0.3v0.1l-0.1,0.3V34l-0.1,0.3l0,0c-0.2,0.4-0.4,0.7-0.7,1c-0.1,0.1-0.1,0.1-0.1,0.2
	c-0.2,0.3-0.3,0.7-0.3,1.1c0,0.3,0.2,0.6,0.5,0.7c0.6,0.4,1.4,0.1,1.8-0.5L28.7,36.8z M25.3,32.2l-0.1,0h-0.1l-0.1,0l-0.2,0.1
	l-0.1,0.1c-0.2,0.1-0.3,0.2-0.4,0.4c-0.1,0.1-0.1,0.2-0.1,0.2c-0.1,0.3-0.2,0.5-0.3,0.8c0,0.1,0,0.2,0,0.2c0,0.1,0,0.1,0,0.2v0.2
	c0,0.7,0.3,1.5,0.7,2.1c0-0.2,0-0.4,0-0.6c0.1-1.4,1-2.5,2.1-2.5c0.1,0,0.3,0,0.4,0.1c0-0.1,0-0.2,0-0.2c0-0.1,0-0.2,0-0.2
	c0-0.2,0-0.5-0.2-0.7l-0.1-0.2l-0.1-0.1l-0.2-0.1h-0.1h-0.1h-0.1C25.9,32.1,25.6,32.2,25.3,32.2"/>
</svg>
