<?xml version="1.0" encoding="utf-8"?>
<!-- Generator: Adobe Illustrator 21.1.0, SVG Export Plug-In . SVG Version: 6.00 Build 0)  -->
<svg version="1.1" id="Слой_279" xmlns="http://www.w3.org/2000/svg" xmlns:xlink="http://www.w3.org/1999/xlink" x="0px"
	 y="0px" viewBox="0 0 52 52" style="enable-background:new 0 0 52 52;" xml:space="preserve">
<style type="text/css">
	.st0{fill:#FFFFFF;}
	.st1{fill:none;stroke:#000000;stroke-width:2;stroke-linecap:round;stroke-linejoin:round;}
</style>
<title>Zapret identifikatsii nomera vyzyvayushchego abonenta</title>
<path d="M34.8,18.5c-3.5,0-5.8-4.8-12.7-0.1c1,4,3.5,7.8,7.2,6.9c2.6-0.7,3.3-2.3,5.5-2.3s2.8,1.7,5.5,2.3c3.7,0.9,6.2-3,7.2-6.9
	C40.6,13.7,38.3,18.5,34.8,18.5z M40.4,22.3c-1.3,0-2.9-1.6-2.9-1.6s3-2.8,5.6-1C42.7,21.2,41.8,22.3,40.4,22.3z"/>
<path class="st0" d="M32,20.8c0,0-1.6,1.6-2.9,1.6s-2.3-1.1-2.7-2.6C29,18,32,20.8,32,20.8"/>
<line class="st1" x1="47.5" y1="18.4" x2="47.5" y2="33.3"/>
<path class="st1" d="M21.2,35.7c1.1,0.9,2.5,1.4,3.9,1.3c1.5-0.3,2.9-1,4.1-2l3.6-2.8c0.7-0.5,1.6-0.4,2.2,0.2l7.3,8
	c0.5,0.6,0.4,1.5-0.2,2c0,0,0,0,0,0c-2.2,1.9-4.7,4.4-7.6,5.6c-2.4,1.1-5.4,0.5-7.9-0.2c-1.7-0.5-3.4-1.2-5-2.1
	c-2.2-1.2-4.3-2.7-6.2-4.4c-3.6-3.3-6.8-7.1-9.4-11.2c-1.3-2.2-2.4-4.5-3.3-6.8c-0.6-1.7-1-3.5-1.2-5.3c-0.3-2.6-0.3-5.6,1.2-7.8
	c1.7-2.6,4.6-4.6,6.9-6.5c0.6-0.5,1.5-0.5,2,0.1c0,0,0,0,0,0l6.6,8.6c0.5,0.7,0.4,1.6-0.2,2.2l-3.5,3.1c-1.2,1-2.1,2.2-2.7,3.7
	c-0.4,1.4-0.2,2.9,0.6,4.1C15.2,29.2,18,32.6,21.2,35.7z"/>
<line class="st1" x1="7" y1="6.2" x2="15.5" y2="17.1"/>
<line class="st1" x1="39.4" y1="44.8" x2="30.1" y2="34.5"/>
</svg>
