<?xml version="1.0" encoding="utf-8"?>
<!-- Generator: Adobe Illustrator 21.1.0, SVG Export Plug-In . SVG Version: 6.00 Build 0)  -->
<svg version="1.1" id="Слой_377" xmlns="http://www.w3.org/2000/svg" xmlns:xlink="http://www.w3.org/1999/xlink" x="0px"
	 y="0px" viewBox="0 0 52 52" style="enable-background:new 0 0 52 52;" xml:space="preserve">
<style type="text/css">
	.st0{fill:none;stroke:#000000;stroke-width:2;stroke-miterlimit:10;}
	.st1{fill:#FFFFFF;stroke:#000000;stroke-width:2;stroke-miterlimit:10;}
	.st2{fill:#FFFFFF;}
	.st3{fill:none;stroke:#000000;stroke-width:2;stroke-linecap:round;stroke-linejoin:round;stroke-miterlimit:10;}
</style>
<title>Oplati v kredit</title>
<g>
	<path d="M5.4,38.8V18.6c0-2.6,2.1-4.7,4.7-4.7h34.6c1.2,0,2.4,0.5,3.2,1.3l-0.8-4.9c-0.5-3.1-3.5-5.3-6.6-4.7L6.3,11.2
		c-3.1,0.5-5.3,3.5-4.7,6.6l3.3,19.9C5,38.4,5.2,39,5.5,39.5C5.5,39.3,5.4,39,5.4,38.8z"/>
</g>
<path class="st0" d="M44.3,13.3H10.6c-3.1,0-5.6,2.5-5.6,5.6v19.6c0,3.1,2.5,5.6,5.6,5.6h33.7c3.1,0,5.6-2.5,5.6-5.6V18.9
	C49.9,15.8,47.4,13.3,44.3,13.3z"/>
<path class="st1" d="M5.6,22.9L5.6,22.9z"/>
<rect x="35.2" y="32.2" class="st2" width="7.9" height="4.5"/>
<rect x="35.2" y="32.2" class="st3" width="7.9" height="4.5"/>
</svg>
