<?xml version="1.0" encoding="utf-8"?>
<!-- Generator: Adobe Illustrator 21.1.0, SVG Export Plug-In . SVG Version: 6.00 Build 0)  -->
<svg version="1.1" id="Слой_192" xmlns="http://www.w3.org/2000/svg" xmlns:xlink="http://www.w3.org/1999/xlink" x="0px"
	 y="0px" viewBox="0 0 52 52" style="enable-background:new 0 0 52 52;" xml:space="preserve">
<style type="text/css">
	.st0{fill:none;stroke:#000000;stroke-width:2;stroke-linecap:round;stroke-linejoin:round;}
</style>
<title>Mobilnyye kontakty</title>
<path class="st0" d="M14.7,1.5h22.6c1.3,0,2.3,1,2.3,2.3v44.4c0,1.3-1,2.3-2.3,2.3H14.7c-1.3,0-2.3-1-2.3-2.3V3.8
	C12.4,2.5,13.4,1.5,14.7,1.5z"/>
<line class="st0" x1="39.6" y1="41.4" x2="12.4" y2="41.4"/>
<line class="st0" x1="39.6" y1="8.8" x2="12.4" y2="8.8"/>
<line class="st0" x1="35.1" y1="46" x2="29.6" y2="46"/>
<line class="st0" x1="22.4" y1="46" x2="16.9" y2="46"/>
<path class="st0" d="M18.6,41.4h-6.2v-4.7c0.1-1.6,1-3.1,2.5-3.8l8.6-3.8c1.6-0.6,3.4-0.6,5,0l8.6,3.8c1.5,0.7,2.4,2.2,2.5,3.8v4.7
	L18.6,41.4L18.6,41.4z"/>
<path class="st0" d="M31,23.1c0,2.7-2.2,4.9-4.9,4.9h-0.2c-2.7,0-4.9-2.2-4.9-4.9c0,0,0,0,0,0v-3.5c0-2.7,2.2-4.9,4.9-4.9h0.2
	c2.7,0,4.9,2.2,4.9,4.9V23.1z"/>
<path class="st0" d="M30.9,30.2l-2.4,1.1c-1.6,0.6-3.4,0.6-5,0l-2.4-1"/>
</svg>
