<?xml version="1.0" encoding="utf-8"?>
<!-- Generator: Adobe Illustrator 21.1.0, SVG Export Plug-In . SVG Version: 6.00 Build 0)  -->
<svg version="1.1" id="Слой_210" xmlns="http://www.w3.org/2000/svg" xmlns:xlink="http://www.w3.org/1999/xlink" x="0px"
	 y="0px" viewBox="0 0 52 52" style="enable-background:new 0 0 52 52;" xml:space="preserve">
<style type="text/css">
	.st0{fill:none;stroke:#000000;stroke-width:2;stroke-linecap:round;stroke-linejoin:round;}
</style>
<title>Shirokiy modelnyy ryad besprovodnogo oborudovaniya</title>
<path class="st0" d="M6,29.8h40c1.8,0,3.3,1.5,3.3,3.3v8.3c0,1.8-1.5,3.3-3.3,3.3H6c-1.8,0-3.3-1.5-3.3-3.3v-8.3
	C2.7,31.2,4.2,29.8,6,29.8z"/>
<circle class="st0" cx="11.8" cy="37.3" r="3.3"/>
<line class="st0" x1="19.3" y1="36.3" x2="19.3" y2="38.4"/>
<line class="st0" x1="22.7" y1="36.3" x2="22.7" y2="38.4"/>
<line class="st0" x1="26" y1="36.3" x2="26" y2="38.4"/>
<line class="st0" x1="29.3" y1="36.3" x2="29.3" y2="38.4"/>
<line class="st0" x1="32.7" y1="36.3" x2="32.7" y2="38.4"/>
<rect x="38.5" y="21.4" class="st0" width="3.3" height="8.3"/>
<line class="st0" x1="40.2" y1="21.4" x2="40.2" y2="7.3"/>
<path class="st0" d="M4.6,20.3h22.9c1.1,0,1.9,0.9,1.9,1.9V27c0,1.1-0.9,1.9-1.9,1.9H4.6c-1.1,0-1.9-0.9-1.9-1.9v-4.8
	C2.7,21.2,3.5,20.3,4.6,20.3z"/>
<circle class="st0" cx="7.9" cy="24.6" r="1.9"/>
<line class="st0" x1="13.9" y1="24.1" x2="13.9" y2="25.3"/>
<line class="st0" x1="17.7" y1="24.1" x2="17.7" y2="25.3"/>
<line class="st0" x1="21.5" y1="24.1" x2="21.5" y2="25.3"/>
<line class="st0" x1="24.3" y1="20.3" x2="21" y2="7.3"/>
<line class="st0" x1="24.3" y1="20.3" x2="27.7" y2="7.3"/>
</svg>
