<?xml version="1.0" encoding="utf-8"?>
<!-- Generator: Adobe Illustrator 21.1.0, SVG Export Plug-In . SVG Version: 6.00 Build 0)  -->
<svg version="1.1" id="Слой_111" xmlns="http://www.w3.org/2000/svg" xmlns:xlink="http://www.w3.org/1999/xlink" x="0px"
	 y="0px" viewBox="0 0 52 52" style="enable-background:new 0 0 52 52;" xml:space="preserve">
<style type="text/css">
	.st0{fill:none;stroke:#000000;stroke-width:2;stroke-linecap:round;stroke-linejoin:round;}
</style>
<title>Napominaniye</title>
<path class="st0" d="M34.7,48.7c0,0-2.6-9.2,0.3-15.4l4.9-10.4C42.6,17,40.1,10,34.2,7.3s-12.8-0.2-15.5,5.7l0,0l-4.9,10.4
	c-3,6.5-11.7,10.1-11.7,10.1L34.7,48.7"/>
<path class="st0" d="M36.8,8.9l0.6-1.3c0.9-1.4,0.5-3.2-0.9-4.2s-3.2-0.5-4.2,0.9C32.2,4.5,32.1,4.8,32,5l-0.6,1.3"/>
<path class="st0" d="M21.1,42.4l-0.6,1.2c-0.5,1.6-2.1,2.5-3.7,2c-1.6-0.5-2.5-2.1-2-3.7c0.1-0.3,0.2-0.5,0.4-0.8l0.6-1.2"/>
<path class="st0" d="M39.6,35.5c3.6-1.3,5.5-5.3,4.2-9c0,0,0,0,0,0"/>
<path class="st0" d="M41.5,40.8c6.5-2.4,9.9-9.6,7.5-16.1"/>
<path class="st0" d="M9.1,21.3c-1.3-3.6,0.5-7.7,4.1-9c0,0,0,0,0,0"/>
<path class="st0" d="M3.8,23.2c-2.4-6.5,1-13.7,7.5-16.1"/>
</svg>
