<?xml version="1.0" encoding="utf-8"?>
<!-- Generator: Adobe Illustrator 21.1.0, SVG Export Plug-In . SVG Version: 6.00 Build 0)  -->
<svg version="1.1" id="Слой_199" xmlns="http://www.w3.org/2000/svg" xmlns:xlink="http://www.w3.org/1999/xlink" x="0px"
	 y="0px" viewBox="0 0 52 52" style="enable-background:new 0 0 52 52;" xml:space="preserve">
<style type="text/css">
	.st0{fill:none;stroke:#000000;stroke-width:2;stroke-linecap:round;stroke-linejoin:round;}
</style>
<title>Mobil&amp;apos;naya svyaz</title>
<path class="st0" d="M30.7,37.8v10.4c0,1.3-1,2.3-2.3,2.3H5.8c-1.3,0-2.3-1-2.3-2.3V3.8c0-1.3,1-2.3,2.3-2.3h22.6
	c1.3,0,2.3,1,2.3,2.3V37.8L30.7,37.8z"/>
<line class="st0" x1="30.7" y1="41.4" x2="3.5" y2="41.4"/>
<line class="st0" x1="30.7" y1="8.8" x2="3.5" y2="8.8"/>
<line class="st0" x1="26.1" y1="46" x2="20.7" y2="46"/>
<line class="st0" x1="13.4" y1="46" x2="8" y2="46"/>
<path class="st0" d="M34.3,30.4c2.9-2.9,2.9-7.7,0-10.6"/>
<path class="st0" d="M38.6,34.6c5.3-5.3,5.3-13.8,0-19.1c0,0,0,0,0,0"/>
<path class="st0" d="M42.8,38.9c7.6-7.6,7.6-19.9,0-27.5c0,0,0,0,0,0"/>
</svg>
