<?xml version="1.0" encoding="utf-8"?>
<!-- Generator: Adobe Illustrator 21.1.0, SVG Export Plug-In . SVG Version: 6.00 Build 0)  -->
<svg version="1.1" id="Слой_204" xmlns="http://www.w3.org/2000/svg" xmlns:xlink="http://www.w3.org/1999/xlink" x="0px"
	 y="0px" viewBox="0 0 52 52" style="enable-background:new 0 0 52 52;" xml:space="preserve">
<style type="text/css">
	.st0{fill:none;stroke:#000000;stroke-width:2;stroke-linecap:round;stroke-linejoin:round;}
</style>
<title>Oblako_Oblachnyye uslugi_Oblachnaya platforma</title>
<path class="st0" d="M11.1,39.4H9.2c-3.7,0-6.7-3.4-6.7-7.5c-0.1-3.3,2-6.4,5.2-7.4c-0.1-0.7-0.1-1.4-0.1-2.1
	c0-7.3,5.3-13.2,11.8-13.2c5.3,0,9.8,3.9,11.2,9.4c1.3-1.2,3-1.8,4.7-1.8c3.9,0,7.1,3.3,7.5,7.5h0c3.7,0,6.7,3.4,6.7,7.5
	s-3,7.5-6.7,7.5h-2.3"/>
<line class="st0" x1="19.5" y1="39.3" x2="31.9" y2="39.3"/>
<line class="st0" x1="25.7" y1="38.4" x2="25.7" y2="22.6"/>
<polyline class="st0" points="19.5,28.8 25.7,22.6 31.9,28.8 "/>
</svg>
