<?xml version="1.0" encoding="utf-8"?>
<!-- Generator: Adobe Illustrator 21.1.0, SVG Export Plug-In . SVG Version: 6.00 Build 0)  -->
<svg version="1.1" id="Слой_146" xmlns="http://www.w3.org/2000/svg" xmlns:xlink="http://www.w3.org/1999/xlink" x="0px"
	 y="0px" viewBox="0 0 52 52" style="enable-background:new 0 0 52 52;" xml:space="preserve">
<style type="text/css">
	.st0{fill:none;stroke:#000000;stroke-width:2;stroke-linecap:round;stroke-linejoin:round;stroke-miterlimit:10;}
</style>
<title>Pozdravleniye</title>
<rect x="17.1" y="8.7" width="2.8" height="10.6"/>
<path d="M19.9,5.5c0,1.7-0.7,2.5-1.5,2.5S17,7.2,17,5.5c0.2-1.6,0.7-3.1,1.5-4.5C19.2,2.4,19.7,4,19.9,5.5z"/>
<rect x="24.6" y="8.7" width="2.8" height="10.6"/>
<path d="M27.5,5.5C27.5,7.2,26.8,8,26,8s-1.5-0.8-1.5-2.5C24.7,4,25.2,2.4,26,1.1C26.8,2.4,27.3,4,27.5,5.5z"/>
<rect x="32.1" y="8.7" width="2.8" height="10.6"/>
<path d="M35,5.5C35,7.2,34.3,8,33.5,8s-1.5-0.8-1.5-2.5c0.2-1.6,0.7-3.1,1.5-4.5C34.3,2.4,34.8,4,35,5.5z"/>
<polyline class="st0" points="34.9,31.4 47.6,31.4 47.6,49.9 4.4,49.9 4.4,31.4 27.6,31.4 "/>
<polyline class="st0" points="12,31.4 12,19.3 40,19.3 40,31.4 "/>
<path class="st0" d="M47.6,39.9c0,2.2-3.2,3.9-7.2,3.9s-7.2-1.8-7.2-3.9c0,2.2-3.2,3.9-7.2,3.9s-7.2-1.8-7.2-3.9
	c0,2.2-3.2,3.9-7.2,3.9S4.4,42,4.4,39.9"/>
<path class="st0" d="M40,23.3c0,2.2-3.1,3.9-7,3.9s-7-1.8-7-3.9c0,2.2-3.1,3.9-7,3.9s-7-1.8-7-3.9"/>
</svg>
