<?xml version="1.0" encoding="utf-8"?>
<!-- Generator: Adobe Illustrator 21.1.0, SVG Export Plug-In . SVG Version: 6.00 Build 0)  -->
<svg version="1.1" id="Слой_213" xmlns="http://www.w3.org/2000/svg" xmlns:xlink="http://www.w3.org/1999/xlink" x="0px"
	 y="0px" viewBox="0 0 52 52" style="enable-background:new 0 0 52 52;" xml:space="preserve">
<style type="text/css">
	.st0{fill:none;stroke:#000000;stroke-width:2;stroke-linecap:round;stroke-linejoin:round;}
</style>
<title>Ekonomte na arende setevogo oborudovaniya</title>
<polyline class="st0" points="14,11.4 14,2.1 45.8,2.1 45.8,49.9 14,49.9 14,42.8 "/>
<polyline class="st0" points="20.7,39.3 45.8,39.3 45.8,28.7 24.5,28.7 "/>
<polyline class="st0" points="28.3,18 45.8,18 45.8,7.4 14,7.4 "/>
<path class="st0" d="M45.8,10.9H37c-1.1-0.1-2.2-0.5-3-1.2l-1-1c-0.8-0.7-1.9-1.2-3-1.2H14"/>
<path class="st0" d="M45.8,21.6H37c-1.1-0.1-2.2-0.5-3-1.2l-1-1c-0.8-0.7-1.8-1.2-2.9-1.2h-1.7"/>
<path class="st0" d="M45.8,32.2H37c-1.1-0.1-2.2-0.5-3-1.2l-1-1c-0.8-0.7-1.9-1.2-3-1.2h-5.4"/>
<polygon class="st0" points="18.8,44.5 2.2,38.4 11.6,12.3 17.5,10.1 25.3,12.9 28.3,18.4 "/>
<ellipse transform="matrix(0.342 -0.9397 0.9397 0.342 -3.2649 29.3886)" class="st0" cx="19.4" cy="17" rx="2.4" ry="2.4"/>
<path class="st0" d="M19.3,17c1.7-0.7,3.5-1,5.4-0.9c3.4,0,6.4-5.2,1.6-8.7"/>
<g>
	<path class="st0" d="M13,25.8l-0.3-0.1c-0.8-0.4-1.2-1.3-0.9-2.1l0.8-1.8c0.4-0.8,1.3-1.2,2.1-0.9l0.3,0.1c0.8,0.4,1.2,1.3,0.9,2.1
		L15.2,25C14.8,25.8,13.9,26.2,13,25.8z"/>
	<path class="st0" d="M13.6,38.4l-0.3-0.1c-0.8-0.4-1.2-1.3-0.9-2.1l0.8-1.8c0.4-0.8,1.3-1.2,2.1-0.9l0.3,0.1
		c0.8,0.4,1.2,1.3,0.9,2.1l-0.8,1.8C15.3,38.3,14.4,38.7,13.6,38.4z"/>
	<line class="st0" x1="21.6" y1="23.7" x2="6.8" y2="35.5"/>
</g>
</svg>
