<?xml version="1.0" encoding="utf-8"?>
<!-- Generator: Adobe Illustrator 21.1.0, SVG Export Plug-In . SVG Version: 6.00 Build 0)  -->
<svg version="1.1" id="Слой_141" xmlns="http://www.w3.org/2000/svg" xmlns:xlink="http://www.w3.org/1999/xlink" x="0px"
	 y="0px" viewBox="0 0 52 52" style="enable-background:new 0 0 52 52;" xml:space="preserve">
<style type="text/css">
	.st0{fill:none;stroke:#000000;stroke-width:2;stroke-miterlimit:10;}
	.st1{fill:none;stroke:#000000;stroke-width:2;stroke-linecap:round;stroke-linejoin:round;}
</style>
<title>Drugiye uslugi</title>
<path class="st0" d="M26.2,4c0.4,1-0.1,2.2-1.2,2.6c-1,0.4-2.2-0.1-2.6-1.2s0.1-2.2,1.2-2.6l0,0C24.7,2.4,25.8,3,26.2,4"/>
<ellipse transform="matrix(0.9357 -0.3528 0.3528 0.9357 -8.312073e-02 8.9099)" class="st1" cx="24.4" cy="4.7" rx="2" ry="2"/>
<path class="st1" d="M29,5.1h-2.6c-0.1,0.6-0.6,1.2-1.2,1.5c-1,0.4-2.2-0.1-2.6-1.2c0-0.1-0.1-0.2-0.1-0.3h-2.8
	c-1,0-1.8,0.8-1.8,1.8V8c0,1,0.8,1.8,1.8,1.8H29c1,0,1.8-0.8,1.8-1.8V6.9C30.8,5.9,30,5.1,29,5.1z"/>
<line class="st1" x1="13" y1="16.3" x2="35.2" y2="16.3"/>
<line class="st1" x1="13" y1="21.1" x2="35.2" y2="21.1"/>
<path class="st0" d="M39.4,28.5c-4.8-4.7-12.5-4.7-17.2,0s-4.7,12.5,0,17.2c4.8,4.7,12.4,4.7,17.2,0C44.1,41,44.1,33.3,39.4,28.5
	L39.4,28.5"/>
<path class="st1" d="M39.4,28.5c-4.8-4.7-12.5-4.7-17.2,0s-4.7,12.5,0,17.2c4.8,4.7,12.4,4.7,17.2,0C44.1,41,44.1,33.3,39.4,28.5
	L39.4,28.5z"/>
<path class="st1" d="M36.7,7h-5.9v1c0,1-0.8,1.8-1.8,1.8h-9.3c-1,0-1.8-0.8-1.8-1.8V7H12c-1.6,0-3,1.4-3,3v29.9c0,1.7,1.4,3,3,3h8.1
	c-2.5-4.6-1.8-10.5,2.1-14.4c4.7-4.7,12.4-4.7,17.2,0c0.1,0.1,0.2,0.2,0.3,0.3V10C39.7,8.3,38.3,7,36.7,7z"/>
<path class="st1" d="M37,36.1l-0.9,0.8l-2,1.7l0.3,1.4l0,0l0.3,1.2l0.3,1.2c0.2,0.8-0.2,1.1-0.9,0.7l-1-0.6l-1-0.6l-1.3-0.8
	l-1.2,0.8l0,0l-1,0.6l-1,0.6c-0.7,0.4-1.1,0.1-0.9-0.7l0.3-1.2l0.3-1.2l0,0l0.3-1.4l-2-1.7l-1-0.9c-0.6-0.5-0.5-1,0.3-1.1l1.2-0.1
	l2.6-0.2l1-2.4l0.5-1.1c0.3-0.7,0.8-0.7,1.1,0l0.5,1.1l1,2.4l2.6,0.2l1.2,0.1C37.5,35,37.6,35.5,37,36.1z"/>
</svg>
