<?xml version="1.0" encoding="utf-8"?>
<!-- Generator: Adobe Illustrator 21.1.0, SVG Export Plug-In . SVG Version: 6.00 Build 0)  -->
<svg version="1.1" id="Слой_134" xmlns="http://www.w3.org/2000/svg" xmlns:xlink="http://www.w3.org/1999/xlink" x="0px"
	 y="0px" viewBox="0 0 52 52" style="enable-background:new 0 0 52 52;" xml:space="preserve">
<style type="text/css">
	.st0{fill:none;stroke:#000000;stroke-width:2;stroke-linecap:round;stroke-linejoin:round;}
</style>
<title>ETO</title>
<path class="st0" d="M7.4,39.5c-1.4,1.4-1.4,3.7,0,5.1c1.4,1.4,3.7,1.4,5.1,0l15.7-15.7l-5.1-5.1L7.4,39.5z"/>
<line class="st0" x1="13.3" y1="43.9" x2="8.1" y2="38.7"/>
<line class="st0" x1="25.6" y1="26.4" x2="40.1" y2="11.9"/>
<line class="st0" x1="14.3" y1="37.7" x2="22" y2="30"/>
<polygon class="st0" points="43.6,6.4 38.2,10 42.1,13.8 45.6,8.4 "/>
<path class="st0" d="M26.3,31.5l4.2,4.2l2,6.6c0.4,1.2,1,2.2,1.9,3.1c1.8,1.9,4.5,2.7,7.1,2.1c0.4-0.1,1.1-0.6,0.4-1.3l-2.5-2.5
	c0,0-3-2.3-0.5-4.8c2.5-2.5,4.8,0.5,4.8,0.5l2.5,2.5c0.8,0.8,1.2,0,1.3-0.4c0.8-3.9-1.4-7.7-5.2-9l-6.6-2L21.5,16.3l-2-6.6
	c-1.2-3.8-5.1-6-8.9-5.2c-0.4,0.1-1.1,0.6-0.4,1.3l2.5,2.5c0,0,3,2.3,0.5,4.8s-4.8-0.6-4.8-0.6l-2.5-2.5c-0.8-0.8-1.3,0-1.3,0.4
	c-0.6,2.6,0.2,5.3,2.1,7.1c0.9,0.8,1.9,1.4,3,1.9l6.6,2l4.1,4.1"/>
</svg>
