<?xml version="1.0" encoding="utf-8"?>
<!-- Generator: Adobe Illustrator 21.1.0, SVG Export Plug-In . SVG Version: 6.00 Build 0)  -->
<svg version="1.1" id="Слой_195" xmlns="http://www.w3.org/2000/svg" xmlns:xlink="http://www.w3.org/1999/xlink" x="0px"
	 y="0px" viewBox="0 0 52 52" style="enable-background:new 0 0 52 52;" xml:space="preserve">
<style type="text/css">
	.st0{fill:none;stroke:#000000;stroke-width:2;stroke-linecap:round;stroke-linejoin:round;stroke-miterlimit:10;}
	.st1{fill:none;stroke:#000000;stroke-width:2;stroke-linecap:round;stroke-linejoin:round;}
</style>
<title>Zamena abonentskogo nomera</title>
<path class="st0" d="M31.2,37.8v10.4c0,1.3-1,2.3-2.3,2.3H6.3c-1.3,0-2.3-1-2.3-2.3V3.8c0-1.3,1-2.3,2.3-2.3h22.6
	c1.3,0,2.3,1,2.3,2.3v8.6"/>
<line class="st0" x1="31.2" y1="41.4" x2="4" y2="41.4"/>
<line class="st0" x1="31.2" y1="8.8" x2="4" y2="8.8"/>
<line class="st0" x1="26.7" y1="46" x2="21.2" y2="46"/>
<line class="st0" x1="13.9" y1="46" x2="8.5" y2="46"/>
<path class="st0" d="M42.1,18.6c-3.6-6-11.4-8-17.4-4.4c-3.9,2.3-6.2,6.4-6.2,10.9"/>
<path class="st0" d="M20.3,31.6c3.6,6,11.4,8,17.4,4.4c3.9-2.3,6.2-6.4,6.2-10.9"/>
<polyline class="st0" points="48.3,28.4 43.8,23.9 39.3,28.4 "/>
<polyline class="st0" points="14,21.8 18.5,26.2 23,21.8 "/>
<circle class="st1" cx="31.2" cy="20.9" r="3.2"/>
<circle class="st1" cx="31.2" cy="28.3" r="4.1"/>
</svg>
