<?xml version="1.0" encoding="utf-8"?>
<!-- Generator: Adobe Illustrator 21.1.0, SVG Export Plug-In . SVG Version: 6.00 Build 0)  -->
<svg version="1.1" id="Слой_67" xmlns="http://www.w3.org/2000/svg" xmlns:xlink="http://www.w3.org/1999/xlink" x="0px"
	 y="0px" viewBox="0 0 52 52" style="enable-background:new 0 0 52 52;" xml:space="preserve">
<style type="text/css">
	.st0{fill:none;stroke:#000000;stroke-width:2;stroke-linecap:round;stroke-linejoin:round;}
</style>
<title>Skrytyye vozmozhnosti</title>
<path class="st0" d="M26.1,16.1c4.1,0,6.8,4.2,6.8,7.7C29.4,23.7,26.1,19.5,26.1,16.1z"/>
<path class="st0" d="M26.1,16.1c-4.1,0-6.8,4.2-6.8,7.7C22.7,23.7,26.1,19.5,26.1,16.1z"/>
<line class="st0" x1="15" y1="50.2" x2="37" y2="50.2"/>
<path class="st0" d="M35.5,50.2c0,0,3.6-9,3.9-16.9"/>
<line class="st0" x1="12.6" y1="33.3" x2="39.4" y2="33.3"/>
<path class="st0" d="M16.5,50.2c0,0-3.6-9-3.9-16.9"/>
<path class="st0" d="M39.4,29c0-0.4,0-0.8,0-1.2c0-4.7-1.5-7.9-3.5-10.1c-0.9-0.9-1.3-4.6-1.3-7.3c0-4.7-3.8-8.6-8.6-8.6"/>
<path class="st0" d="M12.6,29c0-0.4,0-0.8,0-1.2c0-4.7,1.5-7.9,3.6-10.1c0.9-0.9,1.3-4.6,1.3-7.3c0-4.7,3.8-8.6,8.6-8.6"/>
<path class="st0" d="M26,4.9c3,0,5.5,2.5,5.5,5.5S29,16,26,16c-3,0-5.5-2.5-5.5-5.5c0-1.3,0.5-2.6,1.3-3.6"/>
<line class="st0" x1="12.6" y1="29" x2="39.4" y2="29"/>
<path class="st0" d="M15.1,29C15,29.8,15,30.5,15,31.3c0,0.6,0,1.3,0.1,1.9H37c0-0.7,0.1-1.3,0.1-1.9c0-0.8-0.1-1.6-0.2-2.3"/>
<line class="st0" x1="8.3" y1="33.5" x2="5.6" y2="33.8"/>
<line class="st0" x1="46.4" y1="28.4" x2="43.7" y2="28.8"/>
<line class="st0" x1="8.3" y1="28.8" x2="5.6" y2="28.4"/>
<line class="st0" x1="46.4" y1="33.8" x2="43.7" y2="33.5"/>
</svg>
