<?xml version="1.0" encoding="utf-8"?>
<!-- Generator: Adobe Illustrator 21.1.0, SVG Export Plug-In . SVG Version: 6.00 Build 0)  -->
<svg version="1.1" id="Слой_373" xmlns="http://www.w3.org/2000/svg" xmlns:xlink="http://www.w3.org/1999/xlink" x="0px"
	 y="0px" viewBox="0 0 52 52" style="enable-background:new 0 0 52 52;" xml:space="preserve">
<style type="text/css">
	.st0{fill:#FFFFFF;stroke:#000000;stroke-width:2;stroke-miterlimit:10;}
</style>
<title>Serfing</title>
<path class="st0" d="M44.6,46c-1.8-0.9-3.8-1.4-5.8-1.4c-2.1,0-4.1,0.5-6,1.4c-3.6,1.6-7.7,1.6-11.4,0c-3.6-1.8-7.9-1.8-11.6,0
	C8,46.7,6,47.1,4,47.1L44.6,46z"/>
<path d="M6,26.1c0.7,0,1.4-0.3,1.9-0.7c1-1,1-2.6,0.1-3.6c0,0,0,0-0.1-0.1C7.3,21.2,6.7,20.9,6,21c-1.4,0-2.6,1.1-2.6,2.5
	C3.4,24.9,4.6,26.1,6,26.1C6,26.1,6,26.1,6,26.1z"/>
<path d="M14.2,28.9l4.6-1.9c0.3-0.2,0.6-0.6,0.5-1c0-0.7-0.5-1.3-1.2-1.3c0,0,0,0-0.1,0c-0.2,0-0.3,0-0.5,0.1l-4.1,1.8H7.3
	c-1.5,0-2.6,1.2-2.6,2.6c0,0,0,0,0,0v0.6L7.5,36c0.4,1,1.4,1.6,2.5,1.5h7.4l4.3,4.2c0.3,0.3,0.8,0.5,1.2,0.5c0.5,0,0.9-0.2,1.2-0.5
	c0.6-0.5,0.7-1.4,0.2-2c-0.1-0.1-0.2-0.2-0.3-0.3l-4.9-4.5c-0.3-0.2-0.8-0.3-1.2-0.3h-5l-2.3-5.5h2.7L14.2,28.9z"/>
<path d="M42.6,30.1c-0.2-3.6-1.3-7-3.2-10c-1.9-3.1-4.4-5.8-7.3-8c-2.9-2.2-6.1-4-9.5-5.4c-3.2-1.4-6.6-2.3-10-2.8l14.4,36
	L42.6,30.1z"/>
</svg>
