<?xml version="1.0" encoding="utf-8"?>
<!-- Generator: Adobe Illustrator 21.1.0, SVG Export Plug-In . SVG Version: 6.00 Build 0)  -->
<svg version="1.1" id="Слой_55" xmlns="http://www.w3.org/2000/svg" xmlns:xlink="http://www.w3.org/1999/xlink" x="0px"
	 y="0px" viewBox="0 0 52 52" style="enable-background:new 0 0 52 52;" xml:space="preserve">
<style type="text/css">
	.st0{fill:none;stroke:#000000;stroke-width:2;stroke-linecap:round;stroke-linejoin:round;}
</style>
<title>Zdravookhraneniye_Meditsina</title>
<polygon class="st0" points="49.2,20.2 42.7,8.8 32.6,14.6 32.6,3 19.4,3 19.4,14.6 9.3,8.8 2.8,20.2 12.8,26 2.8,31.8 9.3,43.2 
	19.4,37.4 19.4,49 32.6,49 32.6,37.4 42.7,43.2 49.2,31.8 39.2,26 "/>
<path d="M27.2,18.6c0-0.7-0.6-1.2-1.2-1.2c-0.7,0-1.2,0.6-1.2,1.2c0,0.7,0.6,1.2,1.2,1.2l0,0C26.7,19.8,27.2,19.3,27.2,18.6
	C27.2,18.6,27.2,18.6,27.2,18.6"/>
<line class="st0" x1="26" y1="18.6" x2="26" y2="39.2"/>
<path class="st0" d="M26,23.6c1.1,0,2-1.1,2.5-2.3c0.5-1.1,1.6-1.8,2.8-1.7h4c1.2,0-1.4,4-7.9,4L26,23.6"/>
<path class="st0" d="M26,23.6c-1.1,0-2-1.1-2.5-2.3c-0.5-1.1-1.6-1.8-2.8-1.7h-4c-1.2,0,1.4,4,7.9,4L26,23.6"/>
<path class="st0" d="M26,27.7c2.7,0,4.2-0.8,4.9-2"/>
<path class="st0" d="M26,27.7c-2.7,0-4.2-0.8-4.9-2"/>
<ellipse class="st0" cx="26" cy="29.6" rx="3.9" ry="2"/>
<ellipse class="st0" cx="26" cy="33.6" rx="3" ry="2"/>
<path class="st0" d="M24,37c0.3-0.9,1.1-1.5,2-1.5"/>
<path class="st0" d="M28,37c-0.3-0.9-1.1-1.5-2-1.5"/>
</svg>
