<?xml version="1.0" encoding="utf-8"?>
<!-- Generator: Adobe Illustrator 21.1.0, SVG Export Plug-In . SVG Version: 6.00 Build 0)  -->
<svg version="1.1" id="Слой_404" xmlns="http://www.w3.org/2000/svg" xmlns:xlink="http://www.w3.org/1999/xlink" x="0px"
	 y="0px" viewBox="0 0 52 52" style="enable-background:new 0 0 52 52;" xml:space="preserve">
<style type="text/css">
	.st0{fill:none;stroke:#000000;stroke-width:2;stroke-miterlimit:10;}
</style>
<title>Organizatsiya pereadresatsii na fiksirovannyy nomer na srok ne boleye 3-kh mesyatsev</title>
<line class="st0" x1="13.5" y1="13.9" x2="38.5" y2="13.9"/>
<path d="M13.4,40.3h6c0.4,0,0.8-0.4,0.8-0.8c0,0,0,0,0,0l-0.1-1.3L20.1,37c0-0.1,0-0.3,0-0.4c0-1.3,0.1-1.5,0.1-1.5
	c0.3-0.9,1.2-1.5,2.1-1.6c1.2-0.1,2.3-0.1,3.5-0.1c1.2,0,2.3,0,3.5,0.1c0.8,0.1,1.5,0.5,1.9,1.1c0.2,0.3,0.3,0.7,0.4,1
	c0,0.3,0.1,0.6,0.2,0.9c0,0.1,0.1,0.3,0.1,0.4l0.1,2.5c0,0.5,0.4,0.8,0.9,0.8h6c0.4,0,0.8-0.4,0.8-0.8c0,0,0,0,0,0
	c-0.1-1.7,0.1-3.5-0.4-5.2c-0.6-1.3-1.6-2.4-2.9-3.1c-0.8-0.5-1.7-1-2.7-1.3c-1.3-0.4-2.6-0.8-4-1c-1.3-0.2-2.7-0.2-4-0.2
	c-1.3,0-2.7,0.1-4,0.3c-1.3,0.2-2.7,0.5-4,0.9c-1.1,0.4-2.2,1-3.1,1.7c-0.8,0.6-1.4,1.3-1.8,2.2c-0.2,0.7-0.3,1.5-0.2,2.3
	c0,0.8,0,1.5,0,2.3c0,0.3,0,0.6,0,0.9C12.5,39.9,12.9,40.3,13.4,40.3z"/>
<path class="st0" d="M43,46.7H9c-3.3,0-5.9-2.6-5.9-5.9V27.7c0-3.3,2.6-5.9,5.9-5.9H43c3.3,0,5.9,2.6,5.9,5.9v13.1
	C48.9,44.1,46.2,46.7,43,46.7z"/>
<path class="st0" d="M33,6H19c-3,0-5.5,2.4-5.5,5.5v10.3h25V11.5C38.5,8.5,36,6,33,6z"/>
</svg>
