<?xml version="1.0" encoding="utf-8"?>
<!-- Generator: Adobe Illustrator 21.1.0, SVG Export Plug-In . SVG Version: 6.00 Build 0)  -->
<svg version="1.1" id="Слой_326" xmlns="http://www.w3.org/2000/svg" xmlns:xlink="http://www.w3.org/1999/xlink" x="0px"
	 y="0px" viewBox="0 0 52 52" style="enable-background:new 0 0 52 52;" xml:space="preserve">
<style type="text/css">
	.st0{fill:#2C2A29;}
	.st1{fill:none;stroke:#2C2A29;stroke-width:2;stroke-linecap:round;stroke-linejoin:round;}
</style>
<title>Skorost Interneta do 30 Mbits</title>
<path class="st0" d="M4.2,47.9c-1,0.1-2.1-0.2-2.9-0.9c-0.2-0.2-0.3-0.4-0.3-0.7c0-0.4,0.3-0.8,0.7-0.8c0,0,0,0,0,0
	c0.2,0,0.4,0.2,0.9,0.5c0.4,0.3,1,0.4,1.5,0.4c1,0.1,1.9-0.6,2.1-1.6c0-0.1,0-0.2,0-0.4c0-1.3-0.9-1.7-2.1-1.8
	c-0.4,0-0.9-0.1-0.9-0.8s0.5-0.8,0.9-0.8c1,0,2.1-0.4,2.1-1.6c0.1-0.9-0.6-1.7-1.4-1.8c-0.1,0-0.2,0-0.3,0c-0.5,0-1,0.1-1.5,0.4
	c-0.4,0.2-0.6,0.5-0.9,0.5c-0.4,0-0.7-0.3-0.7-0.7c0,0,0,0,0-0.1c0-0.3,0.2-0.6,0.4-0.8c0.8-0.6,1.7-1,2.7-0.9
	c1.7-0.2,3.2,1,3.3,2.7c0,0.1,0,0.3,0,0.4c0.1,1.2-0.6,2.2-1.7,2.6c1.3,0.3,2.1,1.5,2,2.8C8,46.3,6.7,47.9,4.2,47.9z"/>
<path class="st0" d="M15.3,40.3c0-1.6-0.7-2.5-1.9-2.5s-1.9,0.9-1.9,2.5v3.6c0,1.6,0.7,2.5,1.9,2.5s1.9-0.9,1.9-2.5V40.3z
	 M13.3,47.9c-2.5,0-3.7-1.8-3.7-4.1v-3.5c0-2.3,1.2-4.1,3.7-4.1S17,38,17,40.3v3.5C17,46.1,15.8,47.9,13.3,47.9z"/>
<path class="st0" d="M40.6,48.4c-0.1,0.4-0.6,0.6-1,0.5c-0.4-0.1-0.7-0.6-0.5-1L43,35.7c0.1-0.4,0.6-0.7,1-0.5c0,0,0,0,0,0
	c0.4,0.1,0.6,0.6,0.5,1L40.6,48.4z"/>
<path class="st0" d="M50,41.4c-0.4-0.2-0.9-0.3-1.3-0.3c-1,0-1.6,0.8-1.6,2v1.3c0,1.2,0.5,2,1.6,2c0.5,0,0.9-0.1,1.3-0.3
	c0.3-0.2,0.7,0,0.9,0.3c0,0,0,0.1,0,0.1c0.2,0.4,0,0.8-0.4,0.9c-0.6,0.3-1.3,0.5-2,0.5c-2.3,0-3.2-1.5-3.2-3.5v-1.1
	c0-2,1.1-3.6,3.2-3.6c0.7,0,1.4,0.1,2,0.5c0.3,0.2,0.5,0.6,0.3,0.9c0,0,0,0,0,0C50.8,41.3,50.4,41.5,50,41.4
	C50.1,41.4,50.1,41.4,50,41.4z"/>
<path class="st0" d="M28.5,26.6c0.1-0.1,0.1-0.2,0.1-0.3l1.7-12.8c0-0.4-0.2-0.7-0.6-0.8c-0.4-0.1-0.8,0.1-0.9,0.4l-5.4,11.7
	c0,0.1-0.1,0.2-0.1,0.3c0,0.1-0.1,0.2-0.1,0.3c-0.3,1.1,0.1,2.3,1.1,3c0.2,0.2,0.5,0.3,0.8,0.4c0.7,0.2,1.4,0.1,2.1-0.2
	c0.6-0.3,1.1-0.9,1.3-1.6C28.4,26.8,28.5,26.7,28.5,26.6z"/>
<path class="st0" d="M29.7,47.8c-0.5,0-0.8-0.4-0.8-0.8v-7.1l-2.6,5.4c-0.1,0.3-0.5,0.5-0.8,0.5c-0.4,0-0.7-0.2-0.8-0.5l-2.6-5.4V47
	c0,0.5-0.4,0.8-0.8,0.8s-0.8-0.4-0.8-0.8l0,0V36.6c0-0.5,0.4-0.9,0.9-0.9c0,0,0,0,0.1,0c0.4-0.1,0.8,0.2,0.9,0.5l3.3,6.9l3.4-7
	c0.3-0.4,0.8-0.6,1.3-0.3c0.3,0.1,0.4,0.4,0.5,0.7v10.3C30.6,47.4,30.3,47.8,29.7,47.8C29.8,47.8,29.7,47.8,29.7,47.8z"/>
<path class="st0" d="M37,42.7c0-0.5-0.1-1-0.4-1.3c-0.3-0.3-0.7-0.4-1.1-0.4c-0.4,0-0.9,0.1-1.2,0.4c-0.3,0.4-0.4,0.9-0.4,1.3v1.7
	c0,0.5,0.1,1,0.4,1.4c0.3,0.3,0.7,0.4,1.1,0.4c0.4,0,0.9-0.2,1.2-0.5c0.3-0.4,0.4-0.8,0.4-1.3C37,44.3,37,42.7,37,42.7z M32.2,44.4
	v-3.1c0-2.6,1.2-3.3,2.8-4c0.5-0.2,1.2-0.6,1.2-1.2v-0.5c0-0.5,0.4-0.9,0.9-0.9c0.5,0,0.9,0.4,0.9,0.9V36c0,2.1-1.7,2.3-3.1,3.1
	c-0.2,0.1-0.4,0.3-0.5,0.6c0.3-0.3,0.7-0.4,1.1-0.4c1.7-0.2,3.2,1.1,3.3,2.8c0,0.2,0,0.4,0,0.6v1.7c0.2,1.7-1.1,3.2-2.8,3.4
	c-0.2,0-0.4,0-0.6,0c-1.7,0.2-3.2-1.1-3.4-2.8C32.1,44.8,32.1,44.6,32.2,44.4z"/>
<path class="st1" d="M1.9,28c0-13.3,10.8-24,24-24c13.3,0,24,10.8,24,24"/>
<line class="st1" x1="1.9" y1="27.9" x2="7.7" y2="27.9"/>
<line class="st1" x1="25.9" y1="4" x2="25.9" y2="9.8"/>
<line class="st1" x1="9.3" y1="11.9" x2="13.4" y2="16"/>
<line class="st1" x1="42.5" y1="11.9" x2="38.4" y2="16"/>
<line class="st1" x1="49.9" y1="28" x2="44.1" y2="28"/>
</svg>
