<?xml version="1.0" encoding="utf-8"?>
<!-- Generator: Adobe Illustrator 21.1.0, SVG Export Plug-In . SVG Version: 6.00 Build 0)  -->
<svg version="1.1" id="Слой_376" xmlns="http://www.w3.org/2000/svg" xmlns:xlink="http://www.w3.org/1999/xlink" x="0px"
	 y="0px" viewBox="0 0 52 52" style="enable-background:new 0 0 52 52;" xml:space="preserve">
<title>Torrent</title>
<path d="M48.4,28.6c-3.2,1.1-4.5-1.2-5.5-3.4c-1.4-2.9-2.8-5.9-4.3-9c-0.6-1.3-1.3-4-2.3-4.3c-0.8-0.3-2.4,0.3-3.6,0.5
	s-2.7,0.2-3.2,1c1.5,3.9,2.9,7,4.6,10.7c0.5,1.1,1.4,2.3,1.4,3.7c0.1,3.4-3.4,5.6-6.5,5.6c-2.3-0.1-4.5-1.2-6-3
	c-1.6-1.9-2.5-4.8-3.5-7.3c-0.4-1.1-1.2-2.7-1.6-3.9s-0.9-3.3-1.8-3.6c-0.9-0.3-3.3,0.3-4.4,0.5s-3.5,0.4-3.8,1.2s0.8,2.8,1.2,3.9
	c3.3,8.8,6.5,17.6,9.9,26.2c-4.7-1.5-8.7-4.5-11.5-8.5c-3.2-4.6-4.5-10.3-3.8-15.8c0.6-5.1,2.9-9.8,6.6-13.3
	c8.9-8.7,23.2-8.5,31.8,0.5c0.3,0.3,0.7,0.7,1,1.1C47.2,16.1,49.2,22.4,48.4,28.6z"/>
<path d="M38.2,32c1.8,1.8,5.6,3.2,8.9,1.9c-2.8,7.7-8.7,13.2-17.9,14.7c-1.7-3.3-3.2-6.7-4.6-10.2C30.5,40.2,37.1,37.1,38.2,32z"/>
</svg>
