<?xml version="1.0" encoding="utf-8"?>
<!-- Generator: Adobe Illustrator 21.1.0, SVG Export Plug-In . SVG Version: 6.00 Build 0)  -->
<svg version="1.1" id="Слой_313" xmlns="http://www.w3.org/2000/svg" xmlns:xlink="http://www.w3.org/1999/xlink" x="0px"
	 y="0px" viewBox="0 0 52 52" style="enable-background:new 0 0 52 52;" xml:space="preserve">
<style type="text/css">
	.st0{fill:none;stroke:#000000;stroke-width:2;stroke-linecap:round;stroke-linejoin:round;}
	.st1{fill:none;stroke:#000000;stroke-width:4;}
</style>
<title>Virtualnyye bankovskiye karty</title>
<path class="st0" d="M6.9,13.6h31.7c1.9,0,3.4,1.5,3.4,3.4v17.9c0,1.9-1.5,3.4-3.4,3.4H6.9c-1.9,0-3.4-1.5-3.4-3.4V17
	C3.5,15.1,5,13.6,6.9,13.6z"/>
<line class="st1" x1="3.5" y1="21.2" x2="42.1" y2="21.2"/>
<path class="st0" d="M9.6,13.6l0.9-4.8c0.3-1.9,2.1-3.1,4-2.8l31.2,5.5c1.9,0.3,3.1,2.1,2.8,4l-3.1,17.6c-0.3,1.6-1.7,2.8-3.3,2.8"
	/>
<path class="st0" d="M46.6,26l1.8,10.5c0.3,1.9-0.9,3.6-2.8,4L14.4,46c-1.9,0.3-3.7-0.9-4-2.8l-0.9-4.9"/>
</svg>
