<?xml version="1.0" encoding="utf-8"?>
<!-- Generator: Adobe Illustrator 21.1.0, SVG Export Plug-In . SVG Version: 6.00 Build 0)  -->
<svg version="1.1" id="Слой_23" xmlns="http://www.w3.org/2000/svg" xmlns:xlink="http://www.w3.org/1999/xlink" x="0px"
	 y="0px" viewBox="0 0 52 52" style="enable-background:new 0 0 52 52;" xml:space="preserve">
<style type="text/css">
	.st0{fill:none;stroke:#000000;stroke-width:2;stroke-linecap:round;stroke-linejoin:round;}
</style>
<title>Mezhdunarodnaya svyaz</title>
<path class="st0" d="M46.9,26c0,11.5-9.3,20.9-20.9,20.9C14.5,46.9,5.1,37.5,5.1,26C5.1,14.5,14.5,5.1,26,5.1c0,0,0,0,0,0
	C37.5,5.1,46.9,14.5,46.9,26C46.9,26,46.9,26,46.9,26z"/>
<line class="st0" x1="5.1" y1="26" x2="46.9" y2="26"/>
<line class="st0" x1="9.6" y1="13.1" x2="42.4" y2="13.1"/>
<line class="st0" x1="9.6" y1="38.9" x2="42.4" y2="38.9"/>
<path class="st0" d="M26,5.1C26,5.1,36.3,9,36.3,26S26,46.9,26,46.9"/>
<path class="st0" d="M26,5.1C26,5.1,15.7,9,15.7,26S26,46.9,26,46.9"/>
<path class="st0" d="M8.7,43.3c-3,1-5.1,1.1-5.8,0.1C0.8,40.6,9.5,30.6,22.2,21S47,5.8,49.1,8.6c0.8,1,0.1,3-1.7,5.6"/>
</svg>
