<?xml version="1.0" encoding="utf-8"?>
<!-- Generator: Adobe Illustrator 21.1.0, SVG Export Plug-In . SVG Version: 6.00 Build 0)  -->
<svg version="1.1" id="Слой_110" xmlns="http://www.w3.org/2000/svg" xmlns:xlink="http://www.w3.org/1999/xlink" x="0px"
	 y="0px" viewBox="0 0 52 52" style="enable-background:new 0 0 52 52;" xml:space="preserve">
<style type="text/css">
	.st0{fill:none;stroke:#000000;stroke-width:2;stroke-linecap:round;stroke-linejoin:round;}
</style>
<title>Budilnik</title>
<circle class="st0" cx="26" cy="30.2" r="18.6"/>
<path class="st0" d="M3.5,12c0-5.1,4.2-9.3,9.3-9.3c3.7,0,7,2.2,8.5,5.5C15.1,9.6,9.8,13.5,6.6,18.9C4.6,17.2,3.5,14.7,3.5,12z
	 M45.4,18.9c3.8-3.4,4.1-9.3,0.7-13.1S36.8,1.7,33,5.1C32,6,31.2,7,30.7,8.2C36.9,9.6,42.2,13.5,45.4,18.9z"/>
<line class="st0" x1="15.1" y1="15.1" x2="12.8" y2="12"/>
<line class="st0" x1="39.2" y1="12" x2="36.9" y2="15.1"/>
<line class="st0" x1="26" y1="30.2" x2="35.1" y2="21.1"/>
<line class="st0" x1="20" y1="24.1" x2="26" y2="30.2"/>
<line class="st0" x1="39.2" y1="43.5" x2="43.4" y2="49.3"/>
<line class="st0" x1="8.6" y1="49.3" x2="12.7" y2="43.6"/>
</svg>
