<?xml version="1.0" encoding="utf-8"?>
<!-- Generator: Adobe Illustrator 21.1.0, SVG Export Plug-In . SVG Version: 6.00 Build 0)  -->
<svg version="1.1" id="Слой_348" xmlns="http://www.w3.org/2000/svg" xmlns:xlink="http://www.w3.org/1999/xlink" x="0px"
	 y="0px" viewBox="0 0 52 52" style="enable-background:new 0 0 52 52;" xml:space="preserve">
<style type="text/css">
	.st0{fill:none;stroke:#000000;stroke-width:2;stroke-miterlimit:10;}
</style>
<title>Nash futbol</title>
<polygon points="26,18.2 17.6,24.4 20.8,34.1 31.2,34.1 34.4,24.4 "/>
<path d="M33.1,45.4c-4.6,1.7-9.6,1.7-14.2,0l2.7-1.3l-4-6.6l-7.4-1.6l-0.4,2.9C7,35.2,5.4,30.7,5.5,26.2c0-0.2,0-0.5,0-0.7l2,2.1
	l5.2-5.8l-0.8-7.6l-2.9,0.5c2.7-4.1,6.8-7,11.5-8.3L19,9l7,3l7-3l-1.4-2.6c4.7,1.3,8.8,4.3,11.5,8.3l-2.9-0.5l-0.8,7.6l5.2,5.8
	l2-2.1c0,0.2,0,0.4,0,0.7c0,4.6-1.5,9-4.4,12.6L41.8,36l-7.4,1.6l-4,6.6L33.1,45.4L33.1,45.4z M47.4,26.2c0-11.8-9.6-21.4-21.4-21.4
	c-11.8,0-21.4,9.6-21.4,21.4C4.6,38,14.2,47.5,26,47.5l0,0C37.8,47.5,47.4,38,47.4,26.2z"/>
<circle class="st0" cx="26" cy="26" r="21.4"/>
</svg>
