<?xml version="1.0" encoding="utf-8"?>
<!-- Generator: Adobe Illustrator 21.1.0, SVG Export Plug-In . SVG Version: 6.00 Build 0)  -->
<svg version="1.1" id="Слой_272" xmlns="http://www.w3.org/2000/svg" xmlns:xlink="http://www.w3.org/1999/xlink" x="0px"
	 y="0px" viewBox="0 0 52 52" style="enable-background:new 0 0 52 52;" xml:space="preserve">
<style type="text/css">
	.st0{fill:none;stroke:#000000;stroke-width:2;stroke-linecap:round;stroke-linejoin:round;}
</style>
<title>Uvedomleniye o postuplenii novogo vyzova</title>
<path class="st0" d="M21.6,37.1c1.1,0.9,2.5,1.4,3.9,1.3c1.5-0.3,2.9-1,4.1-2l3.6-2.8c0.7-0.5,1.6-0.4,2.2,0.2l7.3,8
	c0.5,0.6,0.4,1.5-0.2,2c0,0,0,0,0,0c-2.2,1.9-4.7,4.4-7.6,5.6c-2.4,1.1-5.4,0.5-7.9-0.2c-1.7-0.5-3.4-1.2-5-2.1
	c-2.2-1.2-4.3-2.7-6.2-4.4c-3.6-3.3-6.8-7.1-9.4-11.2c-1.3-2.2-2.4-4.5-3.3-6.8c-0.6-1.7-1-3.5-1.2-5.3c-0.3-2.6-0.3-5.6,1.2-7.8
	C5,8.9,7.8,6.9,10.1,5c0.6-0.5,1.5-0.5,2,0.1c0,0,0,0,0,0l6.6,8.6c0.5,0.7,0.4,1.6-0.2,2.2l-3.5,3.2c-1.2,1-2.1,2.2-2.7,3.7
	c-0.4,1.4-0.2,2.9,0.6,4.1C15.5,30.6,18.4,34,21.6,37.1z"/>
<line class="st0" x1="7.3" y1="7.6" x2="15.8" y2="18.5"/>
<line class="st0" x1="39.8" y1="46.2" x2="30.5" y2="35.9"/>
<path class="st0" d="M42.3,16.3C44,13.4,43,9.7,40.1,8c-2.9-1.7-6.7-0.7-8.3,2.2l-3,5.2c-1.9,3.2-6.5,4.7-6.5,4.7l16.2,9.4"/>
<path class="st0" d="M41.3,8.9l0.4-0.7c0.4-0.7,0.2-1.7-0.6-2.1C40.4,5.7,39.5,6,39,6.7l0,0l-0.4,0.7"/>
<path class="st0" d="M31.7,25.7l-0.4,0.6c-0.5,0.7-1.4,0.9-2.1,0.5c-0.7-0.4-0.9-1.3-0.5-2l0.3-0.6"/>
<line class="st0" x1="48.1" y1="20.3" x2="33.6" y2="20.3"/>
<polyline class="st0" points="39.1,25.8 33.6,20.3 39.1,14.9 "/>
</svg>
