<?xml version="1.0" encoding="utf-8"?>
<!-- Generator: Adobe Illustrator 21.1.0, SVG Export Plug-In . SVG Version: 6.00 Build 0)  -->
<svg version="1.1" id="Слой_215" xmlns="http://www.w3.org/2000/svg" xmlns:xlink="http://www.w3.org/1999/xlink" x="0px"
	 y="0px" viewBox="0 0 52 52" style="enable-background:new 0 0 52 52;" xml:space="preserve">
<style type="text/css">
	.st0{fill:none;stroke:#000000;stroke-width:2;stroke-linecap:round;stroke-linejoin:round;}
</style>
<title>Arenda setevogo oborudovaniya</title>
<polyline class="st0" points="15.1,13.3 15.1,1.5 47.8,1.5 47.8,50.5 15.1,50.5 15.1,35 "/>
<polyline class="st0" points="15.1,39.6 47.8,39.6 47.8,28.7 25,28.7 "/>
<polyline class="st0" points="26.2,17.8 47.8,17.8 47.8,7 15.1,7 "/>
<path class="st0" d="M47.8,10.6h-9.1c-1.1-0.1-2.2-0.5-3.1-1.3l-1.1-1.1c-0.9-0.8-2-1.2-3.1-1.3H15.1"/>
<path class="st0" d="M47.8,21.5h-9.1c-1.1-0.1-2.2-0.5-3.1-1.3l-1.1-1.1c-0.9-0.8-2-1.2-3.1-1.3H24"/>
<path class="st0" d="M47.8,32.3h-9.1c-1.1-0.1-2.2-0.5-3.1-1.3L34.5,30c-0.9-0.8-2-1.2-3.1-1.3H25"/>
<circle class="st0" cx="15.1" cy="24.2" r="10.9"/>
<line class="st0" x1="11.3" y1="27.6" x2="16" y2="27.6"/>
<path class="st0" d="M11.3,24.7H16c2,0,3-1.2,3-2.4V21c-0.2-1.4-1.5-2.5-3-2.3h-3.3v10.9"/>
</svg>
