<?xml version="1.0" encoding="utf-8"?>
<!-- Generator: Adobe Illustrator 21.1.0, SVG Export Plug-In . SVG Version: 6.00 Build 0)  -->
<svg version="1.1" id="Слой_260" xmlns="http://www.w3.org/2000/svg" xmlns:xlink="http://www.w3.org/1999/xlink" x="0px"
	 y="0px" viewBox="0 0 52 52" style="enable-background:new 0 0 52 52;" xml:space="preserve">
<style type="text/css">
	.st0{fill:none;stroke:#000000;stroke-width:2;stroke-linecap:round;stroke-linejoin:round;stroke-miterlimit:10;}
</style>
<title>Svyaz  s operatorom</title>
<path class="st0" d="M46.7,45v-6.2c-0.1-2.5-1.6-4.7-3.8-5.8l-13.1-5.8c-2.4-0.9-5.1-0.9-7.6,0L9.1,32.9c-2.2,1.1-3.7,3.3-3.8,5.8
	V45h6.9l1.7,5.1h24.1l1.7-5.1L46.7,45z"/>
<path class="st0" d="M33.6,18c0,4.1-3.3,7.4-7.4,7.4h-0.4c-4.1,0-7.4-3.3-7.4-7.4v-5.3c0-4.1,3.3-7.4,7.4-7.4h0.4
	c4.1,0,7.4,3.3,7.4,7.4V18z"/>
<line class="st0" x1="24.3" y1="31.2" x2="27.7" y2="31.2"/>
<polyline class="st0" points="30.3,50.1 27.7,31.2 29.4,27 "/>
<polyline class="st0" points="21.7,50.1 24.3,31.2 22.6,27 "/>
<path class="st0" d="M18.4,12.2h-1.7c-0.9,0-1.7,0.8-1.7,1.7v2.6c0,0.9,0.8,1.7,1.7,1.7h1.7"/>
<path class="st0" d="M33.6,12.2h1.7c0.9,0,1.7,0.8,1.7,1.7v2.6c0,0.9-0.8,1.7-1.7,1.7h-1.7"/>
<polyline class="st0" points="26,20.8 34.6,20.8 34.6,18.2 "/>
<path class="st0" d="M34.5,12.2V8.6c0-3.1-3.9-6.7-8.5-6.7s-8.5,3.6-8.5,6.7v3.6"/>
</svg>
