<?xml version="1.0" encoding="utf-8"?>
<!-- Generator: Adobe Illustrator 21.1.0, SVG Export Plug-In . SVG Version: 6.00 Build 0)  -->
<svg version="1.1" id="Слой_189" xmlns="http://www.w3.org/2000/svg" xmlns:xlink="http://www.w3.org/1999/xlink" x="0px"
	 y="0px" viewBox="0 0 52 52" style="enable-background:new 0 0 52 52;" xml:space="preserve">
<style type="text/css">
	.st0{fill:none;stroke:#000000;stroke-width:2;stroke-linecap:round;stroke-linejoin:round;stroke-miterlimit:10;}
</style>
<title>Detalizatsiya propushchennykh vyzovov</title>
<path class="st0" d="M14.7,1.5h22.6c1.3,0,2.3,1,2.3,2.3v44.4c0,1.3-1,2.3-2.3,2.3H14.7c-1.3,0-2.3-1-2.3-2.3V3.8
	C12.4,2.5,13.4,1.5,14.7,1.5z"/>
<line class="st0" x1="39.6" y1="41.4" x2="12.4" y2="41.4"/>
<line class="st0" x1="39.6" y1="8.8" x2="12.4" y2="8.8"/>
<line class="st0" x1="35.1" y1="46" x2="29.6" y2="46"/>
<line class="st0" x1="22.4" y1="46" x2="16.9" y2="46"/>
<line class="st0" x1="32.4" y1="34.2" x2="19.7" y2="34.2"/>
<polyline class="st0" points="32.4,16 19.7,28.7 32.4,28.7 "/>
<polyline class="st0" points="32.4,23.5 32.4,16 24.9,16 "/>
</svg>
