<?xml version="1.0" encoding="utf-8"?>
<!-- Generator: Adobe Illustrator 21.1.0, SVG Export Plug-In . SVG Version: 6.00 Build 0)  -->
<svg version="1.1" id="Слой_277" xmlns="http://www.w3.org/2000/svg" xmlns:xlink="http://www.w3.org/1999/xlink" x="0px"
	 y="0px" viewBox="0 0 52 52" style="enable-background:new 0 0 52 52;" xml:space="preserve">
<style type="text/css">
	.st0{fill:none;stroke:#000000;stroke-width:2;stroke-linecap:round;stroke-linejoin:round;}
</style>
<title>Vremenno nedostupen</title>
<path class="st0" d="M20.6,37.7c1,0.9,2.3,1.3,3.6,1.2c1.4-0.3,2.7-0.9,3.8-1.9l3.4-2.6c0.6-0.5,1.5-0.4,2.1,0.2l6.8,7.4
	c0.5,0.6,0.4,1.4-0.2,1.9c0,0,0,0,0,0c-2.1,1.8-4.4,4.1-7.1,5.2c-2.2,1-5,0.5-7.3-0.2c-1.6-0.5-3.2-1.1-4.6-1.9
	c-2.1-1.2-4-2.5-5.7-4.1C12,39.9,9,36.4,6.6,32.5c-1.2-2-2.2-4.1-3-6.4c-0.6-1.6-0.9-3.3-1.1-5C2.3,18.8,2.3,16,3.6,14
	c1.6-2.4,4.3-4.3,6.4-6c0.5-0.5,1.4-0.4,1.9,0.1c0,0,0,0,0,0l6.2,8c0.5,0.6,0.4,1.5-0.2,2.1L14.6,21c-1.1,0.9-2,2.1-2.5,3.4
	c-0.4,1.3-0.2,2.7,0.5,3.8C15,31.7,17.7,34.8,20.6,37.7z"/>
<line class="st0" x1="7.4" y1="10.3" x2="15.3" y2="20.4"/>
<line class="st0" x1="37.6" y1="46.2" x2="28.9" y2="36.6"/>
<path class="st0" d="M44.6,16.9c0,4.7-3.8,8.6-8.6,8.6s-8.6-3.8-8.6-8.6v-5.2h17.1V16.9z"/>
<circle class="st0" cx="47.1" cy="15.8" r="2.5"/>
<line class="st0" x1="25.9" y1="26.1" x2="46.2" y2="26.1"/>
<path class="st0" d="M36,2.3c0.5,0.9,0.5,2,0,2.8c-0.5,0.9-0.5,2,0,2.8"/>
<path class="st0" d="M38.5,3.7c0.4,0.7,0.4,1.5,0,2.1c-0.4,0.7-0.4,1.5,0,2.1"/>
<path class="st0" d="M33.5,3.7c0.4,0.7,0.4,1.5,0,2.1c-0.4,0.7-0.4,1.5,0,2.1"/>
</svg>
