<?xml version="1.0" encoding="utf-8"?>
<!-- Generator: Adobe Illustrator 21.1.0, SVG Export Plug-In . SVG Version: 6.00 Build 0)  -->
<svg version="1.1" id="Слой_133" xmlns="http://www.w3.org/2000/svg" xmlns:xlink="http://www.w3.org/1999/xlink" x="0px"
	 y="0px" viewBox="0 0 52 52" style="enable-background:new 0 0 52 52;" xml:space="preserve">
<style type="text/css">
	.st0{fill:none;stroke:#000000;stroke-width:2;stroke-linecap:round;stroke-linejoin:round;}
</style>
<title>SLA soglasheniye ob urovne servisa</title>
<polygon class="st0" points="42.3,12.4 42.3,48.7 9.7,48.7 9.7,3.3 33.3,3.3 "/>
<polyline class="st0" points="42.3,12.4 33.3,12.4 33.3,3.3 "/>
<path class="st0" d="M19.3,23.2c0,0-4.2-1.8-4.9,1.3c-0.4,1.8,0.7,3,2.7,3c1.8,0,3,1.3,2.7,3c-0.4,1.9-2.8,2.8-5.5,1.5"/>
<polyline class="st0" points="23.5,22.7 23.5,32.3 28.5,32.3 "/>
<polyline class="st0" points="31.7,32.3 34.9,22.7 38.2,32.3 "/>
<line class="st0" x1="32.6" y1="29.5" x2="37.3" y2="29.5"/>
</svg>
