<?xml version="1.0" encoding="utf-8"?>
<!-- Generator: Adobe Illustrator 21.1.0, SVG Export Plug-In . SVG Version: 6.00 Build 0)  -->
<svg version="1.1" id="Слой_375" xmlns="http://www.w3.org/2000/svg" xmlns:xlink="http://www.w3.org/1999/xlink" x="0px"
	 y="0px" viewBox="0 0 52 52" style="enable-background:new 0 0 52 52;" xml:space="preserve">
<style type="text/css">
	.st0{fill:none;stroke:#000000;stroke-width:2;stroke-linecap:round;stroke-linejoin:round;stroke-miterlimit:10;}
</style>
<title>Chat</title>
<path class="st0" d="M17.7,23.9h6c1.3,0,2.3-1,2.3-2.3V10.8c0-1.3-1-2.3-2.3-2.3H5.1c-1.3,0-2.3,1-2.3,2.3l0,0v10.8
	c0,1.3,1,2.3,2.3,2.3l0,0H11v3.9L17.7,23.9z"/>
<path class="st0" d="M46.2,17H26v4.6c0,1.3-1,2.3-2.3,2.3h-6l-1.6,0.9V36c0,1.8,1.5,3.3,3.3,3.3H28l9.6,5.5v-5.6h8.6
	c1.8,0,3.3-1.5,3.3-3.3V20.3C49.5,18.5,48,17,46.2,17z"/>
</svg>
