<?xml version="1.0" encoding="utf-8"?>
<!-- Generator: Adobe Illustrator 21.1.0, SVG Export Plug-In . SVG Version: 6.00 Build 0)  -->
<svg version="1.1" id="Слой_101" xmlns="http://www.w3.org/2000/svg" xmlns:xlink="http://www.w3.org/1999/xlink" x="0px"
	 y="0px" viewBox="0 0 52 52" style="enable-background:new 0 0 52 52;" xml:space="preserve">
<style type="text/css">
	.st0{fill:none;stroke:#000000;stroke-width:2;stroke-linecap:round;stroke-linejoin:round;}
</style>
<title>Torzhestvennyy priyem</title>
<path class="st0" d="M21.1,22C15.8,19.2,7,17.1,7,17.1c-1.2-0.4-2.6,0.3-2.9,1.5C4,18.9,3.9,19.2,4,19.5v13
	c-0.1,1.3,0.9,2.4,2.2,2.5c0.3,0,0.6,0,0.8-0.1c0,0,8.8-2.1,14.1-4.9"/>
<path class="st0" d="M30.9,30c5.3,2.8,14.1,4.9,14.1,4.9c1.2,0.4,2.6-0.3,2.9-1.5c0.1-0.3,0.1-0.6,0.1-0.9v-13
	c0.1-1.3-0.9-2.4-2.2-2.5c-0.3,0-0.6,0-0.9,0.1c0,0-8.8,2.1-14.1,4.9"/>
<line class="st0" x1="16.8" y1="24" x2="21.1" y2="24.8"/>
<line class="st0" x1="16.8" y1="28" x2="21.1" y2="27.2"/>
<path class="st0" d="M24.2,20.1h3.6c1.7,0,3.1,1.4,3.1,3.1v5.5c0,1.7-1.4,3.1-3.1,3.1h-3.6c-1.7,0-3.1-1.4-3.1-3.1v-5.5
	C21.1,21.5,22.5,20.1,24.2,20.1z"/>
<line class="st0" x1="35.2" y1="24" x2="30.9" y2="24.8"/>
<line class="st0" x1="35.2" y1="28" x2="30.9" y2="27.2"/>
</svg>
