<?xml version="1.0" encoding="utf-8"?>
<!-- Generator: Adobe Illustrator 21.1.0, SVG Export Plug-In . SVG Version: 6.00 Build 0)  -->
<svg version="1.1" id="Слой_155" xmlns="http://www.w3.org/2000/svg" xmlns:xlink="http://www.w3.org/1999/xlink" x="0px"
	 y="0px" viewBox="0 0 52 52" style="enable-background:new 0 0 52 52;" xml:space="preserve">
<style type="text/css">
	.st0{fill:none;stroke:#000000;stroke-width:2;stroke-linecap:round;stroke-linejoin:round;}
</style>
<title>Dostup zashchishchen</title>
<path class="st0" d="M12.4,23.4h27.2c1.9,0,3.4,1.5,3.4,3.4v18.7c0,1.9-1.5,3.4-3.4,3.4H12.4C10.5,49,9,47.5,9,45.6V26.9
	C9,25,10.5,23.4,12.4,23.4z"/>
<path class="st0" d="M15.6,23.4v-10C15.6,7.7,20.2,3,26,3s10.4,4.7,10.4,10.4v10"/>
<path class="st0" d="M28.7,33.8c0-1.5-1.2-2.7-2.7-2.7s-2.7,1.2-2.7,2.7c0,0.8,0.4,1.6,1.1,2.1v3.8c0,0.9,0.7,1.6,1.6,1.6
	c0.9,0,1.6-0.7,1.6-1.6v-3.8C28.3,35.4,28.7,34.6,28.7,33.8z"/>
</svg>
