<?xml version="1.0" encoding="utf-8"?>
<!-- Generator: Adobe Illustrator 21.1.0, SVG Export Plug-In . SVG Version: 6.00 Build 0)  -->
<svg version="1.1" id="Слой_421" xmlns="http://www.w3.org/2000/svg" xmlns:xlink="http://www.w3.org/1999/xlink" x="0px"
	 y="0px" viewBox="0 0 52 52" style="enable-background:new 0 0 52 52;" xml:space="preserve">
<style type="text/css">
	.st0{fill:#FFFFFF;stroke:#000000;stroke-width:2;stroke-miterlimit:10;}
	.st1{fill:none;stroke:#000000;stroke-width:2;stroke-miterlimit:10;}
	.st2{fill:none;stroke:#000000;stroke-width:4;stroke-miterlimit:10;}
	.st3{fill:none;stroke:#000000;stroke-width:2;stroke-linecap:round;stroke-linejoin:round;}
</style>
<title>Upravleniye profilem_1</title>
<ellipse class="st0" cx="26" cy="21.4" rx="3.1" ry="4"/>
<path class="st1" d="M27.6,24.8c-0.5,0.4-1,0.6-1.6,0.6c-0.6,0-1.2-0.2-1.6-0.6c-2.3,0.5-4,2.3-4,4.8c0,0.6,0.2,2.4,0.2,2.4
	c0.1,0.6,0.6,1,1.1,1h8.8c0.6,0,1-0.4,1.1-1c0,0,0.2-1.8,0.2-2.4C31.7,27,30,25.3,27.6,24.8z"/>
<path class="st2" d="M44.3,26c0,10.1-8.2,18.3-18.3,18.3S7.7,36.1,7.7,26S15.9,7.7,26,7.7S44.3,15.9,44.3,26L44.3,26z"/>
<line class="st3" x1="2.7" y1="26" x2="14.5" y2="26"/>
<line class="st3" x1="37.5" y1="26" x2="49.3" y2="26"/>
<line class="st3" x1="26" y1="2.7" x2="26" y2="14.5"/>
<line class="st3" x1="26" y1="37.5" x2="26" y2="49.3"/>
<line class="st3" x1="9.5" y1="9.5" x2="17.9" y2="17.9"/>
<line class="st3" x1="34.1" y1="34.1" x2="42.5" y2="42.5"/>
<line class="st3" x1="42.5" y1="9.5" x2="34.1" y2="17.9"/>
<line class="st3" x1="17.9" y1="34.1" x2="9.5" y2="42.5"/>
<circle class="st1" cx="26" cy="26" r="11.5"/>
</svg>
