<?xml version="1.0" encoding="utf-8"?>
<!-- Generator: Adobe Illustrator 21.1.0, SVG Export Plug-In . SVG Version: 6.00 Build 0)  -->
<svg version="1.1" id="Слой_414" xmlns="http://www.w3.org/2000/svg" xmlns:xlink="http://www.w3.org/1999/xlink" x="0px"
	 y="0px" viewBox="0 0 52 52" style="enable-background:new 0 0 52 52;" xml:space="preserve">
<style type="text/css">
	.st0{fill:none;stroke:#000000;stroke-width:2;stroke-linecap:round;stroke-linejoin:round;}
</style>
<title>Ob usluge SMS</title>
<path class="st0" d="M13.7,18.8c0,0-6.9-3-8.1,2.2c-0.7,3,1.2,4.9,4.4,4.9c3,0,4.9,2.2,4.4,4.9c-0.7,3.2-4.7,4.7-9.1,2.5"/>
<path class="st0" d="M45.8,18.8c0,0-6.9-3-8.1,2.2c-0.7,3,1.2,4.9,4.4,4.9c3,0,4.9,2.2,4.4,4.9c-0.7,3.2-4.7,4.7-9.1,2.5"/>
<polyline class="st0" points="19.5,34.3 19.5,17.9 26,30.8 32.5,17.9 32.5,34.3 "/>
</svg>
