<?xml version="1.0" encoding="utf-8"?>
<!-- Generator: Adobe Illustrator 21.1.0, SVG Export Plug-In . SVG Version: 6.00 Build 0)  -->
<svg version="1.1" id="Слой_330" xmlns="http://www.w3.org/2000/svg" xmlns:xlink="http://www.w3.org/1999/xlink" x="0px"
	 y="0px" viewBox="0 0 52 52" style="enable-background:new 0 0 52 52;" xml:space="preserve">
<style type="text/css">
	.st0{fill:#2C2A29;}
	.st1{fill:none;stroke:#2C2A29;stroke-width:2;stroke-miterlimit:10;}
	.st2{fill:none;stroke:#2C2A29;stroke-width:2;stroke-linecap:round;stroke-linejoin:round;}
</style>
<title>Skorost Interneta do 8 Mbits</title>
<path class="st0" d="M8.7,37.8c-0.8-0.1-1.5,0.5-1.6,1.3c0,0.1,0,0.2,0,0.2c0,0.9,0.8,1.4,1.7,1.8c0.8-0.4,1.4-0.9,1.4-1.7
	c0.1-0.8-0.5-1.5-1.3-1.6C8.8,37.8,8.7,37.8,8.7,37.8L8.7,37.8z M8.5,42.7c-1,0.4-1.9,1-1.9,2c0,1,0.8,1.8,1.8,1.8
	c0.1,0,0.2,0,0.2,0c1.3,0,2.1-0.7,2.1-1.7S9.7,43.2,8.5,42.7L8.5,42.7z M8.7,48.1c-2.4,0-3.8-1.3-3.8-3.2c0-1.4,0.9-2.2,2.2-2.9
	c-1-0.5-1.7-1.5-1.7-2.7c0-2,1.4-3.1,3.3-3.1s3.3,1.2,3.3,3c0,1.1-0.7,2.1-1.6,2.5c1.3,0.5,2.2,1.7,2.2,3.1
	C12.5,46.8,11.1,48.1,8.7,48.1L8.7,48.1z"/>
<path class="st0" d="M36.8,48.6c-0.1,0.4-0.6,0.7-1,0.5c-0.4-0.1-0.7-0.6-0.5-1l0,0l4-12.4c0.1-0.4,0.6-0.7,1-0.5c0,0,0,0,0,0
	c0.4,0.1,0.6,0.6,0.5,1L36.8,48.6z"/>
<path class="st0" d="M46.3,41.5c-0.4-0.2-0.9-0.3-1.3-0.3c-1,0-1.6,0.8-1.6,2v1.4c0,1.3,0.5,2,1.6,2c0.5,0,0.9-0.1,1.4-0.3
	c0.3-0.2,0.7,0,0.9,0.3c0,0,0,0.1,0,0.1c0.2,0.4,0,0.8-0.3,0.9c-0.6,0.3-1.3,0.5-2,0.5c-2.3,0-3.2-1.5-3.2-3.6v-1.1
	c0-2,1.1-3.7,3.2-3.7c0.7,0,1.4,0.1,2,0.5c0.3,0.2,0.5,0.6,0.3,0.9c0,0,0,0,0,0.1C47,41.5,46.6,41.6,46.3,41.5z"/>
<path class="st0" d="M27.4,24c-0.1-0.1-0.1-0.2-0.2-0.2L16,17.2c-0.3-0.2-0.8-0.1-1,0.2c-0.3,0.3-0.3,0.7,0,1l8.7,9.7
	c0.1,0.1,0.1,0.1,0.2,0.1c1.1,1.1,2.9,1.1,4-0.1c0.5-0.6,0.8-1.3,0.8-2.1c0-0.7-0.4-1.4-0.9-1.9C27.6,24.1,27.5,24,27.4,24z"/>
<path class="st0" d="M25.3,48.1c-0.5,0-0.9-0.4-0.9-0.9v-7.2l-2.6,5.5c-0.1,0.3-0.5,0.5-0.8,0.5c-0.4,0-0.7-0.2-0.8-0.5l-2.6-5.5
	v7.2c0,0.5-0.4,0.9-0.9,0.9s-0.9-0.4-0.9-0.9V36.9c0-0.5,0.4-0.9,0.9-0.9c0,0,0.1,0,0.1,0c0.4-0.1,0.8,0.2,0.9,0.5l3.3,7l3.4-7
	c0.3-0.4,0.8-0.6,1.3-0.3c0.3,0.1,0.4,0.4,0.5,0.7v10.4C26.2,47.7,25.8,48.1,25.3,48.1z"/>
<path class="st0" d="M32.9,43.1c0-0.5-0.1-1-0.4-1.4c-0.3-0.3-0.7-0.4-1.1-0.4c-0.4,0-0.9,0.1-1.2,0.4c-0.3,0.4-0.4,0.9-0.4,1.3v1.7
	c0,0.5,0.1,1,0.4,1.4c0.3,0.3,0.7,0.4,1.1,0.4c0.4,0,0.9-0.1,1.2-0.5c0.3-0.4,0.4-0.9,0.4-1.3V43.1z M28,44.7v-3.2
	c0-2.6,1.2-3.3,2.8-4.1c0.5-0.2,1.2-0.6,1.2-1.2v-0.5c0-0.5,0.4-0.9,0.9-0.9s0.9,0.4,0.9,0.9v0.5c0,2.1-1.8,2.4-3.1,3.2
	c-0.2,0.1-0.4,0.3-0.5,0.6c0.3-0.3,0.7-0.4,1.1-0.4c1.7-0.2,3.2,1.1,3.4,2.8c0,0.2,0,0.4,0,0.6v1.7c0.2,1.7-1.1,3.2-2.8,3.4
	c-0.2,0-0.4,0-0.6,0c-1.7,0.2-3.3-1.1-3.4-2.8C28,45.1,28,44.9,28,44.7L28,44.7z"/>
<path class="st1" d="M1.8,28C1.8,14.6,12.6,3.8,26,3.8c13.4,0,24.2,10.8,24.2,24.2"/>
<line class="st2" x1="1.8" y1="27.9" x2="7.6" y2="27.9"/>
<line class="st2" x1="26" y1="3.8" x2="26" y2="9.6"/>
<line class="st2" x1="9.2" y1="11.8" x2="13.4" y2="15.9"/>
<line class="st2" x1="42.7" y1="11.8" x2="38.6" y2="15.9"/>
<line class="st2" x1="50.2" y1="28" x2="44.4" y2="28"/>
</svg>
