<?xml version="1.0" encoding="utf-8"?>
<!-- Generator: Adobe Illustrator 21.1.0, SVG Export Plug-In . SVG Version: 6.00 Build 0)  -->
<svg version="1.1" id="Слой_289" xmlns="http://www.w3.org/2000/svg" xmlns:xlink="http://www.w3.org/1999/xlink" x="0px"
	 y="0px" viewBox="0 0 52 52" style="enable-background:new 0 0 52 52;" xml:space="preserve">
<style type="text/css">
	.st0{fill:none;stroke:#000000;stroke-width:2;stroke-linecap:round;stroke-linejoin:round;}
</style>
<title>Okazaniye uslug sverkh summy vnesennogo avansa</title>
<path class="st0" d="M22.2,36.8c1.1,0.9,2.4,1.4,3.8,1.2c1.5-0.3,2.9-0.9,4-1.9l3.5-2.8c0.7-0.5,1.6-0.4,2.2,0.2l7.1,7.8
	c0.5,0.6,0.4,1.4-0.2,1.9c0,0,0,0,0,0c-2.2,1.9-4.6,4.3-7.4,5.5c-2.4,1-5.3,0.5-7.7-0.2c-1.7-0.5-3.3-1.2-4.9-2
	c-2.2-1.2-4.2-2.6-6-4.3c-3.5-3.2-6.6-6.9-9.2-10.9c-1.3-2.1-2.3-4.3-3.2-6.7c-0.6-1.7-1-3.4-1.1-5.2C2.9,17,3,14.1,4.4,11.9
	c1.7-2.6,4.5-4.5,6.7-6.3c0.6-0.5,1.4-0.5,2,0.1c0,0,0,0,0.1,0.1l6.5,8.4c0.5,0.7,0.4,1.6-0.2,2.2L16,19.3c-1.2,0.9-2.1,2.2-2.6,3.6
	c-0.4,1.3-0.2,2.8,0.5,4C16.3,30.5,19.1,33.8,22.2,36.8z"/>
<line class="st0" x1="8.4" y1="8" x2="16.7" y2="18.7"/>
<line class="st0" x1="39.9" y1="45.7" x2="30.9" y2="35.6"/>
<line class="st0" x1="28.4" y1="23.8" x2="34.5" y2="23.8"/>
<path class="st0" d="M28.4,20.1h6.1c2.6,0,3.8-1.6,3.8-3.1v-1.7c0-1-1-3-3.8-3h-4.3v14.1"/>
<path class="st0" d="M38.4,9.7c2,0,3.5,1.6,3.5,3.5l0,0"/>
<path class="st0" d="M38.4,6.2c3.9,0,7,3.2,7,7"/>
<path class="st0" d="M48.9,13.2c0-5.8-4.7-10.6-10.6-10.6"/>
</svg>
