<?xml version="1.0" encoding="utf-8"?>
<!-- Generator: Adobe Illustrator 21.1.0, SVG Export Plug-In . SVG Version: 6.00 Build 0)  -->
<svg version="1.1" id="Слой_249" xmlns="http://www.w3.org/2000/svg" xmlns:xlink="http://www.w3.org/1999/xlink" x="0px"
	 y="0px" viewBox="0 0 52 52" style="enable-background:new 0 0 52 52;" xml:space="preserve">
<style type="text/css">
	.st0{fill:none;stroke:#000000;stroke-width:2;stroke-linecap:round;stroke-linejoin:round;}
</style>
<title>Upravleniye mobilnymi ustroystvami</title>
<path class="st0" d="M32.7,35.6v12.6c0,1.3-1,2.3-2.3,2.3H7.8c-1.3,0-2.3-1-2.3-2.3V3.8c0-1.3,1-2.3,2.3-2.3h22.6
	c1.3,0,2.3,1,2.3,2.3v10.8"/>
<line class="st0" x1="32.7" y1="41.4" x2="5.5" y2="41.4"/>
<line class="st0" x1="32.7" y1="8.8" x2="5.5" y2="8.8"/>
<line class="st0" x1="28.2" y1="46" x2="22.8" y2="46"/>
<line class="st0" x1="15.5" y1="46" x2="10.1" y2="46"/>
<path class="st0" d="M46.3,21.8c-0.3-1.4-0.9-2.8-1.6-4L41.3,19c-0.7-1-1.5-1.8-2.5-2.5l1.2-3.4c-1.2-0.7-2.6-1.3-4-1.6l-1.6,3.2
	c-1.1-0.2-2.3-0.2-3.5,0l-1.6-3.2c-0.7,0.2-1.4,0.4-2,0.6c-0.7,0.3-1.3,0.6-1.9,1l1.2,3.4c-0.9,0.7-1.8,1.5-2.4,2.4l-3.4-1.2
	c-0.7,1.2-1.3,2.6-1.6,4l3.2,1.6c-0.2,1.1-0.2,2.3,0,3.5l-3.2,1.6c0.2,0.7,0.4,1.3,0.7,2c0.3,0.7,0.6,1.3,1,1.9l3.4-1.2
	c0.7,0.9,1.5,1.8,2.5,2.5l-1.2,3.4c1.2,0.7,2.6,1.3,4,1.6l1.6-3.2c1.1,0.2,2.3,0.2,3.5,0l1.6,3.2c0.7-0.2,1.4-0.4,2-0.7
	c0.7-0.3,1.3-0.6,1.9-1l-1.2-3.4c0.9-0.7,1.8-1.5,2.4-2.4l3.4,1.2c0.7-1.2,1.3-2.6,1.6-4l-3.2-1.6c0.2-1.1,0.2-2.3,0-3.5L46.3,21.8z
	"/>
<ellipse transform="matrix(0.9239 -0.3827 0.3827 0.9239 -7.1151 14.4247)" class="st0" cx="32.7" cy="25.1" rx="6.4" ry="6.4"/>
<line class="st0" x1="35.5" y1="25.1" x2="30" y2="25.1"/>
</svg>
