<?xml version="1.0" encoding="utf-8"?>
<!-- Generator: Adobe Illustrator 21.1.0, SVG Export Plug-In . SVG Version: 6.00 Build 0)  -->
<svg version="1.1" id="Слой_97" xmlns="http://www.w3.org/2000/svg" xmlns:xlink="http://www.w3.org/1999/xlink" x="0px"
	 y="0px" viewBox="0 0 52 52" style="enable-background:new 0 0 52 52;" xml:space="preserve">
<style type="text/css">
	.st0{fill:none;stroke:#000000;stroke-width:2;stroke-linecap:round;stroke-linejoin:round;stroke-miterlimit:10;}
	.st1{fill:none;stroke:#000000;stroke-width:2;stroke-linecap:round;stroke-linejoin:round;}
</style>
<title>Incognito</title>
<path class="st0" d="M25.5,15.8c-6.4,0-10.6-8.8-23.3-0.1c1.9,7.3,6.5,14.4,13.2,12.7c4.8-1.2,6.1-4.2,10.1-4.2s5.2,3,10.1,4.2
	c6.7,1.7,11.3-5.4,13.2-12.7C36.1,7,31.9,15.8,25.5,15.8"/>
<path class="st0" d="M20.4,19.9c0,0-2.9,2.9-5.3,2.9c-2.6,0-4.2-2-4.9-4.7C14.9,14.8,20.4,19.9,20.4,19.9"/>
<path class="st0" d="M30.6,19.9c0,0,2.9,2.9,5.3,2.9c2.6,0,4.2-2,4.9-4.7C36.1,14.8,30.6,19.9,30.6,19.9"/>
<line class="st1" x1="48.8" y1="15.6" x2="48.8" y2="39.2"/>
</svg>
