<?xml version="1.0" encoding="utf-8"?>
<!-- Generator: Adobe Illustrator 21.1.0, SVG Export Plug-In . SVG Version: 6.00 Build 0)  -->
<svg version="1.1" id="Слой_160" xmlns="http://www.w3.org/2000/svg" xmlns:xlink="http://www.w3.org/1999/xlink" x="0px"
	 y="0px" viewBox="0 0 52 52" style="enable-background:new 0 0 52 52;" xml:space="preserve">
<style type="text/css">
	.st0{fill:none;stroke:#000000;stroke-width:2;stroke-linecap:round;stroke-linejoin:round;}
</style>
<title>Soyedineniye s operatorom</title>
<path class="st0" d="M40.5,24.6h3.2c1.7,0,3.2,1.4,3.2,3.2v6.4c0,1.8-1.4,3.2-3.1,3.2c0,0,0,0,0,0h-3.2"/>
<path class="st0" d="M29.6,45.5h8.2c2.4,0.1,4.4-1.7,4.5-4.1v-4.1"/>
<path class="st0" d="M42.3,24.6v-7c0-6-7.3-13-16.3-13s-16.3,7-16.3,13v7"/>
<line class="st0" x1="40.5" y1="24.6" x2="40.5" y2="37.3"/>
<path class="st0" d="M11.5,24.6H8.3c-1.7,0-3.2,1.4-3.2,3.2v6.4c0,1.8,1.4,3.2,3.2,3.2c0,0,0,0,0,0h3.2"/>
<line class="st0" x1="11.5" y1="24.6" x2="11.5" y2="37.3"/>
<path class="st0" d="M29.6,45.5c0,1-0.8,1.8-1.8,1.8h-3.6c-1,0-1.8-0.8-1.8-1.8c0-1,0.8-1.8,1.8-1.8h3.6
	C28.8,43.7,29.6,44.5,29.6,45.5z"/>
</svg>
