<?xml version="1.0" encoding="utf-8"?>
<!-- Generator: Adobe Illustrator 21.1.0, SVG Export Plug-In . SVG Version: 6.00 Build 0)  -->
<svg version="1.1" id="Слой_203" xmlns="http://www.w3.org/2000/svg" xmlns:xlink="http://www.w3.org/1999/xlink" x="0px"
	 y="0px" viewBox="0 0 52 52" style="enable-background:new 0 0 52 52;" xml:space="preserve">
<style type="text/css">
	.st0{fill:none;stroke:#000000;stroke-width:2;stroke-linecap:round;stroke-linejoin:round;}
</style>
<title>Uslugi data-tsentrov_TSOD</title>
<rect x="35.1" y="31.9" class="st0" width="9.1" height="5.4"/>
<path class="st0" d="M7.9,34.6c0,1.5,1.2,2.7,2.7,2.7c1.5,0,2.7-1.2,2.7-2.7c0-1.5-1.2-2.7-2.7-2.7C9.1,31.9,7.9,33.1,7.9,34.6
	C7.9,34.6,7.9,34.6,7.9,34.6"/>
<path class="st0" d="M6.1,26.5h39.9c2,0,3.6,1.6,3.6,3.6v9.1c0,2-1.6,3.6-3.6,3.6H6.1c-2,0-3.6-1.6-3.6-3.6v-9.1
	C2.4,28.1,4,26.5,6.1,26.5z"/>
<rect x="35.1" y="14.6" class="st0" width="9.1" height="5.4"/>
<path class="st0" d="M7.9,17.4c0,1.5,1.2,2.7,2.7,2.7c1.5,0,2.7-1.2,2.7-2.7c0-1.5-1.2-2.7-2.7-2.7C9.1,14.6,7.9,15.9,7.9,17.4
	C7.9,17.4,7.9,17.4,7.9,17.4"/>
<path class="st0" d="M6.1,9.2h39.9c2,0,3.6,1.6,3.6,3.6v9.1c0,2-1.6,3.6-3.6,3.6H6.1c-2,0-3.6-1.6-3.6-3.6v-9.1
	C2.4,10.8,4,9.2,6.1,9.2z"/>
</svg>
