<?xml version="1.0" encoding="utf-8"?>
<!-- Generator: Adobe Illustrator 21.1.0, SVG Export Plug-In . SVG Version: 6.00 Build 0)  -->
<svg version="1.1" id="Слой_369" xmlns="http://www.w3.org/2000/svg" xmlns:xlink="http://www.w3.org/1999/xlink" x="0px"
	 y="0px" viewBox="0 0 52 52" style="enable-background:new 0 0 52 52;" xml:space="preserve">
<style type="text/css">
	.st0{fill:none;stroke:#000000;stroke-width:2;stroke-miterlimit:10;}
	.st1{fill:none;stroke:#000000;stroke-width:2;stroke-linecap:round;stroke-miterlimit:10;}
</style>
<title>Mobilnyy pomoshchnik</title>
<path d="M35.9,18.6c0-0.2,0.1-0.3,0.3-0.3l0,0h1.5c0.1,0,0.2,0,0.2,0.1l6.3,6c0.1,0.1,0.1,0.3,0,0.5C44.2,24.9,44.1,25,44,25h-7.8
	c-0.2,0-0.3-0.1-0.3-0.3V18.6z"/>
<path class="st0" d="M49.1,24.7l-9.1-9c-0.6-0.6-1.4-0.9-2.2-0.9h-4.6V13c0-1.3-1-2.3-2.3-2.3H4.4c-1.3,0-2.3,1-2.3,2.3V35
	c0,1.3,1,2.3,2.3,2.3h3.1c0.3-3.5,3.4-6,6.9-5.7c3,0.3,5.4,2.7,5.7,5.7h12.6c0.3-3.5,3.4-6,6.9-5.7c3,0.3,5.4,2.7,5.7,5.7h2.5
	c1.3,0,2.3-1,2.3-2.3c0,0,0,0,0,0v-8.1C50,26,49.7,25.2,49.1,24.7z"/>
<path d="M38.9,33.9c-2.3,0-4.2,1.9-4.2,4.2c0,2.3,1.9,4.2,4.2,4.2c2.3,0,4.2-1.9,4.2-4.2C43.1,35.8,41.2,33.9,38.9,33.9L38.9,33.9z
	 M38.9,36.2c1.1,0,2,0.9,2,2c0,1.1-0.9,2-2,2c-1.1,0-2-0.9-2-2c0,0,0,0,0,0C36.9,37,37.8,36.2,38.9,36.2
	C38.9,36.2,38.9,36.2,38.9,36.2z"/>
<path d="M13.7,33.9c-2.3,0-4.2,1.9-4.2,4.2c0,2.3,1.9,4.2,4.2,4.2c2.3,0,4.2-1.9,4.2-4.2C17.9,35.8,16,33.9,13.7,33.9
	C13.7,33.9,13.7,33.9,13.7,33.9z M13.7,36.2c1.1,0,2,0.9,2,2c0,1.1-0.9,2-2,2s-2-0.9-2-2c0,0,0,0,0,0C11.8,37,12.6,36.2,13.7,36.2z"
	/>
<line class="st1" x1="11" y1="21.6" x2="23.3" y2="21.6"/>
<line class="st1" x1="17.2" y1="15.5" x2="17.2" y2="27.7"/>
</svg>
