<?xml version="1.0" encoding="utf-8"?>
<!-- Generator: Adobe Illustrator 21.1.0, SVG Export Plug-In . SVG Version: 6.00 Build 0)  -->
<svg version="1.1" id="Слой_92" xmlns="http://www.w3.org/2000/svg" xmlns:xlink="http://www.w3.org/1999/xlink" x="0px"
	 y="0px" viewBox="0 0 52 52" style="enable-background:new 0 0 52 52;" xml:space="preserve">
<style type="text/css">
	.st0{fill:none;stroke:#000000;stroke-width:2;stroke-linecap:round;stroke-linejoin:round;}
</style>
<title>Udacha</title>
<path class="st0" d="M14.9,26.7H6.8c-1.9,5-2.7,16.5-1.4,21.9h9.5V26.7z"/>
<path class="st0" d="M14.9,44.9c2.5,0,4.8,1.3,7.6,1.9c5.4,1.1,12.8,0.9,17,0.9c5.3,0,5-5.8,1.9-5.8c5.9,0,5-5.8,1.5-5.8
	c6.1,0,5-6,1.4-6c3.5,0,4.4-6-0.8-6h-8c-4.4,0-5.3-4.1-3-9.2c1.3-2.8,1.9-5.9,1.6-8.9c-0.5-3.3-4.2-3.3-4.7-0.4
	c-0.9,4.1-2.8,7.9-5.4,11.2c-2.3,2.8-3,6.8-4.2,9c-0.8,1.4-2.4,2.3-4,2.1"/>
<line class="st0" x1="44.3" y1="30.1" x2="40.9" y2="30.1"/>
<line class="st0" x1="42.9" y1="36.1" x2="40.4" y2="36.1"/>
<line class="st0" x1="41.4" y1="41.9" x2="39.9" y2="41.9"/>
</svg>
