<?xml version="1.0" encoding="utf-8"?>
<!-- Generator: Adobe Illustrator 21.1.0, SVG Export Plug-In . SVG Version: 6.00 Build 0)  -->
<svg version="1.1" id="Слой_300" xmlns="http://www.w3.org/2000/svg" xmlns:xlink="http://www.w3.org/1999/xlink" x="0px"
	 y="0px" viewBox="0 0 52 52" style="enable-background:new 0 0 52 52;" xml:space="preserve">
<style type="text/css">
	.st0{fill:none;stroke:#000000;stroke-width:2;stroke-linecap:round;stroke-linejoin:round;stroke-miterlimit:10;}
</style>
<title>Strakhovaniye</title>
<path class="st0" d="M19.5,45.1c0,1.8,1.4,3.2,3.2,3.2s3.2-1.4,3.2-3.2V26.5"/>
<line class="st0" x1="26" y1="5.5" x2="26" y2="3.6"/>
<path class="st0" d="M7.8,23.4c2.5,0,4.7,1.2,6.1,3.1c1.4-1.9,3.6-3.1,6.1-3.1c2.5,0,4.7,1.2,6.1,3.1c1.4-1.9,3.6-3.1,6.1-3.1
	c2.5,0,4.7,1.2,6.1,3.1c1.4-1.9,3.6-3.1,6.1-3.1c1.4,0,2.7,0.4,3.8,1C46.2,13.9,37,5.8,26,5.8S5.8,13.9,4,24.5
	C5.2,23.8,6.4,23.4,7.8,23.4z"/>
</svg>
