<?xml version="1.0" encoding="utf-8"?>
<!-- Generator: Adobe Illustrator 21.1.0, SVG Export Plug-In . SVG Version: 6.00 Build 0)  -->
<svg version="1.1" id="Слой_216" xmlns="http://www.w3.org/2000/svg" xmlns:xlink="http://www.w3.org/1999/xlink" x="0px"
	 y="0px" viewBox="0 0 52 52" style="enable-background:new 0 0 52 52;" xml:space="preserve">
<style type="text/css">
	.st0{fill:none;stroke:#000000;stroke-width:2;stroke-linecap:round;stroke-linejoin:round;}
	.st1{font-family:'ChevinPro-Bold';}
	.st2{font-size:12.3364px;}
</style>
<title>Zashchita ot DDoS-atak</title>
<path class="st0" d="M26,49c0,0-18.1-4.7-18.1-19V8.1C14.2,8,20.5,6.2,26,3c5.5,3.2,11.8,5,18.1,5.1V30C44.1,44.3,26,49,26,49"/>
<path class="st0" d="M39.5,32.6C37,40.9,26,43.8,26,43.8"/>
<path class="st0" d="M12,16.9v-4.8c4.9-0.1,9.7-1.5,14-4c4.2,2.5,9.1,3.9,14,4v4.8"/>
<path class="st0" d="M26,43.8c0,0-11-2.8-13.5-11.2"/>
<text transform="matrix(1 0 0 1 9.9712 29.2862)" class="st1 st2">D</text>
<text transform="matrix(1 0 0 1 18.6318 29.2862)" class="st1 st2">D</text>
<text transform="matrix(1 0 0 1 27.3013 29.2862)" class="st1 st2">o</text>
<text transform="matrix(1 0 0 1 34.4565 29.2862)" class="st1 st2">S</text>
</svg>
