<?xml version="1.0" encoding="utf-8"?>
<!-- Generator: Adobe Illustrator 21.1.0, SVG Export Plug-In . SVG Version: 6.00 Build 0)  -->
<svg version="1.1" id="Слой_224" xmlns="http://www.w3.org/2000/svg" xmlns:xlink="http://www.w3.org/1999/xlink" x="0px"
	 y="0px" viewBox="0 0 52 52" style="enable-background:new 0 0 52 52;" xml:space="preserve">
<style type="text/css">
	.st0{fill:none;stroke:#000000;stroke-width:2;stroke-linecap:round;stroke-linejoin:round;}
</style>
<title>Vvod ili zamena svoyego lichnogo parolya</title>
<path class="st0" d="M22.8,37.6c1.1,0.9,2.5,1.4,3.9,1.3c1.5-0.3,2.9-1,4.1-2l3.6-2.8c0.7-0.5,1.6-0.4,2.2,0.2l7.3,8
	c0.5,0.6,0.4,1.5-0.2,2c0,0,0,0,0,0c-2.2,1.9-4.7,4.4-7.6,5.6c-2.4,1.1-5.4,0.5-7.9-0.2c-1.7-0.5-3.4-1.2-5-2.1
	c-2.2-1.2-4.3-2.7-6.2-4.4c-3.6-3.3-6.8-7.1-9.4-11.2c-1.3-2.2-2.4-4.5-3.3-6.8c-0.6-1.7-1-3.5-1.2-5.3C3,17.2,3,14.2,4.5,12
	c1.7-2.6,4.6-4.6,6.9-6.5c0.6-0.5,1.5-0.5,2,0.1c0,0,0,0,0,0l6.6,8.6c0.5,0.7,0.4,1.6-0.2,2.2l-3.5,3.1c-1.2,1-2.1,2.2-2.7,3.7
	c-0.4,1.4-0.2,2.9,0.6,4.1C16.7,31,19.6,34.5,22.8,37.6z"/>
<line class="st0" x1="8.6" y1="8" x2="17.1" y2="18.9"/>
<line class="st0" x1="41" y1="46.7" x2="31.7" y2="36.4"/>
<path class="st0" d="M33.5,12.4h13.6c1,0,1.8,0.8,1.8,1.8v9.1c0,1-0.8,1.8-1.8,1.8H33.5c-1,0-1.8-0.8-1.8-1.8v-9.1
	C31.7,13.2,32.5,12.4,33.5,12.4z"/>
<path class="st0" d="M45.7,7c0-3-2.4-5.4-5.4-5.4S34.8,4,34.8,7v5.4"/>
<line class="st0" x1="40.3" y1="20.6" x2="40.3" y2="16.9"/>
</svg>
