<?xml version="1.0" encoding="utf-8"?>
<!-- Generator: Adobe Illustrator 21.1.0, SVG Export Plug-In . SVG Version: 6.00 Build 0)  -->
<svg version="1.1" id="Слой_259" xmlns="http://www.w3.org/2000/svg" xmlns:xlink="http://www.w3.org/1999/xlink" x="0px"
	 y="0px" viewBox="0 0 52 52" style="enable-background:new 0 0 52 52;" xml:space="preserve">
<style type="text/css">
	.st0{fill:none;stroke:#000000;stroke-width:2;stroke-miterlimit:10;}
</style>
<title>Selektornaya svyaz</title>
<path class="st0" d="M45.3,25.9c-0.6,5.3-5.5,11.5-7.1,13.4c-1.7-1.9-6.7-8.1-7.3-13.4c-0.5-4,2.3-7.6,6.3-8.1
	c4-0.5,7.6,2.3,8.1,6.3c0,0.3,0.1,0.6,0.1,0.9C45.3,25.3,45.3,25.6,45.3,25.9z"/>
<path class="st0" d="M38,20.8c-2.3,0-4.2,1.8-4.2,4.1c0,2.3,1.8,4.2,4.1,4.2c2.3,0,4.2-1.8,4.2-4.1c0,0,0,0,0,0
	C42.2,22.7,40.3,20.8,38,20.8z"/>
<rect x="13.9" y="45.9" class="st0" width="21.6" height="4.2"/>
<line class="st0" x1="24.7" y1="41.8" x2="24.7" y2="19.4"/>
<rect x="23.5" y="41.8" class="st0" width="2.5" height="4.2"/>
<line class="st0" x1="24.7" y1="5.2" x2="24.7" y2="10.2"/>
<path class="st0" d="M27.6,16.4c0,1.6-1.3,2.9-2.9,2.9c-1.6,0-2.9-1.3-2.9-2.9V4.8c0-1.6,1.3-2.9,2.9-2.9c1.6,0,2.9,1.3,2.9,2.9
	V16.4z"/>
<path class="st0" d="M16.2,30.5c-0.4,3.5-3.7,7.5-4.7,8.8c-1.1-1.2-4.4-5.3-4.8-8.8c0-0.2,0-0.4,0-0.6c0-2.6,2.1-4.8,4.8-4.8
	s4.8,2.1,4.8,4.8l0,0C16.2,30.1,16.2,30.3,16.2,30.5z"/>
</svg>
