<?xml version="1.0" encoding="utf-8"?>
<!-- Generator: Adobe Illustrator 21.1.0, SVG Export Plug-In . SVG Version: 6.00 Build 0)  -->
<svg version="1.1" id="Слой_258" xmlns="http://www.w3.org/2000/svg" xmlns:xlink="http://www.w3.org/1999/xlink" x="0px"
	 y="0px" viewBox="0 0 52 52" style="enable-background:new 0 0 52 52;" xml:space="preserve">
<style type="text/css">
	.st0{fill:none;stroke:#000000;stroke-width:2;stroke-linecap:round;stroke-linejoin:round;}
</style>
<title>Peredacha dannykh i faksa</title>
<path class="st0" d="M12.4,20.9h31.9c2.6,0,4.7,2.1,4.7,4.7v16.1c0,2.6-2.1,4.7-4.7,4.7H7.2"/>
<rect x="17.2" y="5.6" class="st0" width="24.1" height="15.3"/>
<rect x="19.2" y="26" class="st0" width="22.1" height="6.8"/>
<path class="st0" d="M5.3,15.8h4.8c1.3,0,2.3,1,2.3,2.3v26.1c0,1.3-1,2.3-2.3,2.3H5.3c-1.3,0-2.3-1-2.3-2.3V18.1
	C3,16.8,4,15.8,5.3,15.8z"/>
<line class="st0" x1="19.2" y1="39.6" x2="37.1" y2="39.6"/>
<path d="M42.6,39.6c0,0.7-0.6,1.3-1.3,1.3c-0.7,0-1.3-0.6-1.3-1.3s0.6-1.3,1.3-1.3C42,38.4,42.6,38.9,42.6,39.6L42.6,39.6"/>
<line class="st0" x1="34.2" y1="10.7" x2="24.4" y2="10.7"/>
<line class="st0" x1="34.2" y1="15.8" x2="24.4" y2="15.8"/>
</svg>
