<?xml version="1.0" encoding="utf-8"?>
<!-- Generator: Adobe Illustrator 21.1.0, SVG Export Plug-In . SVG Version: 6.00 Build 0)  -->
<svg version="1.1" id="Слой_254" xmlns="http://www.w3.org/2000/svg" xmlns:xlink="http://www.w3.org/1999/xlink" x="0px"
	 y="0px" viewBox="0 0 52 52" style="enable-background:new 0 0 52 52;" xml:space="preserve">
<style type="text/css">
	.st0{fill:none;stroke:#000000;stroke-width:2;stroke-linecap:round;stroke-linejoin:round;}
</style>
<title>Kommutator</title>
<path class="st0" d="M6.6,13.6h38.9c2.5,0,4.6,2,4.6,4.6v15.7c0,2.5-2,4.6-4.6,4.6H6.6c-2.5,0-4.6-2-4.6-4.6V18.1
	C2,15.6,4,13.6,6.6,13.6z"/>
<line class="st0" x1="17.7" y1="31.8" x2="34.3" y2="31.8"/>
<path d="M13.2,31.8c0,0.7-0.5,1.2-1.2,1.3s-1.2-0.5-1.3-1.2c0-0.7,0.5-1.2,1.2-1.3c0,0,0,0,0,0C12.6,30.6,13.2,31.1,13.2,31.8
	L13.2,31.8"/>
<path d="M41.3,31.8c0,0.7-0.5,1.2-1.2,1.3c-0.7,0-1.2-0.5-1.3-1.2c0-0.7,0.5-1.2,1.2-1.3c0,0,0,0,0,0C40.8,30.6,41.3,31.1,41.3,31.8
	L41.3,31.8"/>
<path d="M13.2,26c0,0.7-0.6,1.2-1.2,1.2s-1.2-0.6-1.2-1.2c0-0.7,0.6-1.2,1.2-1.2C12.6,24.8,13.2,25.3,13.2,26L13.2,26"/>
<path d="M20.2,26c0,0.7-0.6,1.2-1.2,1.2c-0.7,0-1.2-0.6-1.2-1.2c0-0.7,0.6-1.2,1.2-1.2S20.2,25.3,20.2,26L20.2,26"/>
<path d="M27.2,26c0,0.7-0.6,1.2-1.2,1.2c-0.7,0-1.2-0.6-1.2-1.2c0-0.7,0.6-1.2,1.2-1.2C26.7,24.8,27.2,25.3,27.2,26L27.2,26"/>
<path d="M34.3,26c0,0.7-0.6,1.2-1.2,1.2c-0.7,0-1.2-0.6-1.2-1.2c0-0.7,0.6-1.2,1.2-1.2C33.7,24.8,34.3,25.3,34.3,26L34.3,26"/>
<path d="M41.3,26c0,0.7-0.6,1.2-1.2,1.2c-0.7,0-1.2-0.6-1.2-1.2c0-0.7,0.6-1.2,1.2-1.2C40.8,24.8,41.3,25.3,41.3,26L41.3,26"/>
<path d="M13.2,20.2c0,0.7-0.6,1.2-1.2,1.2s-1.2-0.6-1.2-1.2c0-0.7,0.6-1.2,1.2-1.2C12.6,19,13.2,19.5,13.2,20.2L13.2,20.2"/>
<path d="M20.2,20.2c0,0.7-0.6,1.2-1.2,1.2c-0.7,0-1.2-0.6-1.2-1.2c0-0.7,0.6-1.2,1.2-1.2S20.2,19.5,20.2,20.2L20.2,20.2"/>
<path d="M27.2,20.2c0,0.7-0.6,1.2-1.2,1.2c-0.7,0-1.2-0.6-1.2-1.2c0-0.7,0.6-1.2,1.2-1.2C26.7,19,27.2,19.5,27.2,20.2L27.2,20.2"/>
<path d="M34.3,20.2c0,0.7-0.6,1.2-1.2,1.2c-0.7,0-1.2-0.6-1.2-1.2c0-0.7,0.6-1.2,1.2-1.2C33.7,19,34.3,19.5,34.3,20.2L34.3,20.2"/>
<path d="M41.3,20.2c0,0.7-0.6,1.2-1.2,1.2c-0.7,0-1.2-0.6-1.2-1.2c0-0.7,0.6-1.2,1.2-1.2C40.8,19,41.3,19.5,41.3,20.2L41.3,20.2"/>
</svg>
