<?xml version="1.0" encoding="utf-8"?>
<!-- Generator: Adobe Illustrator 21.1.0, SVG Export Plug-In . SVG Version: 6.00 Build 0)  -->
<svg version="1.1" id="Слой_71" xmlns="http://www.w3.org/2000/svg" xmlns:xlink="http://www.w3.org/1999/xlink" x="0px"
	 y="0px" viewBox="0 0 52 52" style="enable-background:new 0 0 52 52;" xml:space="preserve">
<style type="text/css">
	.st0{fill:none;stroke:#000000;stroke-width:2;stroke-linecap:round;stroke-linejoin:round;}
</style>
<title>Partnery</title>
<path class="st0" d="M21.9,14.6c-3.1,0.3-6.2,0.3-9.2,0c-1.6-0.3-6.2-1-9.2-1.6c-1.6,3.5-2.5,13.6-2,18.4h6l5.2-16.8"/>
<line class="st0" x1="29.5" y1="28" x2="36.7" y2="34.7"/>
<line class="st0" x1="26.5" y1="31.4" x2="32.7" y2="37.1"/>
<line class="st0" x1="23.4" y1="33.8" x2="28" y2="38.5"/>
<path class="st0" d="M39.3,31c0,0-8.2-8.3-9.9-10c-1.4-1.5-3.7-1.7-5.4-0.4c-1,0.9-2.1,1.8-2.8,2.4c-2.7,2.4-5.8-0.7-4.1-2.5
	c1.4-1.5,3-3.8,4.6-5.6c2.2-2.5,6.4-2.2,9.7-0.6c1.6,0.9,3.5,1.2,5.4,1.1c2-0.1,7.6-0.7,10.9-1c4,8.1,2.9,17,2.9,17h-4.8l-8.3-16.1"
	/>
<path class="st0" d="M8.3,28.7c0,0,3.8-0.1,5.6,1.6c1.8,1.6,5.6,5.3,7.5,7.2c2.1,2.2,5.3,1.6,6.5,1c1.6,1,4.4,0.1,4.6-1.3
	c1.9,1.3,5-0.7,4-2.5c1.8,0.9,3.7-1.8,2.6-3.7c2.9,0.4,3.5-1.5,5.6-1.1"/>
</svg>
