<?xml version="1.0" encoding="utf-8"?>
<!-- Generator: Adobe Illustrator 21.1.0, SVG Export Plug-In . SVG Version: 6.00 Build 0)  -->
<svg version="1.1" id="Слой_250" xmlns="http://www.w3.org/2000/svg" xmlns:xlink="http://www.w3.org/1999/xlink" x="0px"
	 y="0px" viewBox="0 0 52 52" style="enable-background:new 0 0 52 52;" xml:space="preserve">
<style type="text/css">
	.st0{fill:none;stroke:#000000;stroke-width:2;stroke-linecap:round;stroke-linejoin:round;stroke-miterlimit:10;}
	.st1{fill:none;stroke:#000000;stroke-width:2;stroke-linecap:round;stroke-linejoin:round;}
</style>
<title>Mezhdunarodnyy MMS-obmen</title>
<path class="st0" d="M50,26c0,13.3-10.8,24-24,24s-24-10.8-24-24S12.7,2,26,2S50,12.7,50,26z"/>
<path class="st0" d="M37.2,38.7C34.9,45.5,30.7,50,26,50s-8.9-4.5-11.2-11.3"/>
<path class="st0" d="M14.6,13.9C16.9,6.8,21.1,2,26,2s9.1,4.8,11.4,11.9"/>
<line class="st0" x1="26" y1="38.7" x2="26" y2="50"/>
<line class="st0" x1="26" y1="2" x2="26" y2="13.9"/>
<line class="st0" x1="5.7" y1="13.9" x2="46" y2="13.9"/>
<line class="st0" x1="6.3" y1="38.7" x2="46" y2="38.7"/>
<g>
	<polyline class="st0" points="18.7,32 18.7,20 13.8,29.5 8.8,20 8.8,32 	"/>
	<polyline class="st0" points="32.8,32 32.8,20 27.9,29.5 23,20 23,32 	"/>
	<path class="st1" d="M42.5,20.4c0,0-5.2-2.2-6.1,1.6c-0.5,2.2,0.9,3.8,3.4,3.8c2.2,0,3.7,1.7,3.3,3.7c-0.5,2.4-3.5,3.5-6.9,1.9"/>
</g>
</svg>
