<?xml version="1.0" encoding="utf-8"?>
<!-- Generator: Adobe Illustrator 21.1.0, SVG Export Plug-In . SVG Version: 6.00 Build 0)  -->
<svg version="1.1" id="Слой_109" xmlns="http://www.w3.org/2000/svg" xmlns:xlink="http://www.w3.org/1999/xlink" x="0px"
	 y="0px" viewBox="0 0 52 52" style="enable-background:new 0 0 52 52;" xml:space="preserve">
<style type="text/css">
	.st0{fill:none;stroke:#000000;stroke-width:2;stroke-linecap:round;stroke-linejoin:round;}
</style>
<title>Chrezvychaynoye sobytiye</title>
<path class="st0" d="M35.2,17.8c5.5,5.1,8.6,10.1,8.6,15.6c0,7.1-4.3,13.6-10.8,16.4c2.2-2.6,6.2-12.9-1-20.1
	c-1.7,4.8-5.4,15.9-5.4,15.9s-5.6-3.7-6.7-4.7c-1,2.4-0.4,7.5,0.4,9.3c-7-2.6-12-9.5-12-16.7c0-4.6,1.1-9.1,3.2-13.2
	c0.4,4.9,3.9,8.9,8.7,9.9c-5.2-5.6-4.8-15.5,1.3-22.3c2.3-2.6,6.7-5.3,9.5-5.9C28.7,7.7,30.1,13.1,35.2,17.8z"/>
</svg>
