<?xml version="1.0" encoding="utf-8"?>
<!-- Generator: Adobe Illustrator 21.1.0, SVG Export Plug-In . SVG Version: 6.00 Build 0)  -->
<svg version="1.1" id="Слой_112" xmlns="http://www.w3.org/2000/svg" xmlns:xlink="http://www.w3.org/1999/xlink" x="0px"
	 y="0px" viewBox="0 0 52 52" style="enable-background:new 0 0 52 52;" xml:space="preserve">
<style type="text/css">
	.st0{fill:none;stroke:#000000;stroke-width:2;stroke-linecap:round;stroke-linejoin:round;}
</style>
<title>Uslugi</title>
<line class="st0" x1="26" y1="15.4" x2="26" y2="18.1"/>
<path class="st0" d="M12.5,30.4c0-6.8,6-12.3,13.5-12.3s13.5,5.5,13.5,12.3"/>
<rect x="10.6" y="37.4" class="st0" width="30.8" height="3.1"/>
<path class="st0" d="M41.4,32c0-0.9-0.7-1.5-1.6-1.5H12.2c-0.9,0-1.5,0.7-1.5,1.5c0,0.9,0.7,1.5,1.5,1.5h27.7
	C40.7,33.5,41.4,32.9,41.4,32z"/>
<circle class="st0" cx="26" cy="13.5" r="1.9"/>
<path class="st0" d="M44.5,35.3c1.8-1.8,1.8-4.7,0-6.5c0,0,0,0,0,0"/>
<path class="st0" d="M47.1,37.9c3.2-3.2,3.2-8.5,0-11.7c0,0,0,0,0,0"/>
<path class="st0" d="M7.5,35.3c-1.8-1.8-1.8-4.7,0-6.5c0,0,0,0,0,0"/>
<path class="st0" d="M4.9,37.9c-3.2-3.2-3.2-8.5,0-11.7c0,0,0,0,0,0"/>
</svg>
