<?xml version="1.0" encoding="utf-8"?>
<!-- Generator: Adobe Illustrator 21.1.0, SVG Export Plug-In . SVG Version: 6.00 Build 0)  -->
<svg version="1.1" id="Слой_418" xmlns="http://www.w3.org/2000/svg" xmlns:xlink="http://www.w3.org/1999/xlink" x="0px"
	 y="0px" viewBox="0 0 52 52" style="enable-background:new 0 0 52 52;" xml:space="preserve">
<style type="text/css">
	.st0{fill:none;stroke:#000000;stroke-width:2;stroke-miterlimit:10;}
</style>
<title>Popolni moy schet</title>
<ellipse class="st0" cx="9.2" cy="18.4" rx="6.7" ry="2.2"/>
<path class="st0" d="M12.5,43.2c-1,0.2-2.1,0.3-3.2,0.3S7,43.4,6,43.2c-2.1,0.4-3.5,1.1-3.5,1.9c0,1.2,3,2.2,6.7,2.2
	c3.7,0,6.7-1,6.7-2.2C16,44.3,14.6,43.6,12.5,43.2z"/>
<path class="st0" d="M12.5,39.4c-1,0.2-2.1,0.3-3.2,0.3S7,39.5,6,39.4c-2.1,0.4-3.5,1.1-3.5,1.9c0,1.2,3,2.2,6.7,2.2
	c3.7,0,6.7-1,6.7-2.2C16,40.5,14.6,39.7,12.5,39.4z"/>
<path class="st0" d="M12.5,35.5c-1,0.2-2.1,0.3-3.2,0.3S7,35.7,6,35.5c-2.1,0.4-3.5,1.1-3.5,1.9c0,1.2,3,2.2,6.7,2.2
	c3.7,0,6.7-1,6.7-2.2C16,36.6,14.6,35.9,12.5,35.5z"/>
<path class="st0" d="M12.5,31.7c-1,0.2-2.1,0.3-3.2,0.3C8.1,32,7,31.9,6,31.7c-2.1,0.4-3.5,1.1-3.5,1.9c0,1.2,3,2.2,6.7,2.2
	c3.7,0,6.7-1,6.7-2.2C16,32.8,14.6,32.1,12.5,31.7z"/>
<path class="st0" d="M12.4,27.9c-1,0.2-2,0.3-3.2,0.3c-1.2,0-2.3-0.1-3.2-0.3c-2.1,0.4-3.5,1.1-3.5,1.9c0,1.2,3,2.2,6.7,2.2
	c3.7,0,6.7-1,6.7-2.2C16,29,14.5,28.3,12.4,27.9z"/>
<path class="st0" d="M12.4,24.1c-1,0.2-2,0.3-3.2,0.3S7,24.3,6,24.1c-2.1,0.4-3.5,1.1-3.5,1.9c0,1.2,3,2.2,6.7,2.2
	c3.7,0,6.7-1,6.7-2.2C16,25.2,14.6,24.5,12.4,24.1z"/>
<path class="st0" d="M12.4,20.3c-1,0.2-2,0.3-3.2,0.3c-1.2,0-2.2-0.1-3.2-0.3c-2.1,0.4-3.5,1.1-3.5,1.9c0,1.2,3,2.2,6.7,2.2
	c3.7,0,6.7-1,6.7-2.2C16,21.4,14.6,20.6,12.4,20.3z"/>
<ellipse class="st0" cx="43.4" cy="29.4" rx="6.7" ry="2.2"/>
<path class="st0" d="M46.6,42.7c-1,0.2-2.1,0.3-3.2,0.3c-1.2,0-2.3-0.1-3.2-0.3c-2.1,0.4-3.5,1.1-3.5,1.9c0,1.2,3,2.2,6.7,2.2
	c3.7,0,6.7-1,6.7-2.2C50.1,43.8,48.7,43.1,46.6,42.7z"/>
<path class="st0" d="M46.6,38.9c-1,0.2-2,0.3-3.2,0.3c-1.2,0-2.3-0.1-3.2-0.3c-2.1,0.4-3.5,1.1-3.5,1.9c0,1.2,3,2.2,6.7,2.2
	c3.7,0,6.7-1,6.7-2.2C50.1,40,48.7,39.3,46.6,38.9z"/>
<path class="st0" d="M46.6,35.1c-1,0.2-2,0.3-3.2,0.3s-2.3-0.1-3.2-0.3c-2.1,0.4-3.5,1.1-3.5,1.9c0,1.2,3,2.2,6.7,2.2
	c3.7,0,6.7-1,6.7-2.2C50.1,36.2,48.7,35.4,46.6,35.1z"/>
<path class="st0" d="M46.6,31.3c-1,0.2-2,0.3-3.2,0.3c-1.2,0-2.2-0.1-3.2-0.3c-2.1,0.4-3.5,1.1-3.5,1.9c0,1.2,3,2.2,6.7,2.2
	c3.7,0,6.7-1,6.7-2.2C50.1,32.3,48.7,31.6,46.6,31.3z"/>
<ellipse class="st0" cx="26.2" cy="6.8" rx="6.7" ry="2.2"/>
<path class="st0" d="M29.5,31.6c-1,0.2-2.1,0.3-3.2,0.3S24,31.8,23,31.6c-2.1,0.4-3.5,1.1-3.5,1.9c0,1.2,3,2.2,6.7,2.2
	c3.7,0,6.7-1,6.7-2.2C33,32.7,31.6,32,29.5,31.6z"/>
<path class="st0" d="M29.5,27.8c-1,0.2-2.1,0.3-3.2,0.3S24,27.9,23,27.8c-2.1,0.4-3.5,1.1-3.5,1.9c0,1.2,3,2.2,6.7,2.2
	c3.7,0,6.7-1,6.7-2.2C33,28.9,31.6,28.1,29.5,27.8z"/>
<path class="st0" d="M29.5,24c-1,0.2-2.1,0.3-3.2,0.3S24,24.1,23,24c-2.1,0.4-3.5,1.1-3.5,1.9c0,1.2,3,2.2,6.7,2.2
	c3.7,0,6.7-1,6.7-2.2C33,25,31.6,24.3,29.5,24z"/>
<path class="st0" d="M29.5,43.3c-1,0.2-2.1,0.3-3.2,0.3S24,43.5,23,43.3c-2.1,0.4-3.5,1.1-3.5,1.9c0,1.2,3,2.2,6.7,2.2
	c3.7,0,6.7-1,6.7-2.2C33,44.4,31.6,43.7,29.5,43.3z"/>
<path class="st0" d="M29.5,39.5c-1,0.2-2.1,0.3-3.2,0.3S24,39.7,23,39.5c-2.1,0.4-3.5,1.1-3.5,1.9c0,1.2,3,2.2,6.7,2.2
	c3.7,0,6.7-1,6.7-2.2C33,40.6,31.6,39.9,29.5,39.5z"/>
<path class="st0" d="M29.5,35.7c-1,0.2-2.1,0.3-3.2,0.3S24,35.9,23,35.7c-2.1,0.4-3.5,1.1-3.5,1.9c0,1.2,3,2.2,6.7,2.2
	c3.7,0,6.7-1,6.7-2.2C33,36.8,31.6,36.1,29.5,35.7z"/>
<path class="st0" d="M29.5,20.1c-1,0.2-2.1,0.3-3.2,0.3c-1.2,0-2.3-0.1-3.2-0.3c-2.1,0.4-3.5,1.1-3.5,1.9c0,1.2,3,2.2,6.7,2.2
	c3.7,0,6.7-1,6.7-2.2C33,21.2,31.6,20.5,29.5,20.1z"/>
<path class="st0" d="M29.4,16.3c-1,0.2-2,0.3-3.2,0.3c-1.2,0-2.3-0.1-3.2-0.3c-2.1,0.4-3.5,1.1-3.5,1.9c0,1.2,3,2.2,6.7,2.2
	c3.7,0,6.7-1,6.7-2.2C33,17.4,31.5,16.7,29.4,16.3z"/>
<path class="st0" d="M29.4,12.5c-1,0.2-2,0.3-3.2,0.3S24,12.7,23,12.5c-2.1,0.4-3.5,1.1-3.5,1.9c0,1.2,3,2.2,6.7,2.2
	c3.7,0,6.7-1,6.7-2.2C33,13.6,31.6,12.9,29.4,12.5z"/>
<path class="st0" d="M29.4,8.7c-1,0.2-2,0.3-3.2,0.3c-1.2,0-2.2-0.1-3.2-0.3c-2.1,0.4-3.5,1.1-3.5,1.9c0,1.2,3,2.2,6.7,2.2
	c3.7,0,6.7-1,6.7-2.2C33,9.8,31.5,9,29.4,8.7z"/>
</svg>
