<?xml version="1.0" encoding="utf-8"?>
<!-- Generator: Adobe Illustrator 21.1.0, SVG Export Plug-In . SVG Version: 6.00 Build 0)  -->
<svg version="1.1" id="Слой_286" xmlns="http://www.w3.org/2000/svg" xmlns:xlink="http://www.w3.org/1999/xlink" x="0px"
	 y="0px" viewBox="0 0 52 52" style="enable-background:new 0 0 52 52;" xml:space="preserve">
<style type="text/css">
	.st0{fill:none;stroke:#000000;stroke-width:2;stroke-linecap:round;stroke-linejoin:round;}
</style>
<title>Zapret vkhodyashchego vyzova</title>
<path class="st0" d="M22.2,35.7c1.1,0.9,2.5,1.4,3.9,1.3c1.5-0.3,2.9-1,4.1-2l3.6-2.8c0.7-0.5,1.6-0.4,2.2,0.2l7.3,8
	c0.5,0.6,0.4,1.5-0.2,2c0,0,0,0,0,0c-2.2,1.9-4.7,4.4-7.6,5.6c-2.4,1-5.4,0.5-7.9-0.2c-1.7-0.5-3.4-1.2-5-2.1
	c-2.2-1.2-4.3-2.7-6.2-4.4c-3.6-3.3-6.8-7.1-9.4-11.2c-1.3-2.2-2.4-4.5-3.3-6.8c-0.6-1.7-1-3.5-1.2-5.3c-0.3-2.6-0.3-5.6,1.2-7.8
	c1.7-2.6,4.6-4.6,6.9-6.5c0.6-0.5,1.5-0.5,2,0.1c0,0,0,0,0.1,0.1l6.6,8.6c0.5,0.7,0.4,1.6-0.2,2.2l-3.5,3.1c-1.2,1-2.1,2.2-2.7,3.7
	c-0.4,1.4-0.2,2.8,0.6,4.1C16.2,29.2,19,32.6,22.2,35.7z"/>
<line class="st0" x1="8" y1="6.2" x2="16.5" y2="17.1"/>
<line class="st0" x1="40.4" y1="44.8" x2="31.1" y2="34.5"/>
<line class="st0" x1="49.5" y1="16.9" x2="38.6" y2="16.9"/>
<polyline class="st0" points="44.1,22.3 38.6,16.9 44.1,11.5 "/>
<line class="st0" x1="35" y1="13.3" x2="27.7" y2="20.5"/>
<line class="st0" x1="35" y1="20.5" x2="27.7" y2="13.3"/>
</svg>
