<?xml version="1.0" encoding="utf-8"?>
<!-- Generator: Adobe Illustrator 21.1.0, SVG Export Plug-In . SVG Version: 6.00 Build 0)  -->
<svg version="1.1" id="Слой_60" xmlns="http://www.w3.org/2000/svg" xmlns:xlink="http://www.w3.org/1999/xlink" x="0px"
	 y="0px" viewBox="0 0 52 52" style="enable-background:new 0 0 52 52;" xml:space="preserve">
<style type="text/css">
	.st0{fill:none;stroke:#000000;stroke-width:2;stroke-linecap:round;stroke-linejoin:round;}
</style>
<title>Bankovskiy sektor</title>
<line class="st0" x1="8.4" y1="47.7" x2="48" y2="8.1"/>
<ellipse transform="matrix(0.7072 -0.707 0.707 0.7072 -5.9669 14.8973)" class="st0" cx="15" cy="14.7" rx="11" ry="11"/>
<path class="st0" d="M17.5,9.6c0,0-4.7-2-5.5,1.5c-0.5,2,0.8,3.4,3.1,3.4c2,0,3.3,1.5,3,3.3c-0.4,2.1-3.2,3.2-6.2,1.7"/>
<line class="st0" x1="15" y1="9" x2="15" y2="6.6"/>
<line class="st0" x1="15" y1="22.5" x2="15" y2="20.1"/>
<path class="st0" d="M43.4,44.2c-0.8,1.2-2.2,2.1-3.8,2.1h0c-2.5,0-4.5-2-4.5-4.5v-6.2c0-2.5,2-4.5,4.5-4.5h0c1.5,0,2.8,0.7,3.6,1.8
	"/>
<g>
	<line class="st0" x1="39.5" y1="36.7" x2="32.6" y2="36.7"/>
	<line class="st0" x1="39.5" y1="40.5" x2="32.6" y2="40.5"/>
</g>
</svg>
