<?xml version="1.0" encoding="utf-8"?>
<!-- Generator: Adobe Illustrator 21.1.0, SVG Export Plug-In . SVG Version: 6.00 Build 0)  -->
<svg version="1.1" id="Слой_116" xmlns="http://www.w3.org/2000/svg" xmlns:xlink="http://www.w3.org/1999/xlink" x="0px"
	 y="0px" viewBox="0 0 52 52" style="enable-background:new 0 0 52 52;" xml:space="preserve">
<style type="text/css">
	.st0{fill:none;stroke:#000000;stroke-width:2;stroke-linecap:round;stroke-linejoin:round;}
</style>
<title>Testovyy period</title>
<path class="st0" d="M6.1,8.8h39.7c1.6,0,2.8,1.3,2.8,2.8V44c0,1.6-1.3,2.8-2.8,2.8H6.1c-1.6,0-2.8-1.3-2.8-2.8V11.6
	C3.3,10,4.6,8.8,6.1,8.8z"/>
<line class="st0" x1="9.7" y1="16.9" x2="42.3" y2="16.9"/>
<line class="st0" x1="39.6" y1="5.1" x2="39.6" y2="12.4"/>
<line class="st0" x1="12.4" y1="5.1" x2="12.4" y2="12.4"/>
<path class="st0" d="M33.5,29.2c0,0-4.2-1.8-4.9,1.3c-0.4,1.8,0.7,3,2.7,3c1.8,0,3,1.4,2.6,2.9c-0.4,1.9-2.8,2.8-5.5,1.5"/>
<g>
	<path class="st0" d="M11.2,25.7v9.9c0,1.4,1.2,2.6,2.6,2.6h0.8"/>
	<line class="st0" x1="9.7" y1="28.9" x2="14.1" y2="28.9"/>
</g>
<g>
	<path class="st0" d="M38.7,25.7v9.9c0,1.4,1.2,2.6,2.6,2.6h0.8"/>
	<line class="st0" x1="37.1" y1="28.9" x2="41.6" y2="28.9"/>
</g>
<path class="st0" d="M24.5,36.5c-0.5,1.2-1.8,2.1-3.2,2.1H21c-1.9,0-3.5-1.6-3.5-3.5v-3c0-1.9,1.6-3.5,3.5-3.5h0.2
	c1.9,0,3.5,1.6,3.5,3.5v1h-7.2"/>
</svg>
