<?xml version="1.0" encoding="utf-8"?>
<!-- Generator: Adobe Illustrator 21.1.0, SVG Export Plug-In . SVG Version: 6.00 Build 0)  -->
<svg version="1.1" id="Слой_266" xmlns="http://www.w3.org/2000/svg" xmlns:xlink="http://www.w3.org/1999/xlink" x="0px"
	 y="0px" viewBox="0 0 52 52" style="enable-background:new 0 0 52 52;" xml:space="preserve">
<style type="text/css">
	.st0{fill:none;stroke:#000000;stroke-width:2;stroke-linecap:round;stroke-linejoin:round;}
</style>
<title>Postanovka v ochered_vkhodyashchikh vyzovov</title>
<path class="st0" d="M22.8,35.7c1.1,0.9,2.5,1.4,3.9,1.3c1.5-0.3,2.9-1,4.1-2l3.6-2.8c0.7-0.5,1.6-0.4,2.2,0.2l7.3,8
	c0.5,0.6,0.4,1.5-0.2,2c0,0,0,0,0,0c-2.2,1.9-4.7,4.4-7.6,5.6c-2.4,1-5.4,0.5-7.9-0.2c-1.7-0.5-3.4-1.2-5-2.1
	C21,44.5,19,43,17.1,41.3c-3.6-3.3-6.8-7.1-9.4-11.2c-1.3-2.2-2.4-4.5-3.3-6.8c-0.6-1.7-1-3.5-1.2-5.3C3,15.4,3,12.4,4.4,10.2
	C6.2,7.5,9,5.5,11.3,3.7c0.6-0.5,1.5-0.5,2,0.1c0,0,0,0,0.1,0.1l6.6,8.6c0.5,0.7,0.4,1.6-0.2,2.2l-3.5,3.1c-1.2,1-2.1,2.2-2.7,3.7
	c-0.4,1.4-0.2,2.8,0.6,4.1C16.7,29.2,19.6,32.6,22.8,35.7z"/>
<line class="st0" x1="8.5" y1="6.2" x2="17" y2="17.1"/>
<line class="st0" x1="41" y1="44.8" x2="31.7" y2="34.5"/>
<line class="st0" x1="34.4" y1="18.9" x2="23.5" y2="18.9"/>
<polyline class="st0" points="29,24.3 23.5,18.9 29,13.4 "/>
<line class="st0" x1="48.9" y1="18.9" x2="38.1" y2="18.9"/>
<polyline class="st0" points="43.5,24.3 38.1,18.9 43.5,13.5 "/>
</svg>
