<?xml version="1.0" encoding="utf-8"?>
<!-- Generator: Adobe Illustrator 21.1.0, SVG Export Plug-In . SVG Version: 6.00 Build 0)  -->
<svg version="1.1" id="Слой_166" xmlns="http://www.w3.org/2000/svg" xmlns:xlink="http://www.w3.org/1999/xlink" x="0px"
	 y="0px" viewBox="0 0 52 52" style="enable-background:new 0 0 52 52;" xml:space="preserve">
<style type="text/css">
	.st0{fill:none;stroke:#000000;stroke-width:2;stroke-linecap:round;stroke-linejoin:round;}
</style>
<title>Virtual&amp;apos;nyy kontaktnyy tsentr</title>
<path class="st0" d="M31.3,22.1h1.2c0.7,0,1.2,0.5,1.2,1.2c0,0,0,0,0,0v1.9c0,0.7-0.5,1.2-1.2,1.2c0,0,0,0,0,0h-1.2"/>
<path class="st0" d="M20.7,22.1h-1.2c-0.7,0-1.2,0.5-1.2,1.2c0,0,0,0,0,0v1.9c0,0.7,0.5,1.2,1.2,1.2c0,0,0,0,0,0h1.2"/>
<polyline class="st0" points="26,28.1 32.1,28.1 32.1,26.4 "/>
<path class="st0" d="M32.1,22v-2.5c0-2.2-2.7-4.7-6-4.7s-6,2.5-6,4.7V22"/>
<path class="st0" d="M31.3,26.4c0,2.9-2.3,5.2-5.2,5.2h-0.3c-2.9,0-5.2-2.3-5.2-5.2v-3.8c0-2.9,2.3-5.2,5.2-5.2h0.3
	c2.9,0,5.2,2.3,5.2,5.2V26.4z"/>
<path class="st0" d="M40.5,45.3v-4.4c-0.1-1.7-1.1-3.3-2.7-4.1l-9.2-4.1c-1.7-0.6-3.6-0.6-5.3,0l-9.2,4.1c-1.6,0.8-2.6,2.3-2.7,4.1
	v4.4h4.8l1.2,3.6h16.9l1.2-3.6L40.5,45.3z"/>
<line class="st0" x1="24.8" y1="35.6" x2="27.2" y2="35.6"/>
<polyline class="st0" points="29,48.9 27.2,35.6 28.4,32.7 "/>
<polyline class="st0" points="23,48.9 24.8,35.6 23.6,32.7 "/>
<path class="st0" d="M38.1,31.4h3.7c3.5,0,6.3-3.2,6.3-7.1s-2.8-7.1-6.3-7.1l0,0c-0.4-4-3.4-7.1-7.1-7.1c-1.7,0-3.2,0.6-4.5,1.7
	c-1.4-5.1-5.4-8.7-10.4-8.7c-6.1,0-11.3,5.4-11.3,12.3c0,0.7,0,1.3,0.1,2c-3,1-5,3.8-4.9,6.9c0,3.9,2.8,7.1,6.3,7.1h3.7"/>
</svg>
