<?xml version="1.0" encoding="utf-8"?>
<!-- Generator: Adobe Illustrator 21.1.0, SVG Export Plug-In . SVG Version: 6.00 Build 0)  -->
<svg version="1.1" id="Слой_131" xmlns="http://www.w3.org/2000/svg" xmlns:xlink="http://www.w3.org/1999/xlink" x="0px"
	 y="0px" viewBox="0 0 52 52" style="enable-background:new 0 0 52 52;" xml:space="preserve">
<style type="text/css">
	.st0{fill:none;stroke:#000000;stroke-width:2;stroke-linecap:round;stroke-linejoin:round;}
</style>
<title>Vyyezd inzhenera</title>
<line class="st0" x1="16.2" y1="34.8" x2="35.7" y2="34.8"/>
<path class="st0" d="M9.2,34.8h-4c-1,0-1.9-0.9-1.9-1.9V18.5c0-1,0.9-1.9,1.9-1.9h36.8c1.2,0.1,2.2,0.7,2.8,1.7l3.1,5.8
	c0.5,1.1,0.8,2.3,0.9,3.6v5.3c0,1-0.9,1.9-1.9,1.9h-4.1"/>
<path class="st0" d="M16.2,34.8c0-1.9-1.6-3.5-3.5-3.5s-3.5,1.6-3.5,3.5c0,1.9,1.6,3.5,3.5,3.5c0,0,0,0,0,0
	C14.6,38.3,16.2,36.8,16.2,34.8z"/>
<path class="st0" d="M42.8,34.8c0-1.9-1.6-3.5-3.5-3.5c-1.9,0-3.5,1.6-3.5,3.5c0,1.9,1.6,3.5,3.5,3.5c0,0,0,0,0,0
	C41.2,38.3,42.8,36.8,42.8,34.8z"/>
<polygon class="st0" points="43.8,23.8 35.7,23.8 35.7,20.1 41.8,20.1 "/>
<path class="st0" d="M10.1,12.8h24.6c0.5,0,1,0.4,1,1v1.9c0,0.5-0.4,1-1,1H10.1c-0.5,0-1-0.4-1-1v-1.9C9.2,13.3,9.6,12.8,10.1,12.8z
	"/>
<path class="st0" d="M6,34.8L6,34.8c0-3.7,3-6.6,6.6-6.6s6.6,3,6.6,6.6l0,0h7.8c0-0.7-0.1-1.5-0.2-2.2l-3.7-0.2
	c-0.3-1.2-0.7-2.3-1.4-3.3l2.4-2.8c-0.9-1.2-1.9-2.3-3.1-3.2l-2.8,2.4c-1-0.6-2.1-1.1-3.3-1.4l-0.2-3.7c-0.7-0.1-1.5-0.2-2.2-0.2
	c-0.7,0-1.5,0.1-2.2,0.2l-0.2,3.7C9.1,24.5,8,25,7,25.6l-2.8-2.5c-0.2,0.1-0.3,0.3-0.5,0.4"/>
<path class="st0" d="M33,34.8c0.1-3.5,3-6.2,6.5-6c3.3,0.1,5.9,2.8,6,6"/>
<line class="st0" x1="1.7" y1="42.2" x2="50.3" y2="42.2"/>
</svg>
