<?xml version="1.0" encoding="utf-8"?>
<!-- Generator: Adobe Illustrator 21.1.0, SVG Export Plug-In . SVG Version: 6.00 Build 0)  -->
<svg version="1.1" id="Слой_214" xmlns="http://www.w3.org/2000/svg" xmlns:xlink="http://www.w3.org/1999/xlink" x="0px"
	 y="0px" viewBox="0 0 52 52" style="enable-background:new 0 0 52 52;" xml:space="preserve">
<style type="text/css">
	.st0{fill:none;stroke:#000000;stroke-width:2;stroke-linecap:round;stroke-linejoin:round;}
</style>
<title>Shirokiy modelnyy ryad setevogo oborudovaniya</title>
<rect x="13.3" y="6.9" class="st0" width="25.4" height="38.1"/>
<rect x="13.3" y="28.1" class="st0" width="25.4" height="8.5"/>
<rect x="13.3" y="11.2" class="st0" width="25.4" height="8.5"/>
<path class="st0" d="M38.7,14h-7.1c-0.9,0-1.7-0.4-2.4-1l-0.8-0.8c-0.7-0.6-1.5-0.9-2.4-1H13.3"/>
<path class="st0" d="M38.7,22.5h-7.1c-0.9,0-1.7-0.4-2.4-1l-0.8-0.8c-0.7-0.6-1.5-0.9-2.4-1H13.3"/>
<path class="st0" d="M38.7,30.9h-7.1c-0.9,0-1.7-0.4-2.4-1l-0.8-0.8c-0.7-0.6-1.5-0.9-2.4-1H13.3"/>
<polyline class="st0" points="43.3,30.9 48.3,26 43.3,21.1 "/>
<polyline class="st0" points="8.7,21.1 3.7,26 8.7,30.9 "/>
</svg>
