<?xml version="1.0" encoding="utf-8"?>
<!-- Generator: Adobe Illustrator 21.1.0, SVG Export Plug-In . SVG Version: 6.00 Build 0)  -->
<svg version="1.1" id="Слой_384" xmlns="http://www.w3.org/2000/svg" xmlns:xlink="http://www.w3.org/1999/xlink" x="0px"
	 y="0px" viewBox="0 0 52 52" style="enable-background:new 0 0 52 52;" xml:space="preserve">
<style type="text/css">
	.st0{fill:none;stroke:#000000;stroke-width:2;stroke-miterlimit:10;}
</style>
<title>Sotsial&amp;apos;nyy TSFO</title>
<path class="st0" d="M21.5,45.5H4.8c-0.9-0.1-1.7-0.7-1.9-1.6c-0.2-0.9-0.3-1.7-0.3-2.6c-0.2-5.7,3.7-10.6,9.3-11.8
	c2.1,2,5.5,2,7.6,0c1.2,0.3,2.4,0.8,3.5,1.4c-2.5,2.6-3.9,6.1-3.8,9.8c0,1.1,0.1,2.2,0.4,3.3C19.8,44.8,20.5,45.4,21.5,45.5z"/>
<path class="st0" d="M49.4,40.7c0,1.1-0.1,2.2-0.3,3.2c-0.2,0.9-1,1.5-1.9,1.6H21.4c-0.9-0.1-1.7-0.7-1.9-1.6
	c-0.2-1.1-0.3-2.2-0.4-3.2c0-7.2,4.5-12,10.8-13.5c2.5,2.3,6.3,2.3,8.8,0C44.9,28.6,49.4,33.5,49.4,40.7z"/>
<ellipse class="st0" cx="34.2" cy="17.6" rx="8.5" ry="11.1"/>
<ellipse class="st0" cx="15.8" cy="21.2" rx="7.2" ry="9.6"/>
</svg>
