<?xml version="1.0" encoding="utf-8"?>
<!-- Generator: Adobe Illustrator 21.1.0, SVG Export Plug-In . SVG Version: 6.00 Build 0)  -->
<svg version="1.1" id="Слой_95" xmlns="http://www.w3.org/2000/svg" xmlns:xlink="http://www.w3.org/1999/xlink" x="0px"
	 y="0px" viewBox="0 0 52 52" style="enable-background:new 0 0 52 52;" xml:space="preserve">
<style type="text/css">
	.st0{fill:none;stroke:#000000;stroke-width:2;stroke-linecap:round;stroke-linejoin:round;}
</style>
<title>Priostanovka_Golosovaniye</title>
<path class="st0" d="M25,6.7c0-2.8-4.4-2.9-4.4,0v6.4c0-3.2-4-3.2-4,0v8c0,2.4-0.8,4.6-0.8,10.4c0,3.6,2,8.4,2.8,10.3
	c1.2,2.5,1.7,5.3,1.6,8.1"/>
<path class="st0" d="M32.6,49.9c0,0-0.2-5,2-7.4"/>
<path class="st0" d="M27.2,44.3c2.6,0.4,5.3-0.3,7.4-1.8c2.1-1.6,3.9-3.5,5.4-5.7c1.6-2.2,3-5.9,7.3-9.3c0.8-0.5,1-1.6,0.5-2.4
	c0,0,0,0,0-0.1c-0.9-0.9-3.3-0.1-4,0.3c-1.6,1.2-3.2,2.6-4.6,4c-2.6,2.2-5.3,0.3-5.3-2.7v-20c0-2.8-4.4-2.9-4.4,0"/>
<path class="st0" d="M25,21.1V4.4c0-1.2,1-2.2,2.2-2.2s2.2,1,2.2,2.2v16"/>
<line class="st0" x1="20.6" y1="7.5" x2="20.6" y2="21.9"/>
</svg>
