<?xml version="1.0" encoding="utf-8"?>
<!-- Generator: Adobe Illustrator 21.1.0, SVG Export Plug-In . SVG Version: 6.00 Build 0)  -->
<svg version="1.1" id="Слой_337" xmlns="http://www.w3.org/2000/svg" xmlns:xlink="http://www.w3.org/1999/xlink" x="0px"
	 y="0px" viewBox="0 0 52 52" style="enable-background:new 0 0 52 52;" xml:space="preserve">
<title>TV-onlayn na Zabava.ru</title>
<path d="M3.4,19.8c0,0,12.4-8.9,27.4-6.3c3.3,0.7,6.2,2.7,8,5.5c0.9,1.5,1.8,4.2,1.1,6c-0.3,0.7-0.9,1.2-1.7,1.3
	c-0.2,0-2.2,0.2-2.1-0.1c0,0,1.7-9-8.1-9.6c0,0-6.9-0.3-8,7.3c0,0-1,7.4,7.2,9.8c0,0,10.4,3.2,16.1-3.6c0,0,5.4-5.6,0.5-13.2
	c0,0-5.1-9-24.2-6.5c0,0-10,2-17,7.6c0,0-0.9,0.7-0.4,1.5C2.6,19.9,3.1,20,3.4,19.8L3.4,19.8z M5.9,31.6L5.9,31.6
	c-1.1-1.2-1-3.1,0.2-4.3c0.1-0.1,0.2-0.2,0.3-0.3c2.3-1.9,5.2,1.9,5.2,1.9c7.2,9.3,21.7,9.3,21.7,9.3c10.9-0.6,14-7.3,14-7.3
	c1-1.8,1.9-1.1,1.9-1.1c1.1,0.4,0,2.1,0,2.1c-4.8,9.8-19.2,10-19.2,10C16.4,42.2,6.8,32.5,5.9,31.6L5.9,31.6z"/>
</svg>
