<?xml version="1.0" encoding="utf-8"?>
<!-- Generator: Adobe Illustrator 21.1.0, SVG Export Plug-In . SVG Version: 6.00 Build 0)  -->
<svg version="1.1" id="Слой_427" xmlns="http://www.w3.org/2000/svg" xmlns:xlink="http://www.w3.org/1999/xlink" x="0px"
	 y="0px" viewBox="0 0 52 52" style="enable-background:new 0 0 52 52;" xml:space="preserve">
<style type="text/css">
	.st0{fill:none;stroke:#000000;stroke-width:2;stroke-linecap:round;stroke-linejoin:round;stroke-miterlimit:10;}
	.st1{fill:none;stroke:#000000;stroke-width:4;}
</style>
<title>Peremeshcheniye sredstv mezhdu schetami</title>
<line class="st0" x1="27.8" y1="30" x2="24.2" y2="30"/>
<path class="st0" d="M15.1,30h-3.6c-2,0-3.6-1.6-3.6-3.6V7.4c0-2,1.6-3.6,3.6-3.6H45c2,0,3.6,1.6,3.7,3.6v18.9c0,2-1.6,3.6-3.7,3.6
	h-8.1"/>
<line class="st1" x1="7.9" y1="11.8" x2="48.7" y2="11.8"/>
<path class="st0" d="M44.1,30.1v14.5c0,2-1.6,3.6-3.6,3.6H7c-2,0-3.6-1.6-3.6-3.6v-19C3.4,23.6,5,22,7,22h0.9"/>
<line class="st0" x1="19.4" y1="18.4" x2="19.9" y2="43.8"/>
<polyline class="st0" points="12.5,36.7 19.9,43.8 27,36.4 "/>
<line class="st0" x1="32.6" y1="43.6" x2="32.1" y2="18.2"/>
<polyline class="st0" points="25,25.6 32.1,18.2 39.5,25.3 "/>
</svg>
