<?xml version="1.0" encoding="utf-8"?>
<!-- Generator: Adobe Illustrator 21.1.0, SVG Export Plug-In . SVG Version: 6.00 Build 0)  -->
<svg version="1.1" id="Слой_307" xmlns="http://www.w3.org/2000/svg" xmlns:xlink="http://www.w3.org/1999/xlink" x="0px"
	 y="0px" viewBox="0 0 52 52" style="enable-background:new 0 0 52 52;" xml:space="preserve">
<style type="text/css">
	.st0{fill:none;stroke:#000000;stroke-width:2;stroke-linecap:round;stroke-linejoin:round;stroke-miterlimit:10;}
</style>
<title>Kommunalnyye platezhi</title>
<circle class="st0" cx="32.6" cy="9.4" r="2.2"/>
<circle class="st0" cx="11.5" cy="9.4" r="2.2"/>
<path class="st0" d="M17.6,9.4L17.6,9.4c0-2.4,2-4.4,4.4-4.4c2.4,0,4.4,2,4.4,4.4c0,2.4-2,4.4-4.4,4.4C19.6,13.9,17.6,11.9,17.6,9.4
	z"/>
<rect x="16.1" y="20.7" class="st0" width="11.8" height="5.3"/>
<path class="st0" d="M34.7,33.1h-3.4c-0.3,0-0.5,0.1-0.7,0.3c-4.8,4.7-12.5,4.7-17.3,0c-0.2-0.2-0.4-0.3-0.7-0.3H4.1v-6.9h31.6
	c5.5,0,10,4.5,10,10v3.5h-6.9v-2.5C38.8,34.9,37,33.1,34.7,33.1C34.7,33.1,34.7,33.1,34.7,33.1z"/>
<polygon class="st0" points="36.6,39.9 47.9,39.9 47.9,44.8 36.6,44.8 "/>
<line class="st0" x1="4.1" y1="22.3" x2="4.1" y2="36.9"/>
<line class="st0" x1="22" y1="13.9" x2="22" y2="20.7"/>
<line class="st0" x1="14.6" y1="9.4" x2="17.6" y2="9.4"/>
<line class="st0" x1="26.4" y1="9.5" x2="29.4" y2="9.5"/>
</svg>
