<?xml version="1.0" encoding="utf-8"?>
<!-- Generator: Adobe Illustrator 21.1.0, SVG Export Plug-In . SVG Version: 6.00 Build 0)  -->
<svg version="1.1" id="Слой_175" xmlns="http://www.w3.org/2000/svg" xmlns:xlink="http://www.w3.org/1999/xlink" x="0px"
	 y="0px" viewBox="0 0 52 52" style="enable-background:new 0 0 52 52;" xml:space="preserve">
<style type="text/css">
	.st0{fill:none;stroke:#000000;stroke-width:2;stroke-linecap:round;stroke-linejoin:round;}
	.st1{fill:none;stroke:#000000;stroke-width:2;stroke-linecap:round;stroke-linejoin:round;stroke-miterlimit:10;}
	.st2{fill:none;stroke:#000105;stroke-width:2;stroke-linecap:round;stroke-linejoin:round;stroke-miterlimit:10;}
</style>
<title>Pakety kanalov</title>
<path class="st0" d="M4.2,13.3h43.5c0.5,0,0.9,0.4,0.9,0.9v34.5c0,0.5-0.4,0.9-0.9,0.9H4.2c-0.5,0-0.9-0.4-0.9-0.9V14.2
	C3.3,13.7,3.7,13.3,4.2,13.3z"/>
<path class="st0" d="M17.8,17.8v-7.7c0-4.5,3.7-7.7,8.2-7.7s8.2,3.2,8.2,7.7v7.7"/>
<circle cx="17.8" cy="17.8" r="1.4"/>
<circle cx="34.2" cy="17.8" r="1.4"/>
<polyline class="st1" points="40.7,24.9 37.4,35 33.9,24.9 "/>
<line class="st2" x1="30.9" y1="24.9" x2="23.5" y2="24.9"/>
<line class="st2" x1="27.2" y1="35" x2="27.2" y2="24.9"/>
<line class="st2" x1="11.1" y1="35" x2="11.1" y2="24.9"/>
<path class="st2" d="M15.2,35V24.9h3.3c1.3,0,2.3,1,2.3,2.3V28c0,1.3-1,2.3-2.3,2.3h-3.3"/>
</svg>
