<?xml version="1.0" encoding="utf-8"?>
<!-- Generator: Adobe Illustrator 21.1.0, SVG Export Plug-In . SVG Version: 6.00 Build 0)  -->
<svg version="1.1" id="Слой_138" xmlns="http://www.w3.org/2000/svg" xmlns:xlink="http://www.w3.org/1999/xlink" x="0px"
	 y="0px" viewBox="0 0 52 52" style="enable-background:new 0 0 52 52;" xml:space="preserve">
<style type="text/css">
	.st0{fill:none;stroke:#000000;stroke-width:2;stroke-linecap:round;stroke-linejoin:round;}
</style>
<title>Zakaz uslug</title>
<ellipse transform="matrix(0.9356 -0.353 0.353 0.9356 0.1515 9.5214)" class="st0" cx="26.2" cy="4.3" rx="2" ry="2"/>
<path class="st0" d="M30.9,4.8h-2.8C28,5.4,27.6,6,26.9,6.2c-1,0.4-2.2-0.1-2.6-1.2c0-0.1,0-0.2-0.1-0.3h-2.8c-1,0-1.8,0.8-1.8,1.8
	v1.2c0,1,0.8,1.8,1.8,1.8h9.5c1,0,1.8-0.8,1.8-1.8V6.6C32.7,5.6,31.9,4.8,30.9,4.8z"/>
<line class="st0" x1="14.6" y1="16.1" x2="37.2" y2="16.1"/>
<line class="st0" x1="14.6" y1="21" x2="37.2" y2="21"/>
<circle class="st0" cx="33" cy="37.3" r="12.4"/>
<line class="st0" x1="27" y1="37.3" x2="32.1" y2="42.4"/>
<line class="st0" x1="38.5" y1="30.9" x2="32.1" y2="42.4"/>
<path class="st0" d="M38.7,6.7h-6v1c0,1-0.8,1.8-1.8,1.8h-9.5c-1,0-1.8-0.8-1.8-1.8v-1h-6c-1.7,0-3,1.4-3,3v30.4c0,1.7,1.4,3,3,3
	h8.5c-0.9-1.7-1.5-3.7-1.5-5.8c0-6.8,5.5-12.4,12.4-12.4c3.4,0,6.5,1.4,8.7,3.6V9.7C41.7,8.1,40.4,6.7,38.7,6.7z"/>
</svg>
