<?xml version="1.0" encoding="utf-8"?>
<!-- Generator: Adobe Illustrator 21.1.0, SVG Export Plug-In . SVG Version: 6.00 Build 0)  -->
<svg version="1.1" id="Слой_221" xmlns="http://www.w3.org/2000/svg" xmlns:xlink="http://www.w3.org/1999/xlink" x="0px"
	 y="0px" viewBox="0 0 52 52" style="enable-background:new 0 0 52 52;" xml:space="preserve">
<style type="text/css">
	.st0{fill:none;stroke:#000000;stroke-width:2;stroke-linecap:round;stroke-linejoin:round;}
</style>
<title>Navedeniye spravok vo vremya razgovora</title>
<path class="st0" d="M21.2,37.6c1.1,0.9,2.5,1.4,3.9,1.3c1.5-0.3,2.9-1,4.1-2l3.6-2.8c0.7-0.5,1.6-0.4,2.2,0.2l7.3,8
	c0.5,0.6,0.4,1.5-0.1,2c0,0,0,0-0.1,0c-2.2,1.9-4.7,4.4-7.6,5.6c-2.4,1.1-5.4,0.5-7.9-0.2c-1.7-0.5-3.4-1.2-5-2.1
	c-2.2-1.2-4.3-2.7-6.2-4.4c-3.6-3.3-6.8-7.1-9.4-11.2c-1.3-2.2-2.4-4.5-3.3-6.8c-0.6-1.7-1-3.5-1.2-5.3c-0.3-2.6-0.3-5.6,1.2-7.8
	c1.7-2.6,4.6-4.6,6.9-6.5c0.6-0.5,1.5-0.5,2,0.1c0,0,0,0,0,0l6.6,8.6c0.5,0.7,0.4,1.6-0.2,2.2l-3.5,3.1c-1.2,1-2.1,2.2-2.7,3.7
	c-0.4,1.4-0.2,2.9,0.6,4.1C15.2,31,18,34.5,21.2,37.6z"/>
<line class="st0" x1="7" y1="8" x2="15.5" y2="18.9"/>
<line class="st0" x1="39.4" y1="46.7" x2="30.1" y2="36.4"/>
<path class="st0" d="M50.5,13.3c0,6.5-5.3,11.8-11.8,11.8c0,0,0,0,0,0H26.9V13.3c0-6.5,5.3-11.8,11.8-11.8
	C45.2,1.5,50.5,6.8,50.5,13.3z"/>
<path class="st0" d="M36.3,8c1-1.2,4.3-1.6,5.3,0.7c0.8,2-0.5,3.1-1.5,3.8c-1,0.5-1.6,1.5-1.7,2.7"/>
<path d="M37.3,18.6c0,0.6,0.5,1.1,1.1,1.1s1.1-0.5,1.1-1.1s-0.5-1.1-1.1-1.1c0,0,0,0,0,0C37.8,17.6,37.3,18,37.3,18.6"/>
</svg>
