<?xml version="1.0" encoding="utf-8"?>
<!-- Generator: Adobe Illustrator 21.1.0, SVG Export Plug-In . SVG Version: 6.00 Build 0)  -->
<svg version="1.1" id="Слой_82" xmlns="http://www.w3.org/2000/svg" xmlns:xlink="http://www.w3.org/1999/xlink" x="0px"
	 y="0px" viewBox="0 0 52 52" style="enable-background:new 0 0 52 52;" xml:space="preserve">
<style type="text/css">
	.st0{fill:none;stroke:#000000;stroke-width:2;stroke-linecap:round;stroke-linejoin:round;}
</style>
<title>Dolya na rynke</title>
<circle class="st0" cx="26" cy="26" r="24.5"/>
<line class="st0" x1="26" y1="26" x2="48.9" y2="34.5"/>
<line class="st0" x1="26" y1="26" x2="26" y2="1.5"/>
<path class="st0" d="M44.7,33C48.6,22.7,43.3,11.1,33,7.3C30.7,6.4,28.4,6,26,6"/>
<path class="st0" d="M40.5,31.4c3-8-1.1-16.9-9.1-19.8c-1.7-0.6-3.5-1-5.4-1"/>
<path class="st0" d="M36.2,29.8c2.1-5.6-0.8-11.9-6.4-14c-1.2-0.4-2.5-0.7-3.8-0.7"/>
<path class="st0" d="M32,28.2c1.2-3.3-0.4-6.9-3.7-8.2c-0.7-0.3-1.5-0.4-2.3-0.4"/>
</svg>
