<?xml version="1.0" encoding="utf-8"?>
<!-- Generator: Adobe Illustrator 21.1.0, SVG Export Plug-In . SVG Version: 6.00 Build 0)  -->
<svg version="1.1" id="Слой_177" xmlns="http://www.w3.org/2000/svg" xmlns:xlink="http://www.w3.org/1999/xlink" x="0px"
	 y="0px" viewBox="0 0 52 52" style="enable-background:new 0 0 52 52;" xml:space="preserve">
<style type="text/css">
	.st0{fill:none;stroke:#000000;stroke-width:2;stroke-linecap:round;stroke-linejoin:round;}
</style>
<title>Videonablyudeniye CCTV</title>
<path class="st0" d="M5.7,34.9c0.1-0.6-0.3-1.2-0.9-1.3c-0.1,0-0.2,0-0.3,0H2.2v11.8h2.1c0.6,0.1,1.2-0.3,1.3-0.9c0-0.1,0-0.2,0-0.3
	V34.9z"/>
<path class="st0" d="M5.7,40.9h7.2c2,0,3.8-1.2,4.7-3l2.1-6.3"/>
<path class="st0" d="M5.7,37.9h7.2c0.6,0,1.2-0.3,1.7-0.8l2.5-6.8"/>
<path class="st0" d="M40.8,26.5c-0.8,0.8-3,0.8-4.2,0.4L6.1,15.5c-1.3-0.4-1.7-2.1-1.3-3.4L6,8.3c0.5-1.3,2-2.1,3.4-1.7L48.8,21
	c1.3,0.4,1.3,1.3,0,1.7L40.8,26.5z"/>
<path class="st0" d="M43.3,25.6L41.1,32c-0.8,1.7-2.5,2.5-4.2,1.7L4.4,21.8c-1.4-0.3-2.3-1.7-2-3.1c0.1-0.3,0.2-0.5,0.3-0.7l3.4-9.3
	"/>
<path class="st0" d="M44.1,25.2l2.1,0.8l0,0l-2.1,6.8h-0.4L41.1,32"/>
<path class="st0" d="M23.4,29c-0.7,1.5-2.2,2.5-3.8,2.5c-2-0.1-3.7-1.8-3.8-3.8c0-0.8,0.4-1.3,0.4-1.7"/>
</svg>
