<?xml version="1.0" encoding="utf-8"?>
<!-- Generator: Adobe Illustrator 21.1.0, SVG Export Plug-In . SVG Version: 6.00 Build 0)  -->
<svg version="1.1" id="Слой_340" xmlns="http://www.w3.org/2000/svg" xmlns:xlink="http://www.w3.org/1999/xlink" x="0px"
	 y="0px" viewBox="0 0 52 52" style="enable-background:new 0 0 52 52;" xml:space="preserve">
<style type="text/css">
	.st0{fill:none;stroke:#000000;stroke-width:2;stroke-linecap:round;stroke-linejoin:round;stroke-miterlimit:10;}
</style>
<title>Disney</title>
<path class="st0" d="M46.6,8.9C42.2,5.1,36,5.2,32.8,9c-1.6,1.9-2.2,4.4-1.8,6.8c-3.3-1-6.8-1-10.1,0c0.4-2.4-0.2-4.9-1.8-6.8
	C16,5.2,9.8,5.1,5.4,8.9S0,18.7,3.2,22.5c1.9,2.1,4.7,3.2,7.6,2.8c-0.6,1.6-0.9,3.4-0.9,5.1c0,8.5,7.3,15.5,16.2,15.5
	S42.2,39,42.2,30.5c0-1.7-0.3-3.5-0.9-5.1c2.8,0.4,5.7-0.7,7.6-2.8C52,18.7,51.1,12.6,46.6,8.9z"/>
</svg>
