<?xml version="1.0" encoding="utf-8"?>
<!-- Generator: Adobe Illustrator 21.1.0, SVG Export Plug-In . SVG Version: 6.00 Build 0)  -->
<svg version="1.1" id="Слой_182" xmlns="http://www.w3.org/2000/svg" xmlns:xlink="http://www.w3.org/1999/xlink" x="0px"
	 y="0px" viewBox="0 0 52 52" style="enable-background:new 0 0 52 52;" xml:space="preserve">
<style type="text/css">
	.st0{fill:none;stroke:#000000;stroke-width:2;stroke-linecap:round;stroke-linejoin:round;}
	.st1{fill:none;stroke:#000000;stroke-width:2;stroke-linecap:round;stroke-linejoin:round;stroke-miterlimit:10;}
	.st2{fill:none;stroke:#000105;stroke-width:2;stroke-linecap:round;stroke-linejoin:round;stroke-miterlimit:10;}
</style>
<title>IP TV</title>
<rect x="23.5" y="37.8" class="st0" width="5" height="6.7"/>
<path class="st0" d="M8.4,7.5h35.3c2.8,0,5,2.3,5,5v20.1c0,2.8-2.3,5-5,5H8.4c-2.8,0-5-2.3-5-5V12.6C3.3,9.8,5.6,7.5,8.4,7.5z"/>
<line class="st0" x1="14" y1="44.5" x2="38" y2="44.5"/>
<polyline class="st1" points="41.4,17.5 38.1,27.6 34.6,17.5 "/>
<line class="st2" x1="31.6" y1="17.5" x2="24.2" y2="17.5"/>
<line class="st2" x1="27.9" y1="27.6" x2="27.9" y2="17.5"/>
<line class="st2" x1="11.8" y1="27.6" x2="11.8" y2="17.5"/>
<path class="st2" d="M15.9,27.6V17.5h3.3c1.3,0,2.3,1,2.3,2.3v0.8c0,1.3-1,2.3-2.3,2.3l-3.3,0"/>
</svg>
