<?xml version="1.0" encoding="utf-8"?>
<!-- Generator: Adobe Illustrator 21.1.0, SVG Export Plug-In . SVG Version: 6.00 Build 0)  -->
<svg version="1.1" id="Слой_329" xmlns="http://www.w3.org/2000/svg" xmlns:xlink="http://www.w3.org/1999/xlink" x="0px"
	 y="0px" viewBox="0 0 52 52" style="enable-background:new 0 0 52 52;" xml:space="preserve">
<style type="text/css">
	.st0{fill:#2C2A29;}
	.st1{fill:none;stroke:#2C2A29;stroke-width:2;stroke-linecap:round;stroke-linejoin:round;}
</style>
<title>Skorost Interneta do 10 Mbits</title>
<path class="st0" d="M8.6,46.9H3.2c-0.5,0-0.8-0.4-0.8-0.8c0-0.5,0.4-0.8,0.8-0.8h2.3v-7.2l-2.2,1.5c-0.4,0.2-0.9,0.1-1.1-0.2
	C2,39,2.1,38.5,2.5,38.3L5.9,36c0.2-0.1,0.3-0.2,0.5-0.2c0.5,0,0.9,0.4,0.9,0.9v8.7h1.3c0.5,0,0.8,0.4,0.8,0.8
	C9.4,46.6,9.1,47,8.6,46.9L8.6,46.9z"/>
<path class="st0" d="M15.6,39.7c0-1.5-0.7-2.4-1.8-2.4s-1.8,0.9-1.8,2.4v3.4c0,1.5,0.7,2.4,1.8,2.4s1.8-0.9,1.8-2.4V39.7z
	 M13.8,47.1c-2.4,0-3.5-1.8-3.5-4v-3.4c0-2.2,1.2-4,3.5-4s3.5,1.8,3.5,4v3.4C17.3,45.3,16.2,47.1,13.8,47.1z"/>
<path class="st0" d="M40.2,47.6c-0.1,0.4-0.6,0.6-1,0.5c-0.4-0.1-0.6-0.6-0.5-1l0,0l3.8-11.8c0.1-0.4,0.6-0.6,0.9-0.5
	c0.4,0.1,0.6,0.6,0.5,1L40.2,47.6z"/>
<path class="st0" d="M49,40.8c-0.4-0.2-0.8-0.3-1.2-0.3c-1,0-1.5,0.7-1.5,1.9v1.3c0,1.2,0.5,1.9,1.5,1.9c0.4,0,0.9-0.1,1.3-0.3
	c0.3-0.2,0.7,0,0.9,0.3c0,0,0,0,0,0.1c0.1,0.3,0,0.7-0.3,0.9C49,46.9,48.3,47,47.6,47c-2.2,0-3.1-1.4-3.1-3.4v-1
	c0-1.9,1-3.5,3.1-3.5c0.7,0,1.3,0.1,1.9,0.4c0.3,0.2,0.5,0.5,0.3,0.9c0,0,0,0,0,0C49.8,40.8,49.4,40.9,49,40.8
	C49.1,40.8,49,40.8,49,40.8z"/>
<path class="st0" d="M28.7,25.8c0-0.1-0.1-0.2-0.2-0.2l-8.6-9c-0.3-0.3-0.7-0.3-1-0.1c-0.3,0.2-0.4,0.6-0.3,0.9l5.5,11.2
	c0,0.1,0.1,0.2,0.2,0.2c0.1,0.1,0.1,0.2,0.2,0.3c0.7,0.9,1.8,1.3,2.9,1c0.3-0.1,0.5-0.2,0.8-0.4c0.6-0.4,1-1,1.1-1.7
	c0.1-0.7,0-1.4-0.4-1.9C28.8,25.9,28.8,25.9,28.7,25.8z"/>
<path class="st0" d="M29.6,47.3c-0.4,0-0.8-0.4-0.8-0.8v-6.8l-2.5,5.2c-0.1,0.3-0.4,0.5-0.8,0.5c-0.3,0-0.7-0.2-0.8-0.5l-2.5-5.2
	v6.8c0,0.4-0.4,0.8-0.8,0.8c-0.4,0-0.8-0.4-0.8-0.8v-9.9c0-0.5,0.4-0.8,0.8-0.8c0,0,0,0,0.1,0c0.4-0.1,0.7,0.2,0.9,0.5l3.2,6.7
	l3.2-6.7c0.2-0.4,0.8-0.6,1.2-0.3c0.2,0.1,0.4,0.4,0.4,0.7v9.9C30.5,47,30.1,47.4,29.6,47.3C29.7,47.4,29.6,47.3,29.6,47.3z"/>
<path class="st0" d="M36.5,42.5c0-0.5-0.1-0.9-0.4-1.3c-0.3-0.3-0.7-0.4-1.1-0.4c-0.4,0-0.8,0.1-1.1,0.4c-0.3,0.4-0.4,0.8-0.4,1.3
	v1.6c0,0.5,0.1,0.9,0.4,1.3c0.3,0.3,0.7,0.4,1.1,0.4c0.4,0,0.8-0.1,1.1-0.4c0.3-0.4,0.4-0.8,0.4-1.3L36.5,42.5L36.5,42.5z
	 M31.8,44.1v-3c0-2.5,1.2-3.1,2.7-3.9c0.5-0.2,1.1-0.5,1.1-1.2v-0.4c0-0.5,0.4-0.9,0.9-0.9c0.5,0,0.9,0.4,0.9,0.9V36
	c0,2-1.7,2.3-3,3c-0.2,0.1-0.4,0.3-0.4,0.6c0.3-0.3,0.7-0.4,1.1-0.4c1.6-0.1,3.1,1.1,3.2,2.7c0,0.2,0,0.4,0,0.6v1.6
	c0.2,1.6-1,3.1-2.7,3.3c-0.2,0-0.4,0-0.5,0c-1.6,0.2-3.1-1-3.3-2.7C31.8,44.5,31.8,44.3,31.8,44.1z"/>
<path class="st1" d="M3,27.9C3,15.2,13.3,4.9,26,4.9c12.7,0,23.1,10.3,23.1,23.1"/>
<line class="st1" x1="3" y1="27.8" x2="8.5" y2="27.8"/>
<line class="st1" x1="26" y1="4.9" x2="26" y2="10.4"/>
<line class="st1" x1="10.1" y1="12.5" x2="14" y2="16.4"/>
<line class="st1" x1="41.9" y1="12.5" x2="38" y2="16.4"/>
<line class="st1" x1="49.1" y1="27.9" x2="43.5" y2="27.9"/>
</svg>
