<?xml version="1.0" encoding="utf-8"?>
<!-- Generator: Adobe Illustrator 21.1.0, SVG Export Plug-In . SVG Version: 6.00 Build 0)  -->
<svg version="1.1" id="Слой_230" xmlns="http://www.w3.org/2000/svg" xmlns:xlink="http://www.w3.org/1999/xlink" x="0px"
	 y="0px" viewBox="0 0 52 52" style="enable-background:new 0 0 52 52;" xml:space="preserve">
<style type="text/css">
	.st0{fill:none;stroke:#000000;stroke-width:2;stroke-linecap:round;stroke-linejoin:round;}
</style>
<title>Mezhdunarodnyy besplatnyy vyzov IFS</title>
<path class="st0" d="M36,21.6c0.6,0.5,1.4,0.8,2.2,0.7c0.8-0.2,1.6-0.5,2.2-1.1l2-1.6c0.4-0.3,0.9-0.2,1.2,0.1l4,4.4
	c0.3,0.3,0.3,0.8-0.1,1.1c0,0,0,0,0,0c-1.2,1.2-2.6,2.3-4.2,3.1c-1.4,0.5-3,0.4-4.3-0.1c-1-0.3-1.9-0.7-2.8-1.2
	c-1.2-0.7-2.4-1.5-3.4-2.4c-2-1.8-3.7-3.9-5.2-6.2c-0.7-1.2-1.3-2.5-1.8-3.8c-0.3-0.9-0.6-1.9-0.7-2.9c-0.3-1.5,0-3,0.7-4.3
	C26.9,6.2,28.2,5,29.6,4c0.3-0.3,0.8-0.3,1.1,0.1c0,0,0,0,0,0l3.7,4.7c0.3,0.4,0.2,0.9-0.1,1.2l-1.9,1.7c-0.7,0.5-1.2,1.2-1.5,2
	c-0.2,0.8-0.1,1.6,0.3,2.2C32.6,18,34.2,19.9,36,21.6z"/>
<path class="st0" d="M39.4,9.8c2.6,0.2,4.5,2.5,4.3,5.1"/>
<path class="st0" d="M39.7,6.1c4.7,0.4,8.1,4.5,7.7,9.2c0,0,0,0,0,0"/>
<path class="st0" d="M46.3,32.4c1.7,5.5,1.3,10.3-1.7,13.2C39,51.3,25.9,47.4,15.4,37S1.1,13.4,6.8,7.7c3.2-3.2,8.8-3.4,15-1"/>
<circle class="st0" cx="17.3" cy="35.7" r="12.5"/>
<line class="st0" x1="4.9" y1="35.7" x2="29.8" y2="35.7"/>
<path class="st0" d="M17.3,23.2c0,0,6.2,2.3,6.2,12.5s-6.2,12.5-6.2,12.5"/>
<path class="st0" d="M17.3,23.2c0,0-6.2,2.3-6.2,12.5s6.2,12.5,6.2,12.5"/>
</svg>
