<?xml version="1.0" encoding="utf-8"?>
<!-- Generator: Adobe Illustrator 21.1.0, SVG Export Plug-In . SVG Version: 6.00 Build 0)  -->
<svg version="1.1" id="Слой_315" xmlns="http://www.w3.org/2000/svg" xmlns:xlink="http://www.w3.org/1999/xlink" x="0px"
	 y="0px" viewBox="0 0 52 52" style="enable-background:new 0 0 52 52;" xml:space="preserve">
<style type="text/css">
	.st0{fill:none;stroke:#000000;stroke-width:2;stroke-linecap:round;stroke-linejoin:round;}
	.st1{fill:none;stroke:#000000;stroke-width:4;}
</style>
<title>Bankovskiye karty_Oplata bankovskoy kartoy</title>
<path class="st0" d="M48.7,39.2v6.3c0,2.5-2,4.5-4.6,4.5c0,0,0,0,0,0h-38c-2.5,0-4.5-2-4.5-4.5V21.9c0-2.5,2-4.5,4.5-4.5h38
	c2.5,0,4.5,2,4.5,4.5v6.4"/>
<path class="st0" d="M43.2,28.3c-3,0-5.4,2.4-5.4,5.4c0,3,2.4,5.4,5.4,5.4h7.3V28.3H43.2z"/>
<path d="M41.1,33.7c0-1.2,0.9-2.1,2.1-2.1s2.1,0.9,2.1,2.1s-0.9,2.1-2.1,2.1S41.1,34.9,41.1,33.7L41.1,33.7"/>
<path class="st0" d="M6.1,17.3L8.2,5.6c0.4-2.4,2.7-4,5.1-3.6l30.6,5.4c2.4,0.4,4,2.7,3.6,5.1l-0.9,5.1"/>
<line class="st1" x1="7.6" y1="8.8" x2="46.9" y2="15.7"/>
</svg>
