<?xml version="1.0" encoding="utf-8"?>
<!-- Generator: Adobe Illustrator 21.1.0, SVG Export Plug-In . SVG Version: 6.00 Build 0)  -->
<svg version="1.1" id="Слой_53" xmlns="http://www.w3.org/2000/svg" xmlns:xlink="http://www.w3.org/1999/xlink" x="0px"
	 y="0px" viewBox="0 0 52 52" style="enable-background:new 0 0 52 52;" xml:space="preserve">
<style type="text/css">
	.st0{fill:none;stroke:#000000;stroke-width:2;stroke-linecap:round;stroke-linejoin:round;}
</style>
<title>Ekologiya</title>
<line class="st0" x1="2.9" y1="41.8" x2="49.1" y2="41.8"/>
<path class="st0" d="M18.8,28.7c0,4.6-3.7,8.3-8.3,8.3s-8.3-3.7-8.3-8.3s3.7-8.3,8.3-8.3C15.1,20.4,18.8,24.1,18.8,28.7
	C18.8,28.7,18.8,28.7,18.8,28.7z"/>
<path class="st0" d="M50,28.7c0,4.6-3.7,8.3-8.3,8.3s-8.3-3.7-8.3-8.3s3.7-8.3,8.3-8.3S50,24.1,50,28.7L50,28.7z"/>
<circle class="st0" cx="24.3" cy="28.7" r="2.5"/>
<polyline class="st0" points="16.1,13.8 24.3,28.7 10.5,28.7 24.3,18.4 "/>
<polyline class="st0" points="41.8,28.7 32.6,12.2 38.5,12.2 37.9,14.1 "/>
<line class="st0" x1="19.4" y1="13.8" x2="13.4" y2="13.8"/>
<path class="st0" d="M3.1,19c1.9-1.1,4-1.7,6.2-1.7c3-0.1,5.8,1,7.9,3.1"/>
<polyline class="st0" points="17.2,20.4 34.5,15.6 35.3,16.9 24.3,28.7 26.9,33.7 "/>
</svg>
