<?xml version="1.0" encoding="utf-8"?>
<!-- Generator: Adobe Illustrator 21.1.0, SVG Export Plug-In . SVG Version: 6.00 Build 0)  -->
<svg version="1.1" id="Слой_1" xmlns="http://www.w3.org/2000/svg" xmlns:xlink="http://www.w3.org/1999/xlink" x="0px" y="0px"
	 viewBox="0 0 52 52" style="enable-background:new 0 0 52 52;" xml:space="preserve">
<style type="text/css">
	.st0{display:none;}
	.st1{display:inline;}
	.st2{fill:none;stroke:#000000;stroke-width:2;stroke-linecap:round;stroke-linejoin:round;stroke-miterlimit:10;}
	.st3{display:inline;fill:none;stroke:#000000;stroke-linecap:round;stroke-linejoin:round;stroke-miterlimit:10;}
	.st4{display:inline;fill:none;stroke:#000000;stroke-width:1.5;stroke-linecap:round;stroke-linejoin:round;stroke-miterlimit:10;}
	.st5{display:inline;fill:none;stroke:#000000;stroke-width:2;stroke-linecap:round;stroke-linejoin:round;}
</style>
<g id="Слой_3" class="st0">
	<g class="st1">
		<ellipse class="st2" cx="66" cy="-14" rx="24.8" ry="24.8"/>
		<line class="st2" x1="48.8" y1="-31.2" x2="83.2" y2="3.2"/>
	</g>
</g>
<g id="Слой_2" class="st0">
	<circle class="st3" cx="66" cy="-14" r="24.8"/>
	<path class="st4" d="M61.3-22.5c1.7-2.2,7.9-2.9,9.6,1.3c1.4,3.6-0.9,5.6-2.7,6.9c-1.9,1.4-3.1,2.8-3.1,4.8"/>
	<path class="st1" d="M63.7-3.3c0,0.8,0.6,1.4,1.4,1.4c0.8,0,1.4-0.6,1.4-1.4c0-0.8-0.6-1.4-1.4-1.4S63.7-4.1,63.7-3.3z"/>
</g>
<g>
	<ellipse class="st2" cx="26" cy="26" rx="22.7" ry="22.7"/>
	<circle cx="26" cy="17" r="1.3"/>
	<line class="st2" x1="26" y1="36.2" x2="26" y2="22.7"/>
</g>
<g id="Слой_4" class="st0">
	<line class="st5" x1="54.5" y1="-4.4" x2="77.4" y2="-4.4"/>
	<path class="st5" d="M46.3-4.4h-4.7c-1.2,0-2.2-1-2.2-2.2v-16.8c0-1.2,1-2.2,2.2-2.2h43.1c1.2,0,2.7,0.9,3.3,2l3.6,6.7
		c0.6,1.1,1.1,3,1.1,4.2v6.2c0,1.2-1,2.2-2.2,2.2h-4.8"/>
	<path class="st5" d="M54.5-4.4c0-2.3-1.8-4.1-4.1-4.1c-2.3,0-4.1,1.8-4.1,4.1s1.8,4.1,4.1,4.1C52.7-0.3,54.5-2.1,54.5-4.4z"/>
	<path class="st5" d="M85.6-4.4c0-2.3-1.8-4.1-4.1-4.1s-4.1,1.8-4.1,4.1s1.8,4.1,4.1,4.1C83.8-0.3,85.6-2.1,85.6-4.4z"/>
	<polygon class="st5" points="86.8,-17.2 77.4,-17.2 77.4,-21.6 84.5,-21.6 	"/>
	<path class="st5" d="M77.4-26.8c0,0.6-0.5,1.1-1.1,1.1H47.4c-0.6,0-1.1-0.5-1.1-1.1V-29c0-0.6,0.5-1.1,1.1-1.1h28.9
		c0.6,0,1.1,0.5,1.1,1.1C77.4-29,77.4-26.8,77.4-26.8z"/>
	<path class="st5" d="M42.6-4.4L42.6-4.4c0-4.3,3.5-7.8,7.8-7.8s7.8,3.5,7.8,7.8l0,0h9.2l0,0c0-0.9-0.1-1.7-0.2-2.6l-4.3-0.3
		c-0.3-1.4-0.9-2.7-1.6-3.9l2.9-3.3c-1-1.4-2.3-2.6-3.7-3.7l-3.3,2.9c-1.2-0.7-2.5-1.3-3.9-1.6L53-21.1c-0.8-0.1-1.7-0.2-2.6-0.2
		c-0.9,0-1.7,0.1-2.6,0.2l-0.3,4.3c-1.4,0.3-2.7,0.9-3.9,1.6L40.4-18c-0.2,0.2-0.4,0.3-0.6,0.5"/>
	<path class="st5" d="M74.2-4.4c0-4.1,3.3-7.3,7.3-7.3c4.1,0,7.4,3.3,7.3,7.3"/>
	<line class="st5" x1="37.5" y1="0.7" x2="94.5" y2="0.7"/>
</g>
<g id="Слой_5" class="st0">
	<path class="st5" d="M92.3-15.3c0-0.6-0.6-1.3-1.2-1.5l-3.7-1.1c-0.3-1.9-1-3.8-1.8-5.5l2.4-3.1c0.4-0.5,0.4-1.3,0.1-1.9l-1.6-2.1
		C86-31,85.2-31.2,84.6-31L81-29.7c-1.4-1.3-3-2.5-4.7-3.4l0.1-3.9c0-0.6-0.5-1.3-1-1.5l-2.5-0.8c-0.6-0.2-1.4,0.1-1.8,0.6l-2.2,3.2
		c-1-0.1-1.9-0.2-2.9-0.2s-2,0.1-2.9,0.2l-2.2-3.2c-0.4-0.5-1.1-0.8-1.8-0.6l-2.5,0.8c-0.6,0.2-1.1,0.9-1,1.5l0.1,3.9
		C54-32.2,52.4-31,51-29.7L47.4-31c-0.6-0.2-1.4,0-1.8,0.5L44-28.3c-0.4,0.5-0.3,1.4,0.1,1.9l2.4,3.1c-0.8,1.7-1.4,3.6-1.8,5.5
		L41-16.7c-0.6,0.2-1.1,0.8-1.2,1.5c0,0,0,0.5,0,1.3s0,1.3,0,1.3c0,0.6,0.6,1.3,1.2,1.5l3.7,1.1c0.4,2,1,3.8,1.8,5.5l-2.4,3.1
		c-0.4,0.5-0.4,1.3-0.1,1.9l1.6,2.1c0.4,0.5,1.2,0.7,1.8,0.5L51,1.8c1.4,1.3,3,2.5,4.7,3.4L55.6,9c0,0.6,0.5,1.3,1,1.5l2.5,0.8
		c0.6,0.2,1.4-0.1,1.8-0.6l2.2-3.2c1,0.1,1.9,0.2,2.9,0.2s2-0.1,2.9-0.2l2.2,3.2c0.4,0.5,1.1,0.8,1.8,0.6l2.5-0.8
		c0.6-0.2,1.1-0.9,1-1.5l-0.1-3.9C78,4.2,79.6,3,81,1.7L84.6,3c0.6,0.2,1.4,0,1.8-0.5L88,0.4c0.3-0.5,0.3-1.4-0.1-1.9l-2.4-3.1
		c0.8-1.7,1.4-3.6,1.8-5.5l3.7-1.1c0.6-0.2,1.1-0.8,1.2-1.5c0,0,0-0.5,0-1.3C92.3-14.8,92.3-15.3,92.3-15.3z"/>
	<path class="st5" d="M53.5-23.1c-1.9,2.5-2.9,5.7-2.9,9.1s1.1,6.5,2.9,9.1"/>
	<path class="st5" d="M78.5-4.9c1.8-2.5,2.9-5.7,2.9-9.1c0-3.4-1.1-6.5-2.9-9.1"/>
	<rect x="57.8" y="-29.4" class="st5" width="16.3" height="30.8"/>
	<rect x="57.8" y="-25.8" class="st5" width="16.3" height="7.3"/>
	<rect x="57.8" y="-11.3" class="st5" width="16.3" height="7.3"/>
	<path class="st5" d="M74.2-22.6h-4.4c-0.6,0-1.3-0.3-1.7-0.8L66.7-25c-0.4-0.4-1.1-0.8-1.7-0.8h-7.1"/>
	<path class="st5" d="M74.2-15.4h-4.4c-0.6,0-1.3-0.3-1.7-0.8l-1.4-1.6c-0.4-0.4-1.1-0.8-1.7-0.8h-7.1"/>
	<path class="st5" d="M74.2-8.1h-4.4c-0.6,0-1.3-0.3-1.7-0.8l-1.4-1.6c-0.4-0.4-1.1-0.8-1.7-0.8h-7.1"/>
</g>
</svg>
