<?xml version="1.0" encoding="utf-8"?>
<!-- Generator: Adobe Illustrator 21.1.0, SVG Export Plug-In . SVG Version: 6.00 Build 0)  -->
<svg version="1.1" id="Слой_322" xmlns="http://www.w3.org/2000/svg" xmlns:xlink="http://www.w3.org/1999/xlink" x="0px"
	 y="0px" viewBox="0 0 52 52" style="enable-background:new 0 0 52 52;" xml:space="preserve">
<style type="text/css">
	.st0{fill:#FFFFFF;stroke:#000000;stroke-width:4;stroke-miterlimit:10;}
	.st1{fill:none;stroke:#000000;stroke-width:2;stroke-linecap:round;stroke-linejoin:round;stroke-miterlimit:10;}
	.st2{fill:none;stroke:#000000;stroke-width:2;stroke-miterlimit:10;}
</style>
<title>Peremeshcheniye sredstv mezhdu schetami, perevod s karty na kartu</title>
<path class="st0" d="M17.8,17.1L17.8,17.1z"/>
<rect x="37.3" y="23.2" class="st1" width="5.2" height="2.9"/>
<path class="st0" d="M5.5,27.3L5.5,27.3z"/>
<rect x="25" y="33.4" class="st1" width="5.2" height="2.9"/>
<path class="st2" d="M8.5,21.4h22.8c1.7,0,3.1,1.4,3.1,3.1v13.3c0,1.7-1.4,3.1-3.1,3.1H8.5c-1.7,0-3.1-1.4-3.1-3.1V24.4
	C5.4,22.7,6.8,21.4,8.5,21.4z"/>
<path class="st2" d="M43.5,11.2H20.7c-1.7,0-3.1,1.4-3.1,3.1v7.1h13.6c1.7,0,3.1,1.4,3.1,3.1v6.2h9.2c1.7,0,3.1-1.4,3.1-3.1V14.2
	C46.6,12.5,45.3,11.2,43.5,11.2z"/>
</svg>
