<?xml version="1.0" encoding="utf-8"?>
<!-- Generator: Adobe Illustrator 21.1.0, SVG Export Plug-In . SVG Version: 6.00 Build 0)  -->
<svg version="1.1" id="Слой_153" xmlns="http://www.w3.org/2000/svg" xmlns:xlink="http://www.w3.org/1999/xlink" x="0px"
	 y="0px" viewBox="0 0 52 52" style="enable-background:new 0 0 52 52;" xml:space="preserve">
<style type="text/css">
	.st0{fill:none;stroke:#000000;stroke-width:2;stroke-linecap:round;stroke-linejoin:round;}
	.st1{fill:none;stroke:#000000;stroke-width:2;stroke-miterlimit:10;}
</style>
<title>Avtorizatsiya</title>
<line class="st0" x1="1.8" y1="27.6" x2="17.6" y2="27.6"/>
<polyline class="st0" points="9.6,35.5 17.6,27.6 9.6,19.6 "/>
<path class="st0" d="M22,44V10.1c0-1,0.8-1.8,1.8-1.8h5.7"/>
<path class="st0" d="M31.8,47.3l13.1-2.8c0.8-0.2,1.4-0.9,1.4-1.8V10.1c0-0.8-0.5-1.5-1.3-1.7L31.8,4.7c-0.9-0.3-1.9,0.3-2.2,1.2
	c0,0.2-0.1,0.3-0.1,0.5v39.1c0,1,0.7,1.8,1.7,1.8C31.5,47.4,31.6,47.3,31.8,47.3"/>
<path class="st1" d="M31.8,47.3l13.1-2.8c0.8-0.2,1.4-0.9,1.4-1.8V10.1c0-0.8-0.5-1.5-1.3-1.7L31.8,4.7c-0.9-0.3-1.9,0.3-2.2,1.2
	c0,0.2-0.1,0.3-0.1,0.5v39.1c0,1,0.7,1.8,1.7,1.8C31.5,47.4,31.6,47.3,31.8,47.3"/>
<path class="st0" d="M31.8,47.3l13.1-2.8c0.8-0.2,1.4-0.9,1.4-1.8V10.1c0-0.8-0.5-1.5-1.3-1.7L31.8,4.7c-0.9-0.3-1.9,0.3-2.2,1.2
	c0,0.2-0.1,0.3-0.1,0.5v39.1c0,1,0.8,1.8,1.7,1.8C31.5,47.3,31.6,47.3,31.8,47.3z"/>
<path d="M35.5,27.6c0,0.9-0.7,1.5-1.4,1.5c-0.9,0-1.5-0.7-1.5-1.5s0.7-1.5,1.5-1.5l0,0C34.9,26.1,35.5,26.7,35.5,27.6"/>
</svg>
