<?xml version="1.0" encoding="utf-8"?>
<!-- Generator: Adobe Illustrator 21.1.0, SVG Export Plug-In . SVG Version: 6.00 Build 0)  -->
<svg version="1.1" id="Слой_251" xmlns="http://www.w3.org/2000/svg" xmlns:xlink="http://www.w3.org/1999/xlink" x="0px"
	 y="0px" viewBox="0 0 52 52" style="enable-background:new 0 0 52 52;" xml:space="preserve">
<style type="text/css">
	.st0{fill:none;stroke:#000000;stroke-width:2;stroke-linecap:round;stroke-linejoin:round;}
</style>
<title>Uvedomleniye o popytke vyzova</title>
<path class="st0" d="M32.3,40.6v7.6c0,1.3-1,2.3-2.3,2.3H7.4c-1.3,0-2.3-1-2.3-2.3V3.8c0-1.3,1-2.3,2.3-2.3H30c1.3,0,2.3,1,2.3,2.3
	V40.6z"/>
<line class="st0" x1="32.3" y1="41.4" x2="5.1" y2="41.4"/>
<line class="st0" x1="32.3" y1="8.8" x2="5.1" y2="8.8"/>
<line class="st0" x1="27.8" y1="46" x2="22.4" y2="46"/>
<line class="st0" x1="15.1" y1="46" x2="9.6" y2="46"/>
<path class="st0" d="M23.7,34.5c0,0-0.8-4.3,0.8-6.9l2.6-4.5c1.5-2.5,0.6-5.8-1.9-7.2c-2.5-1.5-5.8-0.6-7.2,1.9l-2.6,4.5
	c-1.6,2.8-5.7,4.1-5.7,4.1L23.7,34.5"/>
<path class="st0" d="M26.2,16.6l0.3-0.6c0.4-0.6,0.2-1.5-0.5-1.8c-0.6-0.4-1.5-0.2-1.8,0.5l-0.3,0.6"/>
<path class="st0" d="M17.9,31.1l-0.3,0.5c-0.4,0.6-1.3,0.8-1.9,0.3c-0.5-0.4-0.7-1.1-0.4-1.7l0.3-0.5"/>
<path class="st0" d="M45.3,40.8c-7.7-7.7-7.7-20.3,0-28"/>
<polyline class="st0" points="37,11.5 46.9,11.5 46.9,21.4 "/>
</svg>
