<?xml version="1.0" encoding="utf-8"?>
<!-- Generator: Adobe Illustrator 21.1.0, SVG Export Plug-In . SVG Version: 6.00 Build 0)  -->
<svg version="1.1" id="Слой_331" xmlns="http://www.w3.org/2000/svg" xmlns:xlink="http://www.w3.org/1999/xlink" x="0px"
	 y="0px" viewBox="0 0 52 52" style="enable-background:new 0 0 52 52;" xml:space="preserve">
<style type="text/css">
	.st0{fill:#2C2A29;}
	.st1{fill:none;stroke:#2C2A29;stroke-width:2;stroke-miterlimit:10;}
	.st2{fill:none;stroke:#2C2A29;stroke-width:2;stroke-linecap:round;stroke-linejoin:round;}
</style>
<title>Skorost Interneta do 5 Mbits</title>
<path class="st0" d="M8.6,47.8c-0.9,0-1.8-0.2-2.5-0.7c-0.3-0.2-0.4-0.4-0.4-0.8c0-0.4,0.4-0.8,0.8-0.8c0.2,0,0.4,0.1,0.5,0.2
	C7.5,46,8,46.2,8.6,46.2c1,0.1,1.9-0.7,1.9-1.7c0-0.1,0-0.2,0-0.4c0-1.4-0.7-2-1.7-2c-0.4,0-0.9,0.1-1.2,0.4C7.3,42.8,7.1,43,6.8,43
	C6.4,43,6,42.7,6,42.3c0-0.1,0-0.1,0-0.2l0.2-5c0-0.5,0.4-0.8,0.8-0.8h3.9c0.5,0,0.8,0.4,0.8,0.8c0,0.5-0.4,0.8-0.8,0.8H7.8l-0.1,3
	c0.4-0.2,0.9-0.4,1.4-0.4c2,0,3.3,1.3,3.3,3.6c0.1,1.9-1.3,3.6-3.2,3.7C8.9,47.8,8.8,47.8,8.6,47.8z"/>
<path class="st0" d="M36.6,48.3c-0.1,0.4-0.6,0.6-1,0.5c-0.4-0.1-0.6-0.6-0.5-1l0,0L39,35.6c0.1-0.4,0.6-0.7,1-0.5c0,0,0,0,0,0
	c0.4,0.1,0.6,0.6,0.5,1L36.6,48.3z"/>
<path class="st0" d="M45.9,41.2C45.5,41,45.1,41,44.6,41c-1,0-1.6,0.8-1.6,2v1.3c0,1.2,0.5,2,1.5,2c0.5,0,0.9-0.1,1.3-0.3
	c0.3-0.2,0.7,0,0.9,0.3c0,0,0,0.1,0,0.1c0.2,0.3,0,0.8-0.3,0.9c-0.6,0.3-1.3,0.5-2,0.5c-2.2,0-3.2-1.5-3.2-3.5v-1.1
	c0-2,1.1-3.6,3.2-3.6c0.7,0,1.4,0.1,2,0.4c0.3,0.2,0.5,0.6,0.3,0.9c0,0,0,0,0,0C46.6,41.2,46.2,41.4,45.9,41.2z"/>
<path class="st0" d="M27.2,23.8c-0.1-0.1-0.2-0.1-0.3-0.1l-12.2-3.9c-0.4-0.1-0.7,0.1-0.9,0.4c-0.2,0.3-0.1,0.7,0.2,1l10.4,7.3
	c0.1,0.1,0.2,0.1,0.3,0.1l0.3,0.2c1,0.5,2.3,0.3,3.1-0.5c0.7-0.7,1-1.8,0.7-2.7c-0.2-0.7-0.7-1.2-1.3-1.5
	C27.4,23.8,27.3,23.8,27.2,23.8z"/>
<path class="st0" d="M25.4,48c-0.5,0-0.8-0.4-0.8-0.8v-7L22,45.5c-0.1,0.3-0.5,0.5-0.8,0.5c-0.4,0-0.7-0.2-0.8-0.5l-2.6-5.4v7.1
	c0,0.5-0.4,0.8-0.8,0.8s-0.8-0.4-0.8-0.8V37c0-0.5,0.4-0.8,0.8-0.8c0,0,0.1,0,0.1,0c0.4-0.1,0.8,0.2,0.9,0.5l3.3,6.9l3.3-6.9
	c0.3-0.4,0.8-0.6,1.3-0.3c0.3,0.1,0.4,0.4,0.5,0.7v10.2C26.4,47.7,26,48,25.4,48C25.5,48,25.5,48,25.4,48z"/>
<path class="st0" d="M32.8,43c0-0.5-0.1-1-0.4-1.3c-0.3-0.3-0.7-0.4-1.1-0.4c-0.4,0-0.9,0.1-1.2,0.4c-0.3,0.4-0.4,0.9-0.4,1.3v1.6
	c0,0.5,0.1,1,0.4,1.4c0.3,0.3,0.7,0.4,1.1,0.4c0.4,0,0.8-0.1,1.1-0.4c0.3-0.4,0.4-0.8,0.4-1.3C32.8,44.7,32.8,43,32.8,43z M28,44.7
	v-3.1c0-2.5,1.2-3.3,2.7-4c0.5-0.2,1.2-0.6,1.2-1.2v-0.4c0-0.5,0.4-0.9,0.9-0.9s0.9,0.4,0.9,0.9v0.4c0,2.1-1.7,2.3-3.1,3.1
	c-0.2,0.1-0.4,0.3-0.5,0.6c0.3-0.3,0.7-0.4,1.1-0.4c1.7-0.2,3.2,1.1,3.3,2.8c0,0.2,0,0.4,0,0.6v1.7c0.2,1.7-1.1,3.2-2.8,3.4
	c-0.2,0-0.4,0-0.5,0c-1.7,0.2-3.2-1.1-3.4-2.8C28,45.1,28,44.9,28,44.7z"/>
<path class="st1" d="M2.2,28C2.2,14.8,12.9,4.2,26,4.2c13.1,0,23.8,10.7,23.8,23.8"/>
<line class="st2" x1="2.2" y1="27.9" x2="7.9" y2="27.9"/>
<line class="st2" x1="26.9" y1="4.2" x2="26.9" y2="9.9"/>
<line class="st2" x1="10.5" y1="12" x2="14.5" y2="16.1"/>
<line class="st2" x1="43.3" y1="12" x2="39.3" y2="16.1"/>
<line class="st2" x1="49.8" y1="28" x2="44.1" y2="28"/>
</svg>
