<?xml version="1.0" encoding="utf-8"?>
<!-- Generator: Adobe Illustrator 21.1.0, SVG Export Plug-In . SVG Version: 6.00 Build 0)  -->
<svg version="1.1" id="Слой_102" xmlns="http://www.w3.org/2000/svg" xmlns:xlink="http://www.w3.org/1999/xlink" x="0px"
	 y="0px" viewBox="0 0 52 52" style="enable-background:new 0 0 52 52;" xml:space="preserve">
<style type="text/css">
	.st0{fill:none;stroke:#000000;stroke-width:2;stroke-linecap:round;stroke-linejoin:round;}
</style>
<title>Tochnyye izmereniya</title>
<path class="st0" d="M27.7,49.7V9.2h18.1l-1.8-3.5L32.9,2.3H15.6v3.4H6.1c0,0,2.6,3.5,9.5,3.5h4.3v40.6"/>
<path class="st0" d="M16.5,16.1H6.1c0,0,2.7-3.5,9.5-3.5h4.3v27.6h-3.4V16.1z"/>
<path class="st0" d="M27.7,17.2h18.1l-1.6,2.3l-13,3.5v12.9c0,0,2.2,0.1,2.2,2.2c0,2-2.2,2.1-2.2,2.1h-3.5V17.2z"/>
<rect x="13" y="26.4" class="st0" width="3.5" height="5.2"/>
</svg>
