<?xml version="1.0" encoding="utf-8"?>
<!-- Generator: Adobe Illustrator 21.1.0, SVG Export Plug-In . SVG Version: 6.00 Build 0)  -->
<svg version="1.1" id="Слой_409" xmlns="http://www.w3.org/2000/svg" xmlns:xlink="http://www.w3.org/1999/xlink" x="0px"
	 y="0px" viewBox="0 0 52 52" style="enable-background:new 0 0 52 52;" xml:space="preserve">
<style type="text/css">
	.st0{fill:none;stroke:#000000;stroke-miterlimit:10;}
	.st1{fill:none;stroke:#000000;stroke-width:2;stroke-miterlimit:10;}
</style>
<title>Portal razvlecheniy</title>
<path class="st0" d="M49.5,23.6c-2.4-11-5.8-13.8-7.9-14.9c-2.7-1.2-5.8-1.3-8.4,0c-1.4,0.7-2.4,2.2-3.9,2.8c-1.8,0.8-3.9,0.8-5.8,0
	c-1.4-0.7-2.6-2.1-4.3-2.8c-2.1-0.8-5.7-2-9.2,0.5c-0.8,0.6-6.8,5.5-8.5,21c-1.1,9.5,4.1,12.6,3.9,12.5c1.4,1,4.4,2.6,8.5,0
	c1.9-1.4,3.6-3.1,5-5c0.6-1.1,1.3-2,2.3-2.7c0.7-0.3,1.6-0.4,2.3-0.1h4.9c0.9-0.1,1.8,0,2.7,0.3c0.7,0.4,1.3,0.9,1.7,1.6
	c1.8,2.4,4,4.5,6.3,6.3c1.3,0.9,6.6,2,9.4-1.4C50.3,39.6,51.5,32.9,49.5,23.6z"/>
<path class="st1" d="M49.5,23.6c-2.4-11-5.8-13.8-7.9-14.9c-2.7-1.2-5.8-1.3-8.4,0c-1.4,0.7-2.4,2.2-3.9,2.8c-1.8,0.8-3.9,0.8-5.8,0
	c-1.4-0.7-2.6-2.1-4.3-2.8c-2.1-0.8-5.7-2-9.2,0.5c-0.8,0.6-6.8,5.5-8.5,21c-1.1,9.5,4.1,12.6,3.9,12.5c1.4,1,4.4,2.6,8.5,0
	c1.9-1.4,3.6-3.1,5-5c0.6-1.1,1.3-2,2.3-2.7c0.7-0.3,1.6-0.4,2.3-0.1h4.9c0.9-0.1,1.8,0,2.7,0.3c0.7,0.4,1.3,0.9,1.7,1.6
	c1.8,2.4,4,4.5,6.3,6.3c1.3,0.9,6.6,2,9.4-1.4C50.3,39.6,51.5,32.9,49.5,23.6z"/>
<path d="M23.3,22.7c0,0.8-0.7,1.5-1.5,1.5H18V28c0,0.8-0.7,1.5-1.5,1.5c0,0,0,0,0,0h-1.1c-0.8,0-1.5-0.7-1.5-1.5v-3.8h-3.7
	c-0.8,0-1.5-0.7-1.5-1.5v-1.1c0-0.8,0.7-1.5,1.5-1.5h3.7v-3.8c0-0.8,0.7-1.5,1.5-1.5c0,0,0,0,0,0h1.1c0.8,0,1.5,0.7,1.5,1.5
	c0,0,0,0,0,0V20h3.7c0.8,0,1.5,0.7,1.5,1.5c0,0,0,0,0,0L23.3,22.7z"/>
<ellipse cx="33.8" cy="25.1" rx="2.8" ry="2.9"/>
<ellipse cx="38.9" cy="18.8" rx="2.8" ry="2.8"/>
</svg>
