<?xml version="1.0" encoding="utf-8"?>
<!-- Generator: Adobe Illustrator 21.1.0, SVG Export Plug-In . SVG Version: 6.00 Build 0)  -->
<svg version="1.1" id="Слой_64" xmlns="http://www.w3.org/2000/svg" xmlns:xlink="http://www.w3.org/1999/xlink" x="0px"
	 y="0px" viewBox="0 0 52 52" style="enable-background:new 0 0 52 52;" xml:space="preserve">
<style type="text/css">
	.st0{fill:none;stroke:#000000;stroke-width:2;stroke-linecap:round;stroke-linejoin:round;}
	.st1{fill:none;stroke:#000000;stroke-width:2;stroke-linecap:round;stroke-linejoin:round;stroke-miterlimit:10;}
</style>
<title>Krupnyy biznes</title>
<path class="st0" d="M7.1,12.7h37.7c2.8,0,5.1,2.3,5.1,5.1v22.3c0,2.8-2.3,5.1-5.1,5.1H7.1C4.3,45.3,2,43,2,40.1V17.8
	C2,15,4.3,12.7,7.1,12.7z"/>
<line class="st0" x1="14.9" y1="19.6" x2="14.9" y2="38.4"/>
<line class="st0" x1="37.1" y1="19.6" x2="37.1" y2="38.4"/>
<path class="st0" d="M18.3,12.7l1.4-4.4c0.3-0.9,1.2-1.6,2.2-1.6h8.2c1,0,1.9,0.7,2.2,1.6l1.4,4.4"/>
<rect x="9.7" y="11" class="st1" width="3.4" height="1.7"/>
<rect x="38.9" y="11" class="st1" width="3.4" height="1.7"/>
</svg>
