<?xml version="1.0" encoding="utf-8"?>
<!-- Generator: Adobe Illustrator 21.1.0, SVG Export Plug-In . SVG Version: 6.00 Build 0)  -->
<svg version="1.1" id="Слой_413" xmlns="http://www.w3.org/2000/svg" xmlns:xlink="http://www.w3.org/1999/xlink" x="0px"
	 y="0px" viewBox="0 0 52 52" style="enable-background:new 0 0 52 52;" xml:space="preserve">
<style type="text/css">
	.st0{fill:none;stroke:#000000;stroke-width:2;stroke-miterlimit:10;}
	.st1{fill:none;stroke:#000000;stroke-width:2;stroke-linecap:round;stroke-linejoin:round;}
</style>
<title>SMS na e-mail</title>
<path class="st0" d="M3.8,15.9l19.1,16.3c1.7,1.4,4.2,1.4,5.9,0l4.3-3.7"/>
<path class="st0" d="M47.7,43.3L32.6,30.5 M18.8,30.4l-15,12.9"/>
<circle class="st0" cx="38.4" cy="17.7" r="11.9"/>
<circle class="st0" cx="38.4" cy="17.7" r="11.9"/>
<path class="st0" d="M38.4,29.6c-6.6,0-11.9-5.3-11.9-11.9c0-1.4,0.2-2.6,0.7-3.9H8.1c-3.2,0-5.9,2.6-5.9,5.9v20.6
	c0,3.2,2.6,5.9,5.9,5.9h35.3c3.2,0,5.9-2.6,5.9-5.9V22.6C47.4,26.7,43.2,29.6,38.4,29.6z"/>
<g>
	<path class="st1" d="M33.6,15.1c0,0-2.4-1-2.9,0.8c-0.2,1,0.4,1.8,1.6,1.8c1,0,1.7,0.8,1.5,1.7c-0.2,1.1-1.6,1.7-3.2,0.9"/>
	<path class="st1" d="M45.9,15.1c0,0-2.4-1-2.9,0.8c-0.2,1,0.4,1.8,1.6,1.8c1,0,1.7,0.8,1.5,1.7C46,20.4,44.5,21,43,20.2"/>
	<polyline class="st1" points="36.1,20.4 36.1,14.8 38.4,19.2 40.8,14.8 40.8,20.4 	"/>
</g>
</svg>
