<?xml version="1.0" encoding="utf-8"?>
<!-- Generator: Adobe Illustrator 21.1.0, SVG Export Plug-In . SVG Version: 6.00 Build 0)  -->
<svg version="1.1" id="Слой_372" xmlns="http://www.w3.org/2000/svg" xmlns:xlink="http://www.w3.org/1999/xlink" x="0px"
	 y="0px" viewBox="0 0 52 52" style="enable-background:new 0 0 52 52;" xml:space="preserve">
<style type="text/css">
	.st0{fill:none;stroke:#000000;stroke-width:2;stroke-linecap:round;stroke-linejoin:round;}
</style>
<g>
	<title>+100</title>
	<line class="st0" x1="5.6" y1="23.8" x2="5.6" y2="32.6"/>
	<line class="st0" x1="10" y1="28.2" x2="1.2" y2="28.2"/>
	<line class="st0" x1="22.9" y1="34.1" x2="13.5" y2="34.1"/>
	<polyline class="st0" points="12.9,21.7 18.9,17.9 18.9,34.1 	"/>
	<path class="st0" d="M30.7,34.1h-0.6c-2.4,0-4.4-1.9-4.4-4.4v-7.6c0-2.4,1.9-4.4,4.4-4.4h0.6c2.4,0,4.4,1.9,4.4,4.4v7.6
		C35,32.2,33.1,34.1,30.7,34.1z"/>
	<path class="st0" d="M45.3,34.1h-0.6c-2.4,0-4.4-1.9-4.4-4.4v-7.6c0-2.4,1.9-4.4,4.4-4.4h0.6c2.4,0,4.4,1.9,4.4,4.4v7.6
		C49.6,32.2,47.7,34.1,45.3,34.1z"/>
</g>
</svg>
