<?xml version="1.0" encoding="utf-8"?>
<!-- Generator: Adobe Illustrator 21.1.0, SVG Export Plug-In . SVG Version: 6.00 Build 0)  -->
<svg version="1.1" id="Слой_50" xmlns="http://www.w3.org/2000/svg" xmlns:xlink="http://www.w3.org/1999/xlink" x="0px"
	 y="0px" viewBox="0 0 52 52" style="enable-background:new 0 0 52 52;" xml:space="preserve">
<style type="text/css">
	.st0{fill:none;stroke:#000000;stroke-width:2;stroke-linecap:round;stroke-linejoin:round;}
</style>
<title>Proyekty</title>
<polyline class="st0" points="19.6,27.3 3.6,11.3 11.3,3.6 27.3,19.6 "/>
<line class="st0" x1="6.8" y1="14.5" x2="8.8" y2="12.4"/>
<line class="st0" x1="10" y1="17.7" x2="13.8" y2="13.8"/>
<line class="st0" x1="13.2" y1="20.9" x2="15.3" y2="18.8"/>
<line class="st0" x1="16.4" y1="24.1" x2="20.2" y2="20.2"/>
<polyline class="st0" points="24.7,32.4 40.8,48.4 48.4,40.7 32.4,24.7 "/>
<line class="st0" x1="37.5" y1="45.2" x2="39.6" y2="43.2"/>
<line class="st0" x1="34.3" y1="42" x2="38.2" y2="38.2"/>
<line class="st0" x1="31.1" y1="38.8" x2="33.2" y2="36.7"/>
<line class="st0" x1="27.9" y1="35.6" x2="31.8" y2="31.8"/>
<polyline class="st0" points="13.2,33.7 38.8,8.1 44,13.2 18.3,38.8 "/>
<line class="st0" x1="17.2" y1="34.8" x2="41.4" y2="10.6"/>
<polygon class="st0" points="7.4,44.6 18.3,38.8 17.2,34.8 13.2,33.7 "/>
<polyline class="st0" points="44,13.2 47.2,10 42,4.8 38.8,8.1 "/>
</svg>
