<?xml version="1.0" encoding="utf-8"?>
<!-- Generator: Adobe Illustrator 21.1.0, SVG Export Plug-In . SVG Version: 6.00 Build 0)  -->
<svg version="1.1" id="Слой_118" xmlns="http://www.w3.org/2000/svg" xmlns:xlink="http://www.w3.org/1999/xlink" x="0px"
	 y="0px" viewBox="0 0 52 52" style="enable-background:new 0 0 52 52;" xml:space="preserve">
<style type="text/css">
	.st0{fill:none;stroke:#000000;stroke-width:2;stroke-linecap:round;stroke-linejoin:round;}
	.st1{font-family:'ChevinPro-Bold';}
	.st2{font-size:13.3247px;}
</style>
<title>Zolotoy standart</title>
<path class="st0" d="M16.9,5.3h18.1c1.1,0,2,0.9,2,2v37.4c0,1.1-0.9,2-2,2H16.9c-1.1,0-2-0.9-2-2V7.3C14.9,6.2,15.8,5.3,16.9,5.3z"
	/>
<text transform="matrix(1 0 0 1 18.7231 41.5371)" class="st1 st2">A</text>
<text transform="matrix(1 0 0 1 26.1348 41.5371)" class="st1 st2">u</text>
<circle class="st0" cx="26" cy="17.2" r="6.7"/>
<path class="st0" d="M29.2,19.1c-1,1.8-3.3,2.4-5.1,1.4c-1.8-1-2.4-3.3-1.4-5.1c1-1.8,3.3-2.4,5.1-1.4c0.4,0.2,0.8,0.6,1.1,1"/>
</svg>
