<?xml version="1.0" encoding="utf-8"?>
<!-- Generator: Adobe Illustrator 21.1.0, SVG Export Plug-In . SVG Version: 6.00 Build 0)  -->
<svg version="1.1" id="Слой_16" xmlns="http://www.w3.org/2000/svg" xmlns:xlink="http://www.w3.org/1999/xlink" x="0px"
	 y="0px" viewBox="0 0 52 52" style="enable-background:new 0 0 52 52;" xml:space="preserve">
<style type="text/css">
	.st0{fill:none;stroke:#000000;stroke-width:2;stroke-linecap:round;stroke-linejoin:round;}
</style>
<title>Ekonomiya</title>
<circle class="st0" cx="26" cy="8.4" r="5.7"/>
<path class="st0" d="M47,39.2v5.9c0,2.3-1.9,4.2-4.2,4.2l0,0H7.6c-2.3,0-4.2-1.9-4.2-4.2V23.3c0-2.3,1.9-4.2,4.2-4.2h35.2
	c2.3,0,4.2,1.9,4.2,4.2v5.9"/>
<path class="st0" d="M21,19.1c0-0.3,0.1-0.6,0.1-0.9c0-3.1-2.6-5.7-5.7-5.7c-3.1,0-5.7,2.6-5.7,5.7c0,0.3,0,0.6,0.1,0.9H21z"/>
<path class="st0" d="M42,29.1c-2.8,0-5,2.3-5,5s2.3,5,5,5h6.7v-10H42z"/>
<circle cx="42" cy="34.2" r="1.9"/>
<path class="st0" d="M37.8,19.1c-0.8-2.2-2.9-3.7-5.3-3.7s-4.5,1.5-5.3,3.7H37.8z"/>
</svg>
