<?xml version="1.0" encoding="utf-8"?>
<!-- Generator: Adobe Illustrator 21.1.0, SVG Export Plug-In . SVG Version: 6.00 Build 0)  -->
<svg version="1.1" id="Слой_412" xmlns="http://www.w3.org/2000/svg" xmlns:xlink="http://www.w3.org/1999/xlink" x="0px"
	 y="0px" viewBox="0 0 52 52" style="enable-background:new 0 0 52 52;" xml:space="preserve">
<title>U-life</title>
<path d="M5.8,33.1C2.5,33.1,1,31,1,28.4v-8.6c0-0.5,0.4-0.9,0.8-0.9c0,0,0,0,0,0c0.5,0,0.8,0.4,0.9,0.8c0,0,0,0,0,0v8.6
	c0,1.7,0.8,3.2,3,3.2s3-1.5,3-3.2v-8.6c0-0.5,0.4-0.8,0.9-0.9c0.5,0,0.9,0.4,0.9,0.8c0,0,0,0,0,0v8.6C10.5,31,9,33.1,5.8,33.1"/>
<path d="M19.1,28.1H14c-0.4,0-0.8-0.3-0.8-0.8c0-0.4,0.3-0.8,0.8-0.8h5.1c0.4,0,0.8,0.3,0.8,0.8C19.9,27.8,19.6,28.1,19.1,28.1
	L19.1,28.1"/>
<path d="M30.2,32.9h-6.6c-0.4,0-0.8-0.4-0.8-0.8c0,0,0,0,0,0V19.8c0-0.5,0.5-0.8,0.9-0.8c0.4,0,0.7,0.4,0.8,0.8v11.5h5.7
	c0.4,0,0.8,0.5,0.7,0.9C30.9,32.6,30.6,32.9,30.2,32.9"/>
<path d="M33.9,21.3c-0.6,0-1-0.4-1-1c0,0,0,0,0,0c0-0.6,0.5-1,1-1c0.6,0,1,0.5,1,1C34.9,20.8,34.5,21.3,33.9,21.3
	C33.9,21.3,33.9,21.3,33.9,21.3 M33.9,33c-0.4,0-0.8-0.4-0.8-0.8c0,0,0,0,0,0v-8.1c0-0.4,0.3-0.8,0.8-0.8c0,0,0,0,0,0
	c0.5,0,0.8,0.4,0.8,0.8c0,0,0,0,0,0v8.1C34.7,32.6,34.4,33,33.9,33C33.9,33,33.9,33,33.9,33"/>
<path d="M42.1,20.6h-0.5c-1.6,0-1.9,0.7-1.9,2.3v0.5h1.6c0.4,0,0.7,0.2,0.8,0.6s-0.2,0.7-0.6,0.8c-0.1,0-0.1,0-0.2,0h-1.6v7.4
	c0,0.5-0.4,0.8-0.8,0.8c0,0,0,0,0,0c-0.4,0-0.8-0.4-0.8-0.8c0,0,0,0,0,0v-7.4h-0.5c-0.4,0-0.7-0.4-0.6-0.8c0-0.3,0.3-0.6,0.6-0.6H38
	v-0.5c0-2.3,0.8-3.8,3.4-3.8h0.7c0.4,0,0.8,0.3,0.8,0.7c0,0,0,0,0,0C42.8,20.3,42.5,20.6,42.1,20.6C42.1,20.6,42.1,20.6,42.1,20.6"
	/>
<path d="M51,28c0,0.3-0.2,0.6-0.6,0.6c0,0,0,0,0,0h-5.2v0.5c0,1.5,0.7,2.4,2.2,2.4c0.6,0,1.1-0.1,1.7-0.3c0.3-0.2,0.6-0.3,0.9-0.3
	c0.3,0,0.6,0.3,0.6,0.6c0,0,0,0,0,0.1c0,0.4-0.4,0.7-0.9,0.9c-0.8,0.3-1.6,0.4-2.4,0.4c-2.7,0-3.7-1.9-3.7-4v-1.8c0-2.1,1.1-4,3.7-4
	s3.7,1.8,3.7,4L51,28z M47.3,24.6c-1.5,0-2.1,0.9-2.1,2.4v0.3h4.2V27C49.3,25.5,48.8,24.6,47.3,24.6"/>
</svg>
