<?xml version="1.0" encoding="utf-8"?>
<!-- Generator: Adobe Illustrator 21.1.0, SVG Export Plug-In . SVG Version: 6.00 Build 0)  -->
<svg version="1.1" id="Слой_187" xmlns="http://www.w3.org/2000/svg" xmlns:xlink="http://www.w3.org/1999/xlink" x="0px"
	 y="0px" viewBox="0 0 52 52" style="enable-background:new 0 0 52 52;" xml:space="preserve">
<style type="text/css">
	.st0{fill:none;stroke:#000000;stroke-width:2;stroke-linecap:round;stroke-linejoin:round;}
</style>
<title>Formirovaniye otchetov</title>
<path class="st0" d="M9.7,2.4h32.7c1,0,1.8,0.8,1.8,1.8v43.5c0,1-0.8,1.8-1.8,1.8H9.7c-1,0-1.8-0.8-1.8-1.8V4.2
	C7.9,3.2,8.7,2.4,9.7,2.4z"/>
<path class="st0" d="M9.7,2.4h29c1,0,1.8,0.8,1.8,1.8v43.5c0,1-0.8,1.8-1.8,1.8h-29c-1,0-1.8-0.8-1.8-1.8V4.2
	C7.9,3.2,8.7,2.4,9.7,2.4z"/>
<line class="st0" x1="29.6" y1="2.4" x2="44.1" y2="16.9"/>
<line class="st0" x1="29.6" y1="49.6" x2="44.1" y2="35.1"/>
<path class="st0" d="M14.9,12.4h18.7c0.4,0,0.6,0.3,0.6,0.6v11.4c0,0.4-0.3,0.6-0.6,0.6H14.9c-0.4,0-0.6-0.3-0.6-0.6V13
	C14.2,12.7,14.5,12.4,14.9,12.4z"/>
<line class="st0" x1="18.8" y1="18.7" x2="29.6" y2="18.7"/>
</svg>
