<?xml version="1.0" encoding="utf-8"?>
<!-- Generator: Adobe Illustrator 21.1.0, SVG Export Plug-In . SVG Version: 6.00 Build 0)  -->
<svg version="1.1" id="Слой_389" xmlns="http://www.w3.org/2000/svg" xmlns:xlink="http://www.w3.org/1999/xlink" x="0px"
	 y="0px" viewBox="0 0 52 52" style="enable-background:new 0 0 52 52;" xml:space="preserve">
<style type="text/css">
	.st0{fill:#2C2A29;}
	.st1{fill:none;stroke:#2C2A29;stroke-width:2;stroke-linecap:round;stroke-linejoin:round;}
</style>
<title>Skorost Interneta do 100 Mbits</title>
<path class="st0" d="M6.8,47.2H1.6c-0.4,0-0.7-0.4-0.7-0.9c0-0.4,0.3-0.7,0.7-0.7h2.3v-6.9l-2.1,1.5c-0.4,0.2-0.9,0.1-1.1-0.2
	c-0.2-0.4-0.1-0.8,0.2-1.1l3.3-2.3c0.2-0.1,0.3-0.2,0.5-0.2c0.5,0,0.8,0.4,0.8,0.8v8.4h1.3c0.4,0,0.7,0.4,0.7,0.9
	C7.5,46.9,7.2,47.2,6.8,47.2z"/>
<path class="st0" d="M13.4,40.3c0-1.5-0.7-2.3-1.8-2.3s-1.8,0.8-1.8,2.3v3.3c0,1.5,0.6,2.3,1.8,2.3s1.8-0.8,1.8-2.3V40.3z
	 M11.6,47.3c-2.3,0-3.4-1.7-3.4-3.8v-3.2c0-2.1,1.1-3.8,3.4-3.8s3.4,1.7,3.4,3.8v3.2C15,45.6,13.9,47.3,11.6,47.3L11.6,47.3z"/>
<path class="st0" d="M20.8,40.3c0-1.5-0.7-2.3-1.8-2.3s-1.8,0.8-1.8,2.3v3.3c0,1.5,0.6,2.3,1.8,2.3c1.1,0,1.8-0.8,1.8-2.3V40.3z
	 M19,47.3c-2.3,0-3.4-1.7-3.4-3.8v-3.2c0-2.1,1.1-3.8,3.4-3.8s3.4,1.7,3.4,3.8v3.2C22.5,45.6,21.3,47.3,19,47.3L19,47.3z"/>
<path class="st0" d="M43.4,47.9c-0.1,0.4-0.5,0.6-0.9,0.5c-0.4-0.1-0.6-0.5-0.5-0.9c0,0,0,0,0,0L45.6,36c0.1-0.4,0.5-0.6,0.9-0.5
	c0,0,0,0,0,0c0.4,0.1,0.6,0.6,0.5,1L43.4,47.9z"/>
<path class="st0" d="M50.6,41.3c-0.4-0.2-0.8-0.3-1.2-0.3c-0.9,0-1.5,0.7-1.5,1.8v1.3c0,1.1,0.5,1.8,1.4,1.8c0.4,0,0.9-0.1,1.2-0.3
	c0.3-0.1,0.7,0,0.8,0.3c0,0,0,0,0,0.1c0.1,0.3,0,0.7-0.3,0.8c-0.6,0.3-1.2,0.4-1.9,0.4c-2.1,0-3-1.4-3-3.3v-1c0-1.8,1-3.4,3-3.4
	c0.6,0,1.3,0.1,1.9,0.4c0.3,0.1,0.5,0.5,0.3,0.8c0,0,0,0.1,0,0.1C51.3,41.3,50.9,41.4,50.6,41.3C50.6,41.3,50.6,41.3,50.6,41.3z"/>
<path class="st0" d="M28,28.3c0.1,0,0.2-0.1,0.3-0.1L38.6,21c0.3-0.2,0.4-0.6,0.3-0.9c-0.2-0.3-0.5-0.5-0.9-0.4L26,23.4
	c-0.1,0-0.2,0.1-0.3,0.1l-0.3,0.1c-1,0.5-1.6,1.6-1.4,2.7c0.1,1,0.8,1.9,1.7,2.2c0.7,0.2,1.4,0.2,2-0.1L28,28.3z"/>
<path class="st0" d="M33.3,47.4c-0.4,0-0.8-0.4-0.8-0.8v-6.5l-2.4,5c-0.1,0.3-0.4,0.5-0.8,0.5c-0.3,0-0.6-0.2-0.8-0.5l-2.4-5v6.5
	c0,0.4-0.4,0.7-0.9,0.7c-0.4,0-0.6-0.3-0.7-0.7v-9.4c0-0.5,0.4-0.8,0.9-0.8c0.3,0,0.6,0.2,0.7,0.5l3.1,6.3l3.1-6.4
	c0.2-0.4,0.7-0.6,1.1-0.4c0.3,0.1,0.5,0.4,0.5,0.7v9.5C34.1,47.1,33.7,47.4,33.3,47.4L33.3,47.4z"/>
<path class="st0" d="M40.3,42.8c0-0.5-0.1-0.9-0.4-1.3c-0.3-0.3-0.6-0.4-1-0.4c-0.4,0-0.8,0.1-1.1,0.4c-0.3,0.4-0.4,0.8-0.4,1.2v1.6
	c0,0.5,0.1,0.9,0.4,1.2c0.3,0.3,0.6,0.4,1,0.4c0.4,0,0.8-0.1,1-0.4c0.3-0.3,0.4-0.8,0.4-1.2V42.8z M35.8,44.3v-2.9
	c0-2.3,1.1-3,2.6-3.7c0.5-0.2,1.1-0.5,1.1-1.1v-0.4c0-0.4,0.4-0.8,0.8-0.8c0.4,0,0.8,0.4,0.8,0.8v0v0.4c0,1.9-1.6,2.1-2.8,2.9
	c-0.2,0.1-0.3,0.3-0.4,0.5c0.3-0.3,0.7-0.4,1.1-0.3c1.5-0.1,2.9,1,3,2.5c0,0.2,0,0.4,0,0.5v1.5c0,1.7-1.4,3.1-3.1,3.1
	C37.2,47.4,35.8,46,35.8,44.3C35.8,44.4,35.8,44.4,35.8,44.3L35.8,44.3z"/>
<path class="st1" d="M2.7,28C2.7,15.1,13.2,4.6,26,4.7c12.9,0,23.3,10.4,23.3,23.3"/>
<line class="st1" x1="2.7" y1="27.9" x2="8.3" y2="27.9"/>
<line class="st1" x1="26" y1="4.7" x2="26" y2="10.3"/>
<line class="st1" x1="9.9" y1="12.4" x2="13.8" y2="16.3"/>
<line class="st1" x1="42.1" y1="12.4" x2="38.1" y2="16.3"/>
<line class="st1" x1="49.3" y1="28" x2="43.7" y2="28"/>
</svg>
