<?xml version="1.0" encoding="utf-8"?>
<!-- Generator: Adobe Illustrator 21.1.0, SVG Export Plug-In . SVG Version: 6.00 Build 0)  -->
<svg version="1.1" id="Слой_157" xmlns="http://www.w3.org/2000/svg" xmlns:xlink="http://www.w3.org/1999/xlink" x="0px"
	 y="0px" viewBox="0 0 52 52" style="enable-background:new 0 0 52 52;" xml:space="preserve">
<style type="text/css">
	.st0{fill:none;stroke:#000000;stroke-width:2;stroke-linecap:round;stroke-linejoin:round;}
</style>
<title>Trebuyetsya pristavka</title>
<line class="st0" x1="17.2" y1="13" x2="34.8" y2="13"/>
<path class="st0" d="M26,13c0-2.4,2.7-3.6,2.7-7.2V2.1"/>
<line class="st0" x1="4.3" y1="16.4" x2="1.6" y2="37.7"/>
<line class="st0" x1="13.9" y1="35.2" x2="12.1" y2="40.2"/>
<path class="st0" d="M4.3,16.5c0.6-4,4.3-6.7,8.3-6.1c1.8,0.3,3.4,1.2,4.6,2.6"/>
<path class="st0" d="M20.5,31.2c0,2.5-2.1,4.5-4.6,4.5c-0.7,0-1.4-0.2-2.1-0.5"/>
<path class="st0" d="M12.1,40.2c-1,2.8-4.1,4.4-6.9,3.4c-2.2-0.8-3.7-2.8-3.7-5.2c0-0.2,0-0.5,0-0.7"/>
<line class="st0" x1="47.7" y1="16.4" x2="50.4" y2="37.7"/>
<line class="st0" x1="38.1" y1="35.2" x2="39.9" y2="40.2"/>
<path class="st0" d="M47.7,16.5c-0.6-4-4.3-6.7-8.3-6.1c-1.8,0.3-3.4,1.2-4.6,2.6"/>
<path class="st0" d="M31.4,31.2c0,2.5,2.1,4.5,4.6,4.5c0.7,0,1.4-0.2,2.1-0.5"/>
<line class="st0" x1="31.4" y1="31.1" x2="20.6" y2="31.1"/>
<path class="st0" d="M39.9,40.2c1,2.8,4.1,4.4,6.9,3.4c2.2-0.8,3.7-2.8,3.7-5.2c0-0.2,0-0.5,0-0.7"/>
<line class="st0" x1="13.3" y1="18" x2="13.3" y2="28"/>
<line class="st0" x1="8.3" y1="23" x2="18.3" y2="23"/>
<line class="st0" x1="21.9" y1="23" x2="30.1" y2="23"/>
<path d="M34.2,20.3c0-1,0.8-1.8,1.8-1.8c1,0,1.8,0.8,1.8,1.8c0,1-0.8,1.8-1.8,1.8C35,22.1,34.2,21.3,34.2,20.3L34.2,20.3"/>
<path d="M40.5,20.3c0-1,0.8-1.8,1.8-1.8c1,0,1.8,0.8,1.8,1.8c0,1-0.8,1.8-1.8,1.8S40.5,21.3,40.5,20.3L40.5,20.3"/>
<path d="M34.2,26.6c0-1,0.8-1.8,1.8-1.8c1,0,1.8,0.8,1.8,1.8c0,1-0.8,1.8-1.8,1.8C35,28.5,34.2,27.7,34.2,26.6
	C34.2,26.6,34.2,26.6,34.2,26.6"/>
<path d="M40.5,26.6c0-1,0.8-1.8,1.8-1.8s1.8,0.8,1.8,1.8c0,1-0.8,1.8-1.8,1.8S40.5,27.6,40.5,26.6L40.5,26.6"/>
</svg>
