<svg id="Слой_165" data-name="Слой 165" xmlns="http://www.w3.org/2000/svg" viewBox="0 0 45.46 47.01"><title>Zaryad bodrosti</title><path d="M18.27,37.11s0,23.58,18.14,23.58S54.55,37.11,54.55,37.11H18.27Z" transform="translate(-17.27 -14.68)" style="fill:none;stroke:#000;stroke-miterlimit:10;stroke-width:2px"/><line x1="4.63" y1="46.01" x2="33.65" y2="46.01" style="fill:none;stroke:#000;stroke-linecap:round;stroke-miterlimit:10;stroke-width:2px"/><path d="M54.47,41.64a7.26,7.26,0,1,1-5,12.53" transform="translate(-17.27 -14.68)" style="fill:none;stroke:#000;stroke-linecap:round;stroke-miterlimit:10;stroke-width:2px"/><path d="M39.39,32.39a3.85,3.85,0,0,1,0-5.45" transform="translate(-17.27 -14.68)" style="fill:none;stroke:#000;stroke-linecap:round;stroke-miterlimit:10;stroke-width:2px"/><path d="M39.39,21.49a3.85,3.85,0,0,1,0,5.45" transform="translate(-17.27 -14.68)" style="fill:none;stroke:#000;stroke-linecap:round;stroke-miterlimit:10;stroke-width:2px"/><path d="M33.42,15.68a3.85,3.85,0,0,0,0,5.45" transform="translate(-17.27 -14.68)" style="fill:none;stroke:#000;stroke-linecap:round;stroke-miterlimit:10;stroke-width:2px"/><path d="M33.42,26.58a3.85,3.85,0,0,0,0-5.45" transform="translate(-17.27 -14.68)" style="fill:none;stroke:#000;stroke-linecap:round;stroke-miterlimit:10;stroke-width:2px"/></svg>