<?xml version="1.0" encoding="utf-8"?>
<!-- Generator: Adobe Illustrator 21.1.0, SVG Export Plug-In . SVG Version: 6.00 Build 0)  -->
<svg version="1.1" id="Слой_293" xmlns="http://www.w3.org/2000/svg" xmlns:xlink="http://www.w3.org/1999/xlink" x="0px"
	 y="0px" viewBox="0 0 52 52" style="enable-background:new 0 0 52 52;" xml:space="preserve">
<style type="text/css">
	.st0{fill:none;stroke:#000000;stroke-width:2;stroke-miterlimit:10;}
	.st1{stroke:#000000;stroke-width:2;stroke-miterlimit:10;}
</style>
<title>Pakety</title>
<path class="st0" d="M21.6,10.4c0-4.8,3.9-8.8,8.8-8.8s8.8,3.9,8.8,8.8"/>
<path class="st0" d="M30.6,10.3h-18c-3.4,0.1-6.2,2.7-6.5,6.1L4.5,44c-0.2,3.2,2.2,5.9,5.3,6.1c0.1,0,0.3,0,0.4,0h22.6
	c3.2,0,5.7-2.5,5.8-5.7c0-0.1,0-0.3,0-0.4l-1.6-27.5C36.9,13,34.1,10.4,30.6,10.3L30.6,10.3z"/>
<path class="st1" d="M48.8,44l-1.6-27.5c-0.2-3.4-3.1-6.1-6.5-6.1v0h-10c3.3,0.1,6.1,2.7,6.3,6.1L38.7,44c0,0.1,0,0.3,0,0.4
	c0,3.2-2.6,5.7-5.8,5.7h10.2c3.2,0,5.7-2.5,5.8-5.7C48.8,44.3,48.8,44.1,48.8,44z"/>
<path class="st0" d="M12.8,10.4c0-4.8,3.9-8.8,8.8-8.8s8.8,3.9,8.8,8.8"/>
</svg>
