<?xml version="1.0" encoding="utf-8"?>
<!-- Generator: Adobe Illustrator 21.1.0, SVG Export Plug-In . SVG Version: 6.00 Build 0)  -->
<svg version="1.1" id="Слой_81" xmlns="http://www.w3.org/2000/svg" xmlns:xlink="http://www.w3.org/1999/xlink" x="0px"
	 y="0px" viewBox="0 0 52 52" style="enable-background:new 0 0 52 52;" xml:space="preserve">
<style type="text/css">
	.st0{fill:none;stroke:#000000;stroke-width:2;stroke-linecap:round;stroke-linejoin:round;}
	.st1{fill:none;stroke:#000000;stroke-width:2;stroke-linecap:round;stroke-linejoin:round;stroke-miterlimit:10;}
</style>
<title>Shansy</title>
<line class="st0" x1="17" y1="40.3" x2="35" y2="9.2"/>
<path class="st1" d="M9.2,9.2H3.4v6.9c0.6-0.8,2-1.3,3.1-1.3h0c1.9,0,3.5,1.6,3.5,3.5v2c0,1.9-1.6,3.5-3.5,3.5H6.3
	c-1.2,0-2.2-0.2-3.3-1"/>
<path class="st1" d="M18.4,23.8L18.4,23.8c-2.3,0-4.1-1.8-4.1-4.1v-6.3c0-2.3,1.8-4.1,4.1-4.1h0c2.3,0,4.1,1.8,4.1,4.1v6.3
	C22.5,21.9,20.7,23.8,18.4,23.8z"/>
<path class="st1" d="M36.3,26.8h-5.8v6.9c0.6-0.8,2-1.3,3.1-1.3h0c1.9,0,3.5,1.6,3.5,3.5v2c0,1.9-1.6,3.5-3.5,3.5h-0.2
	c-1.2,0-2.2-0.2-3.3-1"/>
<path class="st1" d="M45.6,41.3L45.6,41.3c-2.3,0-4.1-1.8-4.1-4.1v-6.3c0-2.3,1.8-4.1,4.1-4.1h0c2.3,0,4.1,1.8,4.1,4.1v6.3
	C49.7,39.5,47.8,41.3,45.6,41.3z"/>
</svg>
