<?xml version="1.0" encoding="utf-8"?>
<!-- Generator: Adobe Illustrator 21.1.0, SVG Export Plug-In . SVG Version: 6.00 Build 0)  -->
<svg version="1.1" id="Слой_303" xmlns="http://www.w3.org/2000/svg" xmlns:xlink="http://www.w3.org/1999/xlink" x="0px"
	 y="0px" viewBox="0 0 52 52" style="enable-background:new 0 0 52 52;" xml:space="preserve">
<style type="text/css">
	.st0{fill:none;stroke:#000000;stroke-width:2;stroke-miterlimit:10;}
</style>
<title>Puteshestviya</title>
<path class="st0" d="M28.6,31.1l16.6,5.1c0,0,0.1,0,0.1-0.1c0,0,0,0,0,0v-4.5c0,0,0,0,0-0.1L28.5,20c0,0,0,0,0-0.1V5.5
	c0.1-1.3-0.9-2.5-2.2-2.8c-1.4-0.2-2.7,0.8-2.9,2.2c0,0.1,0,0.2,0,0.4v14.8c0,0,0,0,0,0.1L6.8,31.5c0,0,0,0,0,0.1v4.5
	c0,0,0,0.1,0.1,0.1c0,0,0,0,0,0l16.4-5c0,0,0.1,0,0.1,0.1c0,0,0,0,0,0v12.4c0,0,0,0,0,0.1l-3.9,2.5c0,0,0,0,0,0.1v2.9
	c0,0,0,0.1,0.1,0.1c0,0,0,0,0,0l6.4-2.5H26l6.4,2.5c0,0,0.1,0,0.1,0c0,0,0,0,0,0v-3c0,0,0,0,0-0.1l-4-2.5c0,0,0,0,0-0.1L28.6,31.1
	C28.5,31.1,28.5,31.1,28.6,31.1z"/>
</svg>
