<?xml version="1.0" encoding="utf-8"?>
<!-- Generator: Adobe Illustrator 21.1.0, SVG Export Plug-In . SVG Version: 6.00 Build 0)  -->
<svg version="1.1" id="Слой_220" xmlns="http://www.w3.org/2000/svg" xmlns:xlink="http://www.w3.org/1999/xlink" x="0px"
	 y="0px" viewBox="0 0 52 52" style="enable-background:new 0 0 52 52;" xml:space="preserve">
<style type="text/css">
	.st0{fill:none;stroke:#000000;stroke-width:2;stroke-linecap:round;stroke-linejoin:round;}
	.st1{fill:none;stroke:#000000;stroke-width:2;}
</style>
<title>Virtual&amp;apos;nyy ofis</title>
<rect x="8.6" y="26" class="st0" width="34.8" height="23.2"/>
<path class="st0" d="M8.7,34.3l0.9,2.1c0.7,1.2,2,2,3.4,2.1h26.2c1.4,0,2.7-0.8,3.4-2.1l0.9-2.1"/>
<circle class="st1" cx="26" cy="34.3" r="1.7"/>
<path class="st0" d="M20.2,26v-2.5c0-1.4,1.5-2.5,3.3-2.5h5c1.8,0,3.3,1.1,3.3,2.5V26"/>
<path class="st0" d="M47.5,31.7c1.6-1.5,2.5-3.7,2.5-5.9c0-4.2-3.1-7.7-6.9-7.7l0,0c-0.4-4.3-3.7-7.7-7.7-7.7
	c-1.8,0-3.5,0.7-4.8,1.9c-1.5-5.5-5.8-9.4-11.3-9.4c-6.6,0-12.2,5.8-12.2,13.3c0,0.7,0,1.4,0.2,2.1c-3.2,1-5.4,4.1-5.3,7.5
	c0,2.2,0.9,4.4,2.5,5.9"/>
</svg>
