<?xml version="1.0" encoding="utf-8"?>
<!-- Generator: Adobe Illustrator 21.1.0, SVG Export Plug-In . SVG Version: 6.00 Build 0)  -->
<svg version="1.1" id="Слой_24" xmlns="http://www.w3.org/2000/svg" xmlns:xlink="http://www.w3.org/1999/xlink" x="0px"
	 y="0px" viewBox="0 0 52 52" style="enable-background:new 0 0 52 52;" xml:space="preserve">
<style type="text/css">
	.st0{fill:none;stroke:#000000;stroke-width:2;stroke-linecap:round;stroke-linejoin:round;}
</style>
<title>Poisk signala</title>
<path class="st0" d="M26,2.3C12.9,2.3,2.3,12.9,2.3,26S12.9,49.7,26,49.7S49.7,39.1,49.7,26c0,0,0,0,0,0"/>
<path class="st0" d="M26,9.3C16.8,9.3,9.3,16.8,9.3,26S16.8,42.6,26,42.6S42.7,35.2,42.7,26l0,0"/>
<path class="st0" d="M26,16.3c-5.3,0-9.7,4.3-9.7,9.7s4.3,9.7,9.7,9.7s9.7-4.3,9.7-9.7"/>
<circle class="st0" cx="26" cy="26" r="2.6"/>
<line class="st0" x1="27.9" y1="24.2" x2="43.8" y2="8.3"/>
</svg>
