<?xml version="1.0" encoding="utf-8"?>
<!-- Generator: Adobe Illustrator 21.1.0, SVG Export Plug-In . SVG Version: 6.00 Build 0)  -->
<svg version="1.1" id="Слой_183" xmlns="http://www.w3.org/2000/svg" xmlns:xlink="http://www.w3.org/1999/xlink" x="0px"
	 y="0px" viewBox="0 0 52 52" style="enable-background:new 0 0 52 52;" xml:space="preserve">
<style type="text/css">
	.st0{fill:none;stroke:#000000;stroke-width:2;stroke-linecap:round;stroke-linejoin:round;}
	.st1{fill:none;stroke:#000000;stroke-width:2;stroke-miterlimit:10;}
	.st2{enable-background:new    ;}
</style>
<title>Videokonferentsiya</title>
<path class="st0" d="M45.3,21.9c0,10.7-8.6,19.3-19.3,19.3S6.7,32.6,6.7,21.9S15.3,2.7,26,2.6l0,0C36.6,2.6,45.3,11.3,45.3,21.9
	L45.3,21.9"/>
<path class="st1" d="M45.3,21.9c0,10.7-8.6,19.3-19.3,19.3S6.7,32.6,6.7,21.9S15.3,2.7,26,2.6l0,0C36.6,2.6,45.3,11.3,45.3,21.9
	L45.3,21.9"/>
<path class="st0" d="M36.8,37.9C33.7,40,30,41.2,26,41.2c-3.8,0-7.4-1.1-10.4-3l-2.7,5.3c-1.3,2.1-0.6,4.8,1.4,6.1
	c0.8,0.5,1.7,0.7,2.7,0.6h18.2c2.5,0.2,4.6-1.7,4.8-4.2c0.1-0.9-0.1-1.8-0.6-2.5L36.8,37.9z"/>
<circle class="st0" cx="26" cy="21.9" r="19.3"/>
<path class="st0" d="M34.6,25.4c0,4.7-3.8,8.6-8.6,8.6s-8.6-3.8-8.6-8.6s3.8-8.6,8.6-8.6C30.7,16.8,34.6,20.6,34.6,25.4L34.6,25.4"
	/>
<circle class="st0" cx="26" cy="25.4" r="8.6"/>
<g class="st2">
	<path d="M26.3,11.9c-1,0-1.7-0.8-1.7-1.7c0-1,0.8-1.7,1.7-1.7c0.9,0,1.7,0.8,1.7,1.7C28,11.1,27.3,11.9,26.3,11.9z"/>
</g>
<circle class="st0" cx="26" cy="25.4" r="2.7"/>
</svg>
