<?xml version="1.0" encoding="utf-8"?>
<!-- Generator: Adobe Illustrator 21.1.0, SVG Export Plug-In . SVG Version: 6.00 Build 0)  -->
<svg version="1.1" id="Слой_316" xmlns="http://www.w3.org/2000/svg" xmlns:xlink="http://www.w3.org/1999/xlink" x="0px"
	 y="0px" viewBox="0 0 52 52" style="enable-background:new 0 0 52 52;" xml:space="preserve">
<style type="text/css">
	.st0{fill:none;stroke:#000000;stroke-width:2;stroke-linecap:round;stroke-linejoin:round;}
</style>
<title>Usluga Popolni moy schet</title>
<path class="st0" d="M49.6,32c0.1,3-2.2,5.5-5.2,5.7H32.5l-14.2,7.8v-7.8H7.6c-3-0.1-5.3-2.7-5.2-5.7V12.2c-0.1-3,2.2-5.5,5.2-5.7
	h36.7c3,0.1,5.3,2.7,5.2,5.7V32z"/>
<rect x="36.8" y="13.8" width="12.7" height="4.5"/>
<rect x="2" y="13.8" width="13.9" height="4.5"/>
<line class="st0" x1="19.5" y1="29" x2="27.6" y2="29"/>
<path class="st0" d="M19.5,24.5h7.9c3.4,0,5-2,5-4.1v-2.3c0-1.3-1.4-3.9-5-3.9h-5.6v18.3"/>
</svg>
