<?xml version="1.0" encoding="utf-8"?>
<!-- Generator: Adobe Illustrator 21.1.0, SVG Export Plug-In . SVG Version: 6.00 Build 0)  -->
<svg version="1.1" id="Слой_99" xmlns="http://www.w3.org/2000/svg" xmlns:xlink="http://www.w3.org/1999/xlink" x="0px"
	 y="0px" viewBox="0 0 52 52" style="enable-background:new 0 0 52 52;" xml:space="preserve">
<style type="text/css">
	.st0{fill:none;stroke:#000000;stroke-width:2;stroke-linecap:round;stroke-linejoin:round;}
</style>
<title>Obed</title>
<path class="st0" d="M21.6,47.2c0.1,1.1-0.8,2.1-1.9,2.1c-1.1,0.1-2.1-0.8-2.1-1.9c0-0.1,0-0.2,0-0.3V28.4h4V47.2z"/>
<path class="st0" d="M21.6,28.4v-10c0-2.7,2-3.2,2-5.8V5.1c0.1-1.2-0.8-2.3-2.1-2.4c0,0,0,0,0,0h-3.9c-1.2,0.1-2.2,1.2-2.1,2.4v7.5
	c0,2.5,2,3.1,2,5.8v10"/>
<line class="st0" x1="18.3" y1="2.7" x2="18.3" y2="11.6"/>
<line class="st0" x1="20.9" y1="2.7" x2="20.9" y2="11.6"/>
<path class="st0" d="M34,47.2c0,1.1-0.9,2-2,2s-2-0.9-2-2V28.4h4V47.2z"/>
<path class="st0" d="M30,5.7c0-4,6.4-4,6.4,0s0,22.7,0,22.7H30V5.7z"/>
<path class="st0" d="M30,41.5c-2.8,0.7-5.7,0.7-8.4-0.1"/>
<path class="st0" d="M36.4,13.8c6.7,5.8,7.5,15.9,1.8,22.6C37,37.8,35.6,39,34,39.9"/>
<path class="st0" d="M23.6,10.1c2.1-0.3,4.3-0.2,6.4,0.3"/>
<path class="st0" d="M17.6,39.7C10,35,7.7,25.1,12.3,17.6c0.9-1.5,2-2.8,3.4-3.9"/>
<path class="st0" d="M17.6,47.7c-12-4.6-18-18.1-13.3-30.1c2.1-5.4,6.1-9.8,11.3-12.4"/>
<path class="st0" d="M30.7,48.8c-3.2,0.7-6.5,0.6-9.7-0.1"/>
<path class="st0" d="M36.4,5.2c11.5,5.7,16.2,19.7,10.5,31.2c-2.7,5.3-7.3,9.5-12.9,11.5"/>
<path class="st0" d="M22.8,2.9c2.8-0.4,5.7-0.3,8.4,0.4"/>
</svg>
