<?xml version="1.0" encoding="utf-8"?>
<!-- Generator: Adobe Illustrator 21.1.0, SVG Export Plug-In . SVG Version: 6.00 Build 0)  -->
<svg version="1.1" id="Слой_417" xmlns="http://www.w3.org/2000/svg" xmlns:xlink="http://www.w3.org/1999/xlink" x="0px"
	 y="0px" viewBox="0 0 52 52" style="enable-background:new 0 0 52 52;" xml:space="preserve">
<style type="text/css">
	.st0{fill:none;stroke:#000000;stroke-width:2;stroke-miterlimit:10;}
	.st1{fill:none;stroke:#000000;stroke-width:2;stroke-linecap:round;stroke-linejoin:round;stroke-miterlimit:10;}
</style>
<title>Spravka</title>
<path class="st0" d="M45.9,38.4l-7.3-7.9c-0.5-0.6-1.4-0.6-2-0.1c0,0,0,0-0.1,0.1l-1.7,1.7l-1.5,1.5c-0.2,0.2-0.4,0.4-0.6,0.5
	C31.2,36,30.8,36,30.8,36c-1.6,0.6-3.3,0.3-4.6-0.8c-1.5-1.4-3-2.9-4.4-4.5c-1.4-1.5-2.8-3.1-4.1-4.8c-0.9-1.1-1.2-2.6-0.9-4
	c0.2-0.7,0.4-1.3,0.8-1.8c0.4-0.4,0.7-0.9,1-1.4c0.1-0.2,0.3-0.4,0.5-0.6l3.1-3.3c0.6-0.6,0.6-1.6,0-2.2l-7.3-7.8
	c-0.5-0.6-1.4-0.6-2,0c0,0,0,0,0,0c-2.1,2.2-4.7,4.3-6.2,7c-1.2,2.3-1,5.3-0.5,7.8c0.3,1.8,0.9,3.5,1.6,5.2c1.1,2.3,2.3,4.4,3.8,6.5
	c1.4,2,2.9,3.9,4.6,5.7c1.6,1.8,3.4,3.4,5.2,5c1.9,1.6,3.9,3,6,4.1c1.9,1,3.9,1.7,6,2c1.7,0.4,3.5,0.2,5.2-0.3
	c1.2-0.6,2.3-1.5,3.2-2.6c1-1,1.9-1.9,2.9-2.9l1.2-1.3C46.5,40.1,46.5,39.1,45.9,38.4z"/>
<line class="st0" x1="34.2" y1="33" x2="43.4" y2="43"/>
<line class="st0" x1="10.3" y1="7.4" x2="19.7" y2="17.5"/>
<path class="st1" d="M35.7,8c0,0,4.2-2.7,6.2,0.3s-1.2,5-1.8,5.5c-0.6,0.5-1.6,2-1.6,3.1"/>
<circle cx="38.5" cy="21.1" r="1.2"/>
</svg>
