<?xml version="1.0" encoding="utf-8"?>
<!-- Generator: Adobe Illustrator 21.1.0, SVG Export Plug-In . SVG Version: 6.00 Build 0)  -->
<svg version="1.1" id="Слой_271" xmlns="http://www.w3.org/2000/svg" xmlns:xlink="http://www.w3.org/1999/xlink" x="0px"
	 y="0px" viewBox="0 0 52 52" style="enable-background:new 0 0 52 52;" xml:space="preserve">
<style type="text/css">
	.st0{fill:none;stroke:#000000;stroke-width:2;stroke-miterlimit:10;}
	.st1{fill:none;stroke:#000105;stroke-width:2;stroke-linecap:round;stroke-linejoin:round;stroke-miterlimit:10;}
</style>
<title>Vremennyy zapret vkhodyashchey svyazi_usluga Ne bespokoit</title>
<path class="st0" d="M41.8,39.9l-7.3-7.9c-0.5-0.6-1.4-0.6-2-0.1c0,0,0,0-0.1,0.1l-1.7,1.7l-1.5,1.6c-0.2,0.2-0.4,0.4-0.6,0.5
	c-1.7,1.7-2.1,1.7-2.1,1.7c-1.6,0.6-3.4,0.3-4.6-0.8c-1.5-1.4-3-2.9-4.4-4.5c-1.4-1.5-2.8-3.1-4.1-4.7c-0.9-1.1-1.2-2.6-0.9-4
	c0.2-0.7,0.5-1.3,0.9-1.8c0.4-0.4,0.7-0.9,1-1.4c0.1-0.2,0.3-0.4,0.5-0.6l3.1-3.3c0.6-0.6,0.6-1.6,0-2.2l-7.3-7.9
	c-0.5-0.6-1.4-0.6-2,0c0,0,0,0,0,0c-2.1,2.2-4.7,4.3-6.2,7c-1.2,2.3-1,5.3-0.5,7.8c0.3,1.8,0.9,3.5,1.6,5.2c1.1,2.3,2.3,4.4,3.8,6.5
	c1.4,2,2.9,3.9,4.6,5.7c1.6,1.8,3.4,3.5,5.2,5c1.9,1.6,3.9,3,6,4.1c1.9,1,3.9,1.7,6,2c1.7,0.4,3.5,0.2,5.2-0.3
	c1.2-0.6,2.3-1.5,3.2-2.6c1-1,1.9-1.9,2.9-2.9c0.4-0.4,0.8-0.8,1.2-1.2C42.4,41.7,42.4,40.7,41.8,39.9z"/>
<line class="st0" x1="30.1" y1="34.6" x2="39.3" y2="44.5"/>
<line class="st0" x1="6.2" y1="9" x2="15.6" y2="19"/>
<line class="st1" x1="42.3" y1="5.3" x2="33.9" y2="13.7"/>
<line class="st1" x1="42.3" y1="13.7" x2="33.9" y2="5.3"/>
<line class="st1" x1="48.7" y1="22.3" x2="29.2" y2="22.5"/>
<polyline class="st1" points="32.2,18.2 28.1,22.4 32.2,26.5 "/>
</svg>
