<?xml version="1.0" encoding="utf-8"?>
<!-- Generator: Adobe Illustrator 21.1.0, SVG Export Plug-In . SVG Version: 6.00 Build 0)  -->
<svg version="1.1" id="Слой_62" xmlns="http://www.w3.org/2000/svg" xmlns:xlink="http://www.w3.org/1999/xlink" x="0px"
	 y="0px" viewBox="0 0 52 52" style="enable-background:new 0 0 52 52;" xml:space="preserve">
<style type="text/css">
	.st0{fill:none;stroke:#000000;stroke-width:2;stroke-linecap:round;stroke-linejoin:round;}
	.st1{fill:none;stroke:#000000;stroke-width:2;}
</style>
<title>SOHO_Domashniy ofis</title>
<polyline class="st0" points="34.1,9.1 34.1,1.6 43.2,1.6 43.2,17.5 "/>
<line class="st0" x1="1.5" y1="24.3" x2="26" y2="1.6"/>
<path class="st0" d="M34.2,9.1L26,1.6"/>
<line class="st0" x1="50.5" y1="24.3" x2="43.2" y2="17.5"/>
<rect x="7" y="25" class="st0" width="38.1" height="25.4"/>
<path class="st0" d="M7,34.1l1,2.3c0.7,1.4,2.2,2.2,3.7,2.3h28.7c1.6,0,3-0.9,3.7-2.3l1-2.3"/>
<circle class="st1" cx="26" cy="34.1" r="1.8"/>
<path class="st0" d="M19.7,25v-2.7c0-1.5,1.6-2.7,3.6-2.7h5.4c2,0,3.6,1.2,3.6,2.7V25"/>
</svg>
