<?xml version="1.0" encoding="utf-8"?>
<!-- Generator: Adobe Illustrator 21.1.0, SVG Export Plug-In . SVG Version: 6.00 Build 0)  -->
<svg version="1.1" id="Слой_309" xmlns="http://www.w3.org/2000/svg" xmlns:xlink="http://www.w3.org/1999/xlink" x="0px"
	 y="0px" viewBox="0 0 52 52" style="enable-background:new 0 0 52 52;" xml:space="preserve">
<style type="text/css">
	.st0{fill:none;stroke:#000000;stroke-width:2;stroke-linejoin:round;}
</style>
<title>Elektronnyye dengi</title>
<path class="st0" d="M43.7,18.8h-2.9v14.3c0,4.1-4.1,5.2-4.1,5.2l-21.9,6.1c0,0-2.1,0.8-2.7-0.4s1.4-1.9,1.4-1.9s15.3-6.3,19.4-7.9
	s3.8-5.2,3.8-5.2V6.8c0-5.6-4.6-3-4.6-3S10.5,16.1,8.2,17.7c-1.4,1.1-2.2,2.7-2.1,4.4v21.9c0,0,0,0.9,0,1.2
	c-0.2,1.8,1.1,3.4,2.9,3.6c0.3,0,0.5,0,0.8,0h32.9c1.7,0.1,3.2-1.3,3.3-3V22.3C45.9,18.7,43.7,18.8,43.7,18.8z M25.9,17.4
	c1.5-1,3.3-0.9,4.1,0.2s0.2,2.9-1.3,3.9s-3.3,0.9-4.1-0.2S24.5,18.4,25.9,17.4z"/>
</svg>
