<?xml version="1.0" encoding="utf-8"?>
<!-- Generator: Adobe Illustrator 21.1.0, SVG Export Plug-In . SVG Version: 6.00 Build 0)  -->
<svg version="1.1" id="Слой_328" xmlns="http://www.w3.org/2000/svg" xmlns:xlink="http://www.w3.org/1999/xlink" x="0px"
	 y="0px" viewBox="0 0 52 52" style="enable-background:new 0 0 52 52;" xml:space="preserve">
<style type="text/css">
	.st0{fill:#2C2A29;}
	.st1{fill:none;stroke:#2C2A29;stroke-width:2;stroke-linecap:round;stroke-linejoin:round;}
</style>
<title>Skorost Interneta do 20 Mbits</title>
<path class="st0" d="M7.2,47.8H1.8C1.4,47.8,1,47.4,1,47c0,0,0-0.1,0-0.1c0-1.4,0.6-2.7,1.7-3.5c1.5-1.4,3.5-2.2,3.5-3.9
	c0.1-0.9-0.6-1.7-1.5-1.7c-0.1,0-0.2,0-0.2,0c-0.5,0-1,0.1-1.5,0.4c-0.5,0.3-0.7,0.5-1.1,0.5c-0.5,0-0.9-0.4-0.9-0.8c0,0,0,0,0,0
	c0-0.3,0.1-0.5,0.3-0.7c0.9-0.7,2-1.1,3.1-1C6.3,36,7.9,37.3,8,39.1c0,0.1,0,0.3,0,0.4c0,3.4-4.3,3.9-5.1,6.5h4.3
	C7.7,46,8,46.4,8,46.9S7.7,47.8,7.2,47.8L7.2,47.8L7.2,47.8z"/>
<path class="st0" d="M15.4,40.2c0-1.6-0.7-2.5-1.9-2.5s-1.9,0.9-1.9,2.5v3.6c0,1.6,0.7,2.5,1.9,2.5s1.9-0.9,1.9-2.5V40.2z
	 M13.4,47.9c-2.5,0-3.7-1.8-3.7-4.1v-3.5c0-2.3,1.2-4.1,3.7-4.1s3.7,1.8,3.7,4.1v3.5C17.1,46,15.9,47.9,13.4,47.9L13.4,47.9z"/>
<path class="st0" d="M40.6,48.4c-0.1,0.4-0.6,0.7-1,0.5c-0.4-0.1-0.7-0.6-0.5-1l0,0L43,35.7c0.1-0.4,0.6-0.6,1-0.5
	c0.4,0.1,0.6,0.6,0.5,1L40.6,48.4z"/>
<path class="st0" d="M50.1,41.3c-0.4-0.2-0.8-0.3-1.3-0.3c-1,0-1.6,0.8-1.6,2v1.3c0,1.2,0.5,2,1.6,2c0.5,0,0.9-0.1,1.3-0.3
	c0.3-0.2,0.7,0,0.9,0.3c0,0,0,0.1,0,0.1c0.1,0.4,0,0.8-0.4,0.9c-0.6,0.3-1.3,0.5-2,0.5c-2.3,0-3.2-1.5-3.2-3.5v-1.1
	c0-2,1.1-3.6,3.2-3.6c0.7,0,1.4,0.1,2,0.5c0.3,0.2,0.5,0.6,0.3,0.9c0,0,0,0,0,0C50.9,41.3,50.5,41.5,50.1,41.3
	C50.1,41.4,50.1,41.3,50.1,41.3z"/>
<path class="st0" d="M28.8,24.8c0-0.1,0-0.2-0.1-0.3l-6-11.4c-0.2-0.3-0.6-0.5-0.9-0.4c-0.4,0.1-0.6,0.5-0.5,0.9l2.3,12.6
	c0,0.1,0.1,0.2,0.1,0.3c0,0.1,0,0.2,0.1,0.3c0.5,1.4,2.1,2.1,3.5,1.7c0.7-0.2,1.2-0.7,1.6-1.3c0.3-0.6,0.4-1.4,0.1-2
	C28.9,25,28.8,24.9,28.8,24.8z"/>
<path class="st0" d="M29.5,48c-0.5,0-0.8-0.4-0.8-0.8V40l-2.6,5.4C26,45.8,25.6,46,25.3,46c-0.4,0-0.7-0.2-0.8-0.5L21.9,40v7.1
	c0,0.5-0.4,0.8-0.8,0.8s-0.8-0.4-0.8-0.8V36.9c0-0.5,0.4-0.9,0.9-0.9c0,0,0,0,0.1,0c0.4-0.1,0.8,0.2,0.9,0.5l3.3,6.9l3.4-7
	c0.3-0.4,0.8-0.6,1.3-0.3c0.3,0.1,0.4,0.4,0.5,0.7v10.3C30.4,47.6,30,48,29.5,48C29.6,48,29.6,48,29.5,48z"/>
<path class="st0" d="M37.1,42.9c0-0.5-0.1-1-0.4-1.3c-0.3-0.3-0.7-0.4-1.1-0.4c-0.4,0-0.9,0.1-1.2,0.4C34.1,42,34,42.5,34,42.9v1.7
	c0,0.5,0.1,1,0.4,1.4c0.3,0.3,0.7,0.4,1.1,0.4c0.4,0,0.9-0.1,1.1-0.5c0.3-0.4,0.4-0.8,0.4-1.3C37.1,44.6,37.1,42.9,37.1,42.9z
	 M32.2,44.6v-3.1c0-2.6,1.2-3.3,2.8-4c0.5-0.2,1.2-0.6,1.2-1.2v-0.4c0-0.5,0.4-0.9,0.9-0.9s0.9,0.4,0.9,0.9v0.4
	c0,2.1-1.7,2.3-3.1,3.1c-0.2,0.1-0.4,0.3-0.5,0.6c0.3-0.3,0.7-0.4,1.1-0.4c1.7-0.1,3.2,1.1,3.3,2.8c0,0.2,0,0.3,0,0.5v1.7
	c0.2,1.7-1.1,3.2-2.8,3.4c-0.2,0-0.4,0-0.6,0c-1.7,0.1-3.2-1.1-3.4-2.8C32.2,44.9,32.2,44.8,32.2,44.6z"/>
<path class="st1" d="M1.9,28c0-13.2,10.7-24,24-24c13.2,0,24,10.7,24,24"/>
<line class="st1" x1="1.9" y1="28" x2="7.6" y2="28"/>
<line class="st1" x1="25.8" y1="4" x2="25.8" y2="9.8"/>
<line class="st1" x1="9.3" y1="11.9" x2="13.3" y2="16"/>
<line class="st1" x1="42.4" y1="11.9" x2="38.3" y2="16"/>
<line class="st1" x1="49.8" y1="28" x2="44" y2="28"/>
</svg>
