<?xml version="1.0" encoding="utf-8"?>
<!-- Generator: Adobe Illustrator 21.1.0, SVG Export Plug-In . SVG Version: 6.00 Build 0)  -->
<svg version="1.1" id="Слой_239" xmlns="http://www.w3.org/2000/svg" xmlns:xlink="http://www.w3.org/1999/xlink" x="0px"
	 y="0px" viewBox="0 0 52 52" style="enable-background:new 0 0 52 52;" xml:space="preserve">
<style type="text/css">
	.st0{fill:none;stroke:#000000;stroke-width:2;stroke-linecap:round;stroke-linejoin:round;}
</style>
<title>Bolshoy nabor krasivykh nomerov</title>
<path class="st0" d="M47.5,24.4l-1.5,1.3l-3.5,3l0.6,2.4l0,0l0.5,2l0.5,2c0.3,1.3-0.4,1.9-1.6,1.1l-1.8-1.1L39,34.1l-2.1-1.3
	l-2.1,1.3l0,0l-1.7,1.1l-1.7,1.1c-1.2,0.7-1.9,0.2-1.6-1.1l0.5-2l0.5-2l0,0l0.6-2.4l-3.5-3l-1.5-1.3c-1-0.9-0.8-1.7,0.6-1.8l2-0.2
	l4.5-0.4l1.8-4.2l0.8-1.9c0.5-1.3,1.4-1.3,1.9,0l0.8,1.9l1.8,4.2l4.5,0.4l2,0.2C48.3,22.6,48.5,23.5,47.5,24.4z"/>
<g>
	<polyline class="st0" points="31.8,8.2 25.5,1.9 19.2,8.2 	"/>
	<polyline class="st0" points="19.2,43.8 25.5,50.1 31.8,43.8 	"/>
</g>
<g>
	<circle class="st0" cx="11.7" cy="20.9" r="4.7"/>
	<circle class="st0" cx="11.7" cy="31.5" r="5.9"/>
</g>
</svg>
