<?xml version="1.0" encoding="utf-8"?>
<!-- Generator: Adobe Illustrator 21.1.0, SVG Export Plug-In . SVG Version: 6.00 Build 0)  -->
<svg version="1.1" id="Слой_405" xmlns="http://www.w3.org/2000/svg" xmlns:xlink="http://www.w3.org/1999/xlink" x="0px"
	 y="0px" viewBox="0 0 52 52" style="enable-background:new 0 0 52 52;" xml:space="preserve">
<style type="text/css">
	.st0{fill:none;stroke:#000000;stroke-width:2;stroke-miterlimit:10;}
</style>
<title>Parallelnyy vyzov</title>
<path class="st0" d="M43.8,39.5l-7.3-7.9c-0.5-0.6-1.4-0.6-2-0.1c0,0,0,0-0.1,0.1l-1.6,1.7l-1.5,1.6c-0.2,0.2-0.4,0.4-0.6,0.5
	c-1.7,1.7-2.1,1.7-2.1,1.7c-1.6,0.6-3.3,0.3-4.6-0.8c-1.5-1.4-3-2.9-4.4-4.5c-1.4-1.5-2.8-3.1-4.1-4.8c-0.9-1.1-1.2-2.6-0.9-4
	c0.2-0.7,0.5-1.3,0.9-1.8c0.4-0.4,0.7-0.9,1-1.4c0.1-0.2,0.3-0.4,0.5-0.6l3.1-3.3c0.6-0.6,0.6-1.6,0-2.2l-7.3-7.8
	c-0.5-0.6-1.4-0.6-2,0c0,0,0,0,0,0c-2.1,2.2-4.7,4.3-6.2,7c-1.2,2.3-1,5.3-0.5,7.8c0.3,1.8,0.9,3.5,1.6,5.2c1.1,2.3,2.3,4.4,3.8,6.5
	c1.4,2,2.9,3.9,4.6,5.7c1.6,1.8,3.4,3.5,5.2,5c1.9,1.6,3.9,3,6,4.1c1.9,1,3.9,1.7,6,2c1.7,0.3,3.5,0.2,5.2-0.3
	c1.2-0.6,2.3-1.5,3.2-2.6c1-1,1.9-1.9,2.9-2.9l1.2-1.2C44.3,41.3,44.3,40.2,43.8,39.5z"/>
<line class="st0" x1="32" y1="34.2" x2="41.3" y2="44.1"/>
<line class="st0" x1="8.2" y1="8.6" x2="17.5" y2="18.6"/>
<path d="M41.3,21.7L38.8,19c-0.2-0.2-0.5-0.2-0.7,0c0,0,0,0,0,0l-0.6,0.6l-0.5,0.6c-0.1,0.1-0.1,0.1-0.2,0.2
	c-0.6,0.6-0.7,0.6-0.7,0.6c-0.5,0.2-1.2,0.1-1.6-0.3c-0.5-0.5-1.1-1-1.6-1.6s-1-1.1-1.5-1.7C31,17,30.9,16.5,31,16
	c0.1-0.2,0.2-0.5,0.3-0.6c0.1-0.2,0.2-0.3,0.3-0.5c0.1-0.1,0.1-0.2,0.2-0.2l1.1-1.2c0.2-0.2,0.2-0.6,0-0.8l-2.6-2.8
	c-0.2-0.2-0.5-0.2-0.7,0c0,0,0,0,0,0c-0.8,0.7-1.6,1.6-2.2,2.5c-0.4,0.9-0.4,1.8-0.2,2.8c0.1,0.6,0.3,1.2,0.6,1.8
	c0.4,0.8,0.8,1.6,1.3,2.3c0.5,0.7,1,1.4,1.6,2c0.6,0.6,1.2,1.2,1.8,1.7c0.7,0.6,1.4,1.1,2.1,1.5c0.7,0.4,1.4,0.6,2.1,0.7
	c0.6,0.1,1.2,0.1,1.8-0.1c0.4-0.2,0.8-0.5,1.1-0.9l1-1l0.4-0.4C41.5,22.4,41.5,22,41.3,21.7z"/>
<path d="M49.3,13.7L46.8,11c-0.2-0.2-0.5-0.2-0.7,0c0,0,0,0,0,0l-0.6,0.6l-0.5,0.6c-0.1,0.1-0.1,0.1-0.2,0.2
	c-0.6,0.6-0.7,0.6-0.7,0.6c-0.5,0.2-1.2,0.1-1.6-0.3c-0.5-0.5-1.1-1-1.6-1.6s-1-1.1-1.5-1.7C39,9,38.9,8.5,39,8
	c0.1-0.2,0.2-0.5,0.3-0.6c0.1-0.2,0.2-0.3,0.3-0.5c0.1-0.1,0.1-0.2,0.2-0.2l1.1-1.2c0.2-0.2,0.2-0.6,0-0.8l-2.6-2.8
	c-0.2-0.2-0.5-0.2-0.7,0c0,0,0,0,0,0c-0.8,0.7-1.6,1.5-2.2,2.5c-0.4,0.9-0.4,1.8-0.2,2.8c0.1,0.6,0.3,1.2,0.6,1.8
	c0.4,0.8,0.8,1.6,1.3,2.3c0.5,0.7,1,1.4,1.6,2c0.6,0.6,1.2,1.2,1.8,1.7c0.7,0.6,1.4,1.1,2.1,1.5c0.7,0.4,1.4,0.6,2.1,0.7
	c0.6,0.1,1.2,0.1,1.8-0.1c0.4-0.2,0.8-0.5,1.2-0.9l1-1l0.4-0.4C49.5,14.4,49.5,14,49.3,13.7z"/>
</svg>
