<?xml version="1.0" encoding="utf-8"?>
<!-- Generator: Adobe Illustrator 21.1.0, SVG Export Plug-In . SVG Version: 6.00 Build 0)  -->
<svg version="1.1" id="Слой_103" xmlns="http://www.w3.org/2000/svg" xmlns:xlink="http://www.w3.org/1999/xlink" x="0px"
	 y="0px" viewBox="0 0 52 52" style="enable-background:new 0 0 52 52;" xml:space="preserve">
<style type="text/css">
	.st0{fill:none;stroke:#000000;stroke-width:2;stroke-linecap:round;stroke-linejoin:round;}
</style>
<title>Izmeryayemyye pokazateli</title>
<polygon class="st0" points="28.2,16.1 40.7,3.6 48.4,11.2 35.9,23.8 23.8,35.9 11.2,48.4 3.6,40.7 16.1,28.2 "/>
<line class="st0" x1="37.3" y1="7.1" x2="39.3" y2="9.1"/>
<line class="st0" x1="34.2" y1="10.1" x2="38.1" y2="13.9"/>
<line class="st0" x1="31.2" y1="13.1" x2="33.3" y2="15.2"/>
<line class="st0" x1="25.2" y1="19.1" x2="27.3" y2="21.2"/>
<line class="st0" x1="22.2" y1="22.2" x2="26" y2="26"/>
<line class="st0" x1="19.1" y1="25.2" x2="21.2" y2="27.3"/>
<line class="st0" x1="28.2" y1="16.1" x2="32" y2="20"/>
<line class="st0" x1="16.1" y1="28.2" x2="20" y2="32"/>
<line class="st0" x1="13.1" y1="31.2" x2="15.2" y2="33.3"/>
<line class="st0" x1="10.1" y1="34.2" x2="13.9" y2="38.1"/>
<line class="st0" x1="7.1" y1="37.2" x2="9.1" y2="39.3"/>
</svg>
