<?xml version="1.0" encoding="utf-8"?>
<!-- Generator: Adobe Illustrator 21.1.0, SVG Export Plug-In . SVG Version: 6.00 Build 0)  -->
<svg version="1.1" id="Слой_333" xmlns="http://www.w3.org/2000/svg" xmlns:xlink="http://www.w3.org/1999/xlink" x="0px"
	 y="0px" viewBox="0 0 52 52" style="enable-background:new 0 0 52 52;" xml:space="preserve">
<style type="text/css">
	.st0{fill:#2C2A29;}
	.st1{fill:none;stroke:#000000;stroke-width:2;stroke-miterlimit:10;}
	.st2{fill:none;stroke:#000000;stroke-width:2;stroke-linecap:round;stroke-linejoin:round;}
</style>
<title>Skorost Interneta do 1 Mbits</title>
<path d="M11.7,47.8H6.2c-0.5,0-0.9-0.4-0.9-0.9c0-0.5,0.4-0.9,0.9-0.9h2.4v-7.5l-2.3,1.6c-0.4,0.2-0.9,0.1-1.2-0.3
	C4.9,39.5,5,39,5.4,38.7L9,36.3c0.2-0.1,0.3-0.2,0.5-0.2c0.5,0,0.9,0.4,0.9,0.9v9h1.3c0.5,0,0.9,0.4,0.9,0.9
	C12.6,47.4,12.2,47.8,11.7,47.8L11.7,47.8L11.7,47.8z"/>
<path d="M36.7,48.4c-0.2,0.4-0.6,0.6-1,0.5c-0.4-0.1-0.7-0.6-0.5-1l3.9-12.2c0.1-0.4,0.6-0.7,1-0.5c0,0,0,0,0,0
	c0.4,0.2,0.6,0.6,0.5,1L36.7,48.4z"/>
<path d="M46.1,41.3c-0.4-0.2-0.8-0.3-1.3-0.3c-1,0-1.6,0.8-1.6,2v1.4c0,1.2,0.5,2,1.6,2c0.5,0,0.9-0.1,1.3-0.3
	c0.3-0.2,0.7,0,0.9,0.3c0,0,0,0.1,0,0.1c0.2,0.3,0,0.8-0.3,0.9c-0.6,0.3-1.3,0.5-2,0.5c-2.3,0-3.2-1.5-3.2-3.5v-1.1
	c0-2,1.1-3.6,3.2-3.6c0.7,0,1.4,0.1,2,0.5c0.3,0.2,0.5,0.6,0.3,0.9c0,0,0,0,0,0C46.8,41.4,46.4,41.5,46.1,41.3z"/>
<path class="st0" d="M25.3,23c-0.1,0-0.2,0-0.3,0l-12.8,1.1c-0.4,0-0.7,0.3-0.7,0.7c0,0.4,0.2,0.7,0.6,0.8l12.5,2.8
	c0.1,0,0.2,0,0.3,0h0.3c1.1,0.1,2.2-0.6,2.7-1.7c0.1-0.3,0.2-0.6,0.2-0.9c0.1-0.7-0.2-1.4-0.6-2c-0.5-0.5-1.1-0.9-1.8-0.9L25.3,23z"
	/>
<path class="st1" d="M2,28C2,14.7,12.8,4,26,4c13.2,0,24,10.7,24,24"/>
<line class="st2" x1="2" y1="27.9" x2="7.8" y2="27.9"/>
<line class="st2" x1="26" y1="4" x2="26" y2="9.8"/>
<line class="st2" x1="9.4" y1="11.9" x2="13.5" y2="16"/>
<line class="st2" x1="42.5" y1="11.9" x2="38.5" y2="16"/>
<line class="st2" x1="50" y1="28" x2="44.2" y2="28"/>
<path d="M25.2,47.9c-0.5,0-0.8-0.4-0.8-0.8V40l-2.6,5.4c-0.1,0.3-0.5,0.5-0.8,0.5c-0.4,0-0.7-0.2-0.8-0.5L17.6,40v7.1
	c0,0.5-0.4,0.8-0.8,0.8c-0.5,0-0.8-0.4-0.8-0.8V36.8c0-0.5,0.5-0.9,1-0.8c0.3,0,0.6,0.2,0.8,0.5l3.3,6.9l3.4-7
	c0.2-0.4,0.8-0.6,1.3-0.4c0.3,0.1,0.4,0.4,0.5,0.7v10.3C26.1,47.5,25.7,47.9,25.2,47.9z"/>
<path d="M32.6,42.9c0-0.5-0.1-1-0.4-1.3c-0.3-0.3-0.7-0.4-1.1-0.4c-0.4,0-0.9,0.1-1.2,0.4c-0.3,0.4-0.4,0.9-0.4,1.3v1.7
	c0,0.5,0.1,1,0.4,1.4c0.3,0.3,0.7,0.4,1.1,0.4c0.4,0,0.8-0.1,1.1-0.4c0.3-0.4,0.4-0.8,0.4-1.3L32.6,42.9L32.6,42.9z M27.7,44.5v-3.1
	c0-2.6,1.2-3.3,2.8-4c0.5-0.2,1.2-0.6,1.2-1.2v-0.5c0-0.5,0.4-0.9,0.9-0.9s0.9,0.4,0.9,0.9v0.5c0,2.1-1.7,2.3-3.1,3.1
	c-0.2,0.1-0.4,0.3-0.5,0.6c0.3-0.3,0.7-0.4,1.1-0.4c1.7-0.1,3.2,1.1,3.3,2.8c0,0.2,0,0.4,0,0.6v1.7c0.2,1.7-1.1,3.2-2.8,3.4
	c-0.2,0-0.4,0-0.6,0c-1.7,0.2-3.2-1.1-3.4-2.8C27.7,44.9,27.7,44.7,27.7,44.5z"/>
</svg>
