<?xml version="1.0" encoding="utf-8"?>
<!-- Generator: Adobe Illustrator 21.1.0, SVG Export Plug-In . SVG Version: 6.00 Build 0)  -->
<svg version="1.1" id="Слой_154" xmlns="http://www.w3.org/2000/svg" xmlns:xlink="http://www.w3.org/1999/xlink" x="0px"
	 y="0px" viewBox="0 0 52 52" style="enable-background:new 0 0 52 52;" xml:space="preserve">
<style type="text/css">
	.st0{fill:none;stroke:#000000;stroke-width:2;stroke-linecap:round;stroke-linejoin:round;}
	.st1{fill:none;stroke:#000000;stroke-width:2;stroke-miterlimit:10;}
</style>
<title>Dostup po parolyu</title>
<rect x="32.3" y="36" transform="matrix(0.7071 -0.7071 0.7071 0.7071 -18.2198 37.1393)" class="st0" width="6.8" height="9.1"/>
<line class="st0" x1="38.1" y1="38.1" x2="35.7" y2="40.6"/>
<line class="st0" x1="22.8" y1="22.8" x2="44.6" y2="44.6"/>
<ellipse transform="matrix(0.7071 -0.7071 0.7071 0.7071 -6.2546 15.0929)" class="st0" cx="15.1" cy="15.1" rx="10.9" ry="10.9"/>
<line class="st1" x1="14.7" y1="9.8" x2="14.7" y2="15.2"/>
<line class="st0" x1="14.7" y1="9.8" x2="14.7" y2="15.2"/>
<line class="st1" x1="9.6" y1="13.6" x2="14.7" y2="15.2"/>
<line class="st0" x1="9.6" y1="13.6" x2="14.7" y2="15.2"/>
<line class="st1" x1="19.9" y1="13.6" x2="14.7" y2="15.2"/>
<line class="st0" x1="19.9" y1="13.6" x2="14.7" y2="15.2"/>
<line class="st1" x1="17.9" y1="19.6" x2="14.7" y2="15.2"/>
<line class="st0" x1="17.9" y1="19.6" x2="14.7" y2="15.2"/>
<line class="st1" x1="11.5" y1="19.6" x2="14.7" y2="15.2"/>
<line class="st0" x1="11.5" y1="19.6" x2="14.7" y2="15.2"/>
</svg>
