<?xml version="1.0" encoding="utf-8"?>
<!-- Generator: Adobe Illustrator 21.1.0, SVG Export Plug-In . SVG Version: 6.00 Build 0)  -->
<svg version="1.1" id="Слой_240" xmlns="http://www.w3.org/2000/svg" xmlns:xlink="http://www.w3.org/1999/xlink" x="0px"
	 y="0px" viewBox="0 0 52 52" style="enable-background:new 0 0 52 52;" xml:space="preserve">
<style type="text/css">
	.st0{fill:none;stroke:#000000;stroke-width:2;stroke-linecap:round;stroke-linejoin:round;}
</style>
<title>Novyy nomer</title>
<path class="st0" d="M45.7,21.3v15.3c0,0.8-0.6,1.4-1.4,1.4H24.7c-0.8,0-1.4-0.6-1.4-1.4c0,0,0,0,0,0V21.3"/>
<rect x="22.2" y="17" class="st0" width="24.5" height="4.3"/>
<path class="st0" d="M27.9,10.8c5.1,0,6.6,6.2,6.6,6.2h-6.6C22.7,17,22.8,10.8,27.9,10.8z"/>
<path class="st0" d="M41.1,10.8c-5.1,0-6.6,6.2-6.6,6.2h6.6C46.3,17,46.2,10.8,41.1,10.8z"/>
<line class="st0" x1="34.5" y1="9" x2="34.5" y2="38"/>
<circle class="st0" cx="10.7" cy="21.2" r="4.1"/>
<circle class="st0" cx="10.7" cy="30.6" r="5.3"/>
</svg>
