<?xml version="1.0" encoding="utf-8"?>
<!-- Generator: Adobe Illustrator 21.1.0, SVG Export Plug-In . SVG Version: 6.00 Build 0)  -->
<svg version="1.1" id="Слой_257" xmlns="http://www.w3.org/2000/svg" xmlns:xlink="http://www.w3.org/1999/xlink" x="0px"
	 y="0px" viewBox="0 0 52 52" style="enable-background:new 0 0 52 52;" xml:space="preserve">
<style type="text/css">
	.st0{fill:none;stroke:#000000;stroke-width:2;stroke-linecap:round;stroke-linejoin:round;}
</style>
<title>Konferents svyaz</title>
<polyline class="st0" points="26.4,35.7 23.5,40.7 15.2,35.9 18.1,30.9 "/>
<ellipse transform="matrix(0.4994 -0.8664 0.8664 0.4994 -28.9305 31.9006)" class="st0" cx="13.1" cy="41" rx="1.2" ry="1.2"/>
<ellipse transform="matrix(0.4997 -0.8662 0.8662 0.4997 -28.9236 35.9391)" class="st0" cx="16.6" cy="43" rx="1.2" ry="1.2"/>
<path class="st0" d="M21.2,45.6c-0.3,0.6-1.1,0.8-1.6,0.4c-0.6-0.3-0.8-1.1-0.4-1.6c0.3-0.6,1.1-0.8,1.6-0.4
	C21.3,44.3,21.5,45.1,21.2,45.6C21.2,45.6,21.2,45.6,21.2,45.6z"/>
<line class="st0" x1="35.1" y1="39.6" x2="37" y2="42.9"/>
<line class="st0" x1="34.7" y1="11.8" x2="36.6" y2="8.5"/>
<line class="st0" x1="6.4" y1="25.2" x2="10.2" y2="25.2"/>
<path class="st0" d="M2.9,29.1c6.8-0.9,13.6,0.4,19.6,3.8c5.9,3.5,10.4,8.8,13.1,15.1c2.1-0.8,4-2,5.8-3.4
	c-2.6-5.9-3.9-12.3-3.8-18.7c0-6.4,1.3-12.8,3.8-18.6c-0.9-0.7-1.9-1.4-2.9-2c-1-0.6-2.1-1.1-3.2-1.5c-3.9,5.1-8.7,9.3-14.2,12.6
	c-5.6,3.1-11.8,5.2-18.2,6.1C2.6,24.7,2.6,26.9,2.9,29.1z"/>
<path class="st0" d="M30.4,19.2c-2.7-1.6-6.2-0.6-7.8,2.1c-1.6,2.7-0.6,6.2,2.1,7.8c2.7,1.6,6.2,0.6,7.8-2.1
	C34.1,24.3,33.1,20.8,30.4,19.2C30.4,19.3,30.4,19.2,30.4,19.2z"/>
<path class="st0" d="M2.9,29.1c6.8-0.9,13.6,0.4,19.6,3.8c5.9,3.5,10.4,8.8,13.1,15.1c2.1-0.8,4-2,5.8-3.4
	c-2.6-5.9-3.9-12.3-3.8-18.7c0-6.4,1.3-12.8,3.8-18.6c-0.9-0.7-1.9-1.4-2.9-2c-1-0.6-2.1-1.1-3.2-1.5c-3.9,5.1-8.7,9.3-14.2,12.6
	c-5.6,3.1-11.8,5.2-18.2,6.1C2.6,24.7,2.6,26.9,2.9,29.1z"/>
<path class="st0" d="M29.2,38.4l-6.1,10.5c-0.7,1.3-2.3,1.7-3.6,1c0,0,0,0,0,0L9.3,44c-1.3-0.7-1.7-2.3-1-3.6c0,0,0,0,0,0l6.1-10.5"
	/>
</svg>
