<?xml version="1.0" encoding="utf-8"?>
<!-- Generator: Adobe Illustrator 21.1.0, SVG Export Plug-In . SVG Version: 6.00 Build 0)  -->
<svg version="1.1" id="Слой_362" xmlns="http://www.w3.org/2000/svg" xmlns:xlink="http://www.w3.org/1999/xlink" x="0px"
	 y="0px" viewBox="0 0 52 52" style="enable-background:new 0 0 52 52;" xml:space="preserve">
<style type="text/css">
	.st0{fill:none;stroke:#000000;stroke-width:2;stroke-miterlimit:10;}
	.st1{fill:none;stroke:#000000;stroke-width:2;stroke-linecap:round;stroke-linejoin:round;}
</style>
<title>Direktorskiy kontrol</title>
<path class="st0" d="M30.9,8.1l-1.1,4.3c-0.4,1-1.5,1.7-2.6,1.6H25c-1.1,0.1-2.1-0.5-2.6-1.6l-1.3-4.3c-0.4-1.2,0.9-2.4,2.6-2.4h4.5
	C29.9,5.8,31.1,6.9,30.9,8.1z"/>
<path class="st0" d="M27.7,13.9h-3.2c-0.7,0-1.3,0.5-1.5,1.2l-5.8,26.1c-0.1,0.6,0.1,1.2,0.6,1.5l7.1,5.1c0.6,0.4,1.4,0.4,2.1,0
	l7.2-5.1c0.5-0.3,0.7-0.9,0.6-1.5l-5.7-26.1C29,14.4,28.4,13.9,27.7,13.9z"/>
<path class="st1" d="M8.7,3c0,0.7,3.7,8.8,3.7,8.8l13.7-8.2l13,8.2l4.2-9"/>
</svg>
