<?xml version="1.0" encoding="utf-8"?>
<!-- Generator: Adobe Illustrator 21.1.0, SVG Export Plug-In . SVG Version: 6.00 Build 0)  -->
<svg version="1.1" id="Слой_193" xmlns="http://www.w3.org/2000/svg" xmlns:xlink="http://www.w3.org/1999/xlink" x="0px"
	 y="0px" viewBox="0 0 52 52" style="enable-background:new 0 0 52 52;" xml:space="preserve">
<style type="text/css">
	.st0{fill:none;stroke:#000000;stroke-width:2;stroke-linecap:round;stroke-linejoin:round;}
</style>
<title>SMS</title>
<polyline class="st0" points="28,28.6 24.2,32.9 24.2,28.6 "/>
<path class="st0" d="M24.2,28.6h-6.5c-0.5,0-1-0.4-1-1v-8.8c0-0.5,0.4-1,1-1H34c0.5,0,1,0.4,1,1v8.8c0,0.5-0.4,1-1,1h-6"/>
<path class="st0" d="M15.2,2.6h21.6c1.2,0,2.2,1,2.2,2.2v42.3c0,1.2-1,2.2-2.2,2.2H15.2c-1.2,0-2.2-1-2.2-2.2V4.8
	C13,3.6,14,2.6,15.2,2.6z"/>
<line class="st0" x1="39" y1="40.7" x2="13" y2="40.7"/>
<line class="st0" x1="39" y1="9.6" x2="13" y2="9.6"/>
<line class="st0" x1="34.7" y1="45" x2="29.5" y2="45"/>
<line class="st0" x1="22.5" y1="45" x2="17.3" y2="45"/>
</svg>
