<?xml version="1.0" encoding="utf-8"?>
<!-- Generator: Adobe Illustrator 21.1.0, SVG Export Plug-In . SVG Version: 6.00 Build 0)  -->
<svg version="1.1" id="Слой_197" xmlns="http://www.w3.org/2000/svg" xmlns:xlink="http://www.w3.org/1999/xlink" x="0px"
	 y="0px" viewBox="0 0 52 52" style="enable-background:new 0 0 52 52;" xml:space="preserve">
<style type="text/css">
	.st0{fill:none;stroke:#000000;stroke-width:2;stroke-linecap:round;stroke-linejoin:round;stroke-miterlimit:10;}
</style>
<title>Golosovoye soobshcheniye</title>
<path class="st0" d="M30.5,40.5v7.7c0,1.3-1,2.3-2.3,2.3H5.6c-1.3,0-2.3-1-2.3-2.3V3.8c0-1.3,1-2.3,2.3-2.3h22.6
	c1.3,0,2.3,1,2.3,2.3v11.6"/>
<line class="st0" x1="30.5" y1="41.4" x2="3.3" y2="41.4"/>
<line class="st0" x1="30.5" y1="8.8" x2="3.3" y2="8.8"/>
<line class="st0" x1="26" y1="46" x2="20.5" y2="46"/>
<line class="st0" x1="13.3" y1="46" x2="7.8" y2="46"/>
<path class="st0" d="M36.9,34.2l-6.4,7.2l0-7.3H19.4c-0.9,0-1.6-0.7-1.6-1.6l0,0v-15c0-0.9,0.7-1.6,1.6-1.6h27.7
	c0.9,0,1.6,0.7,1.6,1.6v15c0,0.9-0.7,1.6-1.6,1.6L36.9,34.2z"/>
<line class="st0" x1="22.5" y1="21.4" x2="33.1" y2="21.4"/>
<line class="st0" x1="22.5" y1="25" x2="43.8" y2="25"/>
<line class="st0" x1="22.5" y1="28.7" x2="43.8" y2="28.7"/>
</svg>
