<?xml version="1.0" encoding="utf-8"?>
<!-- Generator: Adobe Illustrator 21.1.0, SVG Export Plug-In . SVG Version: 6.00 Build 0)  -->
<svg version="1.1" id="Слой_191" xmlns="http://www.w3.org/2000/svg" xmlns:xlink="http://www.w3.org/1999/xlink" x="0px"
	 y="0px" viewBox="0 0 52 52" style="enable-background:new 0 0 52 52;" xml:space="preserve">
<style type="text/css">
	.st0{fill:none;stroke:#000000;stroke-width:2;stroke-linecap:round;stroke-miterlimit:10;}
</style>
<title>Summa avansa</title>
<path class="st0" d="M31.2,29.8v17.7c0,1.2-1,2.2-2.2,2.2H7.1c-1.2,0-2.2-1-2.2-2.2v-43c0-1.2,1-2.2,2.2-2.2H29c1.2,0,2.2,1,2.2,2.2
	v16"/>
<line class="st0" x1="31.2" y1="40.9" x2="4.9" y2="40.9"/>
<line class="st0" x1="31.2" y1="9.3" x2="4.9" y2="9.3"/>
<line class="st0" x1="26.8" y1="45.3" x2="21.6" y2="45.3"/>
<line class="st0" x1="14.5" y1="45.3" x2="9.3" y2="45.3"/>
<line class="st0" x1="34.7" y1="29.8" x2="42.4" y2="29.8"/>
<path class="st0" d="M14.5,25.1h27.8c3.2,0,4.8-1.9,4.8-3.9v-2.1c0-1.2-1.3-3.7-4.8-3.7H37v17.6"/>
<polyline class="st0" points="21.6,18.1 14.5,25.1 21.6,32.1 "/>
</svg>
