<?xml version="1.0" encoding="utf-8"?>
<!-- Generator: Adobe Illustrator 21.1.0, SVG Export Plug-In . SVG Version: 6.00 Build 0)  -->
<svg version="1.1" id="Слой_232" xmlns="http://www.w3.org/2000/svg" xmlns:xlink="http://www.w3.org/1999/xlink" x="0px"
	 y="0px" viewBox="0 0 52 52" style="enable-background:new 0 0 52 52;" xml:space="preserve">
<style type="text/css">
	.st0{fill:none;stroke:#000000;stroke-width:2;stroke-linecap:round;stroke-linejoin:round;}
</style>
<title>Virtualnaya ATS</title>
<path class="st0" d="M42.9,32.1c3.7,0,6.7-3.4,6.7-7.6s-3-7.6-6.7-7.6l0,0c-0.4-4.3-3.6-7.6-7.6-7.6c-1.8,0-3.5,0.7-4.8,1.9
	C29.1,5.8,24.8,2,19.5,2C12.9,2,7.4,7.7,7.4,15.1c0,0.7,0,1.4,0.2,2.1c-3.2,1-5.3,4-5.2,7.4c0,4.2,3,7.6,6.7,7.6"/>
<path class="st0" d="M13.9,18.3h4.6c1,0,1.8,0.8,1.8,1.8v23.4c0,1-0.8,1.8-1.8,1.8h-4.6c-1,0-1.8-0.8-1.8-1.8V20
	C12.1,19,12.9,18.3,13.9,18.3z"/>
<path class="st0" d="M25.3,18.3h12.8c1,0,1.8,0.8,1.8,1.8v23.4c0,1-0.8,1.8-1.8,1.8H25.3c-1,0-1.8-0.8-1.8-1.8V20
	C23.6,19,24.3,18.3,25.3,18.3z"/>
<rect x="27.2" y="22.3" class="st0" width="9" height="4.1"/>
<path class="st0" d="M26,45.2c0,2.7-2.2,4.9-4.9,4.9c-2.7,0-4.9-2.2-4.9-4.9"/>
<circle cx="27.6" cy="41.4" r="0.9"/>
<circle cx="31.6" cy="41.4" r="0.9"/>
<circle cx="35.6" cy="41.4" r="0.9"/>
<circle cx="27.6" cy="37.4" r="0.9"/>
<circle cx="31.6" cy="37.4" r="0.9"/>
<circle cx="35.6" cy="37.4" r="0.9"/>
<circle cx="27.6" cy="33.4" r="0.9"/>
<circle cx="31.6" cy="33.4" r="0.9"/>
<circle cx="35.6" cy="33.4" r="0.9"/>
</svg>
