<?xml version="1.0" encoding="utf-8"?>
<!-- Generator: Adobe Illustrator 21.1.0, SVG Export Plug-In . SVG Version: 6.00 Build 0)  -->
<svg version="1.1" id="Слой_305" xmlns="http://www.w3.org/2000/svg" xmlns:xlink="http://www.w3.org/1999/xlink" x="0px"
	 y="0px" viewBox="0 0 52 52" style="enable-background:new 0 0 52 52;" xml:space="preserve">
<style type="text/css">
	.st0{fill:none;stroke:#000000;stroke-width:2;stroke-linecap:round;stroke-linejoin:round;stroke-miterlimit:10;}
</style>
<title>Bilety</title>
<path class="st0" d="M49.7,31.6h-0.8c-1.3,0.1-2.7-0.5-3.5-1.5c-2.3-2.1-2.4-5.7-0.3-7.9c0.1-0.1,0.2-0.2,0.3-0.3
	c0.9-1,2.2-1.6,3.5-1.5h0.8v-8.7H2.3v8.7h0.8c1.3-0.1,2.7,0.5,3.5,1.5C8.9,24,9,27.6,6.9,29.8c-0.1,0.1-0.2,0.2-0.3,0.3
	c-0.9,1-2.2,1.6-3.5,1.5H2.3v8.7h47.4V31.6z"/>
<line class="st0" x1="32.6" y1="11.7" x2="32.6" y2="15.8"/>
<line class="st0" x1="32.6" y1="19.8" x2="32.6" y2="24"/>
<line class="st0" x1="32.6" y1="28" x2="32.6" y2="32.2"/>
<line class="st0" x1="32.6" y1="36.2" x2="32.6" y2="40.3"/>
</svg>
