<?xml version="1.0" encoding="utf-8"?>
<!-- Generator: Adobe Illustrator 21.1.0, SVG Export Plug-In . SVG Version: 6.00 Build 0)  -->
<svg version="1.1" id="Слой_385" xmlns="http://www.w3.org/2000/svg" xmlns:xlink="http://www.w3.org/1999/xlink" x="0px"
	 y="0px" viewBox="0 0 52 52" style="enable-background:new 0 0 52 52;" xml:space="preserve">
<style type="text/css">
	.st0{fill:none;stroke:#000000;stroke-width:2;stroke-miterlimit:10;}
	.st1{fill:none;stroke:#000000;stroke-width:2;stroke-linecap:round;stroke-linejoin:round;stroke-miterlimit:10;}
</style>
<title>Tarif Sotsialnyy_Drugiye tarify</title>
<path class="st0" d="M40.9,26c0,10.5-8.5,19.1-19.1,19.1C11.3,45.1,2.7,36.6,2.7,26c0-10.5,8.5-19.1,19.1-19.1c0,0,0,0,0,0
	C32.4,6.9,40.9,15.5,40.9,26z"/>
<ellipse class="st0" cx="21.8" cy="26" rx="10.5" ry="19.1"/>
<line class="st0" x1="21.8" y1="6.9" x2="21.8" y2="45.1"/>
<line class="st0" x1="2.7" y1="26.3" x2="40.9" y2="26.3"/>
<line class="st0" x1="5.7" y1="16.4" x2="37.7" y2="16.4"/>
<line class="st0" x1="6.2" y1="36.1" x2="37.7" y2="36.1"/>
<line class="st1" x1="49.6" y1="43.3" x2="39.1" y2="43.3"/>
<line class="st1" x1="44.4" y1="48.6" x2="44.4" y2="38.1"/>
</svg>
