<?xml version="1.0" encoding="utf-8"?>
<!-- Generator: Adobe Illustrator 21.1.0, SVG Export Plug-In . SVG Version: 6.00 Build 0)  -->
<svg version="1.1" id="Слой_280" xmlns="http://www.w3.org/2000/svg" xmlns:xlink="http://www.w3.org/1999/xlink" x="0px"
	 y="0px" viewBox="0 0 52 52" style="enable-background:new 0 0 52 52;" xml:space="preserve">
<style type="text/css">
	.st0{fill:none;stroke:#000000;stroke-width:2;stroke-linecap:round;stroke-linejoin:round;stroke-miterlimit:10;}
	.st1{fill:none;stroke:#000000;stroke-width:2;stroke-miterlimit:10;}
</style>
<title>Peredacha vyzova_usluga Sekretar</title>
<line class="st0" x1="49.4" y1="26.4" x2="31.2" y2="26.4"/>
<polyline class="st0" points="26.7,11 31.2,15.6 26.7,20.1 "/>
<path class="st0" d="M31.2,15.6h-4.5c-3,0-5.4,2.4-5.4,5.4s2.4,5.4,5.4,5.4h4.5"/>
<path class="st0" d="M34.3,26.4h-4.4v-3.3c0.1-1.2,0.7-2.2,1.8-2.8l6.2-2.7c1.1-0.4,2.4-0.4,3.6,0l6.2,2.7c1,0.5,1.7,1.6,1.8,2.7
	v3.4H34.3z"/>
<path class="st0" d="M39.5,7.3h0.2c1.9,0,3.5,1.6,3.5,3.5v2.5c0,1.9-1.6,3.5-3.5,3.5h-0.2c-1.9,0-3.5-1.6-3.5-3.5v-2.5
	C36,8.8,37.6,7.3,39.5,7.3z"/>
<path class="st0" d="M43.3,18.5l-1.8,0.8c-1.2,0.5-2.5,0.5-3.7,0L36,18.5"/>
<path class="st1" d="M43.5,38.4l-7.3-7.9c-0.5-0.6-1.4-0.6-2-0.1c0,0,0,0-0.1,0.1l-1.6,1.7L31,33.8c-0.2,0.2-0.4,0.4-0.6,0.5
	c-1.7,1.7-2.1,1.7-2.1,1.7c-1.6,0.6-3.4,0.3-4.6-0.8c-1.5-1.4-3-2.9-4.4-4.5c-1.4-1.5-2.8-3.1-4.1-4.8c-0.9-1.1-1.2-2.6-0.9-4
	c0.2-0.7,0.4-1.3,0.8-1.8c0.4-0.4,0.7-0.9,1-1.4c0.1-0.2,0.3-0.4,0.5-0.6l3.1-3.3c0.6-0.6,0.6-1.6,0-2.2l-7.3-7.8
	c-0.5-0.6-1.4-0.6-2,0c0,0,0,0,0,0c-2.1,2.2-4.7,4.3-6.2,7c-1.2,2.3-1,5.3-0.5,7.8c0.3,1.8,0.9,3.5,1.6,5.2c1.1,2.3,2.3,4.4,3.8,6.5
	c1.4,2,2.9,3.9,4.6,5.6c1.6,1.8,3.4,3.5,5.2,5c1.9,1.6,3.9,3,6,4.1c1.9,1,3.9,1.7,6,2c1.7,0.3,3.5,0.2,5.2-0.3
	c1.2-0.6,2.3-1.5,3.2-2.6c1-1,1.9-1.9,2.9-2.9l1.2-1.2C44.1,40.2,44.1,39.2,43.5,38.4z"/>
<line class="st1" x1="31.8" y1="33.1" x2="41" y2="43.1"/>
<line class="st1" x1="7.9" y1="7.5" x2="17.2" y2="17.5"/>
</svg>
