<?xml version="1.0" encoding="utf-8"?>
<!-- Generator: Adobe Illustrator 21.1.0, SVG Export Plug-In . SVG Version: 6.00 Build 0)  -->
<svg version="1.1" id="Слой_349" xmlns="http://www.w3.org/2000/svg" xmlns:xlink="http://www.w3.org/1999/xlink" x="0px"
	 y="0px" viewBox="0 0 52 52" style="enable-background:new 0 0 52 52;" xml:space="preserve">
<style type="text/css">
	.st0{fill:none;stroke:#000000;stroke-width:2;stroke-miterlimit:10;}
</style>
<title>Sportivnyy</title>
<path class="st0" d="M42,1.7c-3,0-5.6,2.1-6.9,4.5H16.9C15.5,3.8,13,1.7,10,1.7c-4.4,0-8,3.5-8,7.8c0,0.1,0,0.1,0,0.2
	c0,6.5,4.5,10.3,8.9,14.1c1.9,1.5,3.6,3.2,5.2,5c1.6,4.1,3.6,7.4,5.8,9.2c6.2,6.7-8.4,6.4-8.4,12.4h24.2c0-5.9-13.4-5.7-8-12
	c2.4-1.8,4.6-5.2,6.3-9.7c1.6-1.8,3.3-3.5,5.2-5c4.4-3.7,8.9-7.5,8.9-14c0-4.4-3.5-8-7.8-8C42.1,1.7,42.1,1.7,42,1.7z M12.9,19.1
	c-3.4-2.9-6.2-5.3-6.2-9.2c0-1.8,1.4-3.3,3.2-3.3c0.1,0,0.1,0,0.2,0c0.6,0,1.2,0.1,1.7,0.4c0,4.1,0.5,8.2,1.4,12.2L12.9,19.1
	L12.9,19.1z M39.1,19.1l-0.2,0.2c0.9-4,1.4-8.1,1.4-12.2c0.5-0.3,1.1-0.4,1.7-0.4c1.8,0,3.3,1.4,3.3,3.2c0,0.1,0,0.1,0,0.2
	C45.4,13.7,42.5,16.2,39.1,19.1z"/>
</svg>
