<?xml version="1.0" encoding="utf-8"?>
<!-- Generator: Adobe Illustrator 21.1.0, SVG Export Plug-In . SVG Version: 6.00 Build 0)  -->
<svg version="1.1" id="Слой_273" xmlns="http://www.w3.org/2000/svg" xmlns:xlink="http://www.w3.org/1999/xlink" x="0px"
	 y="0px" viewBox="0 0 52 52" style="enable-background:new 0 0 52 52;" xml:space="preserve">
<style type="text/css">
	.st0{fill:none;stroke:#000000;stroke-width:2;stroke-linecap:round;stroke-linejoin:round;}
</style>
<title>Napominaniye_1</title>
<path class="st0" d="M23.1,36c1.1,0.9,2.5,1.4,3.9,1.3c1.5-0.3,2.9-1,4.1-2l3.6-2.8c0.7-0.5,1.6-0.4,2.2,0.2l7.3,8
	c0.5,0.6,0.4,1.5-0.2,2c0,0,0,0,0,0c-2.2,1.9-4.7,4.4-7.6,5.6C34,49.3,31,48.7,28.5,48c-1.7-0.5-3.4-1.2-5-2.1
	c-2.2-1.2-4.3-2.7-6.2-4.4c-3.6-3.3-6.8-7.1-9.4-11.2c-1.3-2.2-2.4-4.5-3.3-6.8c-0.6-1.7-1-3.5-1.2-5.3c-0.3-2.6-0.3-5.6,1.2-7.8
	c1.7-2.6,4.6-4.6,6.9-6.5c0.6-0.5,1.5-0.5,2,0.1c0,0,0,0,0,0l6.6,8.6c0.5,0.7,0.4,1.6-0.2,2.2L16.6,18c-1.2,1-2.1,2.2-2.7,3.7
	c-0.4,1.4-0.2,2.9,0.6,4.1C17,29.5,19.9,32.9,23.1,36z"/>
<line class="st0" x1="8.8" y1="6.4" x2="17.3" y2="17.3"/>
<line class="st0" x1="41.2" y1="45.1" x2="32" y2="34.8"/>
<path class="st0" d="M43.9,26.7c0,0-0.9-4.9,0.9-8l3-5.2c1.7-2.9,0.7-6.7-2.2-8.3c-2.9-1.7-6.7-0.7-8.3,2.2l-3,5.2
	c-1.9,3.3-6.5,4.7-6.5,4.7L43.9,26.7"/>
<path class="st0" d="M46.8,6.1l0.4-0.7c0.4-0.7,0.2-1.7-0.6-2.1c-0.7-0.4-1.7-0.2-2.1,0.6l0,0l-0.4,0.7"/>
<path class="st0" d="M37.2,22.8l-0.4,0.6c-0.5,0.7-1.4,0.9-2.1,0.5c-0.7-0.4-0.9-1.3-0.5-2l0.3-0.6"/>
</svg>
