<?xml version="1.0" encoding="utf-8"?>
<!-- Generator: Adobe Illustrator 21.1.0, SVG Export Plug-In . SVG Version: 6.00 Build 0)  -->
<svg version="1.1" id="Слой_178" xmlns="http://www.w3.org/2000/svg" xmlns:xlink="http://www.w3.org/1999/xlink" x="0px"
	 y="0px" viewBox="0 0 52 52" style="enable-background:new 0 0 52 52;" xml:space="preserve">
<style type="text/css">
	.st0{fill:none;stroke:#000000;stroke-width:2;stroke-linecap:round;stroke-linejoin:round;}
</style>
<title>Korporativnoye TV</title>
<rect x="23.3" y="38.7" class="st0" width="5.4" height="7.3"/>
<path class="st0" d="M7,6h38.1c3,0,5.4,2.4,5.4,5.4v21.8c0,3-2.4,5.4-5.4,5.4H7c-3,0-5.4-2.4-5.4-5.4V11.5C1.5,8.5,3.9,6,7,6z"/>
<line class="st0" x1="13" y1="45.9" x2="39" y2="45.9"/>
<line class="st0" x1="24.9" y1="28.5" x2="26.9" y2="28.5"/>
<polyline class="st0" points="23.1,26.1 24.9,28.5 22.3,38.1 30.1,38.1 26.9,28.5 28.5,26.1 "/>
<path class="st0" d="M31.3,18.7c0,2.9-2.4,5.2-5.2,5.2h-0.3c-2.9,0-5.2-2.4-5.2-5.2v-3.8c0-2.9,2.4-5.2,5.2-5.2h0.3
	c2.9,0,5.2,2.3,5.2,5.2V18.7z"/>
<path class="st0" d="M40.6,37.8v-4.4c-0.1-1.7-1.1-3.3-2.7-4.1l-9.3-4.1c-1.7-0.7-3.6-0.7-5.3,0L14,29.3c-1.6,0.8-2.6,2.4-2.7,4.1
	v4.4L40.6,37.8L40.6,37.8z"/>
</svg>
