<?xml version="1.0" encoding="utf-8"?>
<!-- Generator: Adobe Illustrator 21.1.0, SVG Export Plug-In . SVG Version: 6.00 Build 0)  -->
<svg version="1.1" id="Слой_163" xmlns="http://www.w3.org/2000/svg" xmlns:xlink="http://www.w3.org/1999/xlink" x="0px"
	 y="0px" viewBox="0 0 53 53" style="enable-background:new 0 0 53 53;" xml:space="preserve">
<style type="text/css">
	.st0{fill:none;stroke:#000000;stroke-width:2;stroke-linecap:round;stroke-linejoin:round;}
</style>
<title>Tochnaya podstroyka</title>
<path class="st0" d="M50.4,20.7c-0.3-1.2-0.7-2.4-1.2-3.6c-0.5-1.2-1.1-2.3-1.7-3.4l-6,2c-1.2-1.7-2.6-3.1-4.3-4.3l2-6
	c-2.2-1.3-4.5-2.3-7-2.9l-2.8,5.7c-2-0.3-4.1-0.3-6.1,0l-2.8-5.6c-1.2,0.3-2.4,0.7-3.6,1.1c-1.2,0.5-2.3,1.1-3.4,1.7l2,6
	c-1.7,1.2-3.1,2.6-4.3,4.3l-6-2c-1.3,2.2-2.3,4.5-2.9,7l5.7,2.8c-0.3,2-0.3,4.1,0,6.1l-5.6,2.8c0.3,1.2,0.7,2.4,1.2,3.6
	c0.5,1.2,1.1,2.3,1.7,3.4l6-2c1.2,1.7,2.6,3.1,4.3,4.3l-2,6c2.2,1.3,4.5,2.3,7,2.9l2.8-5.7c2,0.3,4.1,0.3,6.1,0l2.8,5.6
	c1.2-0.3,2.4-0.7,3.6-1.2c1.2-0.5,2.3-1.1,3.4-1.7l-2-6c1.7-1.2,3.1-2.6,4.3-4.3l6,2c1.3-2.2,2.3-4.5,2.9-7l-5.6-2.8
	c0.3-2,0.3-4.1,0-6.1L50.4,20.7z"/>
<ellipse transform="matrix(0.9239 -0.3827 0.3827 0.9239 -8.1342 12.1697)" class="st0" cx="26.5" cy="26.5" rx="11.9" ry="11.9"/>
</svg>
