<?xml version="1.0" encoding="utf-8"?>
<!-- Generator: Adobe Illustrator 21.1.0, SVG Export Plug-In . SVG Version: 6.00 Build 0)  -->
<svg version="1.1" id="Слой_248" xmlns="http://www.w3.org/2000/svg" xmlns:xlink="http://www.w3.org/1999/xlink" x="0px"
	 y="0px" viewBox="0 0 52 52" style="enable-background:new 0 0 52 52;" xml:space="preserve">
<style type="text/css">
	.st0{fill:none;stroke:#000000;stroke-width:2;stroke-linecap:round;stroke-linejoin:round;}
</style>
<title>Mobilnyy perevod</title>
<path class="st0" d="M27.5,3.1h16.9c2.3,0,4.2,1.9,4.2,4.2v37.2c0,2.3-1.9,4.2-4.2,4.2H27.5"/>
<line class="st0" x1="28.7" y1="11.6" x2="48.7" y2="11.6"/>
<line class="st0" x1="28.7" y1="40.4" x2="48.7" y2="40.4"/>
<path d="M37.7,44.6c0,0.9-0.8,1.7-1.7,1.7s-1.7-0.8-1.7-1.7c0-0.9,0.8-1.7,1.7-1.7C36.9,42.9,37.7,43.7,37.7,44.6"/>
<path class="st0" d="M28.7,20.4V5.3c0-1.2-1-2.1-2.2-2.1l0,0H5.5c-1.2,0-2.1,1-2.1,2.1v41.4c0,1.2,1,2.2,2.1,2.2l0,0h21.1
	c1.2,0,2.2-1,2.2-2.1c0,0,0,0,0,0V31.6"/>
<line class="st0" x1="28.7" y1="40.4" x2="3.3" y2="40.4"/>
<line class="st0" x1="28.7" y1="9.9" x2="3.3" y2="9.9"/>
<line class="st0" x1="24.5" y1="44.6" x2="19.4" y2="44.6"/>
<line class="st0" x1="12.6" y1="44.6" x2="7.6" y2="44.6"/>
<line class="st0" x1="9.8" y1="30.2" x2="17.5" y2="30.2"/>
<path class="st0" d="M9.8,25.5h7.7c3.3,0,4.8-2,4.8-3.9v-2.1c0-1.2-1.3-3.7-4.8-3.7h-5.4v17.8"/>
<line class="st0" x1="26.5" y1="26" x2="42.6" y2="26"/>
<polyline class="st0" points="34.5,34.1 42.6,26 34.5,17.9 "/>
</svg>
