<?xml version="1.0" encoding="utf-8"?>
<!-- Generator: Adobe Illustrator 21.1.0, SVG Export Plug-In . SVG Version: 6.00 Build 0)  -->
<svg version="1.1" id="Слой_137" xmlns="http://www.w3.org/2000/svg" xmlns:xlink="http://www.w3.org/1999/xlink" x="0px"
	 y="0px" viewBox="0 0 52 52" style="enable-background:new 0 0 52 52;" xml:space="preserve">
<style type="text/css">
	.st0{fill:none;stroke:#000000;stroke-width:2;stroke-linecap:round;stroke-linejoin:round;}
</style>
<title>Uslugi po dostavke i distributsii kontenta</title>
<path class="st0" d="M39,8.3h-6.3c0,0,0,0,0,0v1.1c-0.1,1-0.9,1.8-1.9,1.8h-9.7c-1-0.1-1.8-0.9-1.9-1.9V8.4c0,0,0,0,0,0h-5.9
	c-1.7,0-3.2,1.3-3.3,3v33.5c0,0,0,0,0,0c0,1.8,1.5,3.3,3.3,3.3H39c1.7-0.2,3-1.6,3-3.3V11.3C41.9,9.7,40.6,8.4,39,8.3z"/>
<path class="st0" d="M27.9,5c0.4,1.1-0.1,2.4-1.1,3c-1.1,0.3-2.3-0.4-2.6-1.5c0,0,0,0,0,0c-0.4-1,0-2.1,0.9-2.5c0.1,0,0.1,0,0.2-0.1
	C26.3,3.6,27.4,4.1,27.9,5L27.9,5z"/>
<path class="st0" d="M30.8,6.5h-2.9c-0.2,0.6-0.6,1.2-1.2,1.5c-1.1,0.3-2.3-0.4-2.6-1.5c0,0,0,0,0,0c0,0,0,0,0,0h-3
	c-0.1,0-0.1,0-0.2,0c-1,0.1-1.7,0.9-1.6,1.9v1.1c0.1,1,0.9,1.8,1.9,1.9h9.7c1-0.1,1.8-0.8,1.9-1.8V8.4c0-0.1,0-0.1,0-0.2
	C32.6,7.2,31.8,6.5,30.8,6.5z"/>
<polyline class="st0" points="37.6,23.4 37.6,32.7 31.8,23.4 31.8,32.7 "/>
<path class="st0" d="M19.6,30.2v0.4c0,1.5-1.2,2.7-2.7,2.7h-0.1c-1.5,0-2.7-1.2-2.7-2.7v-5c0-1.5,1.2-2.7,2.7-2.7h0.1
	c1.5,0,2.7,1.2,2.7,2.7v0"/>
<path class="st0" d="M24.9,33.3h-2.3V22.8h2.3c1.8,0,3.3,1.5,3.3,3.3V30C28.3,31.8,26.8,33.3,24.9,33.3z"/>
</svg>
