<?xml version="1.0" encoding="utf-8"?>
<!-- Generator: Adobe Illustrator 21.1.0, SVG Export Plug-In . SVG Version: 6.00 Build 0)  -->
<svg version="1.1" id="Слой_115" xmlns="http://www.w3.org/2000/svg" xmlns:xlink="http://www.w3.org/1999/xlink" x="0px"
	 y="0px" viewBox="0 0 52 52" style="enable-background:new 0 0 52 52;" xml:space="preserve">
<style type="text/css">
	.st0{fill:none;stroke:#000000;stroke-width:2;stroke-linecap:round;stroke-linejoin:round;}
</style>
<title>Ispytatel&amp;apos;nyy srok</title>
<path class="st0" d="M6.1,8.8h39.7c1.6,0,2.8,1.3,2.8,2.8V44c0,1.6-1.3,2.8-2.8,2.8H6.1c-1.6,0-2.8-1.3-2.8-2.8V11.6
	C3.3,10,4.6,8.8,6.1,8.8z"/>
<line class="st0" x1="9.7" y1="16.9" x2="42.3" y2="16.9"/>
<line class="st0" x1="39.6" y1="5.1" x2="39.6" y2="12.4"/>
<line class="st0" x1="12.4" y1="5.1" x2="12.4" y2="12.4"/>
<line class="st0" x1="29.1" y1="28.4" x2="35.1" y2="34.4"/>
<line class="st0" x1="42.7" y1="21.1" x2="35.1" y2="34.4"/>
<polyline class="st0" points="41.4,32.4 41.4,39.6 25.1,39.6 25.1,23.3 35.7,23.3 "/>
<path d="M9.7,25.1c0-1,0.8-1.8,1.8-1.8c1,0,1.8,0.8,1.8,1.8c0,1-0.8,1.8-1.8,1.8C10.5,26.9,9.7,26.1,9.7,25.1L9.7,25.1"/>
<path d="M16,25.1c0-1,0.8-1.8,1.8-1.8s1.8,0.8,1.8,1.8c0,1-0.8,1.8-1.8,1.8C16.8,26.9,16,26.1,16,25.1C16,25.1,16,25.1,16,25.1"/>
<path d="M9.7,31.4c0-1,0.8-1.8,1.8-1.8s1.8,0.8,1.8,1.8c0,1-0.8,1.8-1.8,1.8S9.7,32.4,9.7,31.4L9.7,31.4"/>
<path d="M16,31.4c0-1,0.8-1.8,1.8-1.8c1,0,1.8,0.8,1.8,1.8c0,1-0.8,1.8-1.8,1.8S16,32.4,16,31.4L16,31.4"/>
<path d="M9.7,37.8c0-1,0.8-1.8,1.8-1.8s1.8,0.8,1.8,1.8c0,1-0.8,1.8-1.8,1.8S9.7,38.8,9.7,37.8L9.7,37.8"/>
</svg>
