<?xml version="1.0" encoding="utf-8"?>
<!-- Generator: Adobe Illustrator 21.1.0, SVG Export Plug-In . SVG Version: 6.00 Build 0)  -->
<svg version="1.1" id="Слой_231" xmlns="http://www.w3.org/2000/svg" xmlns:xlink="http://www.w3.org/1999/xlink" x="0px"
	 y="0px" viewBox="0 0 52 52" style="enable-background:new 0 0 52 52;" xml:space="preserve">
<style type="text/css">
	.st0{fill:none;stroke:#000000;stroke-width:2;stroke-linecap:round;stroke-linejoin:round;}
</style>
<title>Besplatnyy vyzov 8-800</title>
<g>
	<circle class="st0" cx="7.3" cy="22.3" r="3"/>
	<circle class="st0" cx="7.3" cy="29" r="3.7"/>
</g>
<g>
	<circle class="st0" cx="23.9" cy="22.3" r="3"/>
	<circle class="st0" cx="23.9" cy="29" r="3.7"/>
</g>
<line class="st0" x1="14.5" y1="27" x2="16.6" y2="27"/>
<path class="st0" d="M34.4,32.7L34.4,32.7c-1.9,0-3.5-1.6-3.5-3.5v-6.3c0-1.9,1.6-3.5,3.5-3.5h0c1.9,0,3.5,1.6,3.5,3.5v6.3
	C37.9,31.1,36.4,32.7,34.4,32.7z"/>
<path class="st0" d="M44.9,32.7L44.9,32.7c-1.9,0-3.5-1.6-3.5-3.5v-6.3c0-1.9,1.6-3.5,3.5-3.5h0c1.9,0,3.5,1.6,3.5,3.5v6.3
	C48.5,31.1,46.9,32.7,44.9,32.7z"/>
</svg>
