<?xml version="1.0" encoding="utf-8"?>
<!-- Generator: Adobe Illustrator 21.1.0, SVG Export Plug-In . SVG Version: 6.00 Build 0)  -->
<svg version="1.1" id="Слой_89" xmlns="http://www.w3.org/2000/svg" xmlns:xlink="http://www.w3.org/1999/xlink" x="0px"
	 y="0px" viewBox="0 0 52 52" style="enable-background:new 0 0 52 52;" xml:space="preserve">
<style type="text/css">
	.st0{fill:none;stroke:#000000;stroke-width:2;stroke-linecap:round;stroke-linejoin:round;}
</style>
<title>Stroitel&amp;apos;nyye uslugi</title>
<path class="st0" d="M46.8,44.6v-6.3c-0.1-2.5-1.6-4.7-3.8-5.8l-13.1-5.8c-2.5-0.9-5.2-0.9-7.6,0L9.1,32.5c-2.2,1.1-3.7,3.3-3.8,5.8
	v6.3h6.9l1.7,5.2h24.2l1.7-5.2L46.8,44.6z"/>
<line class="st0" x1="12.2" y1="44.6" x2="12.2" y2="31.1"/>
<line class="st0" x1="39.9" y1="31.2" x2="39.9" y2="44.6"/>
<polyline class="st0" points="35.5,29.4 35.5,36.8 16.5,36.8 16.5,29.3 "/>
<line class="st0" x1="33.8" y1="42" x2="18.2" y2="42"/>
<path class="st0" d="M33.6,12.2v5.4c0,4.1-3.3,7.4-7.4,7.4h-0.4c-4.1,0-7.4-3.3-7.4-7.5v-5.4"/>
<line class="st0" x1="14.8" y1="12.2" x2="37.2" y2="12.2"/>
<path class="st0" d="M35.5,12.2v-1c0-5-4-9-9-9h-1c-5,0-9,4-9,9v1"/>
</svg>
