<?xml version="1.0" encoding="utf-8"?>
<!-- Generator: Adobe Illustrator 21.1.0, SVG Export Plug-In . SVG Version: 6.00 Build 0)  -->
<svg version="1.1" id="Слой_262" xmlns="http://www.w3.org/2000/svg" xmlns:xlink="http://www.w3.org/1999/xlink" x="0px"
	 y="0px" viewBox="0 0 52 52" style="enable-background:new 0 0 52 52;" xml:space="preserve">
<style type="text/css">
	.st0{fill:none;stroke:#000000;stroke-width:2;stroke-linecap:round;stroke-linejoin:round;}
</style>
<title>Detalizatsiya razgovorov</title>
<polygon class="st0" points="42.3,12.4 42.3,48.7 9.7,48.7 9.7,3.3 33.3,3.3 "/>
<polyline class="st0" points="42.3,12.4 33.3,12.4 33.3,3.3 "/>
<line class="st0" x1="36" y1="40.5" x2="21.5" y2="40.5"/>
<path d="M18.3,40.5c0-0.8-0.6-1.4-1.4-1.4s-1.4,0.6-1.4,1.4c0,0.8,0.6,1.4,1.4,1.4C17.7,41.9,18.3,41.3,18.3,40.5L18.3,40.5"/>
<line class="st0" x1="36" y1="35.1" x2="21.5" y2="35.1"/>
<path d="M18.3,35.1c0-0.8-0.6-1.4-1.4-1.4s-1.4,0.6-1.4,1.4c0,0.8,0.6,1.4,1.4,1.4C17.7,36.4,18.3,35.8,18.3,35.1L18.3,35.1"/>
<path class="st0" d="M25.6,23c0.5,0.4,1.1,0.6,1.7,0.6c0.7-0.1,1.3-0.4,1.8-0.9l1.6-1.2c0.3-0.2,0.7-0.2,1,0.1l3.2,3.5
	c0.2,0.3,0.2,0.6-0.1,0.9c0,0,0,0,0,0c-1,1-2.1,1.8-3.3,2.5c-1.1,0.4-2.4,0.3-3.5-0.1c-0.8-0.2-1.5-0.5-2.2-0.9
	c-1-0.5-1.9-1.2-2.7-1.9c-1.6-1.4-2.9-3.1-4.1-4.9c-0.6-1-1.1-2-1.5-3c-0.3-0.8-0.5-1.6-0.5-2.4c-0.2-1.2,0-2.4,0.5-3.4
	c0.9-1.1,1.9-2.1,3-2.9c0.3-0.2,0.7-0.2,0.9,0.1c0,0,0,0,0,0l2.9,3.8c0.2,0.3,0.2,0.7-0.1,1l-1.5,1.4c-0.5,0.4-0.9,1-1.2,1.6
	c-0.2,0.6-0.1,1.3,0.2,1.8C22.9,20.2,24.2,21.7,25.6,23z"/>
</svg>
