<?xml version="1.0" encoding="utf-8"?>
<!-- Generator: Adobe Illustrator 21.1.0, SVG Export Plug-In . SVG Version: 6.00 Build 0)  -->
<svg version="1.1" id="Слой_28" xmlns="http://www.w3.org/2000/svg" xmlns:xlink="http://www.w3.org/1999/xlink" x="0px"
	 y="0px" viewBox="0 0 52 52" style="enable-background:new 0 0 52 52;" xml:space="preserve">
<style type="text/css">
	.st0{fill:none;stroke:#000000;stroke-width:2;stroke-linecap:round;stroke-linejoin:round;}
</style>
<title>Tochka na karte</title>
<path class="st0" d="M40.5,20.7c-1.1,10.7-11.1,23.2-14.4,27c-3.3-3.8-13.5-16.3-14.6-27c-0.1-0.6-0.1-1.2-0.1-1.8
	c0-8.1,6.5-14.6,14.6-14.6c8.1,0,14.6,6.5,14.6,14.6C40.7,19.5,40.6,20.1,40.5,20.7z"/>
<path class="st0" d="M26,10.4c-4.7,0-8.6,3.8-8.6,8.6s3.8,8.6,8.6,8.6s8.6-3.8,8.6-8.6S30.7,10.4,26,10.4z"/>
</svg>
