<?xml version="1.0" encoding="utf-8"?>
<!-- Generator: Adobe Illustrator 21.1.0, SVG Export Plug-In . SVG Version: 6.00 Build 0)  -->
<svg version="1.1" id="Слой_124" xmlns="http://www.w3.org/2000/svg" xmlns:xlink="http://www.w3.org/1999/xlink" x="0px"
	 y="0px" viewBox="0 0 52 52" style="enable-background:new 0 0 52 52;" xml:space="preserve">
<style type="text/css">
	.st0{fill:none;stroke:#000000;stroke-width:2;stroke-linecap:round;stroke-linejoin:round;}
</style>
<title>Notarial&amp;apos;nyye uslugi</title>
<path class="st0" d="M33.2,13.2v5c0,3.9-3.1,7-7,7h-0.3c-3.9,0-7-3.1-7-7v-5"/>
<path class="st0" d="M37,20.7c-1,1.4-2.5,1.8-4.5,0.9c0,0-4.9-2.3-6.6-2.3c-1.7,0-6.6,2.3-6.6,2.3c-1.9,0.8-3.4,0.4-4.4-0.9"/>
<path class="st0" d="M18.8,13.2V6.3c0-3.9,14.3-3.9,14.3,0v6.9"/>
<path class="st0" d="M15.5,11.6c0.7,1.1,2,1.8,3.4,1.6h14.3c2.6,0,3.4-1.6,3.4-1.6"/>
<path class="st0" d="M45.5,43.7v-5.9c-0.1-2.3-1.5-4.4-3.6-5.5l-12.3-5.5c-2.3-0.9-4.9-0.9-7.2,0l-12.3,5.5c-2.1,1-3.5,3.1-3.6,5.5
	v5.9H13l1.6,4.9h22.8l1.6-4.9H45.5z"/>
<polyline class="st0" points="20.8,27.6 26,38 31.2,27.6 "/>
<path class="st0" d="M28.7,26.5c-1.8-0.5-3.6-0.5-5.4,0"/>
<circle class="st0" cx="26" cy="41.3" r="3.3"/>
</svg>
