<?xml version="1.0" encoding="utf-8"?>
<!-- Generator: Adobe Illustrator 21.1.0, SVG Export Plug-In . SVG Version: 6.00 Build 0)  -->
<svg version="1.1" id="Слой_70" xmlns="http://www.w3.org/2000/svg" xmlns:xlink="http://www.w3.org/1999/xlink" x="0px"
	 y="0px" viewBox="0 0 52 52" style="enable-background:new 0 0 52 52;" xml:space="preserve">
<style type="text/css">
	.st0{fill:none;stroke:#000000;stroke-width:2;stroke-linecap:round;stroke-linejoin:round;}
</style>
<title>Sovmestnaya deyatel&amp;apos;nost&amp;apos;</title>
<path class="st0" d="M23.9,48.3L16.5,44c-1.3-0.7-2.1-2.1-2.1-3.6v-8.6c0-1.5,0.8-2.9,2.1-3.6l7.5-4.3c1.3-0.7,2.9-0.7,4.2,0
	l7.5,4.3c1.3,0.7,2.1,2.1,2.1,3.6v8.6c0,1.5-0.8,2.9-2.1,3.6l-7.5,4.3C26.8,49,25.2,49,23.9,48.3z"/>
<path class="st0" d="M35.5,28.2l-7.5-4.3c-1.3-0.7-2.1-2.1-2.1-3.6v-8.6c0-1.5,0.8-2.9,2.1-3.6l7.5-4.3c1.3-0.7,2.9-0.7,4.2,0
	L47.2,8c1.3,0.7,2.1,2.1,2.1,3.6v8.6c0,1.5-0.8,2.9-2.1,3.6l-7.4,4.3C38.4,28.9,36.8,28.9,35.5,28.2z"/>
<path class="st0" d="M12.3,28.2l-7.5-4.3c-1.3-0.7-2.1-2.1-2.1-3.6v-8.6c0-1.5,0.8-2.9,2.1-3.6l7.5-4.3c1.3-0.7,2.9-0.7,4.2,0
	L23.9,8c1.3,0.8,2.1,2.1,2.1,3.6v8.6c0,1.5-0.8,2.9-2.1,3.6l-7.5,4.3C15.2,28.9,13.6,28.9,12.3,28.2z"/>
</svg>
