<?xml version="1.0" encoding="utf-8"?>
<!-- Generator: Adobe Illustrator 21.1.0, SVG Export Plug-In . SVG Version: 6.00 Build 0)  -->
<svg version="1.1" id="Слой_167" xmlns="http://www.w3.org/2000/svg" xmlns:xlink="http://www.w3.org/1999/xlink" x="0px"
	 y="0px" viewBox="0 0 52 52" style="enable-background:new 0 0 52 52;" xml:space="preserve">
<style type="text/css">
	.st0{fill:none;stroke:#000000;stroke-width:2;stroke-linecap:round;stroke-linejoin:round;}
</style>
<title>Virtualnyy TSOD</title>
<rect x="32.2" y="40" class="st0" width="6.2" height="3.7"/>
<path class="st0" d="M13.5,41.9c0,1,0.8,1.9,1.9,1.9c1,0,1.9-0.8,1.9-1.9c0-1-0.8-1.9-1.9-1.9C14.4,40,13.5,40.8,13.5,41.9"/>
<path class="st0" d="M12.3,36.3h27.4c1.4,0,2.5,1.1,2.5,2.5V45c0,1.4-1.1,2.5-2.5,2.5H12.3c-1.4,0-2.5-1.1-2.5-2.5v-6.2
	C9.8,37.4,10.9,36.3,12.3,36.3z"/>
<rect x="32.2" y="28.2" class="st0" width="6.2" height="3.7"/>
<path class="st0" d="M13.5,30c0,1,0.8,1.9,1.9,1.9c1,0,1.9-0.8,1.9-1.9c0-1-0.8-1.9-1.9-1.9C14.4,28.2,13.5,29,13.5,30"/>
<path class="st0" d="M12.3,24.4h27.4c1.4,0,2.5,1.1,2.5,2.5v6.2c0,1.4-1.1,2.5-2.5,2.5H12.3c-1.4,0-2.5-1.1-2.5-2.5v-6.2
	C9.8,25.5,10.9,24.4,12.3,24.4z"/>
<path class="st0" d="M47.1,32.8c1.6-1.5,2.5-3.6,2.4-5.8c0-4.2-3-7.5-6.7-7.5l0,0c-0.4-4.2-3.6-7.5-7.5-7.5c-1.8,0-3.4,0.7-4.7,1.8
	c-1.5-5.4-5.7-9.2-11-9.2c-6.5,0-12,5.7-12,13c0,0.7,0,1.4,0.2,2.1c-3.2,1-5.3,4-5.2,7.4c0,2.2,0.9,4.3,2.4,5.8"/>
</svg>
