<?xml version="1.0" encoding="utf-8"?>
<!-- Generator: Adobe Illustrator 21.1.0, SVG Export Plug-In . SVG Version: 6.00 Build 0)  -->
<svg version="1.1" id="Слой_126" xmlns="http://www.w3.org/2000/svg" xmlns:xlink="http://www.w3.org/1999/xlink" x="0px"
	 y="0px" viewBox="0 0 52 52" style="enable-background:new 0 0 52 52;" xml:space="preserve">
<style type="text/css">
	.st0{fill:none;stroke:#000000;stroke-width:2;stroke-linecap:round;stroke-linejoin:round;}
	.st1{fill:none;stroke:#000000;stroke-width:2;stroke-linecap:round;stroke-linejoin:round;stroke-miterlimit:10;}
</style>
<title>Khokkeynyye kluby</title>
<path class="st0" d="M46.3,44.2V38c-0.1-2.4-1.6-4.6-3.7-5.7l-12.9-5.7c-2.4-0.9-5.1-0.9-7.5,0L9.4,32.3c-2.2,1.1-3.6,3.3-3.7,5.7
	v6.1h5.1l3.4,5.1h23.7l3.4-5.1L46.3,44.2z"/>
<line class="st0" x1="26" y1="34" x2="31.1" y2="27.2"/>
<line class="st0" x1="26" y1="34" x2="20.9" y2="27.2"/>
<path class="st0" d="M9.9,44.2v-4.7c0.1-1.9,1.2-3.6,2.9-4.5l10.2-4.5l0.2-0.1"/>
<path class="st0" d="M28.7,30.4l0.2,0.1L39.2,35c1.7,0.9,2.8,2.6,2.9,4.5v4.7"/>
<path class="st0" d="M32.8,17.2v-4.3c0-0.9-0.8-1.7-1.7-1.7H20.9c-0.9,0-1.7,0.8-1.7,1.7v4.3c0,1.3-0.6,1.6-1.3,1.6
	s-1.3-0.8-1.3-1.7V9.5c0-3.7,3-6.8,6.8-6.8h5.1c3.8,0,6.8,3,6.8,6.8v7.6c0,0.9-0.6,1.7-1.3,1.7S32.8,18.5,32.8,17.2z"/>
<line class="st0" x1="22.2" y1="7.7" x2="29.8" y2="7.7"/>
<line class="st0" x1="18" y1="18.8" x2="34" y2="18.8"/>
<path class="st0" d="M33.4,18.8c-0.6,3.5-3.6,6.2-7.2,6.2h-0.4c-3.6,0-6.6-2.6-7.2-6.2"/>
<line class="st1" x1="24.8" y1="45.8" x2="20.2" y2="45.8"/>
<polyline class="st1" points="20.2,40 22.8,38.3 22.8,45.8 "/>
<path class="st1" d="M31.8,45.8h-4.1c0,0-0.4-1.4,2.1-3.2c2.2-1.6,2.1-2.7,1.7-3.5c-0.2-0.5-1.3-1.8-3.8-0.4"/>
</svg>
