<?xml version="1.0" encoding="utf-8"?>
<!-- Generator: Adobe Illustrator 21.1.0, SVG Export Plug-In . SVG Version: 6.00 Build 0)  -->
<svg version="1.1" id="Слой_145" xmlns="http://www.w3.org/2000/svg" xmlns:xlink="http://www.w3.org/1999/xlink" x="0px"
	 y="0px" viewBox="0 0 52 52" style="enable-background:new 0 0 52 52;" xml:space="preserve">
<style type="text/css">
	.st0{fill:none;stroke:#000000;stroke-width:2;stroke-linecap:round;stroke-linejoin:round;}
</style>
<title>Podarok_vyigrysh</title>
<path class="st0" d="M42.8,22.8H45v24.9c0,1.3-1,2.3-2.3,2.3l0,0H9.2C8,50,7,49,7,47.8V22.8h2.3"/>
<polyline class="st0" points="23.3,22.8 5.1,22.8 5.1,13.8 46.9,13.8 46.9,22.8 28.7,22.8 "/>
<rect x="23.3" y="13.8" class="st0" width="5.4" height="36.3"/>
<path class="st0" d="M36,7.5c-5,0-10,6.2-10,6.2h9.5C40.5,13.8,40.7,7.5,36,7.5z"/>
<path class="st0" d="M16,7.5c5,0,10,6.2,10,6.2h-9.5C11.5,13.8,11.3,7.5,16,7.5z"/>
<path class="st0" d="M31.5,3.8c0,0-5.5,1.8-5.5,10"/>
<path class="st0" d="M24.2,2c-1.5,4-0.8,8.5,1.8,11.8"/>
</svg>
