<?xml version="1.0" encoding="utf-8"?>
<!-- Generator: Adobe Illustrator 21.1.0, SVG Export Plug-In . SVG Version: 6.00 Build 0)  -->
<svg version="1.1" id="Слой_135" xmlns="http://www.w3.org/2000/svg" xmlns:xlink="http://www.w3.org/1999/xlink" x="0px"
	 y="0px" viewBox="0 0 52 52" style="enable-background:new 0 0 52 52;" xml:space="preserve">
<style type="text/css">
	.st0{fill:none;stroke:#000000;stroke-width:2;stroke-linecap:round;stroke-linejoin:round;}
</style>
<title>Organizatsiya uslugi pod klyuch</title>
<rect x="32.7" y="15.9" transform="matrix(4.886881e-03 -1 1 4.886881e-03 15.9275 53.7239)" class="st0" width="4.5" height="6"/>
<line class="st0" x1="35" y1="16.6" x2="35" y2="18.9"/>
<line class="st0" x1="21.3" y1="16.6" x2="40.9" y2="16.7"/>
<ellipse transform="matrix(4.886881e-03 -1 1 4.886881e-03 -1.5374 32.0731)" class="st0" cx="15.3" cy="16.8" rx="5.6" ry="5.6"/>
<path class="st0" d="M11.4,27.6H4.7c-1.6,4.1-2.2,13.7-1.2,18.2h7.9V27.6z"/>
<path class="st0" d="M12.1,29.3c1.1,0.1,2.2,0,3.2-0.3c1.8-0.6,3.6-0.9,5.5-0.9c3,0,3.9,2,6.6,2.9c2.5,0.8,5,1.4,7.5,1.8
	c0,0,2.1,0.4,2,2.1s-2.8,1.7-2.8,1.7c-2.5,0-5-0.1-7.5-0.4c-1.8-0.3-3.6-0.8-5.4-1.4"/>
<path class="st0" d="M36.6,35.6l8.5-6.8c0,0,2-1.4,3.3,0.2c0.7,0.8,0.6,2-0.1,2.8c0,0-10.5,9.8-14.3,12.2c-3.4,2.2-5.2,1.8-8.2,0.9
	c-1.7-0.5-5.1-1.6-9.6-2.5c-2.3-0.5-2.9,0.2-5,0.2"/>
</svg>
