<?xml version="1.0" encoding="utf-8"?>
<!-- Generator: Adobe Illustrator 21.1.0, SVG Export Plug-In . SVG Version: 6.00 Build 0)  -->
<svg version="1.1" id="Слой_132" xmlns="http://www.w3.org/2000/svg" xmlns:xlink="http://www.w3.org/1999/xlink" x="0px"
	 y="0px" viewBox="0 0 52 52" style="enable-background:new 0 0 52 52;" xml:space="preserve">
<style type="text/css">
	.st0{fill:none;stroke:#000000;stroke-width:2;stroke-linecap:round;stroke-linejoin:round;}
</style>
<title>Intsident menedzhment</title>
<path class="st0" d="M49.2,22.9c0.7,2.1,1.1,4.2,1.1,6.4c-0.1,2.2-0.5,4.3-1.1,6.4l-2,5.6c-0.8,1.8-2.5,3.1-4.5,3.2H9.3
	c-2-0.1-3.8-1.3-4.6-3.1l-1.9-5c-0.7-2.1-1.1-4.3-1.2-6.5v-0.4c0.1-2.2,0.5-4.4,1.1-6.5l2-5.6c0.8-1.8,2.5-3.1,4.5-3.2h33.3
	c2,0.1,3.7,1.3,4.5,3.2L49.2,22.9z"/>
<path class="st0" d="M18.4,14.1l1.6-4.9c0.4-0.9,1.2-1.6,2.2-1.6h7.4c1,0,1.9,0.7,2.2,1.6l1.6,4.9"/>
<polygon class="st0" points="23.3,39.6 34.4,26.9 26.8,26.9 29.1,18.9 18,31.6 25.6,31.6 "/>
<line class="st0" x1="32.6" y1="29.2" x2="50.3" y2="29.2"/>
<line class="st0" x1="1.7" y1="29.2" x2="20" y2="29.2"/>
</svg>
