<?xml version="1.0" encoding="utf-8"?>
<!-- Generator: Adobe Illustrator 21.1.0, SVG Export Plug-In . SVG Version: 6.00 Build 0)  -->
<svg version="1.1" id="Слой_321" xmlns="http://www.w3.org/2000/svg" xmlns:xlink="http://www.w3.org/1999/xlink" x="0px"
	 y="0px" viewBox="0 0 52 52" style="enable-background:new 0 0 52 52;" xml:space="preserve">
<style type="text/css">
	.st0{fill:none;stroke:#000000;stroke-width:2;stroke-linecap:round;stroke-linejoin:round;}
	.st1{fill:none;stroke:#000000;stroke-width:4;}
</style>
<title>Avtopopolneniye bankovskoy kartoy</title>
<path class="st0" d="M26,49.6c-8.5,0-15.4-6.9-15.4-15.4S17.5,18.7,26,18.7s15.4,6.9,15.4,15.4c0,4.3-1.8,8.3-4.9,11.2"/>
<polyline class="st0" points="43.3,46.1 35.6,46.1 35.6,38.4 "/>
<line class="st0" x1="21.5" y1="38.7" x2="27.8" y2="38.7"/>
<path class="st0" d="M21.5,35.1h6.2c2.7,0,4-1.6,4-3.2V30c0-1-1.1-3.1-4-3.1h-4.4v14.5"/>
<path class="st0" d="M10,31.6H7.4c-2.2,0-4-1.8-4-4V6.5c0-2.2,1.8-4,4-4h37.2c2.2,0,4,1.8,4,4v21c0,2.2-1.8,4-4,4h-2.8"/>
<line class="st1" x1="3.3" y1="11.3" x2="48.7" y2="11.3"/>
</svg>
