<?xml version="1.0" encoding="utf-8"?>
<!-- Generator: Adobe Illustrator 21.1.0, SVG Export Plug-In . SVG Version: 6.00 Build 0)  -->
<svg version="1.1" id="Слой_342" xmlns="http://www.w3.org/2000/svg" xmlns:xlink="http://www.w3.org/1999/xlink" x="0px"
	 y="0px" viewBox="0 0 52 52" style="enable-background:new 0 0 52 52;" xml:space="preserve">
<style type="text/css">
	.st0{fill:#2C2A29;}
</style>
<title>Picture Box</title>
<path class="st0" d="M4.7,6.6c1.6-0.4,1.6,1.7,0,1.3V6.6z M4.7,9.9c1,0.1,1.9,0,2.8-0.3c1.3-0.9,1.6-2.6,0.7-3.9
	C8,5.3,7.6,5,7.2,4.8C5.6,4,4,4.8,2,4.5v7.6h2.7V9.9z"/>
<path class="st0" d="M39.1,9.7c0.4,0.8,0.8,1.6,1.2,2.4h-1.2V9.7z M39.1,6.6c1.4-0.4,1.4,1.6,0,1.3V6.6z M41.3,16.4
	c0.9-1.5,1.8-2.9,2.7-4.4c-0.2,0-0.4,0-0.5-0.1c-0.6-1-1.4-2.1-2-2.9c1.1-0.1,1.5-1.4,1.4-2.4c-0.3-2.6-3.7-2.2-6.6-2.2v7.6h2.2
	C39.5,13.5,40.4,15.1,41.3,16.4L41.3,16.4z"/>
<path class="st0" d="M44.4,12.1h5.2c-1.8,2.7-3.8,5.3-5.6,8c1.8,2.3,3.6,5.1,5.3,7.4c0.1,0.1,0.2,0.3,0.3,0.3V10
	c-0.8,0-1.6,0-2.4-0.1V9.3h2.2v-2c-0.7,0-1.5,0-2.2-0.1V6.6h2.4V4.5h-5.1C44.4,7,44.5,9.6,44.4,12.1z"/>
<path class="st0" d="M6.4,18.8c1.2,0,2.1,0,2.6-0.6c0.5-0.6,0.5-1.5,0-2.2c-0.5-0.6-1.6-0.5-2.5-0.6C6.3,16.4,6.5,17.7,6.4,18.8z"/>
<path class="st0" d="M23.8,16.2c-1.4,0.2-2.7,1.1-3.4,2.3c-0.2,0.6-0.4,1.2-0.5,1.8c-0.1,2.5,1.8,4.7,4.3,4.8
	c2.5,0.1,4.7-1.8,4.8-4.3c0-0.2,0-0.4,0-0.6c-0.2-2.4-2.3-4.3-4.8-4C24.1,16.1,24,16.1,23.8,16.2z"/>
<path class="st0" d="M9.9,25.3c0.7-0.5,0.9-1.5,0.5-2.3c-0.5-1.1-2.2-1-3.9-1c-0.1,1.2-0.2,2.5-0.1,3.7C7.6,25.7,9.1,25.8,9.9,25.3z
	"/>
<path d="M24.7,29.6c-5.4,0-9.7-3.8-9.2-10c0.1-1.1,0.4-2.1,1-3.1c1.6-2.7,4.5-4.4,7.7-4.6c3-0.3,6,0.9,7.9,3.3
	c1,1.2,1.6,2.7,1.8,4.3C34.4,25.7,30.1,29.5,24.7,29.6L24.7,29.6z M50.7,33.8v-4.1c-0.8-0.1-1.6-0.1-2.3-0.1c-0.8,0.1-1.6,0.1-2.3,0
	c-0.3-0.1-0.7-1-1-1.4c-1-1.4-2.1-2.9-2.9-4.3c-1.6,1.8-2.8,3.9-4.4,5.8h-5.5c-0.1-0.2,0.2-0.4,0.3-0.5c2.2-2.9,4.5-6,6.7-8.9
	L34,12.8c-0.2-0.3-0.4-0.8-0.9-0.8c2.8-0.6,2.1-4.5,2.2-7.8c-1-0.1-1.9-0.1-2.9-0.1c-0.1,1.8,0.3,4-0.2,5.4c-0.3,0.1-0.7,0.2-1,0.1
	c-0.6-1.3-0.1-3.7-0.3-5.5H28c0,3.1-0.8,7.4,2.1,7.8c-1.5,0.1-3.3,0-4.9,0.1V6.6c0.5,0,1,0,1.5,0.1c0.1-0.9,0.1-1.7,0.1-2.6h-6.1
	v2.6c0.5,0,1-0.1,1.6-0.1v5.3h-3.1c0-0.2,0.4,0,0.4-0.3c0-1,0.1-1.8,0.1-2.8c-0.9,1-3.2,0.9-3.3-0.8c-0.1-1.7,2.3-2,3.3-0.8
	c0-1-0.1-1.9-0.1-2.9c-2.1-1-4.7-0.1-5.7,2c-0.3,0.5-0.4,1.1-0.4,1.8c0,1.8,1.1,3.3,2.8,3.8c-1.2,0.1-2.7,0-4,0.1V4.1H9.4
	c-0.1,2.5,0,5.2-0.1,7.9c1,0.2,1.9,0.6,2.7,1.3c1.8,1.8,1.3,6.2-0.8,7c0.5,0.2,1,0.2,1.4,0.4c2.4,1.1,2.9,5.4,1,7.4
	c-2.4,2.5-7.8,1.5-12.3,1.7v18.4h49.3V34.8C50.7,34.4,50.7,34.1,50.7,33.8z"/>
</svg>
