<?xml version="1.0" encoding="utf-8"?>
<!-- Generator: Adobe Illustrator 21.1.0, SVG Export Plug-In . SVG Version: 6.00 Build 0)  -->
<svg version="1.1" id="Слой_78" xmlns="http://www.w3.org/2000/svg" xmlns:xlink="http://www.w3.org/1999/xlink" x="0px"
	 y="0px" viewBox="0 0 52 52" style="enable-background:new 0 0 52 52;" xml:space="preserve">
<style type="text/css">
	.st0{fill:none;stroke:#000000;stroke-width:2;stroke-linecap:round;stroke-linejoin:round;}
</style>
<title>Komanda Rostelekom</title>
<path class="st0" d="M26,3.2h8.8c0,0,5.2,0.2,8.1,3.1l7.2,7.3l-6.8,7l-3.5-3.8v28.1H26"/>
<path class="st0" d="M26,3.2h-8.8c0,0-5.2,0.2-8.1,3.1l-7.2,7.3l6.8,7l3.5-3.8v28.1H26"/>
<path class="st0" d="M33.1,3.2c-1.1,3.9-5.1,6.2-9,5.1c-2.5-0.7-4.4-2.6-5.1-5.1"/>
<path d="M28.9,37.1c-1.3,1.3-3.9,1-5.7-0.8c-0.1-0.1-0.4-0.5-0.5-0.5c-2.2-2.6-4.7-8.9-3.8-14.1c0.2-1.2,0.6-2.4,1.2-3.5l0,0
	c0,0.2-0.1,0.4-0.1,0.7s0,0.5,0,0.7v0.5c0.1,1.9,0.7,3.7,1.8,5.3l0.4,0.5l0.3,0.3l0.2,0.2l0.2,0.3l0.3,0.3l1.1,1.1l0.5,0.4
	c0.3,0.3,0.7,0.6,1,0.8c0.9,0.7,1.7,1.4,2.4,2.2C29.9,33.3,30.2,35.7,28.9,37.1 M32.1,25c1.5-2.2,1.6-5,0.3-7.3
	c-0.7-1.3-1.8-2.3-3.1-2.9l0.1,0.3l0.1,0.2c0,0.1,0.1,0.2,0.1,0.3v0.2l0,0.3c0,0.2,0,0.4,0,0.6s0,0.4,0,0.6v0.2l-0.1,0.6l-0.1,0.2
	l-0.2,0.8v0.1c-0.4,0.8-0.9,1.6-1.5,2.3c-0.1,0.1-0.2,0.3-0.3,0.4c-0.5,0.7-0.7,1.6-0.6,2.5c0.1,0.7,0.5,1.3,1,1.7
	c1.4,0.8,3.2,0.3,4.1-1L32.1,25z M24.5,14.7l-0.2,0.1L24,14.9L23.8,15l-0.3,0.2l-0.3,0.2c-0.3,0.2-0.6,0.5-0.8,0.8
	c-0.1,0.2-0.2,0.3-0.3,0.5c-0.3,0.6-0.5,1.2-0.6,1.9c0,0.2,0,0.4-0.1,0.6s0,0.3,0,0.5V20c0.1,1.7,0.7,3.3,1.6,4.6c0-0.4,0-0.8,0-1.3
	c0.2-3.1,2.2-5.6,4.6-5.6c0.3,0,0.6,0.1,0.9,0.1c0-0.2,0.1-0.3,0.1-0.5c0-0.2,0-0.4,0-0.6c0-0.5-0.1-1.1-0.4-1.6
	c-0.1-0.1-0.2-0.3-0.3-0.4c-0.1-0.1-0.2-0.2-0.3-0.3c-0.1-0.1-0.2-0.1-0.3-0.2l-0.3-0.1h-0.3h-0.2C25.7,14.4,25.1,14.5,24.5,14.7"/>
</svg>
