<?xml version="1.0" encoding="utf-8"?>
<!-- Generator: Adobe Illustrator 21.1.0, SVG Export Plug-In . SVG Version: 6.00 Build 0)  -->
<svg version="1.1" id="Слой_311" xmlns="http://www.w3.org/2000/svg" xmlns:xlink="http://www.w3.org/1999/xlink" x="0px"
	 y="0px" viewBox="0 0 52 52" style="enable-background:new 0 0 52 52;" xml:space="preserve">
<style type="text/css">
	.st0{fill:none;stroke:#000000;stroke-width:2;stroke-miterlimit:10;}
	.st1{fill:none;stroke:#000000;stroke-width:2;stroke-linecap:round;stroke-miterlimit:10;}
</style>
<title>Vyvod nalichnykh</title>
<path class="st0" d="M38.8,19.7L27.3,8.2c-0.9-0.9-2.4-0.9-3.3,0c-0.3,0.3-0.5,0.6-0.6,1c-0.5,1.7-1.5,3.3-2.8,4.5
	c-2,1.8-4.2,3.3-6.6,4.6c-2.7,1.4-5.3,3.2-7.5,5.3c-1.8,1.8-3.2,4-3.9,6.4c-0.3,0.8,0,1.7,0.6,2.3l11.6,11.6
	c0.6,0.6,1.4,0.8,2.2,0.6c0.4-0.1,0.8-0.3,1.1-0.6c0.3-0.3,0.5-0.6,0.6-1c0.5-1.7,1.5-3.3,2.8-4.5c2-1.8,4.2-3.3,6.6-4.6
	c2.7-1.4,5.3-3.2,7.5-5.3c1.8-1.8,3.2-4,3.9-6.4C39.7,21.2,39.4,20.3,38.8,19.7z"/>
<path class="st1" d="M22.6,41.7l2.2,2.2c0.9,0.9,2.4,0.9,3.3,0c0.3-0.3,0.5-0.6,0.6-0.9c0.5-1.7,1.5-3.3,2.8-4.5
	c2-1.8,4.2-3.3,6.6-4.6c2.7-1.4,5.3-3.2,7.5-5.3c1.8-1.8,3.2-4,3.9-6.4c0.2-0.8,0-1.7-0.6-2.3L37.3,8.2c-0.9-0.9-2.4-0.9-3.3,0
	c-0.3,0.3-0.5,0.6-0.6,1"/>
<circle class="st1" cx="21" cy="26" r="5.3"/>
</svg>
