<?xml version="1.0" encoding="utf-8"?>
<!-- Generator: Adobe Illustrator 21.1.0, SVG Export Plug-In . SVG Version: 6.00 Build 0)  -->
<svg version="1.1" id="Слой_408" xmlns="http://www.w3.org/2000/svg" xmlns:xlink="http://www.w3.org/1999/xlink" x="0px"
	 y="0px" viewBox="0 0 52 52" style="enable-background:new 0 0 52 52;" xml:space="preserve">
<style type="text/css">
	.st0{fill:none;stroke:#000000;stroke-width:2;stroke-miterlimit:10;}
</style>
<title>Portal Bud v kurse</title>
<path class="st0" d="M49.2,23.8h-1.5c-1.3-5.3-6.7-8.5-11.9-7.1c-3.5,0.9-6.3,3.6-7.1,7.1h-5c-1.1-5.3-6.3-8.7-11.7-7.6
	C8.2,17,5.2,20,4.4,23.8H2.8c-0.4,0-0.8,0.3-0.8,0.8c0,0.4,0.3,0.8,0.8,0.8h1.4c0,0.2,0,0.3,0,0.5c0,5.4,4.4,9.8,9.8,9.8
	s9.8-4.4,9.8-9.8c0-0.2,0-0.3,0-0.5h4.5c0,0.3,0,0.6,0,0.9c0,5.4,4.4,9.8,9.8,9.8s9.8-4.4,9.8-9.8c0-0.3,0-0.6,0-0.9h1.2
	c0.4,0,0.8-0.3,0.8-0.8C50,24.1,49.7,23.8,49.2,23.8L49.2,23.8z"/>
</svg>
