<?xml version="1.0" encoding="utf-8"?>
<!-- Generator: Adobe Illustrator 21.1.0, SVG Export Plug-In . SVG Version: 6.00 Build 0)  -->
<svg version="1.1" id="Слой_96" xmlns="http://www.w3.org/2000/svg" xmlns:xlink="http://www.w3.org/1999/xlink" x="0px"
	 y="0px" viewBox="0 0 52 52" style="enable-background:new 0 0 52 52;" xml:space="preserve">
<style type="text/css">
	.st0{fill:none;stroke:#000000;stroke-width:2;stroke-linecap:round;stroke-linejoin:round;}
</style>
<title>Udostovereniye lichnosti</title>
<path class="st0" d="M9.7,38.7v-3.8c0.1-2,1.3-3.7,3-4.6L23,25.8c1.9-0.7,4.1-0.7,6,0l10.3,4.6c1.7,0.9,2.9,2.6,3,4.6v3.8L9.7,38.7z
	"/>
<line class="st0" x1="36" y1="44.2" x2="16" y2="44.2"/>
<path class="st0" d="M32,18.6c0,3.2-2.6,5.9-5.9,5.9h-0.3c-3.2,0-5.8-2.6-5.8-5.9v-4.2c0-3.2,2.6-5.8,5.8-5.9h0.3
	c3.2,0,5.8,2.6,5.9,5.9V18.6z"/>
<path class="st0" d="M31.9,27L29,28.3c-1.9,0.7-4.1,0.7-6,0L20.2,27"/>
<path class="st0" d="M15.1,1.5h21.8c3,0,5.4,2.4,5.4,5.4V45c0,3-2.4,5.4-5.4,5.4H15.1c-3,0-5.4-2.4-5.4-5.4V7
	C9.7,4,12.1,1.5,15.1,1.5z"/>
</svg>
