<?xml version="1.0" encoding="utf-8"?>
<!-- Generator: Adobe Illustrator 21.1.0, SVG Export Plug-In . SVG Version: 6.00 Build 0)  -->
<svg version="1.1" id="Слой_35" xmlns="http://www.w3.org/2000/svg" xmlns:xlink="http://www.w3.org/1999/xlink" x="0px"
	 y="0px" viewBox="0 0 52 52" style="enable-background:new 0 0 52 52;" xml:space="preserve">
<style type="text/css">
	.st0{fill:none;stroke:#000000;stroke-width:2;stroke-linecap:round;stroke-linejoin:round;}
	.st1{fill:none;}
</style>
<title>Soyedineniye</title>
<path class="st0" d="M22,23.6c0.4,1.2,1.1,2.2,2,3.1c3.5,3.5,9.3,3.5,12.8,0l6.4-6.4c3.3-3.8,2.9-9.5-0.9-12.8
	c-3.4-2.9-8.4-2.9-11.8,0l-6.4,6.4c-0.9,0.9-1.6,1.9-2,3.1"/>
<path class="st0" d="M30,26c-0.4-1.2-1.1-2.2-2-3.1c-3.5-3.5-9.3-3.5-12.8,0l-6.4,6.4c-3.3,3.8-2.9,9.5,0.9,12.8c3.4,3,8.5,3,11.9,0
	l6.4-6.4c0.9-0.9,1.6-1.9,2-3.1"/>
<rect x="3" y="3.1" class="st1" width="46" height="45.8"/>
</svg>
