<?xml version="1.0" encoding="utf-8"?>
<!-- Generator: Adobe Illustrator 21.1.0, SVG Export Plug-In . SVG Version: 6.00 Build 0)  -->
<svg version="1.1" id="Слой_65" xmlns="http://www.w3.org/2000/svg" xmlns:xlink="http://www.w3.org/1999/xlink" x="0px"
	 y="0px" viewBox="0 0 52 52" style="enable-background:new 0 0 52 52;" xml:space="preserve">
<style type="text/css">
	.st0{fill:none;stroke:#000000;stroke-width:2;stroke-linecap:round;stroke-linejoin:round;}
	.st1{fill:#FFFFFF;}
</style>
<title>Gosudarstvennyye kompanii</title>
<path class="st0" d="M45.6,26.5c0,0-5.3,7.9-5.3,20.3"/>
<path class="st0" d="M26.2,45.9c1.8-7,4.4-13.2,8.8-18.5c-1.8,0-4.4-1.8-4.4-3.5h12.2c1.1,0,2.1,0.7,2.5,1.8l0.3,0.9"/>
<path class="st0" d="M6.7,26.5c0,0,5.3,7.9,5.3,20.3"/>
<path class="st0" d="M26.2,45.9c-1.8-7-4.4-13.2-8.8-18.5c1.8,0,4.4-1.8,4.4-3.5H9.6c-1.1,0-2.1,0.7-2.5,1.8l-0.3,0.9"/>
<polyline class="st0" points="26.2,46.8 30.3,42.9 30.9,46.8 34.1,42.9 35.6,46.8 37.9,42.9 40.3,46.8 "/>
<polyline class="st0" points="26.2,46.8 22.1,42.9 21.5,46.8 18.2,42.9 16.8,46.8 14.4,42.9 12.1,46.8 "/>
<line class="st0" x1="15.6" y1="50.1" x2="36.7" y2="50.1"/>
<path class="st0" d="M42.7,23.9v-1.4c0-1,1-2.1,1-3.6s-1.4-2.8-4.6-2.8"/>
<path class="st0" d="M35.7,23.9v-1.4c0-1-1.1-2.1-1.1-3.6s1.4-2.8,4.6-2.8"/>
<line class="st0" x1="39.2" y1="23.9" x2="39.2" y2="11.9"/>
<line class="st0" x1="37.8" y1="13.3" x2="40.6" y2="13.3"/>
<line class="st0" x1="35.7" y1="23.9" x2="42.7" y2="23.9"/>
<path class="st0" d="M9.6,23.9v-1.4c0-1-1-2.1-1-3.6s1.4-2.8,4.6-2.8"/>
<path class="st0" d="M16.7,23.9v-1.4c0-1,1.1-2.1,1.1-3.6s-1.4-2.8-4.6-2.8"/>
<line class="st0" x1="13.1" y1="23.9" x2="13.1" y2="11.9"/>
<line class="st0" x1="14.5" y1="13.3" x2="11.7" y2="13.3"/>
<line class="st0" x1="16.7" y1="23.9" x2="9.6" y2="23.9"/>
<path class="st0" d="M30.6,16.8v-1.8c0-1.2,1.3-2.6,1.3-4.4s-1.8-3.5-5.7-3.5"/>
<path class="st0" d="M21.8,16.8v-1.8c0-1.2-1.3-2.6-1.3-4.4s1.8-3.5,5.7-3.5"/>
<line class="st0" x1="26.2" y1="13.3" x2="26.2" y2="1.9"/>
<line class="st0" x1="24.4" y1="3.6" x2="27.9" y2="3.6"/>
<line class="st0" x1="21.8" y1="16.8" x2="30.6" y2="16.8"/>
<line class="st0" x1="21.8" y1="13.3" x2="30.6" y2="13.3"/>
<path class="st0" d="M30.6,16.8c0,0,1.9,7,6.9,7"/>
<path class="st0" d="M21.8,16.8c0,0-1.9,7-6.9,7"/>
<path class="st0" d="M3.7,34.2c0,0-3.3-2.7-0.8-6.2c1.8-2.4,3.5-1.8,3.5-1.8s3.3,6.7,2.9,6.6c-1.1-0.1-1.5-1.5-3.5-1.8
	C5.6,30.9,3.4,31.4,3.7,34.2z"/>
<path class="st0" d="M48.3,34.2c0,0,3.3-2.7,0.8-6.2c-1.8-2.4-3.5-1.8-3.5-1.8s-3.3,6.7-2.9,6.6c1.1-0.1,1.5-1.5,3.5-1.8
	C46.4,30.9,48.6,31.4,48.3,34.2z"/>
<path d="M18,27.3c0.6,0.7,0.8,0.4,1.9,1.6c1.2,1.6,3.5,1.9,5.1,0.7c-0.5,1.6-2.3,2.5-3.9,2c-0.1,0-0.1,0-0.2-0.1
	C17,30.4,16.5,25.5,18,27.3"/>
<path d="M34.3,27.3c-0.6,0.7-0.8,0.4-1.9,1.6c-1.2,1.6-3.5,1.9-5.1,0.7c0.5,1.6,2.3,2.5,3.9,2c0.1,0,0.1,0,0.2-0.1
	C35.3,30.4,35.8,25.5,34.3,27.3"/>
<path d="M9.2,26.3c1.8-0.1,3.6-0.1,5.4,0c1.4,0.3,1.1,0.4,1.1,0.4c-0.6-0.1-1.2,0-1.8,0.2c-0.8,0.4-0.5,1.9-2.4,1.8
	C9.5,28.6,9.2,26.3,9.2,26.3"/>
<path class="st1" d="M10.5,27c0.8-0.1,1.6-0.1,2.4,0C13,27,11.9,29,10.5,27"/>
<path d="M43.2,26.3c-1.8-0.1-3.6-0.1-5.4,0c-1.4,0.3-1.1,0.4-1.1,0.4c0.6-0.1,1.2,0,1.8,0.2c0.8,0.4,0.5,1.9,2.4,1.8
	C42.8,28.6,43.2,26.3,43.2,26.3"/>
<path class="st1" d="M41.9,27C41,27,40.2,27,39.4,27C39.4,27,40.5,29,41.9,27"/>
</svg>
