<?xml version="1.0" encoding="utf-8"?>
<!-- Generator: Adobe Illustrator 21.1.0, SVG Export Plug-In . SVG Version: 6.00 Build 0)  -->
<svg version="1.1" id="Слой_29" xmlns="http://www.w3.org/2000/svg" xmlns:xlink="http://www.w3.org/1999/xlink" x="0px"
	 y="0px" viewBox="0 0 52 52" style="enable-background:new 0 0 52 52;" xml:space="preserve">
<style type="text/css">
	.st0{fill:none;stroke:#000000;stroke-width:2;stroke-linecap:round;stroke-linejoin:round;}
</style>
<title>Marshrutizatsiya</title>
<path class="st0" d="M6.5,40.1c0,3.3,2.6,5.9,5.9,5.9s5.9-2.6,5.9-5.9c0-3.3-2.6-5.9-5.9-5.9c0,0,0,0,0,0
	C9.1,34.2,6.5,36.9,6.5,40.1z"/>
<polyline class="st0" points="12.4,34.2 12.4,26 39.6,26 39.6,6.1 "/>
<line class="st0" x1="6.5" y1="6" x2="18.3" y2="17.8"/>
<line class="st0" x1="6.5" y1="17.8" x2="18.3" y2="6"/>
<line class="st0" x1="33.7" y1="34.2" x2="45.5" y2="46"/>
<line class="st0" x1="33.7" y1="46" x2="45.5" y2="34.2"/>
<polyline class="st0" points="33.7,12 39.6,6.1 45.5,12 "/>
</svg>
