<?xml version="1.0" encoding="utf-8"?>
<!-- Generator: Adobe Illustrator 21.1.0, SVG Export Plug-In . SVG Version: 6.00 Build 0)  -->
<svg version="1.1" id="Слой_218" xmlns="http://www.w3.org/2000/svg" xmlns:xlink="http://www.w3.org/1999/xlink" x="0px"
	 y="0px" viewBox="0 0 52 52" style="enable-background:new 0 0 52 52;" xml:space="preserve">
<style type="text/css">
	.st0{fill:none;stroke:#000000;stroke-width:2;stroke-linecap:round;stroke-linejoin:round;}
</style>
<line class="st0" x1="38.2" y1="40.5" x2="46.9" y2="40.5"/>
<line class="st0" x1="38.2" y1="33.2" x2="46.9" y2="33.2"/>
<line class="st0" x1="5.1" y1="40.5" x2="13.8" y2="40.5"/>
<line class="st0" x1="5.1" y1="33.2" x2="13.8" y2="33.2"/>
<line class="st0" x1="26" y1="18.7" x2="26" y2="24.2"/>
<circle class="st0" cx="26" cy="36.9" r="12.7"/>
<circle class="st0" cx="26" cy="42.8" r="2.3"/>
<rect x="19.2" y="31.4" width="2.7" height="4.5"/>
<rect x="24.6" y="31.4" width="2.7" height="4.5"/>
<rect x="30.1" y="31.4" width="2.7" height="4.5"/>
<rect x="6.9" y="2.4" class="st0" width="38.1" height="16.3"/>
<polyline class="st0" points="11.3,6.9 11.3,13.4 14.7,13.4 "/>
<polyline class="st0" points="21.2,6.9 17.9,6.9 17.9,13.5 21.2,13.5 "/>
<line class="st0" x1="21" y1="10.3" x2="17.9" y2="10.3"/>
<polyline class="st0" points="41.2,6.9 37.9,6.9 37.9,13.5 41.2,13.5 "/>
<line class="st0" x1="41" y1="10.3" x2="37.9" y2="10.3"/>
<polyline class="st0" points="28.7,13.5 26.3,6.9 24.1,13.5 "/>
<line class="st0" x1="28.3" y1="12.3" x2="24.6" y2="12.3"/>
<path class="st0" d="M34.5,7.1c0,0-2.8-1.2-3.3,0.9c-0.3,1.2,0.5,2,1.8,2c1.2,0,2,0.9,1.8,2c-0.3,1.3-1.9,1.9-3.7,1"/>
</svg>
