<?xml version="1.0" encoding="utf-8"?>
<!-- Generator: Adobe Illustrator 21.1.0, SVG Export Plug-In . SVG Version: 6.00 Build 0)  -->
<svg version="1.1" id="Слой_269" xmlns="http://www.w3.org/2000/svg" xmlns:xlink="http://www.w3.org/1999/xlink" x="0px"
	 y="0px" viewBox="0 0 52 52" style="enable-background:new 0 0 52 52;" xml:space="preserve">
<style type="text/css">
	.st0{fill:none;stroke:#000000;stroke-width:2;stroke-linecap:round;stroke-linejoin:round;}
</style>
<title>Parallel&amp;apos;nyy vyzov_iskhodyashchiye</title>
<path class="st0" d="M23.5,35.7c1.1,0.9,2.5,1.4,3.9,1.3c1.5-0.3,2.9-1,4.1-2l3.6-2.8c0.7-0.5,1.6-0.4,2.2,0.2l7.3,8
	c0.5,0.6,0.4,1.5-0.2,2c0,0,0,0,0,0c-2.2,1.9-4.7,4.4-7.6,5.6c-2.4,1-5.4,0.5-7.9-0.2c-1.7-0.5-3.4-1.2-5-2.1
	c-2.2-1.2-4.3-2.7-6.2-4.4C14.2,38,11,34.3,8.4,30.1C7.1,28,6,25.7,5.1,23.3c-0.6-1.7-1-3.5-1.2-5.3c-0.3-2.6-0.3-5.6,1.2-7.8
	C6.9,7.5,9.8,5.5,12,3.7c0.6-0.5,1.5-0.5,2,0.1c0,0,0,0,0.1,0.1l6.6,8.6c0.5,0.7,0.4,1.6-0.2,2.2L17,17.8c-1.2,1-2.1,2.2-2.7,3.7
	c-0.4,1.4-0.2,2.8,0.6,4.1C17.4,29.2,20.3,32.6,23.5,35.7z"/>
<line class="st0" x1="9.2" y1="6.2" x2="17.8" y2="17.1"/>
<line class="st0" x1="41.7" y1="44.8" x2="32.4" y2="34.5"/>
<line class="st0" x1="33.7" y1="11.5" x2="48.2" y2="11.5"/>
<polyline class="st0" points="42.8,16.9 48.2,11.5 42.8,6 "/>
<line class="st0" x1="37.3" y1="22.4" x2="48.2" y2="22.4"/>
<polyline class="st0" points="42.8,27.8 48.2,22.4 42.8,16.9 "/>
</svg>
