<?xml version="1.0" encoding="utf-8"?>
<!-- Generator: Adobe Illustrator 21.1.0, SVG Export Plug-In . SVG Version: 6.00 Build 0)  -->
<svg version="1.1" id="Слой_179" xmlns="http://www.w3.org/2000/svg" xmlns:xlink="http://www.w3.org/1999/xlink" x="0px"
	 y="0px" viewBox="0 0 52 52" style="enable-background:new 0 0 52 52;" xml:space="preserve">
<style type="text/css">
	.st0{fill:none;stroke:#000000;stroke-width:2;stroke-linecap:round;stroke-linejoin:round;}
</style>
<title>TV dlya gostinitsy</title>
<rect x="23.5" y="37.8" class="st0" width="5.1" height="6.7"/>
<path class="st0" d="M8.3,7.5h35.4c2.8,0,5.1,2.3,5.1,5.1v20.2c0,2.8-2.3,5.1-5.1,5.1H8.3c-2.8,0-5.1-2.3-5.1-5.1V12.5
	C3.2,9.7,5.5,7.5,8.3,7.5z"/>
<line class="st0" x1="13.9" y1="44.5" x2="38.1" y2="44.5"/>
<path class="st0" d="M34.5,21.4c0.9,2.1,2.5,1.3,2.5,3.8H15c0-1.9,1.6-1.7,2.5-3.8c1.1-2.2,3.3-3.7,5.8-3.8h5.3
	C31.1,17.7,33.4,19.1,34.5,21.4z"/>
<line class="st0" x1="37" y1="28.5" x2="15" y2="28.5"/>
<line class="st0" x1="26" y1="14.2" x2="26" y2="17.6"/>
<line class="st0" x1="28.1" y1="14.2" x2="23.9" y2="14.2"/>
</svg>
